<?xml version="1.0" standalone="no"?>
<!DOCTYPE svg PUBLIC "-//W3C//DTD SVG 20010904//EN"
 "http://www.w3.org/TR/2001/REC-SVG-20010904/DTD/svg10.dtd">
<svg version="1.0" xmlns="http://www.w3.org/2000/svg"
 width="490.000000pt" height="490.000000pt" viewBox="0 0 490.000000 490.000000"
 preserveAspectRatio="xMidYMid meet">
<metadata>
Created by potrace 1.11, written by Peter Selinger 2001-2013
</metadata>
<g transform="translate(0.000000,490.000000) scale(0.100000,-0.100000)"
fill="#000000" stroke="none">
<path d="M2379 4883 c-44 -11 -566 -303 -966 -539 -106 -63 -148 -87 -149 -83
-1 2 -10 -3 -20 -12 -11 -9 -62 -40 -114 -70 -52 -30 -107 -61 -121 -69 -14
-8 -81 -46 -148 -85 -67 -38 -130 -74 -139 -80 -9 -5 -71 -41 -137 -79 -165
-95 -200 -120 -233 -169 -61 -89 -58 -25 -58 -1283 l1 -1150 24 -35 c22 -32
99 -81 430 -270 44 -25 166 -95 336 -193 44 -25 90 -46 102 -46 54 0 133 42
363 192 283 185 322 215 362 277 57 90 60 116 60 527 1 206 -2 377 -5 380 -3
4 -23 -4 -44 -16 -36 -22 -64 -38 -135 -79 -18 -10 -129 -75 -246 -144 -118
-70 -232 -133 -255 -141 -56 -19 -153 -13 -209 12 -58 25 -123 90 -151 150
-21 46 -22 59 -24 445 l-2 397 -36 42 c-164 193 27 474 267 392 95 -32 160
-127 160 -234 0 -62 -15 -100 -66 -165 l-31 -39 0 -354 c0 -194 3 -356 7 -358
4 -3 63 28 130 68 68 40 128 75 133 77 6 2 27 15 48 28 21 13 53 32 70 42 63
35 313 184 350 207 27 18 37 31 38 52 0 15 0 280 1 589 l0 562 -36 44 c-162
198 25 474 267 391 162 -55 214 -285 90 -400 l-28 -26 -1 -1161 c-1 -639 -4
-1178 -8 -1197 -17 -86 -60 -192 -106 -260 -62 -91 -134 -150 -394 -320 -136
-90 -245 -167 -243 -173 1 -5 131 -84 287 -174 630 -363 598 -346 650 -346 33
0 59 7 86 24 21 13 52 31 67 39 26 14 303 174 339 195 9 5 63 37 120 70 57 33
111 64 120 70 9 5 29 17 45 26 15 8 201 116 413 239 212 123 428 248 480 278
52 30 135 78 183 106 49 28 105 60 125 71 77 43 140 124 157 204 9 44 9 2218
0 2262 -18 81 -76 156 -159 203 -22 13 -149 87 -281 164 -247 143 -556 322
-611 353 -17 9 -62 36 -99 58 -37 23 -68 41 -70 41 -3 0 -514 296 -535 310 -8
6 -21 13 -29 17 -8 3 -62 34 -121 68 -153 89 -205 103 -301 78z m1157 -1329
c42 -18 297 -177 330 -206 11 -10 23 -18 27 -18 4 0 44 -25 89 -55 l82 -55 62
6 c200 21 337 -172 249 -351 -94 -194 -377 -172 -450 34 -7 22 -12 41 -9 43 9
9 -48 50 -252 182 -116 75 -218 136 -227 136 -21 0 -553 -354 -559 -372 -8
-22 -3 -922 5 -934 4 -7 35 -26 69 -44 97 -50 210 -110 243 -130 77 -45 205
-110 216 -110 6 0 122 68 256 151 l243 151 11 44 c16 61 59 117 116 151 41 24
59 28 123 28 83 0 113 -12 169 -65 97 -93 97 -260 -1 -351 -60 -55 -85 -64
-188 -64 l-95 -1 -245 -154 c-135 -85 -267 -162 -294 -171 -79 -27 -151 -19
-248 29 -80 40 -230 118 -353 186 -33 19 -89 49 -124 67 -89 48 -135 91 -168
157 l-28 57 -3 513 c-3 562 -1 586 55 667 20 29 90 82 248 188 305 205 420
277 463 293 51 18 142 17 188 -2z"/>
</g>
</svg>
