<?xml version="1.0" encoding="utf-8"?>
<!-- Generator: Adobe Illustrator 24.0.2, SVG Export Plug-In . SVG Version: 6.00 Build 0)  -->
<svg version="1.1" id="圖層_1" xmlns="http://www.w3.org/2000/svg" xmlns:xlink="http://www.w3.org/1999/xlink" x="0px" y="0px"
	 viewBox="0 0 500 500" style="enable-background:new 0 0 500 500;" xml:space="preserve">
<style type="text/css">
	.st0{fill:#E3D1D1;}
	.st1{fill:#69A4A7;}
	.st2{opacity:0.9;fill:#FFFFFF;enable-background:new    ;}
	.st3{fill:#F5F5F5;}
	.st4{opacity:0.7;fill:#FFFFFF;enable-background:new    ;}
	.st5{opacity:0.8;}
	.st6{opacity:0.8;fill:#69A4A7;enable-background:new    ;}
	.st7{opacity:0.3;fill:#69A4A7;enable-background:new    ;}
</style>
<rect class="st0" width="500" height="500"/>
<g id="freepik--background-simple--inject-2">
	<path class="st1" d="M226.4,332.3c87.4,14.2,194.1,4.8,214.5-94.9c18.5-90.5-64.8-166.1-158.2-137c-40.3,12.6-59.1,51.1-102.4,57.7
		S82,148.7,64.4,204.3C37.1,290.4,168.9,323,226.4,332.3z"/>
	<path class="st2" d="M226.4,332.3c87.4,14.2,194.1,4.8,214.5-94.9c18.5-90.5-64.8-166.1-158.2-137c-40.3,12.6-59.1,51.1-102.4,57.7
		S82,148.7,64.4,204.3C37.1,290.4,168.9,323,226.4,332.3z"/>
</g>
<g id="freepik--Shadow--inject-2">
	<ellipse id="freepik--path--inject-2" class="st3" cx="250" cy="416.2" rx="193.9" ry="11.3"/>
</g>
<g id="freepik--terms-and-conditions--inject-2">
	<path class="st1" d="M413.6,148.2H262.9c0,0-27.1,25-27.1,85.8c0,52.3,20.6,123.1,12.9,152.1c-5.8,21.9-34.1,25.6-47.7,26.2h143.5
		c0,0,47.2,2.9,54.9-26.2s-12.9-99.9-12.9-152.2C386.5,173.2,413.6,148.2,413.6,148.2z"/>
	<path class="st4" d="M413.6,148.2H262.9c0,0-27.1,25-27.1,85.8c0,52.3,20.6,123.1,12.9,152.1c-5.8,21.9-34.1,25.6-47.7,26.2h143.5
		c0,0,47.2,2.9,54.9-26.2s-12.9-99.9-12.9-152.2C386.5,173.2,413.6,148.2,413.6,148.2z"/>
	<g class="st5">
		<path class="st6" d="M372.6,212.3H252.1c3.4-26.7,12.6-42.3,17.7-49.1H386C380.3,175.1,374.9,191.3,372.6,212.3z"/>
		<path class="st7" d="M371.6,226.5H250.9c0.1-2.4,0.2-4.8,0.4-7.1H372C371.8,221.7,371.7,224.1,371.6,226.5z"/>
		<path class="st7" d="M288.8,240.7h-37.9c-0.1-2.3-0.1-4.5-0.1-6.7v-0.4h37.9v0.4C288.7,236.2,288.7,238.4,288.8,240.7z"/>
		<path class="st7" d="M372.4,254.9H251.7c-0.2-2.4-0.4-4.7-0.5-7.1h120.7C372,250.1,372.2,252.5,372.4,254.9z"/>
		<path class="st7" d="M373.7,269H253.2c-0.3-2.4-0.5-4.7-0.8-7.1H373C373.2,264.3,373.4,266.7,373.7,269z"/>
		<path class="st7" d="M375.4,283.2H255c-0.3-2.4-0.6-4.7-0.9-7.1h120.5C374.8,278.5,375.1,280.8,375.4,283.2z"/>
		<path class="st7" d="M377.4,297.4H257c-0.3-2.4-0.7-4.7-1-7.1h120.4C376.7,292.7,377.1,295,377.4,297.4z"/>
		<path class="st7" d="M379.5,311.5H259.2c-0.2-1.3-0.4-2.6-0.6-3.9l-0.5-3.2h120.4C378.8,306.8,379.2,309.2,379.5,311.5z"/>
		<path class="st7" d="M261.3,325.7c-0.3-2.3-0.7-4.7-1-7.1h120.4c0.4,2.4,0.7,4.7,1,7.1H261.3z"/>
		<path class="st7" d="M263.2,339.9c-0.3-2.3-0.6-4.7-0.9-7.1h100.4c0.3,2.4,0.7,4.7,1,7.1H263.2z"/>
		<path class="st7" d="M264.7,354.1c-0.2-2.3-0.4-4.7-0.7-7.1h120.5c0.3,2.4,0.5,4.8,0.7,7.1H264.7z"/>
		<path class="st7" d="M265.4,368.2c0-2.3-0.1-4.6-0.2-7.1h63.6c0.2,2.5,0.3,4.8,0.3,7.1H265.4z"/>
	</g>
	<path class="st1" d="M356,404.7c-7.6,1.4-15.4,0.3-23.1,0c-3.7-0.2-7.4-0.1-11.1,0.3c-3.6,0.5-7.2,1.4-10.8,1.1
		c1.2-0.6,2.3-1.4,3.4-2.3c0.1-0.1,0.1-0.4,0-0.5c0,0-0.1-0.1-0.2-0.1c-11.3-4-21.6,6.8-32.8,4.3c3.2-2.4,7.7-2.4,10.4-5.5
		c0.1-0.2,0.1-0.4,0-0.5c-0.1-0.1-0.2-0.1-0.3-0.1c-10.1-0.2-19.6,3.7-29.6,4.6c-0.5,0-0.5,0.8,0,0.8c9.6-0.8,18.9-4.5,28.6-4.6
		c-2.9,2.6-7.4,2.7-10.3,5.3c-0.1,0.1-0.1,0.4,0,0.5c0,0,0.1,0.1,0.2,0.1c11.3,3.1,21.7-7.7,32.9-4.4c-1.2,0.9-2.4,1.7-3.8,2.3
		c-0.2,0.1-0.2,0.3-0.1,0.5c0,0.1,0.1,0.1,0.2,0.2c3.7,0.6,7.3-0.2,10.9-0.8c4.1-0.6,8.2-0.7,12.3-0.5c7.8,0.4,15.6,1.4,23.3,0
		C356.7,405.3,356.5,404.6,356,404.7z"/>
</g>
</svg>
