<?xml version="1.0" encoding="utf-8"?>
<!-- Generator: Adobe Illustrator 24.0.2, SVG Export Plug-In . SVG Version: 6.00 Build 0)  -->
<svg version="1.1" id="圖層_1" xmlns="http://www.w3.org/2000/svg" xmlns:xlink="http://www.w3.org/1999/xlink" x="0px" y="0px"
	 viewBox="0 0 500 500" style="enable-background:new 0 0 500 500;" xml:space="preserve">
<style type="text/css">
	.st0{fill:#E3D6D1;}
	.st1{fill:#F5F5F5;}
	.st2{fill:#E0E0E0;}
	.st3{fill:#EBEBEB;}
	.st4{fill:#455A64;}
	.st5{fill:#FFFFFF;}
	.st6{fill:#69A4A7;}
	.st7{opacity:0.1;}
	.st8{fill:#37474F;}
	.st9{opacity:0.1;enable-background:new    ;}
	.st10{fill:#FAFAFA;}
	.st11{opacity:5.000000e-02;enable-background:new    ;}
	.st12{fill:#263238;}
	.st13{opacity:0.4;fill:#FFFFFF;enable-background:new    ;}
	.st14{opacity:0.15;enable-background:new    ;}
	.st15{opacity:0.5;fill:#37474F;enable-background:new    ;}
	.st16{fill:#B16668;}
	.st17{opacity:0.35;}
	.st18{fill:#9A4A4D;}
	.st19{opacity:0.2;enable-background:new    ;}
	.st20{fill:#FFA8A7;}
	.st21{fill:#F28F8F;}
</style>
<rect class="st0" width="500" height="500"/>
<g id="freepik--Floor--inject-2">
	<path id="freepik--floor--inject-2" class="st1" d="M96.1,443.6c86.1,45,225.6,45,311.7,0s86.1-117.9,0-162.8s-225.6-45-311.7,0
		S10.1,398.6,96.1,443.6z"/>
</g>
<g id="freepik--Shadows--inject-2">
	<ellipse id="freepik--Shadow--inject-2" class="st2" cx="329.5" cy="384.8" rx="40.9" ry="23.6"/>
	<ellipse id="freepik--shadow--inject-2" class="st2" cx="404.2" cy="346.8" rx="36.2" ry="20.9"/>
</g>
<g id="freepik--Clouds--inject-2">
	<g id="freepik--clouds--inject-2">
		<path class="st3" d="M372.1,78.8l6.4,3.7c0-0.3-0.1-0.6-0.1-0.8v-1.8c0-3.3,2.3-4.6,5.2-3c1.2,0.8,2.3,1.8,3.1,3
			c0.5-4.2,3.7-5.7,7.7-3.4c4.6,3,7.4,7.9,7.7,13.4v2.8c0,1.1-0.2,2.2-0.6,3.2l5.3,3.1c1.7,1.1,2.8,3,2.9,5c0,1.8-1.3,2.6-2.9,1.7
			l-34.6-20c-1.7-1.1-2.8-3-2.9-5C369.2,78.7,370.5,77.9,372.1,78.8z"/>
		<path class="st3" d="M344.7,97.5l4.8,2.8c0-0.2,0-0.4,0-0.6v-1.4c0-2.5,1.8-3.5,3.9-2.3c0.9,0.6,1.7,1.3,2.3,2.2
			c0.4-3.1,2.8-4.3,5.8-2.6c3.4,2.2,5.6,6,5.8,10.1v2.1c0,0.8-0.1,1.7-0.5,2.4l4,2.3c1.3,0.8,2.1,2.2,2.2,3.8c0,1.4-1,1.9-2.2,1.3
			l-26.1-15.1c-1.3-0.8-2.1-2.2-2.2-3.7C342.6,97.3,343.5,96.8,344.7,97.5z"/>
	</g>
</g>
<g id="freepik--Plants--inject-2">
	<g id="freepik--plants--inject-2">
		<path class="st4" d="M78.5,395.8c-0.6,0.3-12.4,3.7-16.8-2.1s2.9-14.7-1.2-18s-15.5,0-18.3-7s5.4-10,0.8-17
			c-2.9-4.4-11-6.9-10.6-11c0.5-6,11.6-7.6,21.3-1.2s14.2,1.2,17.3,0.7s9.7,0.5,9.5,11.3S78.5,395.8,78.5,395.8z"/>
		<path class="st5" d="M79.3,380.5c-0.3,0-0.6-0.2-0.6-0.5c-3.4-20.5-27.2-37.1-39.5-40.7c-0.3-0.1-0.5-0.5-0.4-0.8
			c0.1-0.3,0.5-0.5,0.8-0.4c0,0,0,0,0,0c12.6,3.6,37,20.7,40.4,41.7c0.1,0.3-0.2,0.7-0.5,0.7L79.3,380.5z"/>
		<path class="st5" d="M51.2,363.3c-0.2,0-0.4-0.1-0.5-0.3c-0.2-0.3-0.1-0.7,0.2-0.9c0.4-0.2,9.5-5.6,18.5-3.1
			c0.3,0.1,0.5,0.4,0.5,0.8c0,0,0,0,0,0c-0.1,0.3-0.4,0.5-0.8,0.5c0,0,0,0,0,0c-8.5-2.4-17.5,2.9-17.5,2.9
			C51.5,363.3,51.3,363.3,51.2,363.3z"/>
	</g>
	<g id="freepik--plants--inject-2_1_">
		<path class="st6" d="M423.1,341.5L420,340c0,0-1-11.2,0-18.7c2-13.9,11.7-25.9,20.4-27.3c11.1-1.8,9.2,8.4,2.8,12.9
			C433,314,425.1,324.7,423.1,341.5z"/>
		<g class="st7">
			<path d="M423.1,341.5L420,340c0,0-1-11.2,0-18.7c2-13.9,11.7-25.9,20.4-27.3c11.1-1.8,9.2,8.4,2.8,12.9
				C433,314,425.1,324.7,423.1,341.5z"/>
		</g>
		<path class="st5" d="M421.9,337L421.9,337c0.4-0.1,0.6-0.3,0.5-0.6c-2.2-11.4,7.3-32.6,19.8-38.6c0.3-0.1,0.4-0.5,0.3-0.7
			c-0.1-0.3-0.5-0.4-0.7-0.3l0,0c-13,6.2-22.7,28-20.4,39.8C421.4,336.8,421.6,337,421.9,337z"/>
		<path class="st6" d="M420,340c-0.2-1.7-0.3-4.1-0.4-4.7c-0.1-2.1,0.2-4.2,0.9-6.2c1-2.6,2.8-4.8,5.2-6.3c1.3-0.8,2.8-1.3,3.7-2.5
			c0.6-1.1,0.9-2.4,1-3.7c0.3-2.1,0.9-4.3,2.6-5.6s4-1.3,6-1.1c3,0.3,5.8,0.7,8.6-0.6c2.2-1.2,4.5-2.2,6.9-3.1c3-1,9.7-2.5,11.1,1.7
			c0.3,1.2,0.1,2.4-0.6,3.4c-0.7,1-1.6,1.8-2.5,2.6l-4.7,3.9c-0.6,0.4-1,0.9-1.4,1.5c-0.9,1.6-0.3,3.5-0.5,5.3
			c-0.3,1.8-1.3,3.5-2.9,4.5c-1.6,1-3.4,1.4-5.2,1.3c-2.5-0.2-6.5-2-8,0.8c-0.4,1-0.7,2-0.7,3.1c-0.1,1.1-0.4,2.1-1,3
			c-1,1.2-2.7,1.6-4.2,1.7c-2.2,0-4.4,0.4-6.5,1c-0.8,0.3-1.4,1.4-1.9,2.1C424,341.6,422.3,341,420,340z"/>
		<path class="st5" d="M421.4,339.2c-0.1,0-0.2,0-0.2,0c-0.3-0.1-0.4-0.4-0.3-0.7c6.3-15.6,26.4-26.9,38.4-30.6
			c0.3-0.1,0.5,0.1,0.6,0.3c0,0,0,0,0,0c0.1,0.3-0.1,0.5-0.3,0.6c-11.8,3.7-31.6,14.7-37.7,30C421.7,339,421.6,339.2,421.4,339.2z"
			/>
	</g>
</g>
<g id="freepik--Pen--inject-2">
	<g id="freepik--pen--inject-2">
		<path class="st6" d="M278.8,311.2c0.2,3.9,2.3,7.6,5.6,9.7c0.9,0.6,2.1,0.9,3.2,0.7c-0.2,0.2-0.4,0.3-0.6,0.5l1.4-0.8l0.1,0
			l0.2-0.1c0.1-0.1,0.2-0.1,0.3-0.2l0.1-0.1l0,0c0,0,0.1-0.1,0.1-0.2c0.2-0.3,0.3-0.5,0.5-0.8l0.1-0.3c0,0,0-0.1,0-0.1
			c0-0.1,0-0.2,0.1-0.2c0.1-0.5,0.2-0.9,0.1-1.4c-0.2-3.9-2.3-7.5-5.6-9.7c-0.8-0.5-1.6-0.7-2.5-0.8l0,0h-0.4l-0.3,0.1l-0.2,0h-0.1
			c-0.1,0-0.2,0.1-0.2,0.1l0,0l-0.2,0.1l-1.2,0.7c0.2-0.1,0.4-0.2,0.6-0.2C279.1,308.9,278.8,310,278.8,311.2z M288.1,321.5h0.1
			H288.1z"/>
		<path class="st3" d="M162.4,375.7l7.9,13.7l1.3-0.8l115.4-66.6c0.2-0.1,0.4-0.3,0.6-0.5c0.7-0.9,1.1-2,1-3.1
			c-0.2-3.9-2.3-7.5-5.6-9.7c-0.8-0.5-1.6-0.7-2.5-0.8c-0.2,0-0.5,0-0.7,0.1c-0.2,0-0.4,0.1-0.6,0.2l-0.1,0l0,0l0,0L162.4,375.7z"/>
		<path class="st6" d="M166.4,376.1c-3.1-1.8-5.6-0.3-5.6,3.2c0.2,3.9,2.3,7.6,5.6,9.7c3.1,1.8,5.6,0.3,5.6-3.2
			C171.8,381.9,169.7,378.3,166.4,376.1z"/>
		<path class="st2" d="M154.4,384.4c0-0.1,0.1-0.1,0.1-0.2l7.1-7.9l0,0l0.1-0.1l0.1-0.1l0.1-0.1l0,0c1-1,2.6-1.1,4.5,0
			c3.3,2.2,5.4,5.8,5.6,9.7c0,2.1-0.9,3.4-2.2,3.9l0,0h-0.1c-0.1,0-0.3,0.1-0.4,0.1h-0.1l0,0l-10.4,2.3c-0.6,0.1-1.3,0-1.8-0.4
			c-1.9-1.2-3.1-3.3-3.2-5.5C153.8,385.5,154,384.9,154.4,384.4z"/>
		<path class="st4" d="M246,333.4L246,333.4l0.2-0.1c0.4-0.1,0.9-0.1,1.3,0.2c1.2,0.8,1.9,2,2,3.5c0,0.5-0.1,0.9-0.5,1.2l0,0
			l-0.3,0.1l-85.2,49.2l-5.6-3.2L246,333.4z"/>
		<path class="st8" d="M171.5,382.9l-7.9,4.6l-5.6-3.2l10.7-6.2C170,379.4,170.9,381.1,171.5,382.9z"/>
		<path class="st6" d="M151.5,388.2L151.5,388.2l6.5-7.2l0.2-0.2c0.7-0.7,1.9-0.8,3.2,0c2.4,1.5,3.8,4.1,4,6.9
			c0,1.5-0.6,2.4-1.5,2.7h-0.1l-0.3,0.1l-9.5,2.1l0,0c-0.3,0-0.7,0-1-0.2c-1.1-0.7-1.7-1.9-1.8-3.1
			C151.2,388.8,151.3,388.5,151.5,388.2z"/>
		<path class="st9" d="M151.5,388.2L151.5,388.2l6.5-7.2l0.2-0.2c0.7-0.7,1.9-0.8,3.2,0c2.4,1.5,3.8,4.1,4,6.9
			c0,1.5-0.6,2.4-1.5,2.7h-0.1l-0.3,0.1l-9.5,2.1l0,0c-0.3,0-0.7,0-1-0.2c-1.1-0.7-1.7-1.9-1.8-3.1
			C151.2,388.8,151.3,388.5,151.5,388.2z"/>
		<path class="st6" d="M151.2,389.2c0.1,1.3,0.7,2.4,1.8,3.1c0.3,0.2,0.7,0.3,1,0.2l0,0l4.8-1c0.8-0.2,1.3-0.9,1.3-2
			c-0.1-2-1.2-3.9-2.9-5c-0.7-0.5-1.6-0.5-2.3,0l-0.1,0.1l-3.2,3.5l0,0C151.2,388.5,151.1,388.8,151.2,389.2z"/>
		<path class="st9" d="M153,388.2c-1-0.6-1.8-0.1-1.8,1c0.1,1.3,0.7,2.4,1.8,3.1c1,0.6,1.8,0.1,1.8-1C154.7,390,154,388.8,153,388.2
			z"/>
		<path class="st10" d="M267.2,321.1c0.5-0.2,1-0.2,1.4,0.1c1.2,0.8,1.9,2,2,3.4c0.1,0.5-0.2,1-0.6,1.3l0,0l-21,12.1
			c0.3-0.3,0.5-0.7,0.5-1.2c-0.1-1.4-0.8-2.7-2-3.5c-0.4-0.3-0.9-0.3-1.3-0.2L267.2,321.1z"/>
		<path class="st1" d="M266.6,322.4c0.1,1.4,0.8,2.7,2,3.4c0.5,0.5,1.3,0.4,1.7-0.1c0.3-0.3,0.4-0.7,0.3-1.1c-0.1-1.4-0.8-2.7-2-3.4
			c-0.5-0.5-1.3-0.4-1.7,0.1C266.6,321.7,266.5,322.1,266.6,322.4L266.6,322.4z"/>
		<path class="st6" d="M271,314L271,314L271,314l0.1,0l8.3-4.8l0.2-0.1l0,0l0,0c1.1-0.4,2.4-0.3,3.4,0.4c3,1.9,4.8,5.2,5,8.7
			c0.1,1.3-0.4,2.5-1.5,3.3l0,0l-8.4,4.8l0,0h0l0,0c-1.2,0.5-2.5,0.3-3.5-0.4c-3-2-4.8-5.2-5-8.7C269.5,316,270,314.8,271,314z"/>
		<path class="st11" d="M271,314L271,314L271,314l0.1,0l8.3-4.8l0.2-0.1l0,0l0,0c1.1-0.4,2.4-0.3,3.4,0.4c3,1.9,4.8,5.2,5,8.7
			c0.1,1.3-0.4,2.5-1.5,3.3l0,0l-8.4,4.8l0,0h0l0,0c-1.2,0.5-2.5,0.3-3.5-0.4c-3-2-4.8-5.2-5-8.7C269.5,316,270,314.8,271,314z"/>
		<path class="st9" d="M274.7,314.2c-2.8-1.6-5-0.3-5,2.9c0.2,3.5,2,6.8,5,8.7c2.8,1.6,5,0.3,5-2.9
			C279.5,319.4,277.7,316.2,274.7,314.2z"/>
		<path class="st4" d="M148.9,391.2L148.9,391.2l3.4-2.1l0,0c0.2-0.1,0.5-0.1,0.7,0c0.6,0.3,0.9,0.9,0.9,1.6c0,0.2-0.1,0.5-0.3,0.6
			l0,0l-3.4,2.1l0,0c-0.2,0.1-0.4,0.2-0.6,0.2c-0.7,0-1.3-0.6-1.3-1.3C148.3,391.8,148.5,391.4,148.9,391.2z"/>
		<path class="st12" d="M148.7,391.3L148.7,391.3l0.2-0.1l0,0c0.2-0.1,0.4,0,0.6,0.1c0.5,0.4,0.9,0.9,0.9,1.6c0,0.2-0.1,0.5-0.3,0.6
			H150H150c-0.1,0.1-0.3,0.1-0.4,0.1c-0.7,0-1.3-0.6-1.3-1.3C148.3,391.9,148.4,391.6,148.7,391.3z"/>
	</g>
</g>
<g id="freepik--Agreement--inject-2">
	<g id="freepik--Contract--inject-2">
		<path class="st6" d="M82.7,400.3l-3.5-2c-1.2-0.8-1.9-2-2-3.5V136.3c0.1-1.4,0.8-2.7,2-3.4l160.4-92.6c1.3-0.6,2.7-0.6,4,0l3.5,2
			c1.2,0.8,1.9,2,2,3.5v258.6c-0.1,1.4-0.8,2.7-2,3.5L86.7,400.3C85.4,400.9,83.9,400.9,82.7,400.3z"/>
		<path class="st13" d="M249,45.4c-0.1-1-1-1.4-2-0.8L86.7,137.1c-0.6,0.4-1.1,0.9-1.4,1.5l-7.5-4.3c0.3-0.6,0.8-1.1,1.4-1.5
			l160.4-92.6c1.3-0.6,2.7-0.6,4,0l3.5,2C248.1,42.9,248.8,44.1,249,45.4z"/>
		<path class="st14" d="M86.3,400.5c0,0-0.1,0-0.1,0l-0.2,0.1h-0.1c-0.1,0-0.2,0.1-0.4,0.1l0,0c-0.8,0.1-1.6,0.1-2.4-0.2
			c-0.2-0.1-0.3-0.1-0.4-0.2l-3.5-2c-1.2-0.8-1.9-2-2-3.5V136.3c0-0.7,0.2-1.4,0.6-2l7.5,4.3c-0.4,0.6-0.6,1.3-0.6,2v258.6
			c0,0.4,0.1,0.7,0.3,1c0.3,0.3,0.7,0.5,1.1,0.3C86.1,400.5,86.2,400.5,86.3,400.5z"/>
		<path class="st4" d="M198.9,87.8l-0.3-0.2l-3.3-1.9c-1.2-0.7-2.5-1.1-3.9-1.4c-0.6-0.1-1.1-0.3-1.5-0.4c-0.5-0.2-1-0.4-1.5-0.6
			l0.2-0.3l0,0l-3.7-2.2l0,0c-0.3-0.2-0.7-0.3-1-0.4c-1.4-0.3-3.5,0.5-5.6,0.2c-1.5-0.2-2.9-1-3.8-2.3c-1.3-1.7-2.1-4.7-3.2-7.2
			l1-1.4c-0.1-0.1-0.2-0.1-0.3-0.2l-3.4-2c-0.6-0.3-1.2-0.5-1.9-0.5c-1.3,0.1-2.5,0.5-3.6,1.2c-8.2,4.8-8.5,16-11.4,23.4
			s-7.1,9.7-9.4,12.9s-2.4,5.6-7.5,12.5s-5.3,8.7-5.3,10v10.4l3.7,2.2l67.2-38.8L198.9,87.8z M137.3,127.8c-0.9,0.5-1.6-0.2-1.6-1.5
			c0-1.3,0.6-2.6,1.6-3.4c0.9-0.5,1.6,0.2,1.6,1.5C138.9,125.8,138.3,127,137.3,127.8L137.3,127.8z M166.8,98.7
			c-1.5,1.1-3.6,0.8-4.7-0.7c-0.2-0.3-0.3-0.5-0.4-0.8c-2.6,0.5-4.6-2-4.6-6.3c0-5.1,2.7-10.8,6-12.7c1.5-1.1,3.6-0.8,4.7,0.7
			c0.2,0.3,0.3,0.5,0.4,0.8c2.6-0.5,4.5,2,4.5,6.3C172.8,91.1,170.1,96.8,166.8,98.7L166.8,98.7z M189.2,97.9
			c-0.9,0.5-1.6-0.2-1.6-1.5c0-1.3,0.6-2.6,1.6-3.4c0.9-0.5,1.6,0.2,1.6,1.5C190.8,95.8,190.2,97.1,189.2,97.9L189.2,97.9z"/>
		<path class="st15" d="M137,129.7l-7.2-4.2c-0.2,0.5-0.2,1.1-0.2,1.6v10.4l3.7,2.2l3.7-2.2V129.7z"/>
		<path class="st15" d="M144.4,116.7l3.7-8.6l-5.9-3.5l0,0c-1.7,2.4-2.3,4.4-4.6,8.2L144.4,116.7z"/>
		<path class="st15" d="M159.4,99.5l0.5-2.5c-1.6-0.7-2.8-2.9-2.8-6.2c0-4.3,1.9-9.1,4.6-11.6l-5.2-3c-2.2,5-3,11-4.8,15.5
			c-0.4,1-0.8,1.8-1.2,2.6L159.4,99.5z"/>
		<path class="st8" d="M198.9,87.8l-0.3-0.2c-1.1-0.5-2.3-0.9-3.4-1.1c-2-0.3-3.8-1.2-5.3-2.5c-0.4-0.3-0.8-0.6-1.2-0.9
			c-0.3-0.2-0.6-0.3-1-0.4c-2.3-0.6-6.4,1.9-9.3-1.9c0,0-0.1-0.1-0.1-0.1c-2.1-2.8-2.8-9-5.9-10.8c-0.1-0.1-0.2-0.1-0.3-0.2
			c-1.3-0.6-2.9-0.5-5.2,0.8c-8.2,4.8-8.5,16-11.4,23.4s-7.1,9.7-9.4,12.9s-2.4,5.6-7.5,12.5s-5.2,8.7-5.2,10v10.4l67.2-38.8V90.4
			C200.6,89.3,199.9,88.3,198.9,87.8z M141,130c-0.9,0.5-1.6-0.2-1.6-1.5c0-1.3,0.6-2.6,1.6-3.4c0.9-0.5,1.6,0.2,1.6,1.5
			C142.6,127.9,142,129.2,141,130z M166.8,98.7c-1.5,1.1-3.6,0.8-4.7-0.7c-0.2-0.3-0.3-0.5-0.4-0.8c-0.6-1.3-0.9-2.7-0.8-4.2
			c0-5.1,2.7-10.8,6-12.7c0.4-0.3,0.9-0.5,1.4-0.6c2.6-0.5,4.5,2,4.5,6.3C172.8,91.1,170.1,96.8,166.8,98.7L166.8,98.7z M192.9,100
			c-0.9,0.5-1.6-0.2-1.6-1.5c0-1.3,0.6-2.6,1.6-3.4c0.9-0.5,1.6,0.2,1.6,1.5C194.5,98,193.9,99.2,192.9,100z"/>
		<path class="st12" d="M172.8,86c0,5.1-2.7,10.8-6,12.7c-1.5,1.1-3.6,0.8-4.7-0.7c-0.2-0.3-0.3-0.5-0.4-0.8c0.5-0.1,1-0.3,1.4-0.6
			c3.3-1.9,6-7.6,6-12.7c0-1.4-0.2-2.9-0.8-4.2C170.9,79.2,172.8,81.7,172.8,86z"/>
		<path class="st12" d="M141,130c-0.9,0.5-1.6-0.2-1.6-1.5c0-1.3,0.6-2.6,1.6-3.4c0.9-0.5,1.6,0.2,1.6,1.5
			C142.6,127.9,142,129.2,141,130"/>
		<path class="st12" d="M192.9,100c-0.9,0.5-1.6-0.2-1.6-1.5c0-1.3,0.6-2.6,1.6-3.4c0.9-0.5,1.6,0.2,1.6,1.5
			C194.5,98,193.9,99.2,192.9,100"/>
		<path class="st1" d="M97.1,161.3l139.6-80.6c0.8-0.4,1.6-0.4,2.4,0l1.4,0.8c0.7,0.5,1.1,1.2,1.2,2.1v212.9c0,0.8-0.5,1.6-1.2,2.1
			l-139.6,80.6c-0.8,0.4-1.6,0.4-2.4,0l-1.3-0.8c-0.7-0.5-1.2-1.2-1.2-2.1V163.4C95.9,162.6,96.4,161.8,97.1,161.3z"/>
		<path class="st10" d="M241.5,83.2c-0.1-0.5-0.6-0.7-1.1-0.3l-139.6,80.6c-0.4,0.2-0.7,0.5-0.8,0.9l-3.7-2.1
			c0.2-0.4,0.5-0.7,0.8-0.9l139.6-80.6c0.8-0.4,1.6-0.4,2.4,0l1.4,0.8C241,81.9,241.4,82.5,241.5,83.2z"/>
		<path class="st2" d="M100.5,379.3c-0.1,0.1-0.3,0.1-0.4,0.1h-0.2c-0.2,0-0.5,0-0.7,0c-0.1,0-0.3-0.1-0.4-0.1l-0.3-0.1l-1.3-0.8
			c-0.7-0.5-1.1-1.2-1.2-2.1V163.4c0-0.4,0.1-0.8,0.3-1.2l3.7,2.1c-0.2,0.4-0.3,0.8-0.3,1.2v212.9C99.6,379.2,100,379.5,100.5,379.3
			z"/>
		<path class="st4" d="M210.1,110.9l-3.7-2.2c-1.2-0.6-2.6-0.5-3.7,0.1c-4.3,1.9-6.2,2.8-8.5,3.7l-1.6,0.7c-0.9,0.3-2.6,0.1-2.1-3
			l5.8-15.5h-0.1l-3.6-2.1c-0.2-0.1-0.4-0.2-0.6-0.2c-0.1,0-0.3,0-0.4,0c-2.4-0.1-3-15.3-3.1-15.8l0,0l-0.2-0.1l-3.6-2.1
			c-0.6-0.4-1.3-0.5-2.1-0.5c-1.2,0.1-2.4,0.4-3.4,1c-5.7,3-11.4,11.8-12.8,19.7c-0.9,5-5.9,12.7-8.8,15.5s-3.1,5.2-3.1,5.2
			l-2.3,12.8l-0.7,4.1c-0.5,3.1-3.7,6-3.7,6l-11.7,8.7c-7.3,6.1-9.4,12.2-10.8,19.8v0.1c0,0.3,0,0.4,0.1,0.5c0,0,0.1,0,0.1,0l0,0
			l1.5-0.9l80.6-46.5c0.4-0.3,0.6-0.7,0.7-1.1l0,0l0,0C208.8,116.2,210.2,111,210.1,110.9L210.1,110.9z M186.8,87.4
			c-0.9,4.9-4.4,10.3-7.9,12.1c-2.4,1.3-4.2,0.5-4.8-1.7c-0.9,0.3-1.9,0.2-2.6-0.3c-1.1-0.9,9.1-18.5,10-18.1
			c0.8,0.4,1.4,1.2,1.6,2.1C186,80.6,187.6,83,186.8,87.4z"/>
		<path class="st15" d="M137,155.6l-5.9-3.4c-3.4,4.5-4.8,9.2-5.8,14.7v0.1c0,0.3,0,0.4,0.1,0.5c0,0,0.1,0,0.1,0l0,0l4.6-3.7
			L137,155.6z"/>
		<path class="st15" d="M151.1,133.5l8.3,4.8l3.7-21.6l-7.5-4.3c-0.6,0.9-1,1.8-1.2,2.8l-2.3,12.8l-0.7,4.1
			C151.4,132.7,151.3,133.1,151.1,133.5z"/>
		<path class="st15" d="M170.3,84.2c-1.9,3.2-3.2,6.7-3.9,10.3c-0.6,2.6-1.6,5-2.9,7.3l7.1,4.1l3.5-8.2c-0.9,0.3-1.8,0.2-2.5-0.4
			c-0.6-0.5,1.9-5.3,4.5-9.9L170.3,84.2z"/>
		<path class="st8" d="M210.2,110.9L210.2,110.9c-1.2-0.6-2.6-0.5-3.8,0.1c-5.3,2.3-6.9,3.1-10.1,4.4c-0.8,0.3-2.6,0.1-2.1-2.8
			c0-0.1,0-0.1,0-0.2l0.7-4.1l2-11.2c0,0,0.5-1.8-0.7-2.4h-0.1c-0.3-0.1-0.6-0.2-0.9-0.2c-1.4-0.2-2.6-0.9-3.3-2.1
			c-1.3-1.9-1.7-4.2-1.3-6.4c0.9-4.8-0.1-8.2-2.2-9.4l-0.2-0.1c-1.4-0.7-3.2-0.6-5.4,0.5c-5.7,3-11.4,11.8-12.8,19.7
			c-0.9,5-5.9,12.7-8.8,15.5s-3.1,5.2-3.1,5.2l-2.2,12.7l-0.7,4.1c-0.5,3.1-3.7,6-3.7,6l-11.7,8.8c-4.7,3.7-8,8.8-9.6,14.6
			c0,0-4.4,3.4-4.7,3.7l0,0l1.5-0.9l80.8-46.4c0,0,0.9-0.5,1.1-0.6s3.5-3.2,3.5-3.2C212.3,113.6,211.5,111.8,210.2,110.9z
			 M186.8,87.4c-0.9,4.9-4.4,10.3-7.9,12.1c-2.4,1.3-4.2,0.5-4.8-1.7c-0.3-1.2-0.3-2.5,0-3.8c0.9-4.9,4.4-10.3,7.9-12.1
			c0.3-0.2,0.7-0.3,1-0.4C186,80.6,187.6,83,186.8,87.4z"/>
		<path class="st12" d="M186.8,87.4c-0.9,4.9-4.4,10.3-7.9,12.1c-2.4,1.3-4.2,0.5-4.8-1.7c0.3-0.1,0.7-0.3,1-0.4
			c3.5-1.8,7-7.3,7.9-12.2c0.3-1.2,0.3-2.5,0-3.8C186,80.6,187.6,83,186.8,87.4z"/>
		<path class="st12" d="M183.5,81.6L183.5,81.6c0.7,0,1.3,0.3,1.7,0.8c1.4,2.1,0.1,7.3-0.5,9c-0.8,2.3-6.3,7.8-7.7,7.8
			c-1-0.2-1.9-0.7-2.4-1.6c-0.2-1.2-0.2-2.4,0-3.6c0.9-4.8,4.3-10.2,7.8-12c0.3-0.2,0.6-0.3,0.9-0.4L183.5,81.6 M183.5,81.4h-0.4
			c-0.3,0.1-0.7,0.3-1,0.4c-3.5,1.8-7,7.3-7.9,12.1c-0.3,1.2-0.3,2.5,0,3.8c0.6,0.9,1.6,1.5,2.6,1.7l0,0c1.6,0,7.1-5.5,7.9-8
			S187.6,81.4,183.5,81.4L183.5,81.4z"/>
		<path class="st12" d="M125.6,167.4l82.3-47.3l1.1-0.6c0.2-0.1,3.4-3.2,3.4-3.2l-82.2,47.5C130.2,163.7,125.2,167.6,125.6,167.4z"
			/>
		<path class="st2" d="M114.5,200.6v1.9c0,1,0.7,1.4,1.6,0.9L225,140.5c0.9-0.6,1.5-1.6,1.6-2.8v-1.9c0-1-0.7-1.4-1.6-0.9
			l-108.9,62.9C115.2,198.4,114.6,199.5,114.5,200.6z"/>
		<path class="st2" d="M114.5,211.9v1.9c0,1,0.7,1.4,1.6,0.9L225,151.8c0.9-0.6,1.5-1.6,1.6-2.8v-1.9c0-1-0.7-1.4-1.6-0.9
			l-108.9,62.9C115.2,209.8,114.6,210.8,114.5,211.9z"/>
		<path class="st2" d="M114.5,223.1v1.9c0,1,0.7,1.4,1.6,0.9L225,163.1c0.9-0.6,1.5-1.6,1.6-2.8v-1.9c0-1-0.7-1.4-1.6-0.9
			l-108.9,62.9C115.2,221,114.6,222,114.5,223.1z"/>
		<path class="st2" d="M114.5,248.1v1.9c0,1,0.7,1.4,1.6,0.9L225,188c0.9-0.6,1.5-1.6,1.6-2.8v-1.9c0-1-0.7-1.4-1.6-0.9l-108.9,62.8
			C115.2,245.9,114.6,246.9,114.5,248.1z"/>
		<path class="st2" d="M114.5,259.4v1.9c0,1,0.7,1.4,1.6,0.9L225,199.3c0.9-0.6,1.5-1.6,1.6-2.8v-1.9c0-1-0.7-1.4-1.6-0.9
			l-108.9,62.9C115.2,257.2,114.6,258.2,114.5,259.4z"/>
		<path class="st2" d="M114.5,270.6v1.9c0,1,0.7,1.4,1.6,0.9L225,210.5c0.9-0.6,1.5-1.6,1.6-2.8v-1.9c0-1-0.7-1.4-1.6-0.9
			l-108.9,62.9C115.2,268.5,114.6,269.5,114.5,270.6z"/>
		<path class="st2" d="M114.5,295.5v1.9c0,1,0.7,1.4,1.6,0.9L225,235.4c0.9-0.6,1.5-1.6,1.6-2.8v-1.9c0-1-0.7-1.4-1.6-0.9
			l-108.9,62.9C115.2,293.4,114.6,294.4,114.5,295.5z"/>
		<path class="st2" d="M114.5,306.8v1.9c0,1,0.7,1.4,1.6,0.9L225,246.7c0.9-0.6,1.5-1.6,1.6-2.8v-1.9c0-1-0.7-1.4-1.6-0.9L116.1,304
			C115.2,304.7,114.6,305.7,114.5,306.8z"/>
		<path class="st2" d="M114.5,318v1.9c0,1,0.7,1.4,1.6,0.9L225,258c0.9-0.6,1.5-1.6,1.6-2.8v-1.9c0-1-0.7-1.4-1.6-0.9l-108.9,62.9
			C115.2,315.9,114.6,316.9,114.5,318z"/>
		<polygon class="st2" points="170.6,319.6 226.6,287.2 226.6,288.3 170.6,320.6 		"/>
		<path class="st4" d="M183.6,302.8c2.3-1.6,4.9-4.2,4.5-7.3c-0.3-1.9-1.8-2.6-3.5-2c-3.4,1.3-5.6,6.4-6.8,9.5
			c-1,2.7-2.4,7.8,1.7,8.7c4.8,1,8.5-6,9.5-9.6c0.1-0.5-0.7-0.8-0.9-0.3c-0.4,0.8-3.2,6.3-0.1,5.6c1.1-0.2,1.7-2,2.1-2.8
			c0.7-1.6,1.1-3.7,2.1-5.1l-0.8-0.4c0.1,1.4,0,2.4,1,3.5c0.2,0.2,0.5,0.3,0.7,0.1c1.6-1.5,1.7-3.9,3.4-5.2l-0.7-0.3
			c0,0.5-0.2,1.8-0.2,2.4c0,0.3,0.4,0.5,0.6,0.4c0.5-0.1,0.8-0.4,1-0.9l-0.8-0.3c0.7,3.5,3.7,0,4.7-1.3c3-4,5.1-8.3,5.2-13.4
			c0-0.4-0.8-0.6-0.8-0.1c-0.1,3.9-1.8,7.5-2.9,11.3c-1.2,4-2.2,8.1-3,12.2l0.7,0.3c0.2-2.9,1-5.8,2.2-8.4c0.8-2.4,2.1-4.5,3.8-6.3
			l-0.7-0.3c0.4,2.1-0.2,4.2-1.6,5.8c-0.2,0.3,0.3,0.8,0.5,0.5c1.1-1.4,2.9-1.8,4.1-3.2c1.1-1.5,2.1-3.1,2.9-4.8l-0.5-0.3
			c-0.1,3.4,3.1-1.9,3.5-2.4l-0.5-0.2c0.2,0.7,0.5,1.1,1.3,1.2c1.6,0,2.1-2.3,3.3-2.5c0,0,0.5,0.4,0.7,0.5c0.6,0.1,1.3,0,1.9-0.4
			c1.3-0.8,2.4-2,3.1-3.4c0.2-0.3-0.4-0.7-0.6-0.4c-0.8,1.3-3.2,4.8-4.9,3.1c-0.1-0.1-0.3-0.2-0.5-0.1c-0.5,0.6-3.2,3.7-3.7,2
			c-0.1-0.2-0.4-0.4-0.5-0.2c-0.4,0.5-0.7,1.1-1.1,1.7c-0.2,0.3-1.4,2.3-1.3,1.3c0-0.2-0.4-0.5-0.5-0.3c-1.1,1.7-1.9,3.9-3.4,5.2
			c-1.1,1-2.6,1.4-3.6,2.6l0.5,0.5c1.5-1.7,2.2-4,1.8-6.3c0-0.2-0.3-0.4-0.5-0.3c-0.1,0-0.1,0-0.2,0.1c-1.9,1.7-2.9,4.1-3.9,6.5
			c-1.2,2.7-2,5.6-2.2,8.6c0,0.3,0.6,0.7,0.7,0.3c0.8-4.4,1.9-8.8,3.3-13.2c1.1-3.5,2.6-6.8,2.7-10.5l-0.8-0.1
			c-0.1,3.8-1.3,7.6-3.5,10.7c-0.6,0.9-1.1,1.7-1.8,2.6c-0.3,0.4-2.8,3.6-3.1,1.7c-0.1-0.3-0.6-0.6-0.8-0.3l-0.7,0.6l0.6,0.4
			c0.1-0.8,0.2-1.6,0.3-2.4c0-0.3-0.5-0.5-0.7-0.3c-1.8,1.4-1.9,3.7-3.5,5.2l0.7,0.1c-0.5-0.9-0.8-1.9-0.8-3c0-0.4-0.5-0.7-0.8-0.4
			c-1.2,1.5-1.6,3.8-2.4,5.5c-0.4,0.9-2,3.4-1.5,0.8c0.3-1.1,0.8-2.1,1.4-3.1l-0.9-0.3c-0.9,3.2-3.4,8-6.9,9
			c-4.4,1.3-3.6-4.1-2.8-6.5c1-2.8,2.4-5.5,4.2-7.8c0.3-0.5,0.7-0.9,1.1-1.3c0.9-0.8,1.1-1,2.4-0.3s1.3,1.1,1,2.4
			c-0.2,0.7-0.5,1.3-0.8,1.9c-0.8,1.2-1.8,2.3-2.9,3.1C183.3,302.4,183.5,302.8,183.6,302.8L183.6,302.8z"/>
	</g>
</g>
<g id="freepik--Characters--inject-2">
	<g id="freepik--characters--inject-2">
		<path class="st16" d="M318,240.4c-3.6-0.9-7.6,1.7-9.9,7.4s-7,20.2-8,24c-0.4,1.7,12.5,16.8,12,16.5c-0.1-0.1,4.2-7.4,4.2-7.4
			l-6.3-9.6l4-10.5L318,240.4z"/>
		<path class="st12" d="M309.6,375.2c-0.5,0.2-0.6,1.1-0.7,3c-0.1,1.4-0.4,3.9,1.3,4.4s4.1,0.2,5.1-1.1c1.3-1.8,2.6-3.5,4.1-5.1
			c1.6-1.8,3.4-3.4,4-5.9c0.6-2.2,0.1-3.2-1.4-3.8c-2.1-0.9-5.4,2-7,2.5C313.7,369.5,310.1,375,309.6,375.2z"/>
		<path class="st16" d="M309.6,373.5v2.3c1.7,1.1,4,1.2,5.8,0.2c0.1-0.2,0.6-3.3,0.6-3.3L309.6,373.5z"/>
		<path class="st12" d="M326.6,387.3c-0.4,1.2-0.7,2.5-1,3.7c-0.3,1.4-0.7,3.7-0.2,4.7s2.4,1.7,5.3,1.7c1.9,0,4.8,1.3,6.9,2.4
			c2,1,4.3,1.3,6.5,0.9c2.6-0.3,5.3-1.8,5.7-2.9s-0.1-1.6-6.3-4.2c-0.1,0-6.5-2.9-9.4-6.2L326.6,387.3z"/>
		<path class="st16" d="M326.6,384.8c0,0,0,1.7,0,2.7s1.1,2.4,4.1,2.3c2.1-0.1,3.5-0.6,3.4-2.4V385L326.6,384.8z"/>
		<path class="st6" d="M307.4,341.8c0.5-4,1.4-7.9,2.8-11.7c0,0-1.3-10.1-2-19.8c-1.3-17.4-0.3-23.1,3.2-30.9c0,0,29.2-3,30.1,9.2
			c1.1,15.1-0.4,44.3-0.8,49.6s-0.9,7.7-2.8,18.9c-1.4,8.5-3.7,27.9-3.7,27.9c-2.4,1.2-5.2,1.1-7.5-0.2c0,0-2.4-24.3-2.1-30.4
			c0.2-4.6,0.9-9.1,2.3-13.4c0,0-1.8-24.6-2.3-28.5c0,0-0.9,7.8-1.3,13.1s-2,10.4-3.5,20.3c-1.3,8.6-3.8,27.8-3.8,27.8
			c-3.9,2.1-6.2-0.3-6.2-0.3S306.3,349.3,307.4,341.8z"/>
		<g class="st17">
			<path d="M307.4,341.8c0.5-4,1.4-7.9,2.8-11.7c0,0-1.3-10.1-2-19.8c-1.3-17.4-0.3-23.1,3.2-30.9c0,0,29.2-3,30.1,9.2
				c1.1,15.1-0.4,44.3-0.8,49.6s-0.9,7.7-2.8,18.9c-1.4,8.5-3.7,27.9-3.7,27.9c-2.4,1.2-5.2,1.1-7.5-0.2c0,0-2.4-24.3-2.1-30.4
				c0.2-4.6,0.9-9.1,2.3-13.4c0,0-1.8-24.6-2.3-28.5c0,0-0.9,7.8-1.3,13.1s-2,10.4-3.5,20.3c-1.3,8.6-3.8,27.8-3.8,27.8
				c-3.9,2.1-6.2-0.3-6.2-0.3S306.3,349.3,307.4,341.8z"/>
		</g>
		<polygon class="st16" points="332.9,236.4 331.5,247.7 321.6,246.8 322.8,234.3 		"/>
		<path class="st3" d="M310.8,246c1.1-3,4.8-6.3,8.6-5.6l2.8,0.5c0.1,2.6,5,3.9,9.9,2.4c1.5,0.4,2.8,0.9,4,1.3c3.5,1.3,4.9,7,5,16.7
			c0.1,9.7,1.1,33.9,1.1,33.9l-4.1,1.3l-1.9-7.1l-0.8,8.5c-4.6,1.1-9.5,1.1-14.1-0.1c-10.5-2.3-13.7-7.9-13.7-7.9
			c1.3-6.5,3.8-12.8,7.5-18.3C309.8,257.6,309.1,250.4,310.8,246z"/>
		<path class="st12" d="M340.3,222.1c1.2-2.7,0.9-5.9-0.8-8.4c-3.3-5.2-9.7-6.1-17.3-4.1c-5.4,1.7-9.2,6.6-9.5,12.2
			c-0.4,5.6,15.2,9.7,14.8,13.5L340.3,222.1z"/>
		<path class="st18" d="M340.6,224.3c0,0,2.1,3.4,1.8,3.7c-0.5,0.3-1.1,0.6-1.7,0.7L340.6,224.3z"/>
		<path class="st16" d="M334.2,213.5c2.1,1.2,5.7,3.3,6.5,11.2c0.8,8.1-1.1,10.9-2.3,11.9c-0.8,0.7-4.6,0.9-6.6,0.2
			c-2.5-0.9-7.8-3.7-10.3-7.9c-2.9-5-3.3-11.6,0.2-14C325.4,212.3,330.1,211.8,334.2,213.5z"/>
		<path class="st12" d="M334.8,213.9c0,0,1.7,7.4-0.7,12c0,0-1.2-2.9-3.7-2.1s-2.4,4.1-0.5,5.8c1,1,2.5,1.4,3.8,0.9
			c-0.8,2.1-2.1,4-3.7,5.6c0,0-7.4,3.3-13.8-3.9c-5.8-6.6-4.7-18,4.2-20.7S334.8,213.9,334.8,213.9z"/>
		<path class="st12" d="M313.7,214.7c0.7,0.6,0.8,1.7,0.2,2.4l-2.6-2.3C311.9,214.1,313,214,313.7,214.7
			C313.7,214.7,313.7,214.7,313.7,214.7z"/>
		<path class="st16" d="M361.1,262.5c1.4-1.6,2-5.3,3.9-7.8s2.6-4.3,3.4-3.2c1,1.4-1.3,4.3-0.8,4.6s2.4,4.1,2.6,6.2
			s-5.4,7.4-5.4,7.4L361.1,262.5z"/>
		<path class="st16" d="M367.5,255.8c0,0,6.8-0.6,7.8,0c1,0.6,0.7,3.5,0,5.3s-4.1,3-7.4,5.1C367.9,265.9,367.5,255.8,367.5,255.8z"
			/>
		<path class="st16" d="M335.2,244.3c2.9,1,5.5,2.2,8.2,7.3c3.5,6.6,9.9,19.4,9.9,19.4l7.9-8.6c0,0,1.1-1.6,3.3,1.9s1.2,4.5,1.2,4.5
			s-9.2,12.3-10.9,13.9s-4.5,0.4-6.3-2.1s-13.3-16.8-13.3-16.8S328.9,255.7,335.2,244.3z"/>
		<path class="st19" d="M324.5,312.5l-0.6-5.9c-3.2-0.5-6.2-1.6-8.9-3.4c0,0,1.9,3,7.1,4.4l0.5,7.5l0.3,12.3L324.5,312.5z"/>
		<path class="st12" d="M303.7,242.8L303.7,242.8c5.7,0,10.3-4.6,10.3-10.2c0,0,0,0,0,0v-15.6l0,0c-4.1-1.3-8.5,0.9-9.9,5
			c-0.3,0.8-0.4,1.6-0.4,2.4L303.7,242.8z"/>
		<path class="st2" d="M341.2,271.5c0,0-5.7-7.3-7.5-10.3l7.7,16.3L341.2,271.5z"/>
		<path class="st20" d="M391.1,211.3c-2.2,6.4-6.8,25.4-6.8,25.4s-8.8,11.7-11.2,13.9c-1.3,1.2-4.4,3.5-4.4,3.5l2.5,1.9
			c0,0,4.2-1.3,4.5,1c4.4-3.5,8.5-7.3,12.4-11.4c1-1,1.7-2.3,2-3.7l3.8-16.1c0,0,0-13,2-14.7s1.2-5.6,1.2-5.6
			C395.8,205.5,392.8,206.3,391.1,211.3z"/>
		<path class="st6" d="M397.3,204.8c0.6,1.7,1.4,3.4,2.2,5c0.9,1.5-5.9,28.7-6.3,30.7s-13.5,13.8-13.5,13.8c-2.4-1-4.2-2.9-5.2-5.2
			l9.4-12.3c0,0,2.9-12.9,4.5-18.8S391.5,205.4,397.3,204.8z"/>
		<path class="st9" d="M397.3,204.8c0.6,1.7,1.4,3.4,2.2,5c0.9,1.5-5.9,28.7-6.3,30.7s-13.5,13.8-13.5,13.8c-2.4-1-4.2-2.9-5.2-5.2
			l9.4-12.3c0,0,2.9-12.9,4.5-18.8S391.5,205.4,397.3,204.8z"/>
		<rect x="418.3" y="332.4" class="st20" width="6.5" height="11.1"/>
		<polygon class="st20" points="398.2,335.1 391.7,335.3 391.4,323.5 398.2,323.3 		"/>
		<path class="st8" d="M423.9,252.9c0,6.2,0.4,42.3,0.4,42.3c0.1,1.8,1.9,5,2,11.4c0.2,9.3-1.3,31.3-1.3,31.3
			c-2.3,1.1-4.9,1.2-7.2,0.1c0,0-5.1-31.1-6.3-40.4c-1-8.1-4.5-29.6-4.5-29.6l-5,27.3c0.8,3.4,1,6.9,0.8,10.3
			c-0.3,4.3-4.3,25.7-4.3,25.7c-2.3,1.3-5,1.5-7.5,0.6c0,0-0.4-33.6-0.5-37.5c-0.1-4.5,1.9-42.9,1.9-42.9L423.9,252.9z"/>
		<path class="st12" d="M418.3,340.3v-0.9c-0.4,0-0.6,0.3-0.7,1.2c-0.1,0.6-0.2,1.2-0.4,1.8c-0.3,1.1-0.7,2.3-1.1,3.3
			c-0.9,2.3-1.7,3.1-3.8,5.8c-0.7,0.7-1.4,1.5-2,2.3c-0.4,0.7-0.5,2.6,0.1,3.1c2.5,1.6,6.2,1.7,8.8,0.9c2-0.6,3.5-2.2,3.8-4.3
			c0.1-0.6,0.1-1.2,0.1-1.8c0.2-1.4,0.8-2.7,1.6-3.8c0.5-0.6,0.9-1.3,1.3-2.1c0.5-1.3,0.1-2.8-0.2-4.2c-0.3-1.1-0.6-2.4-1-2.3v0.7
			c-0.9,0.7-2.1,1.1-3.3,1.1C420.6,341.2,418.3,341,418.3,340.3z"/>
		<path class="st12" d="M391.7,333.3c-0.3,0-0.6,0.5-1.4,1.3c-1.1,1.1-2.4,2-3.8,2.8c-2.4,1.2-7.2,3.1-9.3,4.1
			c-1.3,0.6-1.3,2.2,0.1,3.1s4.7,1.6,8.7,0.7c2.2-0.5,5-2.5,6.8-2.4s5.2,0.1,6.5-0.8s0.8-2.9,0.4-4.5c-0.4-1.8-0.9-4.7-1.5-4.6v0.6
			c-0.8,1.2-4.8,1.7-6.5,0.8L391.7,333.3z"/>
		<path class="st12" d="M407.1,268.2c-3.4-1-6.5-2.8-9.1-5.2c0,0,1.8,3.3,7,6.3l-2.5,24.3L407.1,268.2z"/>
		<path class="st1" d="M412.6,205.3c2.2,0.5,6.7,1.3,7.7,5.7c1.2,5.3,1.6,16.8,1.6,16.8l0.4,25.7c-4.5,3.3-20.9,5-30.4-1.9
			c0,0,1.2-30.8,1.2-35.6s2.7-10.6,10-11L412.6,205.3z"/>
		<path class="st6" d="M403.3,204.5c-2,1.7-3.5,4-4.2,6.5c-0.9,3.9-1,47.2-1,47.2s-4.6-0.9-6.8-2.5c0,0,0.3-34.2,0.7-39.9
			c0.7-8.6,0.6-11,11.3-11.9L403.3,204.5z"/>
		<path class="st6" d="M414.6,203.8c0,0-6.1,3.8-6.2,18.8c-0.1,13-0.5,35.6-0.5,35.6s10.1,1.5,16.6-2.4c0,0,0.8-31.5,0.6-36.3
			c-0.1-5.6-1.4-12.8-3.2-13.5C419.5,205.1,417.1,204.4,414.6,203.8z"/>
		<path class="st20" d="M437.4,238.3c-6.1-24.9-10.6-33.3-18-33.2c-2.2,2.6-1.6,10.4,1.9,15.1c0,0,7.6,16.1,8.8,21.8
			c1.1,5,2.3,11.4,2.2,15.7c0,0.8-0.3,1.5-0.9,2c-1.4,1.5-1.4,2.7-2.3,4.4c-0.7,1.3-1.5,1.8-1.3,2.1c0.6,0.6,1.6,0.7,2.3,0.2
			c0.7-0.5,1.2-1,1.7-1.7c-0.2,1.6-0.7,3.2-1.4,4.6c-1.6,3.5-1.2,5.3,3.6,4.1c3-0.8,4.9-3.3,5.3-10.5c0.2-2.6,0.2-5.3,0.1-7.9
			C438.8,248.3,438.4,242.3,437.4,238.3z"/>
		<path class="st6" d="M418.1,204.7c0,0,4.9-0.2,7.6,2.5s6.3,8.4,9.7,20.7s4.5,21.4,4.7,28.4c0,0-4.4,2-8.4-0.3
			c0,0-1.8-10.8-3.4-16.5s-7.5-17.8-7.5-17.8S415.3,213.3,418.1,204.7z"/>
		<path class="st9" d="M418.1,204.7c0,0,4.9-0.2,7.6,2.5s6.3,8.4,9.7,20.7s4.5,21.4,4.7,28.4c0,0-4.4,2-8.4-0.3
			c0,0-1.8-10.8-3.4-16.5s-7.5-17.8-7.5-17.8S415.3,213.3,418.1,204.7z"/>
		<polygon class="st9" points="415.3,212.1 412.5,215.5 413.9,219.5 410.2,228.9 414.6,219.5 413.1,215.7 		"/>
		<polygon class="st9" points="395.5,210.9 396.1,214.5 393.7,217.7 397,228.3 394.4,217.8 396.7,214.9 		"/>
		<circle class="st12" cx="402.1" cy="183.9" r="8.9"/>
		<path class="st12" d="M417.6,190.2c0,0-1.5,6.8-2,7.9c-0.4,0.7-1,1.2-1.8,1.4l0.1-4.8L417.6,190.2z"/>
		<path class="st12" d="M415.8,180.5c1-0.1,2.1,0.3,2.8,1c1.2,1.2,0.5,5-1,8.8l-2.7,0.3L415.8,180.5z"/>
		<path class="st20" d="M414,190.6c0.5,0.3,1.3-0.7,2-1.4c0.8-1,2.3-1.1,3.3-0.3c0.3,0.2,0.5,0.6,0.7,0.9c1.1,2.4-1,5.5-2.7,6
			c-3,0.9-3.4-1-3.4-1l-0.2,11.1l0,0c-2.1,2.6-6.7,5.8-9.2,5.3c-2-0.4-2.4-3.7-0.5-5.9V202c-1.3,0.2-2.7,0.3-4,0.2
			c-2.2-0.3-3.6-2.1-4.3-4.4c-1.1-3.8-1.5-6.9-0.6-14.4c1-8.2,10.6-8.3,15.8-5.1S414,190.6,414,190.6z"/>
		<path class="st12" d="M414,191.5c0.3,0,1.3-1.7,2-2.4c0.9-0.9-0.3-8.6-0.3-8.6c0.7-1.4,0.4-3.1-0.6-4.2c-1.3-1.4-3.1-3.2-9-2.5
			c-4.2,0.5-8.7,1.8-12.4,0c-0.7,2.5,0.2,5.1,2.2,6.6c1.5,0.7,3.2,1.2,4.8,1.3c3.2,0.2,6.5,0.2,9.7-0.2c1-0.1,1.2,0.8,1.8,3.5
			C412.7,187.4,413.1,191.4,414,191.5z"/>
		<path class="st12" d="M415.8,181.1l3.3-1.8c-0.4-0.9-1.5-1.3-2.4-0.9c0,0,0,0-0.1,0C415.6,179,415.3,180.1,415.8,181.1z"/>
		<path class="st21" d="M403.9,202c2.3-0.4,4.5-1.1,6.6-1.9c1-0.5,1.8-1.3,2.4-2.4c-0.3,1-0.7,1.9-1.4,2.8c-1.3,1.6-7.6,2.8-7.6,2.8
			L403.9,202z"/>
		<path class="st12" d="M405.1,189.3c0,0.6,0.4,1,1,1s1-0.4,1-1s-0.4-1-1-1S405.1,188.8,405.1,189.3z"/>
		<path class="st12" d="M406.1,185.6l2.1,1.2c0.3-0.6,0.1-1.3-0.5-1.7C407.2,184.8,406.5,185,406.1,185.6
			C406.2,185.6,406.2,185.6,406.1,185.6z"/>
		<path class="st21" d="M404.4,196.1l-2.2,0.8c0.2,0.6,0.8,1,1.5,0.8c0,0,0,0,0.1,0C404.3,197.4,404.6,196.7,404.4,196.1z"/>
		<path class="st12" d="M396.3,186.4l1.9-1.5c-0.4-0.5-1.1-0.7-1.6-0.3c0,0,0,0,0,0C396.1,185.1,395.9,185.9,396.3,186.4z"/>
		<path class="st12" d="M396.9,189c0,0.6,0.4,1,1,1s1-0.4,1-1s-0.4-1-1-1S396.9,188.4,396.9,189z"/>
		<polygon class="st21" points="401.9,188.1 401.6,194 398.5,193 		"/>
		<path class="st6" d="M400.9,210.6c0.6,1.4,1.7,2,3.7,2.3c2.1,0.1,4.1-0.6,5.6-2l-2.5-2.5l-3.2,2.4l-0.3-2.7L400.9,210.6z"/>
		<path class="st9" d="M400.9,210.6c0.6,1.4,1.7,2,3.7,2.3c2.1,0.1,4.1-0.6,5.6-2l-2.5-2.5l-3.2,2.4l-0.3-2.7L400.9,210.6z"/>
		<path class="st6" d="M402.5,209.8c-0.3,0.9-0.4,1.8-0.3,2.7c0.1,0.8,0.4,1.6,0.9,2.2c0.6,0.4,1.4,0.5,2.2,0.2
			c1.3-1.1,2.1-2.8,2.1-4.5l-2.8,0.3L402.5,209.8z"/>
		<path class="st6" d="M403,214.7c0,0-3.3,18-3.4,19.5s1.9,6.6,3.1,6.7s3.7-4.6,3.7-6s-1.3-19.9-1.3-19.9L403,214.7z"/>
		<path class="st9" d="M405.2,214.9c-0.7,0.3-1.5,0.2-2.2-0.2v0.3c0.6,0.5,1.5,0.7,2.3,0.4L405.2,214.9z"/>
		<path class="st2" d="M404.5,210.8l9.2-7v-2.1c0,0,2.1,0.8,2.6,4.6c-1.5,3.3-4,6-7.2,7.6l-1.9-3.4L404.5,210.8z"/>
		<path class="st2" d="M403.9,202.6c-1.2,0.2-2.3,0.8-3,1.8c-0.9,1.5-0.7,7.3-0.7,7.3l2.2-2l2,1c-0.2-1.9-0.6-5.4-0.6-5.4
			L403.9,202.6z"/>
		<path class="st20" d="M368,266.3c0.9-1.2,1.4-2.6,1.5-4.1c0.3-1.9,5.4-3.9,5.6-2.5s0.6,2.6-1,4.3S370.4,267.5,368,266.3z"/>
		<path class="st20" d="M368.3,254.1c-1.2,1.6-2,4.7-2.7,5.8s-1.4,2,0,2.1s3.5-2.6,4.3-4.3c0.3-0.7,0.8-1.3,1.3-1.7
			c0.2-0.2,0.5-0.3,0.8-0.4c-0.7-0.2-0.3-2.9-0.8-3.3C371.2,252.2,368.8,253.2,368.3,254.1z"/>
	</g>
</g>
</svg>
