<?xml version="1.0" encoding="utf-8"?>
<!-- Generator: Adobe Illustrator 24.0.2, SVG Export Plug-In . SVG Version: 6.00 Build 0)  -->
<svg version="1.1" id="圖層_1" xmlns="http://www.w3.org/2000/svg" xmlns:xlink="http://www.w3.org/1999/xlink" x="0px" y="0px"
	 viewBox="0 0 500 500" style="enable-background:new 0 0 500 500;" xml:space="preserve">
<style type="text/css">
	.st0{fill:#E3DCD1;}
	.st1{fill:#69A4A7;}
	.st2{opacity:0.7;fill:#FFFFFF;enable-background:new    ;}
	.st3{fill:#263238;}
	.st4{fill:#69A4A7;stroke:#263238;stroke-linecap:round;stroke-linejoin:round;}
	.st5{fill:none;stroke:#FFFFFF;stroke-linecap:round;stroke-linejoin:round;}
	.st6{fill:#263238;stroke:#263238;stroke-linecap:round;stroke-linejoin:round;}
	.st7{fill:#FFFFFF;}
	.st8{clip-path:url(#SVGID_2_);}
	.st9{opacity:0.5;fill:#FFFFFF;enable-background:new    ;}
	.st10{fill:none;stroke:#263238;stroke-linecap:round;stroke-linejoin:round;}
</style>
<rect class="st0" width="500" height="500"/>
<g id="freepik--background-simple--inject-2">
	<path class="st1" d="M313.1,109.6c-10.7-12.9-23.5-22.9-44.6-24.4c-37.7-2.8-57.9,30.5-85.2,49.9c-34.1,24.2-78.8,18.3-110.4,47.2
		c-34.6,31.6-22.7,61.2,1,78s28.6,43.5,45.4,77s57.3,66.1,90.8,69.1c22.1,2,44.9-8,65-16c32.4-12.8,65.2-19.2,98.6-28.2
		c27.5-7.5,56.4-19.8,68.5-47.6c16.8-38.5,4-92.8-24.7-116.5s-53.3-26.7-73.1-47.4C332.1,137.7,323.6,122.3,313.1,109.6z"/>
	<path class="st2" d="M313.1,109.6c-10.7-12.9-23.5-22.9-44.6-24.4c-37.7-2.8-57.9,30.5-85.2,49.9c-34.1,24.2-78.8,18.3-110.4,47.2
		c-34.6,31.6-22.7,61.2,1,78s28.6,43.5,45.4,77s57.3,66.1,90.8,69.1c22.1,2,44.9-8,65-16c32.4-12.8,65.2-19.2,98.6-28.2
		c27.5-7.5,56.4-19.8,68.5-47.6c16.8-38.5,4-92.8-24.7-116.5s-53.3-26.7-73.1-47.4C332.1,137.7,323.6,122.3,313.1,109.6z"/>
</g>
<g id="freepik--Agreement--inject-2">
	<path class="st3" d="M98.1,300.2l-12.6-9.3c-3.2-2.4-6.2-5-9-7.9c-2.2-2.2-4.3-4.6-6.2-7l-2-2.9l18.4-7.9
		C86.8,265.2,87.6,289,98.1,300.2z"/>
	<path class="st4" d="M71.1,263.6c0,0,4,20.7,32.6,41s171.8,106.1,179.7,108.6s11.8,0,15.3-2.5s134.8-111.6,134.8-111.6
		s-59.2-30.1-104.2-56.3s-77.5-44.4-86.9-52.8s-20.2-16.8-20.2-16.8s-75.5,50.4-102.7,64.7S71.1,263.6,71.1,263.6z"/>
	<line class="st5" x1="174.6" y1="236.6" x2="227.8" y2="200.6"/>
	<line class="st5" x1="122.9" y1="271.7" x2="168.6" y2="240.7"/>
	<line class="st5" x1="163.9" y1="263.6" x2="241.8" y2="210.8"/>
	<line class="st5" x1="136.9" y1="281.9" x2="155.9" y2="269"/>
	<line class="st5" x1="151" y1="292.2" x2="255.8" y2="221.1"/>
	<line class="st5" x1="178.2" y1="293.5" x2="269.9" y2="231.3"/>
	<line class="st5" x1="165" y1="302.4" x2="173.4" y2="296.8"/>
	<line class="st5" x1="179" y1="312.7" x2="283.9" y2="241.6"/>
	<line class="st5" x1="193.1" y1="322.9" x2="297.9" y2="251.8"/>
	<line class="st5" x1="259.7" y1="297.5" x2="311.9" y2="262.1"/>
	<line class="st5" x1="207.1" y1="333.2" x2="252" y2="302.8"/>
	<line class="st5" x1="289.1" y1="297.3" x2="326" y2="272.3"/>
	<line class="st5" x1="248.2" y1="325" x2="283.1" y2="301.4"/>
	<line class="st5" x1="221.1" y1="343.4" x2="242.2" y2="329.1"/>
	<line class="st5" x1="332.4" y1="287.7" x2="340" y2="282.6"/>
	<line class="st5" x1="235.1" y1="353.7" x2="326" y2="292.1"/>
	<line class="st5" x1="262.3" y1="355.1" x2="354" y2="292.9"/>
	<line class="st5" x1="249.1" y1="364" x2="256.7" y2="358.8"/>
	<path class="st6" d="M282.4,379.6c-2.9,2.6-4.6,6.5-4.5,10.4c0,6.9,7.9,10.9,11.4,9.9s14.3-13.3,14.3-13.3s-3-9.4-8.9-9.9
		S282.4,379.6,282.4,379.6z"/>
	<path class="st7" d="M289.8,414.3c0,0,8.4-3.1,9.3-10s-4.4-16.8-8.9-20.2c-2.4-1.9-5-3.4-7.9-4.4c0,0,68.6-46.4,86.4-62.2
		s50.9-40.5,50.9-40.5s6.9-3.5,12.3,0s9,6.9,9.4,14.8c0.2,4.5-8.9,10.9-8.9,10.9L309,404.8C309,404.8,294.3,414.9,289.8,414.3z"/>
	<g>
		<defs>
			<path id="SVGID_1_" d="M289.8,414.3c0,0,8.4-3.1,9.3-10s-4.4-16.8-8.9-20.2c-2.4-1.9-5-3.4-7.9-4.4c0,0,68.6-46.4,86.4-62.2
				s50.9-40.5,50.9-40.5s6.9-3.5,12.3,0s9,6.9,9.4,14.8c0.2,4.5-8.9,10.9-8.9,10.9L309,404.8C309,404.8,294.3,414.9,289.8,414.3z"/>
		</defs>
		<clipPath id="SVGID_2_">
			<use xlink:href="#SVGID_1_"  style="overflow:visible;"/>
		</clipPath>
		<g class="st8">
			<path class="st1" d="M441.4,291.7c-0.1-1.2-0.2-2.3-0.4-3.4c-3.9,3.4-11,9.4-23.9,19.9c-26.7,21.7-47.9,37.5-47.9,37.5
				s23.2-17.3,14.8-13.3s-26.7,19.8-42.9,33.1c-10.3,8.4-28.5,25.4-41.8,38.8l0,0c-1,6.9-9.3,10-9.3,10c4.5,0.7,19.2-9.5,19.2-9.5
				l123.4-102.2C432.5,302.6,441.6,296.2,441.4,291.7z"/>
			<path class="st9" d="M441.4,291.7c-0.1-1.2-0.2-2.3-0.4-3.4c-3.9,3.4-11,9.4-23.9,19.9c-26.7,21.7-47.9,37.5-47.9,37.5
				s23.2-17.3,14.8-13.3s-26.7,19.8-42.9,33.1c-10.3,8.4-28.5,25.4-41.8,38.8l0,0c-1,6.9-9.3,10-9.3,10c4.5,0.7,19.2-9.5,19.2-9.5
				l123.4-102.2C432.5,302.6,441.6,296.2,441.4,291.7z"/>
		</g>
	</g>
	<path class="st10" d="M289.8,414.3c0,0,8.4-3.1,9.3-10s-4.4-16.8-8.9-20.2c-2.4-1.9-5-3.4-7.9-4.4c0,0,68.6-46.4,86.4-62.2
		s50.9-40.5,50.9-40.5s6.9-3.5,12.3,0s9,6.9,9.4,14.8c0.2,4.5-8.9,10.9-8.9,10.9L309,404.8C309,404.8,294.3,414.9,289.8,414.3z"/>
</g>
<g id="freepik--Plants--inject-2">
	<path class="st3" d="M343.6,153.1c0,0,4.8-3.7,6.1-6.1c1.1-2,1.9-4.9,0.8-7.1c-0.9-2.1-3.3-3-5.4-2.1c-0.1,0.1-0.3,0.1-0.4,0.2
		c-3,1.8-3.4,8-2.6,11C342.1,149.2,343.5,153.1,343.6,153.1z"/>
	<path class="st3" d="M299.1,183.8c0.2,0.2,3.6,2.7,3.6,2.6s2-5.7,1.7-8.4c-0.2-2.3-1.2-5.1-3.3-6.4c-1.9-1.2-4.4-0.7-5.7,1.2
		c-0.1,0.1-0.2,0.3-0.2,0.4C293.8,176.3,296.9,181.7,299.1,183.8z"/>
	<path class="st3" d="M399.2,159.6c0,0-17.7,17.7-17.9,39.8s17.1,40.2,17.1,40.2s17.7-17.8,17.9-39.9S399.2,159.6,399.2,159.6z"/>
	<path class="st3" d="M373.6,212.6c0.2-0.2,0.4-0.5,0.6-0.8c1.3-1.9,2.4-4.7,1.6-7c-0.7-2.2-2.9-3.4-5.1-2.7c-0.1,0-0.3,0.1-0.4,0.1
		c-2.4,1.1-3.6,4.9-3.9,8c-0.9-0.2-1.8-0.4-2.5-0.5l-0.9-2.1c-0.3-0.7-0.6-1.5-0.9-2.2c-0.4-1.1-0.8-2.3-1.1-3.4
		c1.4-0.6,5.4-2.4,7-4.1s3.1-4.3,2.7-6.7c-0.3-2.2-2.4-3.8-4.6-3.5c-0.1,0-0.3,0-0.4,0.1c-3.3,0.9-5.4,6.8-5.5,9.9
		c0,0.1,0,0.8,0.1,1.5c-0.3-1.1-0.6-2.3-0.9-3.4c-0.8-3.3-1.5-6.7-2.3-10.1c-0.1-0.7-0.3-1.4-0.5-2.1c1.2-0.5,5.6-2.4,7.2-4.1
		s3.1-4.3,2.7-6.7c-0.3-2.2-2.4-3.8-4.6-3.5c-0.1,0-0.3,0-0.4,0.1c-3.3,0.9-5.4,6.8-5.5,9.9c0,0.1,0,0.9,0.1,1.8
		c-0.4-1.9-0.9-3.7-1.4-5.5c-0.8-3.1-1.9-6.2-3.1-9.1c0.4-0.2,5.6-2.3,7.4-4.2c1.6-1.7,3.1-4.3,2.7-6.7c-0.3-2.2-2.4-3.8-4.6-3.5
		c-0.1,0-0.3,0-0.4,0.1c-3.3,0.9-5.4,6.8-5.5,9.9c0,0.2,0.2,3,0.3,4c0,0,0-0.1,0-0.1c-1.3-2.9-2.8-5.6-4.6-8.3
		c-1.6-2.3-3.3-4.6-5.1-6.7c-1.7-2-3.4-3.7-4.9-5.3c-0.8-0.8-1.6-1.6-2.3-2.2h0.1c0.1,0-1.6-3.9-1.7-4.1c-1.5-2.7-6-7-9.4-6.3
		c-2.2,0.5-3.6,2.7-3.1,4.9c0,0.1,0.1,0.3,0.1,0.4c0.7,2.3,3.3,3.9,5.4,4.7s7.1,0.5,8.3,0.4c0.7,0.7,1.5,1.5,2.3,2.4
		c1.5,1.6,3.1,3.3,4.7,5.3c0.4,0.5,0.9,1.1,1.3,1.7c-1-0.8-2.3-1.9-2.4-2c-2.6-1.7-8.5-3.4-11.2-1.3c-1.7,1.5-1.9,4-0.5,5.8
		c0.1,0.1,0.2,0.2,0.3,0.3c1.7,1.7,4.7,2,7,1.7s6.7-2.9,7.6-3.5c1,1.3,1.9,2.6,2.9,4.1c1.7,2.6,3.2,5.4,4.4,8.3
		c0.1,0.2,0.1,0.3,0.2,0.5c-0.4-0.5-2.8-3-3-3.1c-2.4-2-8.1-4.4-11-2.5c-1.9,1.3-2.3,3.8-1,5.7c0.1,0.1,0.1,0.2,0.2,0.3
		c1.5,1.9,4.5,2.5,6.8,2.4c2.7-0.1,7.9-2.6,8.1-2.7c1.1,2.9,2.1,5.9,2.8,8.9c0.6,2.2,1,4.5,1.5,6.8c-0.5-0.6-2.8-2.9-2.9-3.1
		c-2.4-2-8.1-4.4-11-2.5c-1.9,1.3-2.3,3.8-1.1,5.7c0.1,0.1,0.2,0.2,0.2,0.3c1.5,1.9,4.5,2.5,6.8,2.4c2.6-0.1,7.6-2.5,8.1-2.7
		c0.2,1.1,0.4,2.1,0.6,3.1c0.7,3.4,1.3,6.9,2,10.2c0.3,1.2,0.5,2.3,0.8,3.5c-0.8-0.9-2.4-2.5-2.5-2.6c-2.4-2-8.1-4.4-11-2.5
		c-1.9,1.3-2.3,3.8-1,5.7c0.1,0.1,0.1,0.2,0.2,0.3c1.5,1.9,4.5,2.5,6.8,2.4s6.6-2,7.8-2.6c0.5,1.9,1,3.8,1.6,5.6
		c0.3,0.8,0.5,1.6,0.8,2.3c0.2,0.4,0.3,0.8,0.5,1.2l-0.7-0.1c0,0-0.1,1.1,0,2.8c-2.5-1.9-6.1-3.5-8.5-2.4c-2,1-2.9,3.4-1.9,5.5
		c0.1,0.1,0.1,0.3,0.2,0.4c0.2,0.3,0.3,0.5,0.5,0.7c0.4,2.7,1.5,5.2,3.2,7.4c0.1,0.2,1.8,1.8,2.7,2.6c-0.9-0.5-1.7-1-2.6-1.5
		c-1.3-0.7-2.6-1.6-3.9-2.3L349,221c-0.7-0.4-1.3-0.9-1.9-1.4c-1-0.7-1.9-1.5-2.8-2.2c0.8-1.3,3.2-5,3.6-7.2s0.2-5.3-1.5-7
		c-1.5-1.7-4.1-1.8-5.8-0.3c-0.1,0.1-0.2,0.2-0.3,0.3c-2.3,2.6-0.7,8.6,0.9,11.3c0,0.1,0.4,0.6,0.9,1.2c-0.9-0.8-1.8-1.6-2.7-2.4
		c-2.5-2.3-5-4.8-7.5-7.2l-1.6-1.5c0.7-1.1,3.3-5.1,3.7-7.4s0.2-5.3-1.5-7c-1.5-1.7-4.1-1.8-5.8-0.3c-0.1,0.1-0.2,0.2-0.3,0.3
		c-2.3,2.6-0.7,8.6,0.9,11.3c0.1,0.1,0.5,0.7,1.1,1.4c-1.4-1.3-2.8-2.6-4.2-3.8c-2.4-2.1-5-4.1-7.6-5.9c0.3-0.4,3.4-5,3.8-7.6
		c0.4-2.3,0.2-5.3-1.5-7c-1.5-1.7-4.1-1.8-5.8-0.4c-0.1,0.1-0.2,0.2-0.3,0.3c-2.3,2.6-0.7,8.6,0.9,11.3c0.1,0.2,1.9,2.4,2.5,3.2
		l-0.1-0.1c-2.7-1.7-5.5-3.1-8.4-4.3c-2.6-1.1-5.3-2-8-2.8c-2.5-0.7-4.9-1.3-6.9-1.7c-1.1-0.2-2.2-0.4-3.1-0.6h0.1
		c0,0-3.4-2.4-3.7-2.5c-2.7-1.4-8.9-2.5-11.3-0.1c-1.6,1.6-1.5,4.2,0.2,5.8c0.1,0.1,0.2,0.2,0.3,0.3c1.9,1.5,4.9,1.5,7.1,0.9
		s6.2-3.5,7.1-4.2c1,0.2,2.1,0.4,3.3,0.7c2.1,0.5,4.4,1.1,6.9,1.9c0.7,0.2,1.4,0.5,2.1,0.7c-1.2-0.1-3-0.3-3.1-0.3
		c-3.1,0-9,1.9-10.1,5.1c-0.6,2.2,0.6,4.4,2.8,5.1c0.1,0,0.3,0.1,0.4,0.1c2.4,0.5,5-1,6.8-2.5s4-6.1,4.4-7.1
		c1.5,0.5,3.1,1.1,4.6,1.8c2.9,1.2,5.6,2.7,8.2,4.5c0.1,0.1,0.3,0.2,0.4,0.3c-0.6-0.2-4-0.9-4.2-1c-3.1-0.3-9.2,0.9-10.6,4
		c-0.9,2.1,0.1,4.5,2.2,5.3c0.1,0.1,0.3,0.1,0.4,0.1c2.3,0.8,5.1-0.4,7-1.7c2.2-1.5,5.2-6.6,5.3-6.7c2.5,1.8,5,3.8,7.3,5.9
		c1.7,1.6,3.4,3.2,5,4.9c-0.8-0.2-3.9-0.9-4.1-0.9c-3.1-0.3-9.2,0.8-10.6,4c-0.9,2.1,0.1,4.5,2.2,5.3c0.1,0.1,0.3,0.1,0.4,0.1
		c2.3,0.8,5.1-0.4,7-1.7c2.1-1.5,5-6.3,5.2-6.7c0.8,0.8,1.5,1.5,2.2,2.3c2.4,2.5,4.9,5,7.4,7.4c0.9,0.8,1.7,1.6,2.6,2.4
		c-1.2-0.3-3.4-0.8-3.5-0.8c-3.1-0.3-9.2,0.8-10.6,4c-0.9,2.1,0.1,4.5,2.2,5.3c0.1,0.1,0.3,0.1,0.4,0.1c2.3,0.8,5.1-0.4,7-1.7
		s4.4-5.3,5.1-6.4c1.5,1.3,2.9,2.6,4.5,3.8c0.7,0.5,1.3,1,2,1.5l2,1.4c1.4,0.9,2.6,1.7,4,2.5c0.6,0.4,1.3,0.8,1.9,1.1
		c-1.2-0.5-3-1.2-3.2-1.2c-3-0.8-9.2-0.6-11.1,2.3c-1.2,1.9-0.5,4.4,1.4,5.6c0.1,0.1,0.3,0.1,0.4,0.2c2.2,1.1,5.1,0.4,7.2-0.6
		c2.3-1.1,5.8-5.3,6.2-5.8c1.6,0.9,3.1,1.8,4.6,2.6c3.9,2.1,7.3,3.9,9.9,5.1c8.5,7.6,20.6,8.6,20.6,8.6s0.8-14.5-7.6-24.2
		C381.4,216.9,377.7,214.3,373.6,212.6z M358.1,226.5c0.3-0.6,2.4-5.2,2.6-7.8c0.5-0.1,1-0.2,1.4-0.3c0.8,4.6,2.6,9,5.2,12.9
		c-1.6-0.8-3.2-1.6-5-2.6C360.9,228.1,359.5,227.3,358.1,226.5L358.1,226.5z"/>
	<path class="st3" d="M437.2,210.7c0,0-14.5,0.2-23.5,9.4s-9.1,23.6-9.1,23.6s14.5-0.2,23.5-9.4S437.2,210.7,437.2,210.7z"/>
	<polygon class="st7" points="399.1,219.5 413.5,206.9 413,206.2 399.1,218.3 399.3,201.5 399.4,201.5 411.7,184.1 410.9,183.5 
		399.3,200 399.7,159.6 398.8,159.6 398.5,187 389.5,179 388.9,179.7 398.5,188.2 398.3,207.9 384.7,195.5 384.1,196.2 398.3,209.1 
		398.1,226.9 387.9,218.7 387.3,219.4 398.1,228.1 398,239.6 398.9,239.6 399.1,219.5 	"/>
	<polygon class="st7" points="385.9,224.3 385,224.1 383.7,234.3 377.7,227.4 377.7,227.4 376.3,215 375.4,215.1 376.6,226.1 
		361.6,208.9 361,209.5 371.1,221.2 364.6,221.2 364.6,222.1 371.9,222.1 379,230.3 368.8,230.2 368.8,231.1 379.9,231.3 
		386.3,238.7 379.1,239 379.1,239.9 387.1,239.6 391.4,244.6 392.1,243.9 384.5,235.2 	"/>
	<polygon class="st7" points="420.3,228.4 432.5,226.1 432.3,225.2 421.4,227.2 437.5,211 436.8,210.4 425.9,221.4 425.5,214.8 
		424.5,214.9 425.1,222.2 417.4,229.9 416.8,219.7 415.9,219.8 416.6,230.8 409.6,237.8 408.8,230.7 407.9,230.8 408.8,238.7 
		404.2,243.3 404.8,244 413,235.8 424,236.3 424,235.4 413.8,234.9 420.3,228.4 	"/>
	<path class="st3" d="M139.6,155.8c0,0-3.7-2-4.9-3.5c-1-1.3-1.8-3.2-1.4-4.8c0.4-1.5,1.9-2.5,3.4-2.1c0.1,0,0.2,0.1,0.3,0.1
		c2.2,0.9,3.2,5.1,3.1,7.2C140.2,153,139.6,155.9,139.6,155.8z"/>
	<path class="st3" d="M173.6,171.8c-0.1,0.1-2.1,2.3-2.1,2.2s-2-3.7-2.1-5.6c-0.1-1.6,0.2-3.6,1.5-4.8c1.1-1.1,2.9-1,4,0.2
		c0.1,0.1,0.1,0.2,0.2,0.2C176.4,166,174.9,170.1,173.6,171.8z"/>
	<path class="st3" d="M102.3,166.7c0,0,14.1,10.1,16.8,25.2s-7.1,29.5-7.1,29.5s-14.1-10.1-16.8-25.2S102.3,166.7,102.3,166.7z"/>
	<path class="st3" d="M125.9,200c-0.2-0.1-0.4-0.3-0.5-0.5c-1.1-1.1-2.2-2.9-1.9-4.6c0.2-1.6,1.6-2.7,3.2-2.5c0.1,0,0.2,0,0.3,0.1
		c1.8,0.5,3,2.9,3.6,5c0.6-0.3,1.2-0.5,1.7-0.7l0.4-1.6c0.1-0.5,0.2-1.1,0.3-1.6c0.1-0.8,0.3-1.6,0.4-2.5c-1-0.3-4-1-5.2-2
		s-2.6-2.6-2.6-4.3c0-1.6,1.2-2.9,2.7-2.9c0.1,0,0.2,0,0.3,0c2.4,0.3,4.4,4.1,4.9,6.1c0,0.1,0.1,0.5,0.1,1.1
		c0.1-0.8,0.2-1.6,0.2-2.5c0.2-2.4,0.3-4.8,0.4-7.2c0-0.5,0.1-1,0.1-1.5c-0.9-0.2-4.1-1-5.4-2s-2.6-2.6-2.6-4.3
		c0-1.6,1.2-2.9,2.7-2.9c0.1,0,0.2,0,0.3,0c2.4,0.3,4.4,4.1,4.9,6.2c0,0.1,0.1,0.6,0.1,1.2c0.1-1.3,0.2-2.6,0.3-3.9
		c0.2-2.2,0.6-4.4,1.1-6.6c-0.3-0.1-4.1-0.9-5.5-2c-1.3-1-2.6-2.6-2.6-4.3c0-1.6,1.2-2.9,2.7-2.9c0.1,0,0.2,0,0.3,0
		c2.4,0.3,4.4,4,4.9,6.1c0,0.1,0.2,2.1,0.3,2.8c0,0,0,0,0-0.1c0.6-2.1,1.3-4.2,2.2-6.2c0.8-1.8,1.7-3.5,2.8-5.2
		c0.9-1.6,1.9-2.9,2.7-4.1c0.5-0.6,0.9-1.2,1.3-1.8l0,0c0,0,0.6-2.8,0.7-3c0.7-2,3.3-5.5,5.7-5.4c1.6,0.1,2.8,1.4,2.7,3
		c0,0.1,0,0.2,0,0.3c-0.2,1.7-1.8,3.1-3.2,3.8s-4.8,1.2-5.6,1.2c-0.4,0.6-0.9,1.2-1.3,1.9c-0.8,1.2-1.7,2.6-2.6,4.2
		c-0.2,0.4-0.5,0.9-0.7,1.3c0.6-0.7,1.3-1.6,1.4-1.6c1.6-1.4,5.5-3.3,7.6-2.2c1.3,0.8,1.8,2.5,1,3.9c-0.1,0.1-0.1,0.2-0.2,0.3
		c-1,1.4-3,1.9-4.6,1.9s-4.9-1.2-5.6-1.5c-0.5,1-1,2-1.5,3.1c-0.9,2-1.6,4.1-2.1,6.2l-0.1,0.4c0.2-0.4,1.6-2.4,1.7-2.5
		c1.4-1.6,5.1-3.9,7.3-3c1.4,0.7,2,2.3,1.4,3.8c0,0.1-0.1,0.2-0.1,0.2c-0.8,1.5-2.8,2.2-4.4,2.4c-1.8,0.3-5.7-0.9-5.9-0.9
		c-0.4,2.1-0.7,4.3-0.9,6.4c-0.1,1.6-0.2,3.2-0.3,4.8c0.3-0.5,1.6-2.3,1.7-2.4c1.4-1.6,5.1-3.9,7.3-3c1.4,0.7,2,2.3,1.4,3.8
		c0,0.1-0.1,0.2-0.1,0.2c-0.8,1.5-2.8,2.2-4.4,2.4c-1.8,0.3-5.5-0.8-5.8-0.9c0,0.7,0,1.5-0.1,2.2c0,2.4-0.1,4.8-0.2,7.2
		c0,0.8-0.1,1.6-0.2,2.5c0.5-0.7,1.3-2,1.4-2.1c1.4-1.6,5.1-3.9,7.3-3c1.4,0.7,2,2.3,1.4,3.8c0,0.1-0.1,0.2-0.1,0.2
		c-0.8,1.5-2.8,2.2-4.4,2.4s-4.8-0.6-5.6-0.9c-0.1,1.4-0.3,2.7-0.5,4c-0.1,0.6-0.2,1.1-0.3,1.7c-0.1,0.3-0.1,0.6-0.2,0.9l0.4-0.1
		c0,0,0.2,0.7,0.3,1.9c1.5-1.6,3.8-3.1,5.6-2.6c1.5,0.4,2.4,2,1.9,3.5c0,0.1-0.1,0.2-0.1,0.3c-0.1,0.2-0.2,0.4-0.3,0.6
		c0,1.9-0.4,3.7-1.3,5.4c-0.1,0.1-1.1,1.4-1.6,2.1c0.5-0.4,1.1-0.9,1.6-1.3c0.8-0.6,1.6-1.4,2.4-2l1.2-1.1c0.4-0.4,0.8-0.8,1.2-1.2
		c0.6-0.6,1.1-1.2,1.7-1.9c-0.7-0.8-2.8-3.1-3.3-4.5s-0.8-3.6,0.2-5c0.8-1.3,2.6-1.7,3.9-0.9c0.1,0.1,0.2,0.1,0.2,0.2
		c1.8,1.5,1.5,5.8,0.7,7.8c0,0.1-0.2,0.5-0.5,0.9c0.5-0.6,1-1.3,1.6-1.9c1.4-1.9,2.9-3.8,4.3-5.8c0.3-0.4,0.6-0.8,0.9-1.2
		c-0.6-0.6-2.8-3.1-3.4-4.6s-0.8-3.6,0.2-5c0.8-1.3,2.6-1.7,3.9-0.9c0.1,0.1,0.2,0.1,0.3,0.2c1.9,1.5,1.5,5.8,0.7,7.8
		c0,0.1-0.3,0.6-0.6,1.1c0.8-1.1,1.6-2.1,2.4-3.1c1.4-1.7,2.9-3.4,4.6-4.9c-0.2-0.2-2.9-3.1-3.5-4.8c-0.5-1.5-0.8-3.6,0.2-5
		c0.8-1.3,2.6-1.7,3.9-0.9c0.1,0,0.2,0.1,0.2,0.2c1.8,1.5,1.5,5.8,0.7,7.8c0,0.1-1,1.9-1.3,2.5h0.1c1.6-1.5,3.4-2.8,5.3-3.9
		c1.7-1,3.4-2,5.2-2.8c1.6-0.8,3.2-1.4,4.6-2c0.7-0.3,1.4-0.5,2.1-0.8l0,0c0,0,2.1-2,2.2-2.1c1.7-1.3,5.8-2.8,7.7-1.4
		c1.3,0.9,1.5,2.7,0.6,4c-0.1,0.1-0.1,0.2-0.2,0.2c-1.1,1.3-3.2,1.6-4.8,1.4s-4.6-1.7-5.4-2.1c-0.7,0.3-1.4,0.5-2.1,0.8
		c-1.4,0.6-2.9,1.2-4.5,2.1l-1.3,0.7c0.8-0.3,2-0.6,2.1-0.6c2.1-0.4,6.4,0.2,7.5,2.4c0.7,1.4,0.1,3.1-1.3,3.8
		c-0.1,0-0.2,0.1-0.3,0.1c-1.6,0.6-3.6-0.1-4.9-0.9s-3.4-3.7-3.8-4.4c-1,0.6-2,1.1-3,1.8c-1.8,1.2-3.5,2.5-5.1,4l-0.3,0.3
		c0.4-0.2,2.6-1.1,2.8-1.1c2.1-0.6,6.4-0.5,7.7,1.5c0.8,1.3,0.4,3.1-0.9,3.9c-0.1,0.1-0.2,0.1-0.3,0.2c-1.5,0.8-3.5,0.3-5-0.4
		c-1.7-0.8-4.3-3.9-4.4-4c-1.5,1.5-3,3.1-4.3,4.8c-1,1.3-1.9,2.6-2.9,3.9c0.5-0.2,2.6-1.1,2.7-1.1c2.1-0.6,6.4-0.5,7.7,1.5
		c0.8,1.3,0.4,3.1-1,3.9c-0.1,0-0.1,0.1-0.2,0.1c-1.5,0.8-3.5,0.3-5-0.4c-1.6-0.8-4.1-3.7-4.4-4c-0.4,0.6-0.9,1.2-1.3,1.8
		c-1.4,2-2.8,4-4.2,5.9c-0.5,0.7-1,1.3-1.5,2c0.8-0.3,2.2-0.9,2.3-0.9c2.1-0.6,6.4-0.5,7.7,1.5c0.8,1.3,0.4,3.1-0.9,3.9
		c-0.1,0.1-0.2,0.1-0.3,0.1c-1.5,0.8-3.5,0.3-5-0.4s-3.6-3.1-4.2-3.8c-0.9,1.1-1.7,2.1-2.6,3.1c-0.4,0.4-0.8,0.9-1.2,1.2l-1.1,1.3
		c-0.8,0.8-1.6,1.5-2.4,2.1l-1.2,1c0.7-0.5,1.9-1.2,2-1.2c2-0.9,6.2-1.4,7.9,0.3c1,1.2,0.9,3-0.3,4c-0.1,0.1-0.2,0.1-0.2,0.2
		c-1.4,1-3.4,0.9-5,0.4c-1.7-0.5-4.5-3-4.9-3.3c-1,0.8-1.9,1.6-2.8,2.3c-2.4,1.9-4.5,3.5-6.2,4.7c-5,6.1-13.1,8.2-13.1,8.2
		s-2.2-9.8,2.4-17.4C121.1,203.8,123.3,201.6,125.9,200z M138.1,207.8c-1.1-1.5-2-3.2-2.7-5c-0.3,0-0.7,0-1,0c0,3.2-0.7,6.4-2.1,9.4
		c1-0.7,2-1.5,3.1-2.3C136.4,209.1,137.2,208.5,138.1,207.8z"/>
	<path class="st3" d="M82.2,206c0,0,10-1.5,17.2,3.7s9,15.1,9,15.1s-10,1.5-17.2-3.7S82.2,206,82.2,206z"/>
	<polygon class="st7" points="109.2,207.7 97.9,200.7 98.2,200.1 109.1,206.8 107,195.4 107,195.4 96.6,184.9 97,184.4 106.8,194.4 
		101.9,166.7 102.6,166.6 105.9,185.4 111.1,178.9 111.6,179.3 106,186.2 108.4,199.6 116.3,189.6 116.8,190 108.6,200.4 
		110.7,212.7 116.8,205.8 117.3,206.3 110.9,213.4 112.3,221.3 111.7,221.4 109.2,207.7 	"/>
	<polygon class="st7" points="118.8,209.4 119.4,209.2 121.5,216 124.8,210.6 124.8,210.6 124.3,202 124.9,202 125.4,209.6 
		133.6,196.1 134.2,196.5 128.6,205.6 133,204.9 133.1,205.5 128.1,206.4 124.2,212.8 131.2,211.5 131.3,212.1 123.7,213.5 
		120.2,219.4 125.1,218.8 125.2,219.4 119.7,220 117.3,223.9 116.8,223.6 121,216.8 	"/>
	<polygon class="st7" points="95.7,216.2 87.1,216 87.1,215.4 94.8,215.5 82,206.3 82.3,205.7 91.1,212 90.6,207.5 91.3,207.4 
		91.7,212.5 97.9,216.9 97.1,209.9 97.8,209.8 98.6,217.4 104.1,221.4 103.9,216.4 104.5,216.4 104.8,221.9 108.5,224.6 
		108.1,225.1 101.6,220.4 94.1,222.1 94,221.4 100.9,219.9 95.7,216.2 	"/>
</g>
</svg>
