<?xml version="1.0" encoding="utf-8"?>
<!-- Generator: Adobe Illustrator 24.0.2, SVG Export Plug-In . SVG Version: 6.00 Build 0)  -->
<svg version="1.1" id="圖層_1" xmlns="http://www.w3.org/2000/svg" xmlns:xlink="http://www.w3.org/1999/xlink" x="0px" y="0px"
	 viewBox="0 0 500 500" style="enable-background:new 0 0 500 500;" xml:space="preserve">
<style type="text/css">
	.st0{fill:#DFE3D1;}
	.st1{opacity:0.7;fill:#FFFFFF;enable-background:new    ;}
	.st2{fill:#69A4A7;}
	.st3{opacity:0.2;fill-opacity:0.7;enable-background:new    ;}
	.st4{clip-path:url(#SVGID_2_);}
	.st5{fill:none;stroke:#263238;stroke-linecap:round;stroke-linejoin:round;}
	.st6{fill:#FFFFFF;}
	.st7{clip-path:url(#SVGID_4_);}
	.st8{opacity:0.4;fill:#69A4A7;enable-background:new    ;}
	.st9{fill:#263238;}
	.st10{fill:#69A4A7;stroke:#263238;stroke-linecap:round;stroke-linejoin:round;}
	.st11{opacity:0.5;fill:#69A4A7;enable-background:new    ;}
	.st12{fill:#757575;stroke:#263238;stroke-linecap:round;stroke-linejoin:round;}
	.st13{opacity:0.4;fill:#FFFFFF;enable-background:new    ;}
	.st14{clip-path:url(#SVGID_6_);}
	.st15{fill:#999999;stroke:#263238;stroke-linecap:round;stroke-linejoin:round;}
	.st16{opacity:0.1;}
	.st17{opacity:0.6;fill:#69A4A7;enable-background:new    ;}
	.st18{opacity:0.1;fill:#FFFFFF;enable-background:new    ;}
	.st19{opacity:0.2;fill:#69A4A7;enable-background:new    ;}
</style>
<rect class="st0" width="500" height="500"/>
<g id="freepik--background-simple--inject-2">
	<path class="st1" d="M67.9,167.1c0,0-27.9,72,11.3,144.5s119.9,110.8,184.5,143.6s131.7,16.8,163.5-36.8s-11.8-91.9-11.9-168.4
		s11.5-96.7-30-161.4s-143.1-78.9-219.9-31S67.9,167.1,67.9,167.1z"/>
	<path class="st2" d="M194,24.4c-34,5.6-66.5,17.9-94.1,39.2c-40.2,31-62.5,77.3-64.8,127.6c-1.5,33.2,6.4,65.6,16,97.2
		c12.3,40.6,20.3,86.9,46,121.6c40.1,54,117.6,76.8,182.4,67.1c41.9-6.3,86.1-30,99-73c4.8-15.9,7.1-33,15.2-47.7
		c9.8-17.6,27.5-27.9,40.9-42.3c16.6-17.7,23.3-39.8,27.5-63.1c9.1-51.1-3.3-105.3-33.2-147.7c-31.2-44.2-77.4-68-129.9-77.3
		c-5.8-1-11.5-1.9-17.4-2.6C252.9,19.8,222.9,19.6,194,24.4z"/>
	<path class="st1" d="M194,24.4c-34,5.6-66.5,17.9-94.1,39.2c-40.2,31-62.5,77.3-64.8,127.6c-1.5,33.2,6.4,65.6,16,97.2
		c12.3,40.6,20.3,86.9,46,121.6c40.1,54,117.6,76.8,182.4,67.1c41.9-6.3,86.1-30,99-73c4.8-15.9,7.1-33,15.2-47.7
		c9.8-17.6,27.5-27.9,40.9-42.3c16.6-17.7,23.3-39.8,27.5-63.1c9.1-51.1-3.3-105.3-33.2-147.7c-31.2-44.2-77.4-68-129.9-77.3
		c-5.8-1-11.5-1.9-17.4-2.6C252.9,19.8,222.9,19.6,194,24.4z"/>
</g>
<g id="freepik--Note--inject-2">
	<path class="st3" d="M201.3,382.7L285,367c0,0,18.9,59.8,22.8,67.5l-2,4.7l1.3,7.9L223.8,466l-6.7-5.3L201.3,382.7z"/>
	
		<rect x="206.4" y="369.1" transform="matrix(0.9731 -0.2304 0.2304 0.9731 -87.9467 68.1922)" class="st2" width="83.2" height="83.2"/>
	<g>
		<defs>
			
				<rect id="SVGID_1_" x="206.4" y="369.1" transform="matrix(0.9731 -0.2304 0.2304 0.9731 -87.9467 68.1922)" width="83.2" height="83.2"/>
		</defs>
		<clipPath id="SVGID_2_">
			<use xlink:href="#SVGID_1_"  style="overflow:visible;"/>
		</clipPath>
		<g class="st4">
			<path class="st3" d="M284.1,382.5l13.4,56.7l-77.2,18.3c-9.3-23.3-16.4-52.6-16.4-52.6L284.1,382.5z"/>
		</g>
	</g>
	
		<rect x="206.4" y="369.1" transform="matrix(0.9731 -0.2304 0.2304 0.9731 -87.9467 68.1922)" class="st5" width="83.2" height="83.2"/>
	<path class="st6" d="M300.6,436.4c-20.2,4.8-48.9,9.3-66.2,11.8c-9,1.3-15,2.1-15,2.1c-7.7-14-21.5-70.5-21.5-70.5l80.9-19.2
		c0.2,0.7,0.3,1.4,0.5,2.1C289,406.4,300.6,436.4,300.6,436.4z"/>
	<g>
		<defs>
			<path id="SVGID_3_" d="M300.6,436.4c-20.2,4.8-48.9,9.3-66.2,11.8c-9,1.3-15,2.1-15,2.1c-7.7-14-21.5-70.5-21.5-70.5l80.9-19.2
				c0.2,0.7,0.3,1.4,0.5,2.1C289,406.4,300.6,436.4,300.6,436.4z"/>
		</defs>
		<clipPath id="SVGID_4_">
			<use xlink:href="#SVGID_3_"  style="overflow:visible;"/>
		</clipPath>
		<g class="st7">
			<path class="st8" d="M300.6,436.4c-20.2,4.8-48.9,9.3-66.2,11.8c-13-8.6-16.1-17.1-15.9-25.2c0.2-9.6,41.9-0.2,50.6-9.7
				c6.2-6.8,6-35.5,10.2-50.7C289,406.4,300.6,436.4,300.6,436.4z"/>
		</g>
	</g>
	<path class="st5" d="M300.6,436.4c-20.2,4.8-48.9,9.3-66.2,11.8c-9,1.3-15,2.1-15,2.1c-7.7-14-21.5-70.5-21.5-70.5l80.9-19.2
		c0.2,0.7,0.3,1.4,0.5,2.1C289,406.4,300.6,436.4,300.6,436.4z"/>
	<path class="st5" d="M211.6,392c1.1-1.3,2.4-2.4,3.9-3.2l1.2,3.1l4.2-1.5c1.4-0.5,3-1.2,3.5-2.6c0.8,1.8,3.4,1.5,5.3,0.9
		c13.1-4.2,26.5-7.5,40-9.8"/>
	<path class="st5" d="M213.7,403.3c-0.9-0.5-0.1-2,0.8-1.9s1.6,1.1,1.7,2.1c0.9-0.1,1.6-0.8,1.8-1.6l1.4,1c-0.5-0.7-0.3-1.6,0.4-2.1
		c0.7-0.5,1.6-0.3,2.1,0.4c0,0.1,0.1,0.1,0.1,0.2c-0.1-1.1,0.3-2.8,1.4-2.5c0.3,0.1,0.7,0.3,0.9,0.6c1.2,0.7,2.7,0.3,3.5-0.8
		c0.1-0.2,0.2-0.5,0.3-0.7c1.1,1.2,3,1.1,4.7,0.8l14.6-2.5c0.1-0.9,0.6-2.1,1.5-2c0.5,0.1,0.9,0.6,1.3,0.9c0.7,0.3,1.5,0.3,2.2,0.1
		c6.6-1.4,13-3.4,19.3-5.8"/>
	<path class="st5" d="M218.7,416c1.9,0.2,3.9-0.1,5.7-0.8c-0.7-1.4-0.3-3.1,0.9-4l1.8,1.1c7.1-0.2,14.1-1.1,21-2.9
		c3.1-0.8,6.1-1.7,9.1-2.7l17.3-5.4"/>
</g>
<g id="freepik--Glasses--inject-2">
	<path class="st3" d="M352.4,61.5l-1.6,0.1c-1.5,0.2-3-0.8-3.4-2.3c-2.5-8.9-11.5-14-21.9-13.3c-9.4,0.6-19.3,6.5-25,14.7
		c-1.4,2.2-3.7,3.6-6.3,3.9l-8,0.5c-2.2,0.2-4.4-1.1-5.2-3.2c-3.2-7.6-11.4-12.4-20.8-11.8c-10.4,0.6-21.2,6.9-26.5,16.3
		c-0.9,1.5-2.4,2.6-4.2,2.8l-1.6,0.1c-0.8,0.1-1.4,0.7-1.5,1.4l-0.6,4c-0.2,0.5,0.2,1.1,0.7,1.2c0,0,0.1,0,0.1,0l1.9,0.6
		c1.6,0.5,2.6,2,2.4,3.6c-0.7,12.8,8.4,22.2,21.2,21.4c12.4-0.8,24.2-10.8,28.1-23.1c0.7-2,2.3-3.6,4.4-4.2c2.8-0.7,5.6-0.9,8.4-0.6
		c1.9,0.2,3.3,1.8,3.2,3.7c0,12.2,8.8,20.9,21.3,20.1C330.4,96.7,342.6,86,346,73c0.5-1.8,1.8-3.3,3.6-4l2.2-0.8
		c0.6-0.2,1.1-0.7,1.2-1.4l0.6-4c0.2-0.5-0.1-1.1-0.7-1.3C352.8,61.5,352.6,61.5,352.4,61.5z M252.7,98.1c-12,0.7-20.1-8.7-18.2-21
		s13.3-23,25.2-23.7s20.1,8.7,18.2,21S264.7,97.4,252.7,98.1z M281.5,71.8c0-0.7,0.1-1.4,0.1-2.1c0-0.6,0.5-1.1,1.1-1.1l14.3-0.9
		c0.4,0,0.7,0.3,0.8,0.6c0,0.1,0,0.2-0.1,0.4c-0.2,0.7-0.4,1.4-0.6,2.1C290.9,69.1,284.7,70.7,281.5,71.8z M318,94.1
		c-12,0.7-20.1-8.7-18.2-21s13.3-23,25.2-23.7s20.1,8.7,18.2,21S330,93.3,318,94.1z"/>
	<path class="st9" d="M342.2,64l-91.8,12.2c-4.4,0.6-8.3,3-10.8,6.6l-13.4,19.5c-0.5,0.7-0.3,1.6,0.4,2c0.1,0.1,0.2,0.1,0.3,0.2l0,0
		c1.9,0.7,4,0.1,5.1-1.6l12.4-18c1.5-2.2,3.8-3.6,6.4-4l91.7-13L342.2,64z"/>
	<path class="st9" d="M218.4,71.7l92.5-1.5c4.4-0.1,8.7,1.8,11.7,5l16.2,17.3c0.5,0.6,0.5,1.5-0.1,2c-0.1,0.1-0.2,0.1-0.3,0.2l0,0
		c-1.7,1-3.9,0.7-5.3-0.8l-15-16c-1.8-1.9-4.3-3-7-3l-92.6,0.7L218.4,71.7z"/>
	<path class="st10" d="M274.5,77.6c1.1,0.2,1.1,8-1.5,10.6s-5.2-3.8-4.5-6.1S270.9,76.9,274.5,77.6z"/>
	<path class="st10" d="M290.5,76.6c-1.1,0.4-0.1,8,2.8,10.4s4.7-4.4,3.8-6.6S294,75.5,290.5,76.6z"/>
	<path class="st11" d="M233.2,59.4c4.8-4.1,15.1-11.2,26.3-4.5s15.1,14,12.8,23.9s-9.4,23.1-26,20.8S218.2,72.2,233.2,59.4z"/>
	<path class="st11" d="M298.6,56.2c4.8-4.1,15.1-11.2,26.3-4.5s15.1,14,12.8,23.9s-9.4,23.1-26,20.8S283.6,69,298.6,56.2z"/>
	<path class="st12" d="M344.1,62.6l-1.6,0.1c-1.6,0.1-3.2-0.8-3.9-2.2c-4.5-8.7-14.7-13.5-25.1-12.9c-9.3,0.6-17.7,6-22.1,14.3
		c-1.1,2.2-3.2,3.6-5.6,3.8l-8,0.5c-2.4,0.1-4.7-1-6-3c-5.4-7.7-14.3-12-23.7-11.5c-10.4,0.7-19.9,6.7-23.3,15.9
		c-0.6,1.5-2,2.6-3.6,2.7l-1.6,0.1c-0.7,0-1.3,0.7-1.2,1.4l0.2,3.9c0,0.6,0.5,1.1,1.1,1.2l2.1,0.6c1.7,0.4,2.9,1.8,3.2,3.5
		c2.2,13.6,15,22.9,28.6,20.8c11.3-1.8,20-11.1,21-22.5c0.2-1.9,1.6-3.5,3.5-4c2.7-0.7,5.6-0.9,8.4-0.6c2,0.3,3.5,1.7,4,3.6
		c2.8,13.5,16,22.2,29.6,19.4c11.3-2.4,19.6-12.2,19.9-23.8c0.1-1.7,1.2-3.2,2.8-3.8l2-0.8c0.6-0.2,0.9-0.7,0.9-1.3l-0.3-3.9
		C345.4,63.1,344.8,62.6,344.1,62.6z M251,98.3c-12,0.7-22.3-8.4-23-20.3s8.4-22.3,20.3-23c12-0.7,22.3,8.4,23,20.3c0,0,0,0,0,0
		C272.1,87.3,263,97.6,251,98.3z M274.4,72.8c-0.1-0.7-0.2-1.3-0.4-2c-0.1-0.5,0.2-1,0.7-1.1c0.1,0,0.1,0,0.2,0l14.3-0.9
		c0.5-0.1,0.9,0.3,1,0.8c0,0.1,0,0.1,0,0.2c-0.1,0.7-0.1,1.3-0.1,2C284.8,70.5,279.4,70.8,274.4,72.8L274.4,72.8z M316.3,94.3
		c-12,0.7-22.3-8.4-23-20.3s8.4-22.3,20.3-23s22.3,8.4,23,20.3c0,0,0,0,0,0C337.4,83.2,328.3,93.5,316.3,94.3L316.3,94.3z"/>
	<path class="st13" d="M235,90.6c0,0-8-10.6-2.4-22.9c5.1-11.1,17-12.3,22.6-10L243,79.3c1.1-5.3,2.8-10.4,5.1-15.3
		C248.1,64,237.2,75,235,90.6z"/>
	<path class="st13" d="M300.2,86c0,0-8-10.6-2.4-22.9c5.1-11.1,17-12.3,22.6-10l-12.3,21.5c0.9-7.7,5.1-15.3,5.1-15.3
		S302.4,70.3,300.2,86z"/>
</g>
<g id="freepik--Pen--inject-2">
	<polygon class="st3" points="65.6,272.8 68.5,285.9 71.8,271.1 63.1,123.8 57.2,123.8 	"/>
	<path class="st2" d="M60.3,122l8.2,148.2l-3,12.2l-4.3-11.8l-8.2-148.2c-0.1-1,0.7-1.9,1.7-2c0,0,0,0,0,0l3.7-0.2
		C59.4,120.1,60.2,120.9,60.3,122C60.3,122,60.3,122,60.3,122z"/>
	<g>
		<defs>
			<path id="SVGID_5_" d="M60.3,122l8.2,148.2l-3,12.2l-4.3-11.8l-8.2-148.2c-0.1-1,0.7-1.9,1.7-2c0,0,0,0,0,0l3.7-0.2
				C59.4,120.1,60.2,120.9,60.3,122C60.3,122,60.3,122,60.3,122z"/>
		</defs>
		<clipPath id="SVGID_6_">
			<use xlink:href="#SVGID_5_"  style="overflow:visible;"/>
		</clipPath>
		<g class="st14">
			<path class="st3" d="M65.5,282.4l-4.3-11.8l-8.2-148.2c-0.1-1,0.7-1.9,1.7-2c0,0,0,0,0,0h0.5l8.3,149.3L65.5,282.4z"/>
		</g>
	</g>
	<path class="st5" d="M60.3,122l8.2,148.2l-3,12.2l-4.3-11.8l-8.2-148.2c-0.1-1,0.7-1.9,1.7-2c0,0,0,0,0,0l3.7-0.2
		C59.4,120.1,60.2,120.9,60.3,122C60.3,122,60.3,122,60.3,122z"/>
	<path class="st10" d="M55.3,123l8,145.5c0,0.7,0.6,1.2,1.3,1.2c0,0,0,0,0,0h0.9"/>
</g>
<g id="freepik--Device--inject-2">
	<path class="st3" d="M91.8,300.5l27.1-177.1c1.7-11.3,12.3-19.1,23.7-17.4l260.3,39.8c11.3,1.7,19.1,12.3,17.4,23.7c0,0,0,0,0,0
		l-27.1,177.1c-1.7,11.3-12.3,19.1-23.6,17.4c0,0,0,0,0,0l-260.3-39.9C97.8,322.4,90,311.8,91.8,300.5z"/>
	<path class="st10" d="M112.6,130l2.1-13.5c0.1-0.5,0.6-0.9,1.1-0.8l5.7,0.9l0,0l-2.4,15.4l0,0l-5.7-0.9
		C112.9,131,112.6,130.5,112.6,130z"/>
	<path class="st10" d="M147.9,101.7l13.5,2.1c0.5,0.1,0.9,0.6,0.8,1.1l-0.9,5.7l0,0l-15.4-2.4l0,0l0.9-5.7
		C146.8,102,147.3,101.6,147.9,101.7z"/>
	<path class="st10" d="M166.2,104.5l13.5,2.1c0.5,0.1,0.9,0.6,0.8,1.1l-0.9,5.7l0,0l-15.4-2.4l0,0l0.9-5.7
		C165.2,104.8,165.7,104.4,166.2,104.5z"/>
	<path class="st10" d="M88.8,296.5l27.1-177.1c1.7-11.3,12.3-19.1,23.7-17.4l260.3,39.8c11.3,1.7,19.1,12.3,17.4,23.7c0,0,0,0,0,0
		l-27.1,177.1c-1.7,11.3-12.3,19.1-23.6,17.4c0,0,0,0,0,0l-260.3-39.9C94.8,318.4,87,307.8,88.8,296.5z"/>
	<path class="st12" d="M367.5,357.8l-261.7-40.1c-9.7-1.5-16.4-10.5-14.9-20.2c0,0,0,0,0,0L118.3,119c1.5-9.7,10.5-16.4,20.3-14.9
		l261.7,40c9.7,1.5,16.4,10.6,14.9,20.3l-27.3,178.5C386.3,352.6,377.2,359.3,367.5,357.8C367.5,357.8,367.5,357.8,367.5,357.8z"/>
	<path class="st15" d="M109,208.9c-0.1,0.5-0.6,0.9-1.2,0.8c-0.5-0.1-0.9-0.6-0.8-1.2c0.1-0.5,0.6-0.9,1.1-0.8
		C108.7,207.8,109.1,208.3,109,208.9C109,208.9,109,208.9,109,208.9z"/>
	<path class="st9" d="M108.5,218.2c-0.2,1.1-1.2,1.7-2.3,1.5c-1-0.2-1.6-1.1-1.5-2.1c0.2-1.1,1.2-1.7,2.3-1.5
		C107.9,216.3,108.6,217.2,108.5,218.2z"/>
	<path class="st9" d="M111.9,195.8c-0.2,1.1-1.2,1.7-2.3,1.5c-1-0.2-1.6-1.1-1.5-2.1c0.1-1.1,1.1-1.9,2.1-1.7
		c1.1,0.1,1.9,1.1,1.7,2.1C112,195.7,112,195.8,111.9,195.8z"/>
	<path class="st9" d="M107,224.5c-0.1,0.8-0.8,1.3-1.6,1.2c-0.8-0.1-1.3-0.8-1.2-1.6c0.1-0.8,0.8-1.3,1.6-1.2
		C106.6,223,107.1,223.7,107,224.5C107,224.5,107,224.5,107,224.5z"/>
	<path class="st9" d="M408.5,161.4l-27.9,182.5c-0.7,4.8-5.2,8.1-10,7.4l-219.2-33.6l-4.8-0.7l-17.9-2.7l-8.7-1.3l-12.5-1.9
		l-2.7-0.4c-4.8-0.7-8.1-5.2-7.3-10L125.4,118c0.7-4.8,5.2-8.1,10-7.3c0,0,0,0,0,0l81.8,12.5l12.4,1.9l11.8,1.8l15.2,2.3l5.5,0.8
		l139,21.3C406,152.1,409.2,156.6,408.5,161.4C408.5,161.4,408.5,161.4,408.5,161.4z"/>
	<g class="st16">
		<path class="st6" d="M203,316l-93-14.2c-1.3-0.2-2.1-1.4-1.9-2.6l9.2-60.3c0.2-1.3,1.4-2.1,2.6-1.9l93,14.2
			c1.3,0.2,2.1,1.4,1.9,2.6c0,0,0,0,0,0l-9.2,60.3C205.4,315.3,204.3,316.2,203,316C203,316,203,316,203,316z M119.8,237.7
			c-0.8-0.1-1.6,0.4-1.7,1.3c0,0,0,0,0,0l-9.2,60.3c-0.1,0.8,0.4,1.6,1.3,1.7c0,0,0,0,0,0l92.9,14.2c0.8,0.1,1.6-0.4,1.7-1.3
			c0,0,0,0,0,0l9.2-60.3c0.1-0.8-0.4-1.6-1.3-1.7L119.8,237.7z"/>
	</g>
	<path class="st8" d="M147.9,274.2l20.8,11.8c4.5-8.2,3.9-18.3-1.5-26L147.9,274.2z"/>
	<path class="st17" d="M148.1,273l18.6-13.7c-2.5-3.3-5.8-5.9-9.6-7.6l-3.7,8.7L148.1,273z"/>
	<path class="st2" d="M151.3,250l-3.2,21l8.3-19.6C154.7,250.7,153,250.3,151.3,250z"/>
	<path class="st18" d="M146.8,273.9l3.7-24c-13.4-1.8-25.8,7.6-27.6,21c-0.6,4.1-0.1,8.2,1.4,12L146.8,273.9z"/>
	<path class="st19" d="M143.4,298.5c9.9,1.5,19.8-3.2,24.9-11.8l-21.2-12l-22.7,9C127.8,291.6,135,297.2,143.4,298.5z"/>
	<path class="st2" d="M183,259.3l2.8,0.4c0.3,0.1,0.6,0.4,0.5,0.7l-0.4,2.8c-0.1,0.3-0.4,0.6-0.7,0.5l-2.8-0.4
		c-0.3-0.1-0.6-0.4-0.5-0.7l0.4-2.8C182.3,259.5,182.7,259.3,183,259.3z"/>
	<path class="st2" d="M200.8,263.5l-12.1-1.8c-0.3,0-0.4-0.3-0.4-0.5c0,0,0,0,0,0c0-0.3,0.3-0.4,0.5-0.4c0,0,0,0,0,0l12,1.9
		c0.3,0,0.4,0.3,0.4,0.5c0,0,0,0,0,0C201.2,263.4,201,263.6,200.8,263.5z"/>
	<path class="st2" d="M196.8,265l-8.4-1.3c-0.3,0-0.4-0.3-0.4-0.5c0,0,0,0,0,0c0-0.3,0.3-0.4,0.5-0.4l8.4,1.3c0.3,0,0.4,0.3,0.4,0.5
		c0,0,0,0,0,0C197.3,264.9,197,265,196.8,265C196.8,265,196.8,265,196.8,265z"/>
	<path class="st17" d="M181.6,268.3l2.8,0.4c0.3,0.1,0.6,0.4,0.5,0.7l-0.4,2.8c-0.1,0.3-0.4,0.6-0.7,0.5l-2.8-0.4
		c-0.3-0.1-0.6-0.4-0.5-0.7l0.4-2.8C181,268.5,181.3,268.2,181.6,268.3z"/>
	<path class="st2" d="M199.4,272.5l-12.1-1.8c-0.2,0-0.4-0.3-0.4-0.5c0-0.3,0.3-0.4,0.5-0.4l12.1,1.9c0.3,0,0.4,0.3,0.4,0.5
		C199.9,272.4,199.6,272.5,199.4,272.5z"/>
	<path class="st2" d="M195.4,273.9l-8.4-1.3c-0.2-0.1-0.4-0.3-0.3-0.6c0.1-0.2,0.2-0.3,0.5-0.3l8.4,1.3c0.3,0,0.4,0.3,0.4,0.5
		c0,0,0,0,0,0C195.9,273.8,195.6,274,195.4,273.9z"/>
	<path class="st8" d="M180.9,277.4l2.8,0.4c0.3,0.1,0.6,0.4,0.5,0.7l-0.4,2.8c-0.1,0.3-0.4,0.6-0.7,0.5l-2.8-0.4
		c-0.3-0.1-0.6-0.4-0.5-0.7l0.4-2.8C180.2,277.6,180.5,277.4,180.9,277.4z"/>
	<path class="st2" d="M198,281.5l-12-1.8c-0.2-0.1-0.4-0.3-0.3-0.6c0.1-0.2,0.2-0.3,0.5-0.3l12,1.8c0.3,0,0.4,0.3,0.4,0.5
		c0,0,0,0,0,0C198.5,281.3,198.3,281.5,198,281.5C198,281.5,198,281.5,198,281.5z"/>
	<path class="st2" d="M194,282.9l-8.4-1.3c-0.2-0.1-0.4-0.3-0.3-0.6c0.1-0.2,0.2-0.3,0.5-0.3l8.4,1.3c0.2,0.1,0.4,0.3,0.3,0.6
		C194.4,282.8,194.2,282.9,194,282.9z"/>
	<path class="st19" d="M178.9,286.2l2.8,0.4c0.3,0.1,0.6,0.4,0.5,0.7l-0.4,2.8c-0.1,0.3-0.4,0.6-0.7,0.5l-2.8-0.4
		c-0.3-0.1-0.6-0.4-0.5-0.7l0.4-2.8C178.2,286.4,178.6,286.2,178.9,286.2z"/>
	<path class="st2" d="M196.6,290.4l-12-1.8c-0.3,0-0.4-0.3-0.4-0.5c0-0.3,0.3-0.4,0.5-0.4c0,0,0,0,0,0l12.1,1.8
		c0.3,0,0.4,0.3,0.4,0.5c0,0,0,0,0,0C197.2,290.3,197,290.5,196.6,290.4C196.7,290.4,196.7,290.4,196.6,290.4z"/>
	<path class="st2" d="M192.6,291.9l-8.4-1.3c-0.3,0-0.4-0.3-0.4-0.5c0,0,0,0,0,0c0-0.3,0.3-0.4,0.5-0.4c0,0,0,0,0,0l8.4,1.3
		c0.3,0,0.4,0.3,0.4,0.5C193.1,291.7,192.9,291.9,192.6,291.9C192.7,291.9,192.7,291.9,192.6,291.9z"/>
	<path class="st18" d="M177.5,295.2l2.8,0.4c0.3,0.1,0.6,0.4,0.5,0.7l-0.4,2.8c-0.1,0.3-0.4,0.6-0.7,0.5l-2.8-0.4
		c-0.3-0.1-0.6-0.4-0.5-0.7l0.4-2.8C176.9,295.4,177.2,295.1,177.5,295.2z"/>
	<path class="st2" d="M195.3,299.4l-12-1.8c-0.3,0-0.4-0.3-0.4-0.5c0-0.3,0.3-0.4,0.5-0.4c0,0,0,0,0,0l12.1,1.8
		c0.3,0,0.4,0.3,0.4,0.5c0,0,0,0,0,0C195.8,299.2,195.6,299.4,195.3,299.4C195.3,299.4,195.3,299.4,195.3,299.4z"/>
	<path class="st2" d="M191.3,300.8l-8.4-1.3c-0.3,0-0.4-0.3-0.4-0.5c0,0,0,0,0,0c0-0.2,0.3-0.4,0.5-0.4c0,0,0,0,0,0l8.4,1.3
		c0.3,0,0.5,0.2,0.5,0.5c0,0.3-0.2,0.5-0.5,0.5C191.4,300.8,191.3,300.8,191.3,300.8L191.3,300.8z"/>
	<g class="st16">
		<path class="st6" d="M378.2,276.4L227,253.3c-1.3-0.2-2.4,0.7-2.6,1.9l-0.6,4.2l-0.1,0.8l-0.9,5.6l-0.1,0.8l-0.9,5.6l-0.1,0.8
			l-0.9,5.6l-0.1,0.8l-0.9,5.6l-0.1,0.8l-0.9,5.6l-0.1,0.8l-0.9,5.6l-0.1,0.8l-0.9,5.6l-0.1,0.8l-0.9,5.6l-0.1,0.8l-0.6,4.2
			c-0.2,1.3,0.7,2.4,1.9,2.6c0,0,0,0,0,0l151.1,23.1c1.3,0.2,2.4-0.7,2.6-1.9l0.6-4.2l0.1-0.8l0.9-5.6l0.1-0.8l0.9-5.6l0.1-0.8
			l0.9-5.6l0.1-0.8l0.9-5.6l0.1-0.8l0.9-5.6l0.1-0.8l0.9-5.6l0.1-0.8l0.9-5.6l0.1-0.8l0.9-5.6l0.1-0.8l0.6-4.2
			C380.2,277.8,379.4,276.6,378.2,276.4z M370.1,339.2c-0.1,0.8-0.9,1.4-1.7,1.3l-151.1-23.1c-0.8-0.1-1.4-0.9-1.3-1.7l0.6-4.2
			l154.1,23.6L370.1,339.2z M370.8,334.2l-154.1-23.6l0.9-5.6l154.1,23.6L370.8,334.2z M371.8,327.8l-154.1-23.5l0.9-5.6l154.1,23.6
			L371.8,327.8z M372.8,321.4l-154.1-23.6l0.9-5.6l154.1,23.6L372.8,321.4z M373.8,315l-154.1-23.6l0.9-5.6l154.1,23.6L373.8,315z
			 M374.8,308.6L220.7,285l0.9-5.6L375.7,303L374.8,308.6z M375.8,302.2l-154.1-23.6l0.9-5.6l154.1,23.6L375.8,302.2z M376.8,295.8
			l-154.2-23.5l0.9-5.6l154.1,23.6L376.8,295.8z M377.8,289.4l-154.2-23.6l0.9-5.6l154.1,23.6L377.8,289.4z M224.7,259.4l0.6-4.1
			c0.1-0.8,0.9-1.4,1.7-1.3c0,0,0,0,0,0L378,277.2c0.8,0.1,1.4,0.9,1.3,1.7l-0.6,4.2L224.7,259.4z"/>
	</g>
	<g class="st16">
		<path class="st6" d="M394.3,168.7l-257.5-39.4c-1.4-0.2-2.8,0.8-3,2.2c0,0,0,0,0,0l-14.4,94.3c-0.2,1.4,0.8,2.8,2.2,3l257.5,39.4
			c1.4,0.2,2.8-0.8,3-2.2l14.4-94.3C396.7,170.3,395.7,168.9,394.3,168.7C394.3,168.7,394.3,168.7,394.3,168.7z M184.3,182.3
			l17.9,2.7l-1.6,10.2l-17.9-2.7L184.3,182.3z M181.9,192.3l-17.9-2.7l1.6-10.2l17.9,2.7L181.9,192.3z M203,185.1l17.9,2.7
			l-1.6,10.2l-17.9-2.7L203,185.1z M295.9,198.5l-17.9-2.7l1.5-10.2l17.9,2.7L295.9,198.5z M298.2,188.5l17.9,2.7l-1.6,10.2
			l-17.9-2.7L298.2,188.5z M240.4,190.9l17.9,2.7l-1.6,10.2l-17.9-2.8L240.4,190.9z M238.1,200.9l-17.9-2.7l1.5-10.2l17.9,2.7
			L238.1,200.9z M259.1,193.7l17.9,2.7l-1.6,10.2l-17.9-2.7L259.1,193.7z M277.8,196.6l17.9,2.7l-1.6,10.2l-17.9-2.7L277.8,196.6z
			 M277.2,195.7l-17.9-2.7l1.5-10.2l17.9,2.8L277.2,195.7z M258.5,192.8l-17.9-2.7l1.6-10.2l17.9,2.7L258.5,192.8z M239.7,190
			l-17.9-2.8l1.6-10.3l17.9,2.7L239.7,190z M221,187.1l-17.9-2.7l1.6-10.2l17.9,2.7L221,187.1z M219.2,198.9l-1.6,10.1l-17.9-2.7
			l1.6-10.2L219.2,198.9z M220,199l17.9,2.7l-1.6,10.2l-17.9-2.7L220,199z M238.7,201.8l17.9,2.7l-1.6,10.2l-17.9-2.7L238.7,201.8z
			 M257.4,204.7l17.9,2.8l-1.6,10.2l-17.9-2.7L257.4,204.7z M276.1,207.6l17.9,2.7l-1.6,10.2l-17.9-2.7L276.1,207.6z M294.8,210.4
			l17.9,2.7l-1.6,10.2l-17.9-2.7L294.8,210.4z M295,209.6l1.5-10.2l17.9,2.7l-1.6,10.2L295,209.6z M315.2,202.3l17.9,2.7l-1.6,10.2
			l-17.9-2.7L315.2,202.3z M333.9,205.2l17.9,2.8l-1.6,10.2l-17.9-2.7L333.9,205.2z M334.1,204.4l1.5-10.2l17.9,2.8l-1.5,10.1
			L334.1,204.4z M333.3,204.3l-17.9-2.8l1.5-10.2l17.9,2.8L333.3,204.3z M317,190.6l1.6-10.2l17.9,2.7l-1.5,10.2L317,190.6z
			 M316.2,190.4l-17.9-2.8l1.5-10.2l17.9,2.7L316.2,190.4z M297.5,187.6l-17.9-2.7l1.6-10.2l17.9,2.7L297.5,187.6z M278.8,184.7
			l-17.9-2.7l1.6-10.2l17.9,2.7L278.8,184.7z M260.1,181.8l-17.9-2.7l1.6-10.2l17.9,2.8L260.1,181.8z M241.4,179l-17.9-2.7l1.5-10.2
			l18,2.7L241.4,179z M222.7,176.1l-17.9-2.7l1.6-10.2l17.9,2.8L222.7,176.1z M204,173.3l-17.9-2.7l1.6-10.2l17.9,2.8L204,173.3z
			 M203.9,174.1l-1.6,10.2l-17.9-2.7l1.6-10.2L203.9,174.1z M183.6,181.4l-17.9-2.8l1.6-10.2l17.9,2.8L183.6,181.4z M164.9,178.5
			l-17.9-2.7l1.6-10.2l17.9,2.7L164.9,178.5z M164.8,179.3l-1.6,10.2l-17.9-2.7l1.6-10.2L164.8,179.3z M163.1,190.3l-1.6,10.2
			l-17.9-2.7l1.6-10.2L163.1,190.3z M163.9,190.4l17.9,2.7l-1.6,10.2l-17.9-2.8L163.9,190.4z M182.6,193.3l17.9,2.7l-1.6,10.2
			l-17.9-2.8L182.6,193.3z M198.8,207l-1.6,10.2l-17.9-2.8l1.6-10.2L198.8,207z M199.6,207.1l17.9,2.7L216,220l-17.9-2.7
			L199.6,207.1z M218.3,210l17.9,2.7l-1.6,10.2l-17.9-2.7L218.3,210z M237,212.8l18,2.7l-1.6,10.2l-18-2.7L237,212.8z M255.7,215.7
			l17.9,2.7l-1.6,10.2l-17.9-2.7L255.7,215.7z M274.4,218.5l17.9,2.8l-1.6,10.2l-17.9-2.7L274.4,218.5z M293.1,221.4l17.9,2.7
			l-1.6,10.2l-17.9-2.7L293.1,221.4z M311.8,224.3l18,2.8l-1.6,10.2l-17.9-2.7L311.8,224.3z M312,223.4l1.6-10.2l18,2.7l-1.6,10.2
			L312,223.4z M332.2,216.1l17.9,2.7l-1.6,10.2l-17.9-2.7L332.2,216.1z M351,219l17.9,2.7l-1.6,10.2l-17.9-2.7L351,219z
			 M351.1,218.2l1.5-10.2l17.9,2.7L369,221L351.1,218.2z M352.8,207.2l1.5-10.2l17.9,2.7l-1.6,10.2L352.8,207.2z M354.5,196.2
			l1.5-10.1l17.9,2.7l-1.5,10.1L354.5,196.2z M353.7,196.1l-17.9-2.7l1.6-10.2l17.9,2.8L353.7,196.1z M337.4,182.4l1.6-10.1
			l17.9,2.7l-1.5,10.2L337.4,182.4z M336.6,182.3l-17.9-2.7l1.6-10.2l17.9,2.8L336.6,182.3z M317.9,179.4l-17.9-2.7l1.6-10.2
			l17.9,2.7L317.9,179.4z M299.2,176.5l-17.9-2.7l1.6-10.2l17.9,2.7L299.2,176.5z M280.5,173.7l-17.9-2.7l1.6-10.2l17.9,2.7
			L280.5,173.7z M261.8,170.8l-17.9-2.7l1.5-10.1l17.9,2.7L261.8,170.8z M243.1,168l-17.9-2.8l1.6-10.2l17.9,2.7L243.1,168z
			 M224.4,165.1l-17.9-2.7l1.6-10.1l17.9,2.8L224.4,165.1z M205.7,162.3l-17.9-2.7l1.6-10.2l17.9,2.7L205.7,162.3z M187,159.4
			l-18-2.7l1.6-10.2l17.9,2.8L187,159.4z M186.9,160.2l-1.6,10.2l-17.9-2.7l1.6-10.2L186.9,160.2z M166.6,167.5l-17.9-2.8l1.6-10.2
			l17.9,2.7L166.6,167.5z M147.9,164.7l-17.9-2.7l1.6-10.2l17.9,2.7L147.9,164.7z M147.8,165.5l-1.6,10.2l-17.9-2.7l1.6-10.2
			L147.8,165.5z M146.1,176.5l-1.6,10.2l-17.9-2.7l1.6-10.2L146.1,176.5z M144.4,187.5l-1.6,10.2l-17.9-2.7l1.6-10.2L144.4,187.5z
			 M142.7,198.5l-1.6,10.2l-17.9-2.7l1.6-10.2L142.7,198.5z M143.5,198.6l17.9,2.7l-1.6,10.2l-17.9-2.7L143.5,198.6z M162.3,201.4
			l17.9,2.7l-1.6,10.2l-17.9-2.7L162.3,201.4z M178.5,215.2l-1.6,10.2l-17.9-2.8l1.6-10.2L178.5,215.2z M179.3,215.3l17.9,2.7
			l-1.6,10.2l-17.9-2.7L179.3,215.3z M197.9,218l17.9,2.8l-1.6,10.2l-17.9-2.7L197.9,218z M216.6,220.9l17.9,2.7l-1.6,10.2
			l-17.9-2.7L216.6,220.9z M235.4,223.7l17.9,2.7l-1.6,10.2l-17.9-2.7L235.4,223.7z M254.1,226.6l17.9,2.8l-1.5,10.2l-17.9-2.8
			L254.1,226.6z M272.8,229.5l17.9,2.7l-1.5,10.2l-17.9-2.7L272.8,229.5z M291.5,232.3l17.9,2.7l-1.5,10.2l-17.9-2.7L291.5,232.3z
			 M310.2,235.2l17.9,2.8l-1.5,10.2l-17.9-2.7L310.2,235.2z M328.9,238l17.9,2.7l-1.5,10.2l-17.9-2.7L328.9,238z M329,237.2
			l1.6-10.2l17.9,2.8l-1.6,10.2L329,237.2z M349.3,230l17.9,2.7l-1.6,10.2l-17.9-2.7L349.3,230z M368,232.8l17.9,2.7l-1.6,10.2
			l-17.9-2.8L368,232.8z M368.1,232.1l1.6-10.2l17.9,2.7l-1.6,10.2L368.1,232.1z M369.8,221.1l1.5-10.2l17.9,2.7l-1.6,10.2
			L369.8,221.1z M371.5,210.1L373,200l18,2.7l-1.5,10.2L371.5,210.1z M373.1,199.1l1.6-10.1l17.9,2.7l-1.5,10.2L373.1,199.1z
			 M374.8,188.1l1.6-10.1l17.9,2.7l-1.5,10.2L374.8,188.1z M374,187.9l-17.9-2.7l1.6-10.2l17.9,2.7L374,187.9z M357.8,174.2
			l1.6-10.2l17.9,2.7l-1.6,10.2L357.8,174.2z M357,174.1l-17.9-2.7l1.6-10.2l17.9,2.7L357,174.1z M338.3,171.2l-17.9-2.7l1.6-10
			l17.9,2.7L338.3,171.2z M319.6,168.4l-17.9-2.8l1.6-10.2l17.9,2.7L319.6,168.4z M300.9,165.5l-17.9-2.6l1.6-10.2l17.9,2.7
			L300.9,165.5z M282.2,162.7l-17.9-2.7l1.6-10.2l17.9,2.7L282.2,162.7z M263.5,159.8l-17.9-2.7l1.6-10l17.9,2.8L263.5,159.8z
			 M244.8,156.9l-17.9-2.7l1.6-10.2l17.9,2.7L244.8,156.9z M226,154.1l-17.9-2.8l1.6-10.2l17.9,2.8L226,154.1z M207.3,151.2
			l-17.9-2.7l1.6-10l17.9,2.7L207.3,151.2z M188.6,148.3l-17.9-2.7l1.6-10.2l17.9,2.7L188.6,148.3z M169.9,145.5l-17.9-2.6l1.6-10.2
			l17.9,2.7L169.9,145.5z M169.8,146.3l-1.6,10.2l-17.9-2.7l1.6-10.2L169.8,146.3z M149.5,153.6l-17.9-2.6l1.6-10.2l17.9,2.7
			L149.5,153.6z M123.1,206.6l17.9,2.7l-1.6,10.2l-17.9-2.7L123.1,206.6z M141.8,209.4l17.9,2.7l-1.6,10.2l-17.9-2.7L141.8,209.4z
			 M158,223.1l-1.6,10.2l-17.9-2.7l1.6-10.2L158,223.1z M158.8,223.3l17.9,2.7l-1.6,10.2l-17.9-2.7L158.8,223.3z M177.5,226.1
			l17.9,2.7l-1.6,10.2l-17.9-2.7L177.5,226.1z M196.3,229l17.9,2.7l-1.6,10.2l-17.9-2.7L196.3,229z M215,231.9l17.9,2.8l-1.6,10.2
			l-17.9-2.8L215,231.9z M233.7,234.7l17.9,2.7l-1.6,10.2l-17.9-2.7L233.7,234.7z M252.4,237.6l17.9,2.7l-1.5,10.2l-17.9-2.7
			L252.4,237.6z M271.1,240.4l17.9,2.8l-1.5,10.2l-17.9-2.7L271.1,240.4z M289.8,243.3l17.9,2.7l-1.5,10.2l-17.9-2.7L289.8,243.3z
			 M308.5,246.2l17.9,2.7l-1.5,10.2l-17.9-2.7L308.5,246.2z M327.3,249l17.9,2.7l-1.6,10.2l-17.9-2.8L327.3,249z M346,251.9
			l17.9,2.7l-1.5,10.2l-17.9-2.7L346,251.9z M346.1,251.1l1.6-10.2l17.9,2.8l-1.6,10.2L346.1,251.1z M366.4,243.8l17.9,2.7
			l-1.5,10.2l-17.9-2.7L366.4,243.8z M395.7,171.6l-1.3,8.4l-17.9-2.7l1.6-10.2l16.1,2.5C395.2,169.7,395.8,170.6,395.7,171.6
			L395.7,171.6z M136.7,130.1l16.1,2.5l-1.6,10.2l-18-2.7l1.3-8.4C134.7,130.6,135.6,130,136.7,130.1
			C136.7,130.1,136.7,130.1,136.7,130.1L136.7,130.1z M120.2,225.9l1.3-8.4l17.9,2.8l-1.6,10.2l-16.2-2.4
			C120.7,227.8,120,226.9,120.2,225.9L120.2,225.9z M379.2,267.4l-16.1-2.5l1.6-10.2l17.9,2.7l-1.3,8.4
			C381.1,266.9,380.2,267.6,379.2,267.4z"/>
	</g>
	<path class="st11" d="M385.8,236.4l-4.5,29.5c-0.1,1-1,1.6-2,1.5c0,0,0,0,0,0l-257.7-39.4c-1-0.1-1.6-1-1.5-2c0,0,0,0,0,0l0.6-3.9
		c0,0,12.1-9.8,19.7-8.6c8.9,1.4,10.6,6.5,18.6,7.7s16.8-17.3,24-16.2c3.9,0.6,4.9,3.6,6.8,6.4c1.7,2.6,4.4,4.3,7.4,4.7l0.3,0.1
		c9.8,1.5,23.1-50.5,36.5-48.5c6,0.9,8.4,12.4,10.2,25.1c2.3,16,3.6,34,9.8,34.9c11.2,1.7,15-21,25.4-19.4c6.5,1,8.9,13.1,14.4,22.7
		c3.3,5.7,7.6,10.5,14.6,11.5c6.3,1,10.6-0.5,13.9-2.8c6.5-4.5,9.3-12.2,17.4-11c4.8,0.7,6.5,4.4,8.3,7.9c1.5,3,3.1,5.9,6.8,6.5
		c4.3,0.7,8-5.5,11.9-11c3.2-4.5,6.6-8.6,10.5-8s6.5,5.5,7.7,9C385.3,234,385.6,235.2,385.8,236.4z"/>
	<path class="st11" d="M392,195.9l-10.7,70c-0.1,1-1,1.6-2,1.5c0,0,0,0,0,0l-257.7-39.4c-1-0.1-1.6-1-1.5-2c0,0,0,0,0,0l0.6-3.9
		c10.7,1.6,16.4-6.4,23.6-5.3s10.9,6.1,17.6,7.1s17.1-14.7,24.4-13.6c1.2,0.2,2.3,0.5,3.4,0.9c2.8,1.2,4.8,3.1,7.4,4.7
		c2.1,1.2,4.4,2.1,6.7,2.4c8.6,1.3,25.8-29.9,35.8-28.3c1.7,0.3,3.3,1.2,4.4,2.6c5.9,6.4,7.4,22.5,15.7,23.8
		c10.1,1.6,15.5-14.9,25.3-13.4s12.7,18.4,24,20.1s23.6-29.2,35.4-27.4s15.1,17.7,25.4,19.3C381.1,216.6,392,195.9,392,195.9z"/>
	<path class="st2" d="M387,228.4l-5.7,37.5c-0.1,1-1,1.6-2,1.5c0,0,0,0,0,0l-257.7-39.4c-1-0.1-1.6-1-1.5-2c0,0,0,0,0,0l0.3-1.9
		c0.4-0.4,6.4-6.1,12.6-5.1c6.4,1,6.4,6.7,15.3,8s11.5-5.7,24.1-3.7s12.6,10.7,25.6,12.7s15.7-8.6,25-7.1s8.6,6.8,13.9,7.6
		s8.3-7.4,14.8-6.4s11.4,14.6,18.7,15.7c5.1,0.8,14.2-9.4,23.4-14.8c3.9-2.3,7.9-3.8,11.5-3.2c7.6,1.2,12,7.1,16.9,11.9
		c3,3,6.2,5.6,10.5,6.3c6,0.9,10.6-4.5,15.2-9.3c3.8-3.9,7.5-7.4,12.2-6.7c2.3,0.3,4.5,1,6.6,2.1c4,2.2,5,5.3,9.8,6
		C382.2,238.7,387,228.4,387,228.4z"/>
	<path class="st2" d="M152.1,126.3l-13.8-2.1c-1.3-0.2-2.3-1.5-2.1-2.8c0,0,0,0,0,0l0,0c0.2-1.3,1.5-2.3,2.8-2.1l13.8,2.1
		c1.3,0.2,2.3,1.5,2.1,2.8l0,0C154.6,125.5,153.4,126.5,152.1,126.3z"/>
	<path class="st2" d="M159.7,123.5h0.2l13.8,2.1c0.4,0.1,0.8,0.3,1,0.6c0.2,0.3,0.3,0.7,0.3,1.1c-0.1,0.7-0.7,1.2-1.4,1.3h-0.2
		l-13.8-2.1c-0.4,0-0.8-0.3-1-0.6c-0.5-0.6-0.3-1.6,0.3-2C159.1,123.6,159.4,123.5,159.7,123.5 M159.7,122.5c-1.4,0-2.5,1-2.5,2.4
		c0,1.3,0.9,2.3,2.2,2.5l13.8,2.1c0.1,0,0.3,0,0.4,0c1.4,0,2.5-1.1,2.5-2.5c0-1.2-0.9-2.2-2.1-2.4l-13.8-2.1
		C159.9,122.5,159.8,122.5,159.7,122.5L159.7,122.5z"/>
	<path class="st2" d="M180.8,126.7h0.2l13.8,2.1c0.8,0.1,1.3,0.9,1.2,1.7c-0.1,0.7-0.7,1.2-1.4,1.2h-0.2l-13.8-2.1
		c-0.4,0-0.8-0.3-1-0.6c-0.2-0.3-0.3-0.7-0.3-1.1C179.4,127.2,180,126.7,180.8,126.7 M180.7,125.7c-1.4,0-2.5,1-2.5,2.4
		c0,1.3,0.9,2.3,2.2,2.5l13.8,2.1c0.1,0,0.2,0,0.4,0c1.4,0,2.5-1.1,2.5-2.5c0-1.2-0.9-2.2-2.1-2.4l-13.8-2.1
		C181,125.7,180.9,125.7,180.7,125.7L180.7,125.7z"/>
	<path class="st2" d="M396.3,161.4l0.2-1.1l-0.8-0.2c0-0.2-0.1-0.4-0.1-0.5l0.6-0.5l-0.6-0.9l-0.7,0.4c-0.1-0.1-0.3-0.2-0.5-0.3
		l0-0.8l-1.1-0.2l-0.2,0.8c-0.2,0-0.3,0.1-0.5,0.1l-0.5-0.6l-0.9,0.6l0.4,0.7c-0.1,0.1-0.2,0.3-0.3,0.5l-0.8-0.1l-0.2,1.1l0.8,0.2
		c0,0.2,0.1,0.3,0.1,0.5l-0.6,0.5l0.6,0.9l0.7-0.4c0.1,0.1,0.3,0.2,0.5,0.3l0,0.8l1.1,0.2l0.2-0.8c0.2,0,0.4-0.1,0.5-0.1l0.5,0.6
		l0.9-0.6l-0.4-0.7c0.1-0.1,0.2-0.3,0.3-0.4L396.3,161.4z M393.2,161.7c-0.7-0.1-1.2-0.8-1.1-1.4c0.1-0.7,0.8-1.2,1.5-1.1
		c0.7,0.1,1.2,0.8,1.1,1.4C394.5,161.3,393.9,161.8,393.2,161.7C393.2,161.7,393.2,161.7,393.2,161.7z"/>
	
		<rect x="226.9" y="289.3" transform="matrix(0.1513 -0.9885 0.9885 0.1513 -85.7228 481.6791)" class="st19" width="21.4" height="3"/>
	
		<rect x="233" y="286.8" transform="matrix(0.1513 -0.9885 0.9885 0.1513 -83.0145 479.9909)" class="st2" width="10.1" height="3"/>
	
		<rect x="219.5" y="293.6" transform="matrix(0.1513 -0.9885 0.9885 0.1513 -96.2924 477.999)" class="st19" width="21.4" height="3"/>
	
		<rect x="225.1" y="293.6" transform="matrix(0.1513 -0.9885 0.9885 0.1513 -96.2903 477.9565)" class="st2" width="10.1" height="3"/>
	
		<rect x="214.2" y="288.7" transform="matrix(0.1498 -0.9887 0.9887 0.1498 -95.6767 469.0487)" class="st19" width="21.4" height="3"/>
	
		<rect x="218.8" y="290.9" transform="matrix(0.1513 -0.9885 0.9885 0.1513 -99.0345 469.4004)" class="st2" width="10.1" height="3"/>
	
		<rect x="232.9" y="294.5" transform="matrix(0.1513 -0.9885 0.9885 0.1513 -85.7673 491.997)" class="st19" width="21.4" height="3"/>
	<rect x="239" y="292" transform="matrix(0.1513 -0.9885 0.9885 0.1513 -83.056 490.3221)" class="st2" width="10.1" height="3"/>
	
		<rect x="240.5" y="289.2" transform="matrix(0.1513 -0.9885 0.9885 0.1513 -74.1549 495.0351)" class="st19" width="21.4" height="3"/>
	
		<rect x="246.6" y="286" transform="matrix(0.1513 -0.9885 0.9885 0.1513 -70.5671 492.7958)" class="st2" width="10.1" height="3"/>
	
		<rect x="246.3" y="295.7" transform="matrix(0.1513 -0.9885 0.9885 0.1513 -75.6336 506.2557)" class="st19" width="21.4" height="3"/>
	
		<rect x="252.7" y="290.9" transform="matrix(0.1513 -0.9885 0.9885 0.1513 -70.2768 502.9058)" class="st2" width="10.1" height="3"/>
	
		<rect x="254.6" y="285.6" transform="matrix(0.1513 -0.9885 0.9885 0.1513 -58.6534 505.937)" class="st19" width="21.4" height="3"/>
	
		<rect x="261" y="280.8" transform="matrix(0.1513 -0.9885 0.9885 0.1513 -53.2769 502.6031)" class="st2" width="10.1" height="3"/>
	
		<rect x="259.2" y="300" transform="matrix(0.1513 -0.9885 0.9885 0.1513 -68.932 522.6415)" class="st19" width="21.4" height="3"/>
	
		<rect x="265.2" y="297.6" transform="matrix(0.1513 -0.9885 0.9885 0.1513 -66.2391 520.9652)" class="st2" width="10.1" height="3"/>
	
		<rect x="265.6" y="302.2" transform="matrix(0.1513 -0.9885 0.9885 0.1513 -65.6922 530.9112)" class="st19" width="21.4" height="3"/>
	
		<rect x="270.9" y="304.6" transform="matrix(0.1513 -0.9885 0.9885 0.1513 -68.3508 532.5684)" class="st2" width="10.1" height="3"/>
	
		<rect x="274.3" y="289.9" transform="matrix(0.1513 -0.9885 0.9885 0.1513 -46.1976 529.0551)" class="st19" width="21.4" height="3"/>
	
		<rect x="279.5" y="293.1" transform="matrix(0.1513 -0.9885 0.9885 0.1513 -49.7556 531.2631)" class="st2" width="10.1" height="3"/>
	
		<rect x="279.5" y="300.3" transform="matrix(0.1513 -0.9885 0.9885 0.1513 -52.0023 542.9501)" class="st19" width="21.4" height="3"/>
	
		<rect x="285.4" y="298.7" transform="matrix(0.1513 -0.9885 0.9885 0.1513 -50.2073 541.8235)" class="st2" width="10.1" height="3"/>
	
		<rect x="286.9" y="295.8" transform="matrix(0.1513 -0.9885 0.9885 0.1513 -41.2091 546.5042)" class="st19" width="21.4" height="3"/>
	
		<rect x="293.8" y="293.4" transform="matrix(0.1498 -0.9887 0.9887 0.1498 -37.5178 546.1925)" class="st2" width="10.1" height="3"/>
	
		<rect x="295" y="287.3" transform="matrix(0.1513 -0.9885 0.9885 0.1513 -25.9578 547.2866)" class="st19" width="21.4" height="3"/>
	
		<rect x="301.5" y="281.7" transform="matrix(0.1513 -0.9885 0.9885 0.1513 -19.7172 543.3806)" class="st2" width="10.1" height="3"/>
	
		<rect x="299.6" y="301.7" transform="matrix(0.1513 -0.9885 0.9885 0.1513 -36.3233 564.045)" class="st19" width="21.4" height="3"/>
	
		<rect x="305.7" y="298.5" transform="matrix(0.1513 -0.9885 0.9885 0.1513 -32.7538 561.8043)" class="st2" width="10.1" height="3"/>
	
		<rect x="304.8" y="312" transform="matrix(0.1513 -0.9885 0.9885 0.1513 -42.117 577.9332)" class="st19" width="21.4" height="3"/>
	
		<rect x="310.9" y="308.8" transform="matrix(0.1513 -0.9885 0.9885 0.1513 -38.5291 575.6939)" class="st2" width="10.1" height="3"/>
	
		<rect x="313.1" y="301.8" transform="matrix(0.1513 -0.9885 0.9885 0.1513 -24.9779 577.5287)" class="st19" width="21.4" height="3"/>
	
		<rect x="318.4" y="304.2" transform="matrix(0.1513 -0.9885 0.9885 0.1513 -27.6098 579.1799)" class="st2" width="10.1" height="3"/>
	
		<rect x="321.6" y="290.9" transform="matrix(0.1513 -0.9885 0.9885 0.1513 -6.98 576.6014)" class="st19" width="21.4" height="3"/>
	
		<rect x="326.6" y="294.8" transform="matrix(0.1513 -0.9885 0.9885 0.1513 -11.4171 579.3577)" class="st2" width="10.1" height="3"/>
	
		<rect x="326.4" y="303.8" transform="matrix(0.1513 -0.9885 0.9885 0.1513 -15.7281 592.3434)" class="st19" width="21.4" height="3"/>
	
		<rect x="333.3" y="301.5" transform="matrix(0.1498 -0.9887 0.9887 0.1498 -11.8665 592.0905)" class="st2" width="10.1" height="3"/>
	
		<rect x="332.4" y="308.4" transform="matrix(0.1513 -0.9885 0.9885 0.1513 -15.0587 602.198)" class="st19" width="21.4" height="3"/>
	
		<rect x="337.6" y="311.5" transform="matrix(0.1513 -0.9885 0.9885 0.1513 -18.5954 604.4208)" class="st2" width="10.1" height="3"/>
	
		<rect x="340.1" y="302.8" transform="matrix(0.1513 -0.9885 0.9885 0.1513 -3.049 605.0021)" class="st19" width="21.4" height="3"/>
	
		<rect x="346.6" y="297.2" transform="matrix(0.1513 -0.9885 0.9885 0.1513 3.1986 601.1072)" class="st2" width="10.1" height="3"/>
	
		<rect x="345.7" y="310.4" transform="matrix(0.1513 -0.9885 0.9885 0.1513 -5.8089 617.0128)" class="st19" width="21.4" height="3"/>
	<rect x="352" y="306.4" transform="matrix(0.1513 -0.9885 0.9885 0.1513 -1.3371 614.2174)" class="st2" width="10.1" height="3"/>
	<rect x="352.8" y="308.6" transform="matrix(0.1513 -0.9885 0.9885 0.1513 2.009 622.436)" class="st19" width="21.4" height="3"/>
	
		<rect x="359.2" y="303.8" transform="matrix(0.1513 -0.9885 0.9885 0.1513 7.3658 619.0862)" class="st2" width="10.1" height="3"/>
	<rect x="359" y="312.3" transform="matrix(0.1513 -0.9885 0.9885 0.1513 3.5745 631.7292)" class="st19" width="21.4" height="3"/>
	
		<rect x="364.9" y="317.1" transform="matrix(0.1498 -0.9887 0.9887 0.1498 -0.4649 636.5641)" class="st2" width="10.1" height="3"/>
	
		<rect x="237.1" y="301.4" transform="matrix(0.1513 -0.9885 0.9885 0.1513 -123.6955 514.7914)" class="st15" width="1.7" height="56.1"/>
</g>
</svg>
