<?xml version="1.0" encoding="utf-8"?>
<!-- Generator: Adobe Illustrator 24.0.2, SVG Export Plug-In . SVG Version: 6.00 Build 0)  -->
<svg version="1.1" id="圖層_1" xmlns="http://www.w3.org/2000/svg" xmlns:xlink="http://www.w3.org/1999/xlink" x="0px" y="0px"
	 viewBox="0 0 500 500" style="enable-background:new 0 0 500 500;" xml:space="preserve">
<style type="text/css">
	.st0{fill:#DAE3D1;}
	.st1{fill:#EBEBEB;}
	.st2{fill:#DBDBDB;}
	.st3{fill:#C7C7C7;}
	.st4{fill:#69A4A7;}
	.st5{fill:#263238;}
	.st6{fill:#37474F;}
	.st7{fill:#455A64;}
	.st8{fill:#FFFFFF;}
	.st9{fill:#A6A6A6;}
	.st10{opacity:0.5;fill:#69A4A7;enable-background:new    ;}
</style>
<rect class="st0" width="500" height="500"/>
<g id="freepik--background-complete--inject-8">
	<path class="st1" d="M59.4,385.1c1-0.6,2.1-0.6,3.1,0l0.8,0.5l0.8,0.4c1,0.5,1.7,1.4,1.7,2.5l0.1,3.8l12.4-0.4l-0.1-3.8
		c0-1.1,0.6-2.1,1.6-2.7c0.5-0.3,1.1-0.6,1.6-1c0.9-0.6,2.1-0.7,3.1-0.2l3.3,1.8l5.9-10.9l-3.3-1.8c-1-0.5-1.6-1.6-1.5-2.7
		c0-0.6,0-1.2-0.1-1.9c-0.1-1.1,0.4-2.1,1.3-2.7l3.2-2l-6.5-10.5l-3.3,2c-0.9,0.6-2.1,0.6-3.1,0c-0.3-0.2-0.5-0.3-0.8-0.5l-0.8-0.4
		c-1-0.5-1.7-1.5-1.7-2.6l0-3.8l-12.4,0.4l0.1,3.8c0,1.1-0.6,2.1-1.6,2.7c-0.5,0.3-1.1,0.6-1.6,1c-0.9,0.6-2.1,0.7-3.1,0.2l-3.3-1.8
		l-5.9,10.9l3.3,1.8c1,0.5,1.6,1.6,1.5,2.7c0,0.6,0,1.2,0.1,1.9c0.1,1.1-0.4,2.2-1.4,2.8l-3.2,2l6.5,10.5L59.4,385.1z M62.5,365.5
		c2.6-4.9,8.8-6.8,13.7-4.2s6.8,8.8,4.2,13.7c-2.6,4.9-8.8,6.8-13.7,4.2c0,0,0,0,0,0C61.7,376.6,59.9,370.5,62.5,365.5z"/>
	<path class="st1" d="M94.5,341c0.4-0.7,1.1-1.1,1.9-1h1.3c0.8-0.1,1.5,0.3,1.9,1l1.3,2.3l7.5-4.3l-1.3-2.3
		c-0.4-0.7-0.4-1.5,0.1-2.2c0.2-0.4,0.5-0.7,0.7-1.1c0.4-0.7,1.1-1.1,1.8-1.1h2.7v-8.7h-2.7c-0.8,0-1.5-0.4-1.8-1.1
		c-0.2-0.4-0.4-0.8-0.7-1.1c-0.4-0.7-0.5-1.5-0.1-2.2l1.3-2.3l-7.5-4.3l-1.3,2.3c-0.4,0.7-1.1,1.1-1.9,1H97h-0.6
		c-0.8,0.1-1.5-0.3-1.9-1l-1.3-2.3l-7.5,4.3l1.3,2.3c0.4,0.7,0.4,1.5-0.1,2.2c-0.2,0.4-0.5,0.7-0.7,1.1c-0.4,0.7-1.1,1.1-1.8,1.1
		h-2.7v8.7h2.7c0.8,0,1.5,0.4,1.8,1.1c0.2,0.4,0.4,0.8,0.7,1.1c0.4,0.6,0.5,1.5,0.1,2.2l-1.3,2.3l7.5,4.3L94.5,341z M89.9,327.9
		c0-3.9,3.2-7.1,7.1-7.1s7.1,3.2,7.1,7.1c0,3.9-3.2,7.1-7.1,7.1C93.1,335,89.9,331.8,89.9,327.9z"/>
	<path class="st1" d="M422.2,75.1c0.7,0.4,1.1,1.1,1,1.9c0,0.2,0,0.4,0,0.6s0,0.4,0,0.7c0.1,0.8-0.3,1.5-1,1.9l-2.3,1.3l4.4,7.5
		l2.3-1.3c0.7-0.4,1.5-0.4,2.2,0.1c0.4,0.2,0.7,0.5,1.1,0.7c0.7,0.3,1.2,1.1,1.2,1.9v2.7h8.7v-2.7c0-0.8,0.4-1.5,1.1-1.8
		c0.4-0.2,0.8-0.4,1.1-0.7c0.7-0.4,1.5-0.5,2.2-0.1l2.3,1.3l4.3-7.5l-2.3-1.3c-0.7-0.4-1.1-1.1-1-1.9c0-0.2,0-0.4,0-0.6s0-0.4,0-0.6
		c-0.1-0.8,0.3-1.5,1-1.9l2.3-1.3l-4.3-7.5l-2.3,1.3c-0.7,0.4-1.5,0.4-2.2-0.1c-0.4-0.2-0.7-0.4-1.1-0.7c-0.7-0.3-1.2-1-1.2-1.8
		v-2.7H431V65c0,0.8-0.4,1.5-1.1,1.8c-0.4,0.2-0.8,0.4-1.1,0.7c-0.6,0.4-1.5,0.5-2.2,0.1l-2.3-1.3l-4.3,7.5L422.2,75.1z M435.3,70.5
		c3.9,0,7.1,3.2,7.1,7.1s-3.2,7.1-7.1,7.1s-7.1-3.2-7.1-7.1c0,0,0,0,0,0C428.2,73.7,431.4,70.5,435.3,70.5z"/>
	<path class="st1" d="M407,134.3c-2.9,19.5-21.1,33-40.6,30.1s-33-21.1-30.1-40.6c2.6-17.5,17.6-30.5,35.4-30.5V129L407,134.3z"/>
	<path class="st2" d="M414.6,121.7c0,1.8-0.1,3.5-0.4,5.2l-35.4-5.2V86C398.6,86,414.6,102,414.6,121.7
		C414.6,121.7,414.6,121.7,414.6,121.7L414.6,121.7z"/>
	<path class="st1" d="M74.1,193v29.5L55,244.9c-12.4-10.6-13.8-29.2-3.3-41.5C57.3,196.8,65.5,193,74.1,193z"/>
	<path class="st1" d="M109.6,225.5c0,16.3-13.2,29.5-29.5,29.5c-7,0-13.8-2.5-19.1-7.1l19.1-22.4V196
		C96.4,196,109.6,209.2,109.6,225.5C109.6,225.4,109.6,225.5,109.6,225.5L109.6,225.5z"/>
	<path class="st2" d="M109.6,225.5c0,16.3-13.2,29.5-29.5,29.5c-7,0-13.8-2.5-19.1-7.1l19.1-22.4V196
		C96.4,196,109.6,209.2,109.6,225.5C109.6,225.4,109.6,225.5,109.6,225.5L109.6,225.5z"/>
	<rect x="60.5" y="170.1" class="st3" width="1" height="38"/>
	<path class="st3" d="M61,170.6c-1.8,0-3.2-1.4-3.2-3.2s1.4-3.2,3.2-3.2c1.8,0,3.2,1.4,3.2,3.2c0,0,0,0,0,0
		C64.2,169.2,62.7,170.6,61,170.6z M61,165.3c-1.2,0-2.2,1-2.2,2.2s1,2.2,2.2,2.2s2.2-1,2.2-2.2l0,0C63.2,166.2,62.2,165.3,61,165.3
		z"/>
	<rect x="69.1" y="164.8" class="st3" width="29.5" height="1.3"/>
	<rect x="69.1" y="167.4" class="st3" width="16.7" height="1.3"/>
	<rect x="375.5" y="141.7" class="st3" width="38" height="1"/>
	<path class="st3" d="M416.1,145.4c-1.8,0-3.2-1.4-3.2-3.2s1.4-3.2,3.2-3.2s3.2,1.4,3.2,3.2c0,0,0,0,0,0
		C419.3,143.9,417.9,145.4,416.1,145.4C416.1,145.4,416.1,145.4,416.1,145.4z M416.1,140c-1.2,0-2.2,1-2.2,2.2c0,1.2,1,2.2,2.2,2.2
		c1.2,0,2.2-1,2.2-2.2c0,0,0,0,0,0C418.3,141,417.4,140,416.1,140C416.2,140,416.2,140,416.1,140L416.1,140z"/>
	<rect x="425.8" y="140.2" class="st3" width="29.5" height="1.3"/>
	<rect x="425.8" y="142.9" class="st3" width="16.7" height="1.3"/>
	<path class="st1" d="M210.8,132H73.3V42.6h137.4V132z M74.3,131h135.4V43.6H74.3V131z"/>
	<path class="st1" d="M210.8,55.3H73.3V42.6h137.4V55.3z M74.4,54.3h135.4V43.6H74.3L74.4,54.3z"/>
	<path class="st3" d="M84.9,49c0,1.7-1.3,3-3,3s-3-1.3-3-3s1.3-3,3-3S84.9,47.3,84.9,49z"/>
	<path class="st1" d="M97,49c0,1.7-1.3,3-3,3s-3-1.3-3-3s1.3-3,3-3S97,47.3,97,49z"/>
	<path class="st4" d="M109,49c0,1.7-1.3,3-3,3s-3-1.3-3-3s1.3-3,3-3S109,47.3,109,49z"/>
</g>
<g id="freepik--Shadow--inject-8">
	<ellipse class="st1" cx="365" cy="447.5" rx="106.3" ry="18.5"/>
</g>
<g id="freepik--Floor--inject-8">
	<polygon class="st5" points="29.7,423.5 84.8,423.2 139.9,423.1 250,423 360.1,423.1 415.2,423.2 470.3,423.5 415.2,423.7 
		360.1,423.8 250,424 139.9,423.8 84.8,423.7 	"/>
</g>
<g id="freepik--Window--inject-8">
	<rect x="100.6" y="70" class="st6" width="298.9" height="334.8"/>
	<rect x="105.8" y="75.3" class="st5" width="289.3" height="213.4"/>
	<rect x="190.9" y="94.6" class="st7" width="119" height="2.6"/>
	<rect x="211.2" y="100.1" class="st7" width="78.3" height="2.6"/>
	<path class="st8" d="M291.3,250.5c-10.5,5.8-23.7,1.9-29.5-8.6c-5.8-10.5-1.9-23.7,8.6-29.5c3.2-1.8,6.8-2.7,10.5-2.7v21.7
		L291.3,250.5z"/>
	<path class="st4" d="M293.7,214l-12.9,17.5v-21.8C285.5,209.7,290,211.2,293.7,214z"/>
	<path class="st9" d="M302.5,231.4c0,5.5-2,10.7-5.8,14.7l-16-14.7l12.9-17.4C299.2,218.1,302.5,224.6,302.5,231.4z"/>
	<path class="st7" d="M304.6,256.3c-1.6,1.7-3.4,3.2-5.5,4.3l-10.5-19L304.6,256.3z"/>
	<path class="st9" d="M222.2,210.6l-6,20.9v21.7c-12-0.3-21.5-10.2-21.3-22.2c0.2-11.6,9.6-21,21.3-21.3
		C218.2,209.7,220.2,210,222.2,210.6z"/>
	<path class="st8" d="M229.1,248.9c-3.7,2.8-8.2,4.2-12.9,4.2v-21.7L229.1,248.9z"/>
	<path class="st7" d="M237.9,231.4c0,6.9-3.3,13.4-8.9,17.5l-12.9-17.5l16.9-13.6C236.2,221.6,237.9,226.5,237.9,231.4z"/>
	<path class="st4" d="M237.9,210.8L221,224.4l6-20.9C231.3,204.7,235.1,207.3,237.9,210.8z"/>
	<path class="st7" d="M151.6,209.7v21.7L137,247.5c-8.9-8.1-9.5-21.8-1.4-30.7C139.7,212.3,145.5,209.7,151.6,209.7L151.6,209.7z"/>
	<path class="st4" d="M167.2,216.3l-15.6,15.2v-21.7C157.5,209.7,163.1,212.1,167.2,216.3z"/>
	<path class="st9" d="M173.3,231.4c0,6.5-2.9,12.7-8,16.8l-13.7-16.8l15.6-15.2C171.1,220.3,173.3,225.8,173.3,231.4z"/>
	<path class="st8" d="M165.3,254c-8.3,6.8-20.4,6.5-28.4-0.8l14.6-16.1L165.3,254z"/>
	<path class="st4" d="M345.4,209.7v43.4c-12-0.3-21.5-10.2-21.3-22.2C324.4,219.3,333.8,210,345.4,209.7z"/>
	<path class="st5" d="M350.9,210.4l-5.5,21v-21.7C347.3,209.7,349.1,210,350.9,210.4z"/>
	<path class="st7" d="M370.9,230.2c0,2.7-0.5,5.5-1.5,8l-20.2-8l5.5-21C364.2,211.7,370.9,220.3,370.9,230.2z"/>
	<path class="st9" d="M365.6,239.4c-3.3,8.3-11.3,13.8-20.2,13.8v-21.7L365.6,239.4z"/>
	<rect x="141.6" y="266" class="st7" width="25.4" height="2.4"/>
	<rect x="141.6" y="271" class="st7" width="16.8" height="2.4"/>
	<rect x="129.9" y="265.9" class="st7" width="7.6" height="7.6"/>
	<rect x="206.2" y="266" class="st7" width="25.4" height="2.4"/>
	<rect x="206.2" y="271" class="st7" width="16.8" height="2.4"/>
	<rect x="194.5" y="265.9" class="st9" width="7.6" height="7.6"/>
	<rect x="270.8" y="266" class="st7" width="25.4" height="2.4"/>
	<rect x="270.8" y="271" class="st7" width="16.8" height="2.4"/>
	<rect x="259.1" y="265.9" class="st8" width="7.6" height="7.6"/>
	<rect x="335.4" y="266" class="st7" width="25.4" height="2.4"/>
	<rect x="335.4" y="271" class="st7" width="16.8" height="2.4"/>
	<rect x="323.7" y="265.9" class="st4" width="7.6" height="7.6"/>
	<path class="st7" d="M129.9,115.9l60.3-0.2c20.1,0,40.2,0,60.3,0.2c-20.1,0.1-40.2,0.1-60.3,0.2L129.9,115.9z"/>
	<path class="st7" d="M129.9,120.7l60.3-0.2c20.1,0,40.2,0,60.3,0.2c-20.1,0.1-40.2,0.1-60.3,0.2L129.9,120.7z"/>
	<path class="st7" d="M129.9,125.5l60.3-0.2c20.1,0.1,40.2,0,60.3,0.2c-20.1,0.1-40.2,0.1-60.3,0.2L129.9,125.5z"/>
	<path class="st7" d="M129.9,130.3l60.3-0.2c20.1,0.1,40.2,0,60.3,0.2c-20.1,0.1-40.2,0.1-60.3,0.1L129.9,130.3z"/>
	<path class="st7" d="M129.9,135l60.3-0.2c20.1,0.1,40.2,0,60.3,0.2c-20.1,0.1-40.2,0.1-60.3,0.1L129.9,135z"/>
	<path class="st7" d="M129.9,139.8l60.3-0.2c20.1,0.1,40.2,0,60.3,0.2c-20.1,0.1-40.2,0.1-60.3,0.1L129.9,139.8z"/>
	<path class="st7" d="M129.9,144.6l60.3-0.1c20.1,0,40.2,0,60.3,0.1c-20.1,0.1-40.2,0.1-60.3,0.2L129.9,144.6z"/>
	<path class="st7" d="M129.9,149.4l60.3-0.1c20.1,0.1,40.2,0,60.3,0.1c-20.1,0.1-40.2,0.1-60.3,0.2L129.9,149.4z"/>
	<path class="st7" d="M129.9,154.2l60.3-0.1c20.1,0.1,40.2,0,60.3,0.1c-20.1,0.1-40.2,0.1-60.3,0.2L129.9,154.2z"/>
	<path class="st7" d="M129.9,159l60.3-0.2c20.1,0.1,40.2,0,60.3,0.2c-20.1,0.1-40.2,0.1-60.3,0.2L129.9,159z"/>
	<path class="st7" d="M129.9,163.8l60.3-0.2c20.1,0.1,40.2,0,60.3,0.2c-20.1,0.1-40.2,0.1-60.3,0.1L129.9,163.8z"/>
	<path class="st7" d="M129.9,168.6l60.3-0.2c20.1,0.1,40.2,0,60.3,0.2c-20.1,0.1-40.2,0.1-60.3,0.1L129.9,168.6z"/>
	<path class="st7" d="M129.9,173.4l60.3-0.2c20.1,0.1,40.2,0,60.3,0.2c-20.1,0.1-40.2,0.1-60.3,0.1L129.9,173.4z"/>
	<path class="st7" d="M129.9,178.1l60.3-0.1c20.1,0.1,40.2,0,60.3,0.1c-20.1,0.1-40.2,0.1-60.3,0.2L129.9,178.1z"/>
	<path class="st7" d="M129.9,182.9l60.3-0.1c20.1,0,40.2,0,60.3,0.1c-20.1,0.1-40.2,0.1-60.3,0.2L129.9,182.9z"/>
	<rect x="142.6" y="149.4" class="st4" width="9.1" height="39.1"/>
	<rect x="159.6" y="132.9" class="st8" width="9.1" height="55.6"/>
	<rect x="176.5" y="144.8" class="st9" width="9.1" height="43.7"/>
	<rect x="193.5" y="130.3" class="st4" width="9.1" height="58.3"/>
	<rect x="210.4" y="138.1" class="st8" width="9.1" height="50.4"/>
	<rect x="227.4" y="166.6" class="st9" width="9.1" height="21.9"/>
	<path class="st7" d="M133.1,112.5l0.3,19l0.2,19c0.1,12.7,0.1,25.3,0.2,38l-0.6-0.6h29.3l29.3,0.1l29.3,0.2l29.3,0.3l-29.3,0.4
		l-29.3,0.2l-29.3,0.1h-29.3h-0.6v-0.6c0-12.7,0.1-25.3,0.2-38l0.2-19L133.1,112.5z"/>
	<rect x="142.6" y="192.5" class="st7" width="9.1" height="0.8"/>
	<rect x="159.6" y="192.5" class="st7" width="9.1" height="0.8"/>
	<rect x="176.5" y="192.5" class="st7" width="9.1" height="0.8"/>
	<rect x="193.5" y="192.5" class="st7" width="9.1" height="0.8"/>
	<rect x="210.4" y="192.5" class="st7" width="9.1" height="0.8"/>
	<rect x="227.4" y="192.5" class="st7" width="9.1" height="0.8"/>
	<path class="st4" d="M318,145.2c0,10.1-6,19.2-15.4,23.2l-9.8-23.2H318z"/>
	<path class="st4" d="M289.6,143.4l9.8,23.2c0,0,0,0,0,0c-0.8,0.3-1.5,0.6-2.3,0.8c-13.3,4.1-27.4-3.3-31.5-16.5
		c-0.8-2.4-1.1-4.9-1.1-7.5c0-2.5,0.4-5.1,1.1-7.5c2.5-7.9,8.6-14.1,16.5-16.6c4.9-1.5,10.1-1.5,15,0c10.5,3.3,17.7,13,17.7,24
		H289.6z"/>
	<path class="st9" d="M289.6,143.4l9.8,23.2c0,0,0,0,0,0c-0.8,0.3-1.5,0.6-2.3,0.8c-13.3,4.1-27.4-3.3-31.5-16.5
		c-0.8-2.4-1.1-4.9-1.1-7.5c0-13.9,11.3-25.2,25.2-25.1c11,0,20.7,7.2,24,17.7c0.7,2.4,1.1,4.9,1.1,7.5L289.6,143.4z"/>
	<path class="st7" d="M289.6,143.4l-16.4,19.1c-10.5-9.1-11.7-25-2.7-35.5c9.1-10.5,25-11.7,35.5-2.7c5.6,4.8,8.8,11.8,8.8,19.1
		H289.6z"/>
	<polygon class="st5" points="331,176.8 312,176.8 288.5,153.2 288.8,152.9 312.2,176.3 331,176.3 	"/>
	<rect x="287.3" y="151.8" class="st5" width="2.6" height="2.6"/>
	<polygon class="st5" points="331,158.6 309.6,158.6 299.4,148.4 299.8,148.1 309.8,158.1 331,158.1 	"/>
	<rect x="298.3" y="146.9" class="st5" width="2.6" height="2.6"/>
	<rect x="298.6" y="140.5" class="st5" width="32.4" height="0.5"/>
	<rect x="297" y="139.5" class="st5" width="2.6" height="2.6"/>
	<rect x="338.4" y="138.1" class="st7" width="23.5" height="2.2"/>
	<rect x="338.4" y="142.7" class="st7" width="30.5" height="2.2"/>
	<rect x="338.4" y="147.3" class="st7" width="16.3" height="2.2"/>
	<rect x="328.4" y="138.1" class="st7" width="5.3" height="5.3"/>
	<rect x="338.4" y="155.8" class="st7" width="26.4" height="2.2"/>
	<rect x="338.4" y="160.4" class="st7" width="22" height="2.2"/>
	<rect x="338.4" y="165" class="st7" width="30.5" height="2.2"/>
	<rect x="328.4" y="155.8" class="st4" width="5.3" height="5.3"/>
	<rect x="338.4" y="173.5" class="st7" width="26.4" height="2.2"/>
	<rect x="338.4" y="178.1" class="st7" width="22" height="2.2"/>
	<rect x="338.4" y="182.7" class="st7" width="30.5" height="2.2"/>
	<rect x="328.4" y="173.5" class="st9" width="5.3" height="5.3"/>
	<rect x="105.8" y="294.3" class="st5" width="133.4" height="104.7"/>
	<rect x="124.9" y="303.4" class="st7" width="95.1" height="2.1"/>
	<rect x="141.2" y="307.8" class="st7" width="62.6" height="2.1"/>
	<rect x="130" y="384.5" class="st4" width="5.3" height="5.3"/>
	<rect x="139.1" y="384.5" class="st7" width="58.4" height="1.6"/>
	<rect x="139.1" y="388.3" class="st7" width="37.7" height="1.6"/>
	<path class="st7" d="M126.5,331c15.3-0.1,30.6-0.1,46-0.1s30.6,0,46,0.1c-15.3,0.1-30.6,0.1-46,0.1S141.8,331.1,126.5,331z"/>
	<path class="st7" d="M126.5,340.1c15.3-0.1,30.6-0.1,46-0.1s30.6,0,46,0.1c-15.3,0.1-30.6,0.1-46,0.1S141.8,340.1,126.5,340.1z"/>
	<path class="st7" d="M126.5,349.1c15.3-0.1,30.6-0.1,46-0.1s30.6,0,46,0.1c-15.3,0.1-30.6,0.1-46,0.1S141.8,349.2,126.5,349.1z"/>
	<path class="st7" d="M126.5,358.2c15.3-0.1,30.6-0.1,46-0.1s30.6,0,46,0.1c-15.3,0.1-30.6,0.1-46,0.1S141.8,358.3,126.5,358.2z"/>
	<path class="st7" d="M126.5,367.3c15.3-0.1,30.6-0.1,46-0.1s30.6,0,46,0.1c-15.3,0.1-30.6,0.1-46,0.1S141.8,367.4,126.5,367.3z"/>
	<path class="st7" d="M145,325.1c0.1,8.5,0.1,17,0.2,25.5s0,17-0.2,25.5c-0.1-8.5-0.1-17-0.2-25.5S144.9,333.6,145,325.1z"/>
	<path class="st7" d="M160.9,325.1c0.1,8.5,0.1,17,0.1,25.5s0,17-0.1,25.5c-0.1-8.5-0.1-17-0.2-25.5S160.8,333.6,160.9,325.1z"/>
	<path class="st7" d="M176.8,325.1c0.1,8.5,0.1,17,0.2,25.5s0,17-0.2,25.5c-0.1-8.5-0.1-17-0.1-25.5S176.7,333.6,176.8,325.1z"/>
	<path class="st7" d="M192.7,325.1c0.1,8.5,0.1,17,0.1,25.5s0,17-0.1,25.5c-0.1-8.5-0.1-17-0.2-25.5S192.6,333.6,192.7,325.1z"/>
	<path class="st7" d="M208.6,325.1c0.1,8.5,0.1,17,0.2,25.5s0,17-0.2,25.5c-0.1-8.5-0.1-17-0.1-25.5S208.4,333.6,208.6,325.1z"/>
	<path class="st10" d="M128.8,360.7c2.8,0,4.5-9.2,8.4-9.2s4.4,6.7,7.7,6.7s3.2-11.8,7.7-11.8s3.4,4.8,8.2,4.8s2.9-11.1,7.8-11.1
		s2.9,15.4,8,15.4c3.2,0,4.5-4.9,8.4-4.9c2.6,0,4.1,2.4,7.4,2.4s4.1-9.4,8.3-9.4s4.7,5.5,7.7,5.5s4.2-9.1,9.8-9.1V376h-89.6
		L128.8,360.7z"/>
	<path class="st4" d="M128.8,361.2v-0.9c0.9,0,2-2.2,2.9-3.7c1.5-2.7,3-5.5,5.6-5.5s3.7,2,4.8,3.9c0.9,1.4,1.7,2.9,2.9,2.9
		s1.9-2.8,2.6-4.9c1.1-3.4,2.2-6.9,5.1-6.9c2.6,0,3.6,1.4,4.5,2.6s1.6,2.2,3.6,2.2c1.8,0,2.5-2.6,3.2-5.1c0.8-3,1.6-6,4.6-6
		s3.7,3.9,4.6,7.9c0.6,3.3,1.5,7.4,3.5,7.4c1.2,0,2.2-1,3.3-2.1c1.3-1.3,2.8-2.8,5.1-2.8c1.3,0.1,2.5,0.5,3.6,1.2
		c1.1,0.8,2.5,1.2,3.8,1.3c1.2,0,2.2-2.2,3.1-4c1.3-2.6,2.5-5.4,5.2-5.4s3.9,1.8,5.1,3.3c0.8,1.1,1.6,2.2,2.7,2.2s1.9-1.7,2.8-3.3
		c1.5-2.6,3.4-5.8,7.1-5.8v0.9c-2.8,0-4.4,2.8-5.9,5.3c-1.2,2.1-2.2,3.8-3.9,3.8s-2.8-1.3-3.8-2.7s-2.1-2.9-4-2.9s-2.9,2.5-4,4.8
		c-1.2,2.5-2.2,4.6-4.3,4.6c-1.6-0.1-3.2-0.6-4.5-1.5c-0.8-0.6-1.8-0.9-2.8-1c-1.7,0-2.9,1.2-4.1,2.4s-2.4,2.5-4.3,2.5
		c-3.1,0-3.9-4-4.8-8.2c-0.6-3.2-1.4-7.2-3.3-7.2s-2.7,2.8-3.4,5.3c-0.8,3-1.6,5.8-4.4,5.8c-2,0.1-3.8-1-4.8-2.7
		c-0.8-1.1-1.6-2.1-3.4-2.1s-3,3.5-3.9,6.2c-1,3.1-1.8,5.6-3.8,5.6s-3-1.7-4.1-3.4s-2-3.3-3.7-3.3s-3.2,2.7-4.4,4.9
		C131.6,359.3,130.5,361.2,128.8,361.2z"/>
	<path class="st7" d="M128.8,325.6c0.1,8.4,0.2,16.8,0.2,25.2l0.1,25.2l-0.3-0.2l44.8,0.1H196l22.4,0.1l-22.4,0.1h-22.4l-44.8,0.1
		h-0.3V376l0.1-25.2C128.6,342.4,128.7,334,128.8,325.6z"/>
	<rect x="244.7" y="294.3" class="st5" width="150.3" height="104.7"/>
	<rect x="272.3" y="303.4" class="st7" width="95.1" height="2.1"/>
	<rect x="288.6" y="307.8" class="st7" width="62.6" height="2.1"/>
	<rect x="261.1" y="362" class="st4" width="6.7" height="6.7"/>
	<rect x="272.4" y="362" class="st7" width="35.9" height="2"/>
	<rect x="272.4" y="366.7" class="st7" width="47.2" height="2"/>
	<rect x="261.1" y="374.6" class="st7" width="6.7" height="6.7"/>
	<rect x="272.4" y="374.6" class="st7" width="27.3" height="2"/>
	<rect x="272.4" y="379.3" class="st7" width="47.2" height="2"/>
	<path class="st7" d="M282.5,336.1c0,6.4-5.2,11.6-11.6,11.6c-6.4,0-11.6-5.2-11.6-11.6c0-6.4,5.2-11.6,11.6-11.6
		c4.2,0,8,2.2,10.1,5.8C282,332.1,282.5,334.1,282.5,336.1z"/>
	<path class="st4" d="M281,330.3l-10.1,5.8v-11.6C275.1,324.5,278.9,326.7,281,330.3z"/>
	<circle class="st8" cx="270.9" cy="336.1" r="8"/>
	<rect x="267.5" y="334.3" class="st5" width="6.7" height="1"/>
	<rect x="265.9" y="336.9" class="st9" width="10" height="1"/>
	<path class="st7" d="M315.1,336.1c0,0.6,0,1.1-0.1,1.7c-1,6.3-6.8,10.6-13.1,9.7c-6.3-1-10.6-6.8-9.7-13.1c1-6.3,6.8-10.6,13.1-9.7
		C310.9,325.5,315.1,330.4,315.1,336.1z"/>
	<path class="st4" d="M315.1,336.1c0,0.6,0,1.1-0.1,1.7l-11.5-1.7v-11.6C309.9,324.5,315.1,329.7,315.1,336.1
		C315.1,336.1,315.1,336.1,315.1,336.1z"/>
	<circle class="st8" cx="303.5" cy="336.1" r="8"/>
	<rect x="300.1" y="334.3" class="st5" width="6.7" height="1"/>
	<rect x="298.4" y="336.9" class="st9" width="10" height="1"/>
	<path class="st7" d="M347.9,336.1c0,6.4-5.2,11.6-11.6,11.6c-6.4,0-11.6-5.2-11.6-11.6c0-6.4,5.2-11.6,11.6-11.6
		c4.2,0,8,2.2,10.1,5.8C347.3,332.1,347.9,334.1,347.9,336.1z"/>
	<path class="st4" d="M347.9,336.1c0,4.8-3,9.2-7.5,10.9l-4.2-10.9v-11.7C342.7,324.5,347.9,329.7,347.9,336.1
		C347.9,336.1,347.9,336.1,347.9,336.1z"/>
	<path class="st8" d="M344.3,336.1c0,4.4-3.6,8-8,7.9s-8-3.6-7.9-8c0-4.4,3.6-7.9,8-8C340.7,328,344.3,331.6,344.3,336.1
		C344.3,336.1,344.3,336.1,344.3,336.1z"/>
	<rect x="332.9" y="334.3" class="st5" width="6.7" height="1"/>
	<rect x="331.2" y="336.9" class="st9" width="10" height="1"/>
	<path class="st7" d="M380.5,336.1c0,6.4-5.2,11.6-11.6,11.6c-6.4,0-11.6-5.2-11.6-11.6c0-6.4,5.2-11.6,11.6-11.6
		c4.2,0,8,2.2,10.1,5.8C380,332.1,380.5,334.1,380.5,336.1z"/>
	<path class="st4" d="M380.5,336.1c0,6.4-5.2,11.7-11.6,11.7c-2.8,0-5.5-1-7.6-2.8l7.5-8.9v-11.7
		C375.3,324.5,380.5,329.7,380.5,336.1C380.5,336.1,380.5,336.1,380.5,336.1z"/>
	<circle class="st8" cx="368.8" cy="336.1" r="8"/>
	<rect x="365.5" y="334.3" class="st5" width="6.7" height="1"/>
	<rect x="363.8" y="336.9" class="st9" width="10" height="1"/>
	<rect x="100.6" y="61.7" class="st9" width="298.9" height="8.3"/>
	<path class="st3" d="M107.1,65.8c0,1.1-0.9,2-2,2s-2-0.9-2-2s0.9-2,2-2C106.2,63.9,107.1,64.7,107.1,65.8z"/>
	<path class="st8" d="M115.5,65.8c0,1.1-0.9,2-2,2s-2-0.9-2-2s0.9-2,2-2C114.6,63.9,115.5,64.7,115.5,65.8z"/>
	<path class="st4" d="M123.9,65.8c0,1.1-0.9,2.1-2,2.1c-1.1,0-2.1-0.9-2.1-2c0-1.1,0.9-2.1,2-2.1c0,0,0,0,0,0
		C122.9,63.8,123.8,64.7,123.9,65.8z"/>
</g>
<g id="freepik--Plant--inject-8">
	<path class="st4" d="M73.4,370.2c0.3-7.9,0.2-15.8-0.3-23.7c-1.2-16.3-3.6-32.4-7.4-48.2c-2.1-8.9-4.6-17.7-7.3-26.5
		c-0.1-0.3-0.5-0.2-0.4,0.1c8.2,30.9,14.9,62.8,14.5,94.9c-0.1,9-1.2,17.8-2,26.7c0,0.2,0.4,0.3,0.4,0.1
		C72.4,385.9,73.3,378.1,73.4,370.2z"/>
	<path class="st4" d="M58,271.9c0,0-12.4,31.5-9.7,39s8.5,9,8.5,9s-7.6,10.9-2.3,21s17.1,9.7,17.9,21.3
		C72.5,362.2,73.1,313.9,58,271.9z"/>
	<path class="st5" d="M71.1,342.3c0-0.1,0-0.1,0-0.2c-1.6-21.5-5.6-42.8-12-63.5c0-0.1-0.1,0-0.1,0c2.5,9.2,4.6,18.5,6.5,27.8
		c-1.7-1.6-3.7-2.7-5.9-3.3c0,0-0.1,0,0,0.1c2.3,0.9,4.4,2.3,6.1,4.1c0.4,1.8,0.7,3.7,1.1,5.5c-2.8-3.1-6.6-4.6-10.5-6.1
		c0,0-0.1,0.1,0,0.1c4,1.6,8,3.7,10.7,7.2c0.9,5.2,1.8,10.5,2.5,15.8c-2-2.1-4.7-3.6-7.5-4.2c-0.1,0-0.1,0.1,0,0.1
		c2.9,0.8,5.5,2.5,7.5,4.8l0,0c0.3,1.8,0.5,3.7,0.7,5.6c-1.6-1.3-3.3-2.4-5.2-3.1c-0.1,0-0.1,0,0,0.1c1.9,0.8,3.7,2,5.2,3.5
		c0,0,0.1,0,0.1,0c0.2,1.8,0.4,3.5,0.6,5.3c-2.8-3.4-6.4-6-10.5-7.5c-0.1,0-0.1,0.1,0,0.1c4.1,1.8,7.6,4.5,10.4,8
		c0.1,0.1,0.2,0.1,0.3,0.1c0.3,2.7,0.5,5.4,0.7,8.2c0.3,4.1,0.1,0,0.1,0C71.6,347.8,71.3,345,71.1,342.3z"/>
	<path class="st5" d="M61.1,300c-2.3-1.4-4.8-2.2-7.5-2.3c-0.1,0-0.1,0.1,0,0.1c2.6,0.5,5,1.3,7.4,2.4c0.1,0,0.1,0,0.1-0.1
		C61.2,300.1,61.2,300,61.1,300z"/>
	<path class="st5" d="M62.7,333.4c-1.7-1-3.7-1.6-5.7-1.9c-0.1,0-0.1,0.1,0,0.1c1.9,0.4,3.8,1,5.5,2c0,0,0.1,0,0.1,0
		S62.7,333.5,62.7,333.4L62.7,333.4z"/>
	<path class="st4" d="M106.1,311.4c-5.3,3.6-10.1,7.9-14.4,12.6c-4.4,5-7.9,10.8-10.1,17.1c-4.7,13.1-7.3,26.9-7.5,40.9
		c-0.2,7.7,0.6,15.4,2.2,23c0,0.1,0.2,0.2,0.3,0.1c0.1,0,0.2-0.1,0.2-0.2c-2-13.3-1.9-26.9,0.3-40.2c2.1-13,5.5-27.3,13.8-37.9
		c4.5-5.8,10.2-10.3,15.7-15C106.8,311.6,106.4,311.2,106.1,311.4z"/>
	<path class="st4" d="M75.9,372.6c3-4.8,6.5-9.3,10.5-13.4c6.2-6.2,11.4-10.6,12.3-14.8s-6.2-7.1-6.2-7.1s8.6,1.5,11-2.1
		s3.5-24.5,3.5-24.5s-15.7,11.2-23,26.8S75.9,372.6,75.9,372.6z"/>
	<path class="st5" d="M101.5,316.1c-6.6,6.5-13.2,13.4-17.1,21.9c-1.3,2.9-2.5,5.9-3.5,9l0,0c-0.2,0.6-0.4,1.2-0.6,1.9
		c0,0,0,0.1,0,0.1c-1.8,6.4-3.3,12.8-4.4,19.3c0,0,0,0.1,0.1,0c0.7-3.3,1.4-6.6,2.3-9.9c0,0,0.1,0,0.1,0c1.3-0.5,2.7-0.9,4.1-1
		c0,0,0.1-0.1,0.1-0.1c0,0,0,0-0.1-0.1c-1.4,0.1-2.7,0.3-4.1,0.7c0.8-3,1.6-5.9,2.5-8.8c3-0.7,6.2-1.1,9.3-1.2v0
		c-3.1-0.1-6.1,0.1-9.1,0.8c0.2-0.5,0.3-1,0.5-1.5c2-0.5,4.1-0.8,6.2-1 M87.7,346.1c-2,0-4.1,0.3-6.1,0.7c0.8-2.5,1.8-5,2.8-7.4
		c0.9-2,1.9-3.9,3-5.7c1.6-0.4,3.3-0.7,5-0.9c0,0,0-0.1,0-0.1c-1.6-0.1-3.2,0-4.7,0.5c0.8-1.3,1.7-2.6,2.6-3.9l0,0
		c3.5-0.8,7.1-1.5,10.7-0.8c0.1,0,0.1-0.1,0-0.1c-3.4-0.9-6.8-0.4-10.2,0.3l1.1-1.5c2.1-0.6,4.3-1,6.6-1 M98.5,326.1
		c-2.1-0.2-4.1,0-6.1,0.5c2.9-3.6,6.1-7,9.3-10.3c0.1-0.3,0-0.3-0.2-0.2L98.5,326.1z"/>
	<path class="st5" d="M101.3,330.4c-1-0.2-2.1-0.2-3.1-0.1c-0.1,0-0.1,0-0.1,0.1c0,0.1,0,0.1,0.1,0.1c1,0,2.1,0,3.1,0
		C101.4,330.5,101.4,330.4,101.3,330.4z"/>
	<path class="st5" d="M90.1,350.6c-1.7,0-3.3,0.4-4.8,1c0,0,0,0.1,0,0.1c1.6-0.4,3.2-0.5,4.8-0.8C90.2,350.9,90.2,350.6,90.1,350.6z
		"/>
	<path class="st5" d="M86.7,343.6c-0.7,0-1.4,0.1-2.1,0.2c0,0-0.1,0.1,0,0.1c0,0,0,0,0,0c0.7,0,1.4,0,2.1-0.1
		C86.8,343.8,86.8,343.6,86.7,343.6z"/>
	<path class="st4" d="M30,333.6c5.1,1.7,10,4,14.5,6.9c4.7,3,8.9,6.9,12.1,11.5c6.9,9.5,12.1,20.1,15.5,31.4
		c1.9,6.2,3.1,12.6,3.5,19.1c0,0.1-0.1,0.2-0.2,0.1c-0.1,0-0.1-0.1-0.1-0.1c-1.4-11.3-4.6-22.2-9.5-32.5
		c-4.8-10-10.7-20.8-19.9-27.4c-5-3.6-10.6-6-16.2-8.5C29.5,333.9,29.8,333.5,30,333.6z"/>
	<path class="st4" d="M68.6,376.2c-3.5-3.2-7.4-6-11.6-8.4c-6.5-3.6-11.7-6-13.3-9.1s3.4-7.2,3.4-7.2s-6.6,3.2-9.3,0.9
		s-8.5-19-8.5-19s15.3,5.4,24.8,16.4S68.6,376.2,68.6,376.2z"/>
	<path class="st5" d="M67.8,372.7c-7.6-14.3-17.8-27.3-31.8-35.8l0,0c3.6,2.3,7.1,5,10.2,8c-2.8-0.2-5.7,0.4-8.2,1.7 M38.1,346.7
		c2.7-1,5.6-1.5,8.4-1.4c0,0,0.1,0,0.1,0c0.5,0.5,1,0.9,1.5,1.4c-1.5,0.1-2.9,0.3-4.4,0.6v0.1c1.5-0.3,3.1-0.4,4.6-0.4
		c2.6,2.6,5,5.3,7.2,8.2c-1-0.1-2.1-0.1-3.1,0.2c0,0,0,0,0,0.1c0,0,0,0,0,0c1.1-0.1,2.2-0.1,3.3,0c0.4,0.5,0.8,1.1,1.3,1.6
		c-3.1-0.2-6.2,0.1-9.3,0.9 M47.7,358.1c3.1-0.6,6.3-0.8,9.5-0.6l1.1,1.6c-1.9,0-3.7,0.2-5.5,0.6c0,0-0.1,0-0.1,0c0,0,0,0.1,0,0.1
		c0,0,0,0,0,0c1.9-0.4,3.8-0.6,5.7-0.5c1.6,2.3,3.2,4.6,4.7,6.9c-0.8-0.1-1.6-0.1-2.4,0.1v0.1c0.9-0.1,1.7,0,2.6,0.1
		c1.4,2.1,2.7,4.3,3.9,6.4c0.2,0.1,0.5,0,0.4-0.2L47.7,358.1z"/>
	<path class="st5" d="M56,360.9c-1.5-0.1-3,0.1-4.4,0.5 M51.6,361.5c1.5-0.2,2.9-0.4,4.4-0.5c0,0,0.1-0.1,0-0.2L51.6,361.5z"/>
	<path class="st5" d="M42.6,343.4c-0.7-0.1-1.3,0-2,0.1c-0.1,0-0.1,0.1,0,0.1c0.7-0.1,1.3,0,2-0.1c0,0,0.1,0,0.1-0.1
		S42.7,343.4,42.6,343.4C42.7,343.4,42.7,343.4,42.6,343.4z"/>
	<polygon class="st7" points="88.3,423.5 53.8,423.5 58.8,387.6 60,378.3 82.1,378.3 83.4,387.6 	"/>
	<polygon class="st5" points="83.4,387.6 58.8,387.6 60,378.3 82.1,378.3 	"/>
	<rect x="56.8" y="375.1" class="st7" width="28.4" height="7.8"/>
</g>
</svg>
