<?xml version="1.0" encoding="utf-8"?>
<!-- Generator: Adobe Illustrator 24.0.2, SVG Export Plug-In . SVG Version: 6.00 Build 0)  -->
<svg version="1.1" id="圖層_1" xmlns="http://www.w3.org/2000/svg" xmlns:xlink="http://www.w3.org/1999/xlink" x="0px" y="0px"
	 viewBox="0 0 750 750" style="enable-background:new 0 0 750 750;" xml:space="preserve">
<style type="text/css">
	.st0{fill:#D4E3D1;}
	.st1{fill:#EBEBEB;}
	.st2{fill:#69A4A7;}
	.st3{fill:#263238;}
	.st4{fill:#455A64;}
	.st5{fill:#FAFAFA;}
	.st6{fill:#E0E0E0;}
</style>
<rect class="st0" width="750" height="750"/>
<g id="freepik--background-simple--inject-4">
	<path class="st1" d="M509.9,539.7c47.5-22.2,77-48.3,111.4-88s42.2-100.3,40-152.7s-29.6-104.4-74.6-131.3
		c-29-17.3-64.1-23.8-97.7-19.5c-28.4,3.6-56.5,15.2-75.7,36.4c-22.7,25-31.7,61.6-58.7,81.9c-22,16.5-51.5,18.5-78.9,17.3
		c-27.5-1.3-55.5-5.1-82.1,1.8c-52,13.5-87.4,70.7-79.4,123.9s29.9,104.6,112.9,131.5C226.9,540.8,399.6,591.2,509.9,539.7z"/>
</g>
<g id="freepik--Plant--inject-4">
	<path class="st2" d="M602.6,467.7c-5.3-3.3-11.3-5.4-17.5-6c-2.9-0.3-6-0.2-8.3,1.5c-0.5,0.3-0.9,0.9-0.8,1.5
		c0.1,0.4,0.4,0.8,0.8,1C583.9,471.2,594.7,471.9,602.6,467.7"/>
	<path class="st2" d="M602.1,467.2c-4.1-3-7.8-6.3-11.3-10c-3.5-3.7-5.9-8.2-7.1-13.1c-0.3-1.5-0.4-3.2,0.6-4.4
		C593.3,446.7,600.4,455.9,602.1,467.2"/>
	<path class="st2" d="M602.5,467.6c-0.8-4.9-0.8-9.9,0.2-14.8c1.1-4.9,3.8-9.5,7.9-12.3c1.6,3.6,0.9,7.8-0.2,11.6
		c-1.7,5.9-4.4,11.5-7.8,16.5"/>
	<path class="st2" d="M611.3,483.5c-5.4,0.6-10,3.5-14,7.1c-4,3.7-6.8,8.5-8,13.8c5.3-0.3,9.7-4,13-8.2S607.8,487.5,611.3,483.5"/>
	<path class="st2" d="M613.3,486c-4.3-10.9-2.8-23.2,4-32.8C620.3,464.1,619.2,476.4,613.3,486"/>
	<path class="st2" d="M624.9,499.9c-10-0.6-19.4,4.8-23.9,13.8c-0.4,0.5-0.5,1.3-0.2,1.9c0.4,0.4,1,0.6,1.6,0.5
		c4.7-0.3,8.9-3.1,12.3-6.4c3.4-3.2,6.5-7,10.3-9.8"/>
	<path class="st2" d="M624.5,499.1c-2.5-8.1-2.7-16.7-0.4-24.9c0.9-3.2,2.3-6.6,5.3-8.1c0.3-0.3,0.9-0.2,1.2,0.1
		c0.1,0.1,0.1,0.2,0.2,0.4c1,2.2,1.4,4.7,1.3,7.1c-0.2,2.4-0.5,4.9-1.1,7.2c-0.9,4.4-1.4,9.2-3.8,13c-0.6,0.9-1.1,1.9-1.5,2.9
		c-0.5,1-0.5,1.3-0.9,2.1"/>
	<path class="st2" d="M655.5,503.8c-2.3-8.7,0.1-19.3,5.6-26.4c0.4-0.5,0.9-1.1,1.6-1c1,0.1,1.3,1.4,1.2,2.5
		C663.5,487.8,660.6,496.4,655.5,503.8"/>
	<path class="st2" d="M658.2,505.7c10.6,2.8,22.7,0.1,31.5-6.4c-5.3-2.7-11.3-3.4-17.1-2.1C667,498.5,661.8,501,658.2,505.7"/>
	<path class="st2" d="M660.6,499.9c5.9-9.7,17.3-16,28.6-16.5c-1.3,4.6-5.1,8.2-9.3,10.4s-9,3.1-13.7,4
		C664.3,498,661.8,498.4,660.6,499.9"/>
	<path class="st2" d="M656,471.7c1.6-5.5,3.2-11,3.7-16.8s-0.4-11.7-3.3-16.6c-5.5,10.7-6.1,23.2-0.5,33.9"/>
	<path class="st2" d="M674.7,462.3c6.5-11.8,19.7-21.2,33-22.5C702.5,452.7,688.5,462.6,674.7,462.3"/>
	<path class="st2" d="M670.6,464.6c9.7,1.5,17.9,7.6,26.9,11.4c1.9,0.9,4,1.3,6.1,1.2c2.6,0,4.7-2.2,4.7-4.8c0-1.4-0.6-2.7-1.7-3.6
		c-1.3-1.2-2.8-2.1-4.4-2.7c-9.8-4.1-20.4-4.2-30.7-1.7"/>
	<path class="st2" d="M665,471.4c2.2,0.6,2.9,1.8,4.7,3.2c5.9,5,12.9,8.6,20.4,10.5c0.8,0.2,1.8,0.3,2.2-0.4s-0.1-1.4-0.5-1.9
		c-3.3-3.8-7.5-6.7-12.3-8.4c-4.7-1.8-8.8-3.9-14.4-3.4"/>
	<path class="st2" d="M658.7,430.5c8,7.4,18.7,11,29.6,10.1c0.5,0,1-0.2,1.3-0.5c0.7-0.8-0.2-2.1-1-2.7
		C680,430.6,669.4,427.8,658.7,430.5"/>
	<path class="st2" d="M666.2,427.8c10.6-7.8,24.4-10.1,36.9-6.1c-4.7,4.6-11.1,7-17.6,7.7C679,430,672.5,429.4,666.2,427.8"/>
	<path class="st2" d="M663.2,409c-0.8-8.7-0.3-15.5-0.9-24.3c0-0.7-0.2-1.5-0.8-1.8c-0.9-0.4-1.7,0.8-2,1.7
		c-2.6,8.2-1.2,17.1,3.7,24.2"/>
	<path class="st2" d="M662.6,409.9c5.9-3.6,10.3-8.4,14.4-14c2.8-3.9,5.2-8.5,4.6-13.3c-4-0.1-7.8,2.1-10.4,5.1
		c-2.5,3.1-4.3,6.8-5.3,10.6C664.8,402.2,663.9,406.2,662.6,409.9"/>
	<path class="st2" d="M676.7,406c13-4.8,24.9-11.9,35.4-20.9c-4.2-1.7-9.1-0.7-13.3,1c-9.7,3.9-17.5,10.5-22.3,19.8"/>
	<path class="st2" d="M666.6,414.7c6.5,0.7,13.2,1.2,19.7,0.1s12.4-3.6,18.3-6.1c0.5-0.1,1-0.5,1.3-0.9c0.2-0.6,0-1.2-0.5-1.6
		c-0.5-0.4-1-0.6-1.6-0.7c-6.5-1.8-13.5-1-19.8,1.2C677.9,408.7,672.1,411.4,666.6,414.7"/>
	<path class="st2" d="M629.3,430.8c-4.5-9-4.2-19.5-0.3-28.8c2.7,4.1,3,9.4,2.5,14.3s-2,10-2.1,14.9"/>
	<path class="st2" d="M611.4,421.8c-11.3-0.1-22.1,4.5-29.8,12.7c5.5,0.9,11.3-0.6,16.3-3s9.5-5.9,14-9.4"/>
	<path class="st2" d="M599.5,417.8c-5.5-0.4-10.7-1.1-15.9,0.5s-10,5.2-12.1,10.3c5.1,0.4,10.3-0.6,14.9-2.8
		C590.9,423.5,595.3,420.8,599.5,417.8"/>
	<path class="st2" d="M617.2,418c-4.9-3.2-9.9-6.5-15.6-7.8s-12.3-0.3-16.3,4c4.6,2.7,10.2,3,15.6,3s11.9-0.1,17,1.7"/>
	<path class="st2" d="M617.2,418.3c-8.4-8.2-11.5-23-8.2-34.2C615.6,394.1,618.5,406.2,617.2,418.3"/>
	<path class="st2" d="M640.3,395c1.6-3.7,2.7-7.5,4.1-11.3c1.3-3.8,3.3-7.3,5.8-10.4c2.6-3.1,6.3-5,10.4-5.4
		c-2.6,11.4-9.9,21.2-20.1,27"/>
	<path class="st2" d="M636.1,399.8c-2.6-3.6-5.6-8.5-9.2-11.2s-8.2-4.3-12.5-3.3C619,393.3,627,398.7,636.1,399.8"/>
	<path class="st2" d="M636.9,395.3c-1.7-4.4-3.4-8.8-4.1-13.4s-0.3-9.6,2.1-13.6c4.6,8.7,6.1,18,2.3,27.1"/>
	<path class="st2" d="M640.3,368.3c2.6-8.6,10.5-15,19-17.9c1.1-0.4,2.2-0.6,3.3-0.5c1.2,0.1,2.1,0.9,2.5,2c0.3,1.5-0.9,2.8-2,3.8
		C656.4,361.4,648.7,365.7,640.3,368.3"/>
	<path class="st2" d="M640.4,361.2c0.3-5.6,0.7-11.2,2.5-16.5s5.3-10.2,10.3-12.5c0.9,5.6-1.6,11.2-4.6,16s-6.6,9.4-8.4,14.8"/>
	<path class="st2" d="M640.3,365c-2.2-6.3-2.4-14.3-6.1-19.7c-2.6-3.8-6.8-6.4-9.1-10.5c-1.4,3.9-1.2,8.1,0.5,11.9
		c1.7,3.7,4.1,7.1,7,10C635.3,359.7,637.7,361.9,640.3,365"/>
	<path class="st3" d="M640.3,549.9c-0.2,0-0.3-41.9-0.3-93.5s0.1-93.6,0.3-93.6s0.3,41.9,0.3,93.6S640.5,549.9,640.3,549.9z"/>
	<path class="st3" d="M676.9,424.5c-0.5,0.2-1,0.4-1.6,0.6l-4.3,1.5c-3.7,1.2-8.7,3-14.1,5.3s-10.5,4.2-13.4,6.7
		c-1.2,1-2.1,2.2-2.7,3.6c-0.4,1-0.5,1.6-0.5,1.6c0-0.1,0-0.3,0-0.4c0.1-0.4,0.2-0.8,0.3-1.2c0.6-1.5,1.5-2.8,2.6-3.8
		c1.7-1.5,3.7-2.7,5.8-3.6c2.3-1.1,4.9-2.2,7.6-3.3c5.5-2.2,10.5-4,14.2-5.1c1.8-0.6,3.4-1,4.4-1.3
		C675.8,424.7,676.3,424.5,676.9,424.5z"/>
	<path class="st3" d="M688.9,395c-0.1,0.2-0.3,0.3-0.4,0.5l-1.3,1.3l-5,4.6l-16.7,14.9c-6.5,5.8-12.2,11.3-16.1,15.5
		c-2,2.1-3.5,3.8-4.5,5c-0.5,0.6-0.9,1-1.2,1.4s-0.4,0.5-0.5,0.5c0.1-0.2,0.2-0.4,0.4-0.5c0.3-0.3,0.6-0.8,1.1-1.5
		c1-1.3,2.5-3,4.4-5.2c5.1-5.5,10.4-10.7,16-15.7c6.5-5.8,12.5-11,16.8-14.7l5.2-4.4l1.4-1.2C688.6,395.2,688.7,395.1,688.9,395z"/>
	<path class="st3" d="M658.3,422.1c-0.2-0.1,1.2-3.2,2.5-7.2s2-7.3,2.2-7.3c-0.1,2.6-0.7,5.1-1.6,7.5c-0.6,1.7-1.2,3.4-2,5
		C659.2,420.8,658.8,421.5,658.3,422.1z"/>
	<path class="st3" d="M640.3,447.4c-0.4-0.4-0.7-0.7-1-1.2l-2.6-3.3c-2.2-2.8-5.2-6.6-8.5-10.9s-6.4-8-8.7-10.8l-2.6-3.3
		c-0.3-0.4-0.6-0.8-0.9-1.2c0.4,0.3,0.8,0.7,1.1,1.1c0.7,0.7,1.6,1.8,2.8,3.1c2.3,2.7,5.5,6.4,8.8,10.6s6.3,8.1,8.4,11
		c1,1.4,1.9,2.6,2.4,3.4C639.9,446.5,640.1,447,640.3,447.4z"/>
	<path class="st3" d="M632.3,437.1c-1.6-1.8-2.8-4-3.4-6.3c-0.6-2.1-0.9-4.2-0.8-6.3h0.3c-0.1,0.5-0.2,0.7-0.3,0.7s0-0.3,0-0.8h0.3
		c0.1,2.1,0.5,4.2,1.1,6.2C630.6,434.4,632.5,437,632.3,437.1z"/>
	<path class="st3" d="M621.9,424.1c-0.7-0.5-1.5-1-2.3-1.4c-2.1-0.6-4.3-0.8-6.5-0.5c-2.2,0.2-4.4,0.5-6.6,1.1
		c-0.9,0.3-1.8,0.5-2.7,0.6c0.8-0.5,1.7-0.8,2.6-1.1c2.1-0.7,4.4-1.1,6.6-1.3c2.3-0.3,4.6-0.1,6.7,0.7
		C620.7,422.6,621.4,423.3,621.9,424.1z"/>
	<path class="st3" d="M619.5,420.9c0,0.1-1.4-0.5-3.6-1.3c-2.9-1-5.9-1.6-9-1.8c-3.1-0.2-6.1-0.1-9.2,0.5c-2.3,0.4-3.7,0.9-3.8,0.8
		c0.3-0.2,0.6-0.3,1-0.4c0.9-0.3,1.8-0.6,2.7-0.8c6.1-1.3,12.5-0.9,18.4,1.4c0.9,0.3,1.7,0.7,2.6,1.2
		C618.9,420.5,619.2,420.7,619.5,420.9z"/>
	<path class="st3" d="M640.3,407.6c-0.2,0-1.3-4-2.6-9.1s-2.2-9.2-2-9.3s1.3,4,2.6,9.1S640.4,407.5,640.3,407.6z"/>
	<path class="st3" d="M640.4,407.6c-0.2,0.1-0.9-2.7-2.9-5.5c-1.2-1.6-2.7-3.1-4.3-4.4c0.6,0.1,1.2,0.4,1.7,0.9
		c1.2,0.9,2.3,2,3.1,3.2C639.3,403.5,640.1,405.5,640.4,407.6z"/>
	<path class="st3" d="M640.3,527.6c-0.1,0-0.2-1-0.7-2.8c-0.7-2.5-1.6-4.9-2.8-7.3c-2.9-5.9-8.2-13.4-14.8-20.9
		c-3.3-3.8-6.5-7.4-9.3-10.8c-2.4-3-4.7-6.2-6.6-9.5c-1.3-2.3-2.4-4.6-3.3-7.1c-0.3-0.9-0.5-1.6-0.7-2c-0.1-0.2-0.1-0.5-0.2-0.7
		c0.1,0,0.4,1,1,2.7c1,2.4,2.2,4.8,3.5,7c2,3.3,4.2,6.4,6.7,9.4c2.7,3.4,6,6.9,9.3,10.7c6.7,7.5,12,15.1,14.8,21.1
		c1.1,2.4,2,4.8,2.6,7.4c0.2,0.9,0.3,1.6,0.4,2.1C640.3,527.2,640.3,527.4,640.3,527.6z"/>
	<path class="st3" d="M673.4,490.3c-0.6,0.4-1.1,0.7-1.7,1c-1.6,0.9-3.1,1.9-4.5,3c-2.1,1.6-4.1,3.4-5.9,5.4
		c-2.1,2.2-4.2,4.7-6.4,7.5c-4.4,5.5-8.4,10.3-10.9,14.2c-1.2,1.9-2.1,3.5-2.7,4.7c-0.3,0.6-0.6,1.2-1,1.7c0-0.2,0.1-0.3,0.2-0.5
		c0.1-0.3,0.3-0.8,0.6-1.4c0.8-1.6,1.6-3.2,2.6-4.8c2.4-4,6.4-8.9,10.8-14.3c2.2-2.7,4.3-5.3,6.5-7.5c1.8-1.9,3.9-3.7,6-5.3
		c1.5-1.1,3-2,4.6-2.8c0.6-0.3,1-0.5,1.4-0.6C673,490.4,673.2,490.3,673.4,490.3z"/>
	<path class="st3" d="M674,502.4c-1.2,0.3-2.4,0.5-3.7,0.5c-2.9,0.3-5.9,0.9-8.7,1.7c-2.8,0.9-5.4,2.3-7.8,4.1
		c-1.8,1.4-2.6,2.5-2.7,2.5s0.1-0.3,0.5-0.9c0.6-0.7,1.2-1.4,1.9-2c2.3-1.9,5-3.4,7.9-4.3c2.9-0.9,5.8-1.4,8.8-1.6
		C671.5,502.3,672.8,502.3,674,502.4z"/>
	<path class="st3" d="M652.2,509.8c-0.2-0.1,1.5-2.6,2.7-6s1.5-6.4,1.7-6.4c0.1,0.7,0.1,1.3-0.1,2c-0.2,1.6-0.5,3.1-1.1,4.6
		c-0.6,1.5-1.3,2.9-2.1,4.3C653.1,508.9,652.7,509.4,652.2,509.8z"/>
	<path class="st3" d="M684.1,457.7c-0.2,0.1-0.4,0.2-0.6,0.3l-1.7,0.8c-0.8,0.3-1.7,0.7-2.7,1.3s-2.2,1.1-3.5,1.8l-2,1.1
		c-0.7,0.4-1.4,0.9-2.1,1.3c-1.5,0.9-3,2-4.5,3.1c-6.7,5-12.6,11.1-17.4,18c-1.1,1.6-2.1,3.1-3,4.6c-0.4,0.7-0.9,1.4-1.3,2.1l-1.1,2
		c-0.7,1.3-1.2,2.5-1.7,3.6s-0.9,2-1.2,2.7l-0.7,1.8c-0.1,0.2-0.2,0.4-0.3,0.6c0-0.2,0.1-0.4,0.2-0.6c0.2-0.5,0.4-1.1,0.6-1.8
		c0.3-0.9,0.7-1.9,1.1-2.8c0.5-1.1,1-2.3,1.7-3.6l1-2.1c0.4-0.7,0.8-1.4,1.2-2.2c0.8-1.5,1.9-3.1,2.9-4.7c2.4-3.5,5.1-6.8,8-9.8
		c3-3,6.2-5.8,9.5-8.3c1.6-1.1,3.1-2.2,4.6-3.1c0.7-0.5,1.4-0.9,2.1-1.3l2-1.1c1.3-0.7,2.5-1.3,3.6-1.8s2-0.9,2.8-1.2l1.8-0.7
		C683.6,457.8,683.8,457.7,684.1,457.7z"/>
	<path class="st3" d="M657.9,475.3c0.2-0.8,0.7-1.6,1.4-2.1c1.6-1.4,3.7-2.2,5.8-2.2c2.1,0,4.2,0.4,6.1,1.2c0.8,0.3,1.6,0.6,2.3,1.1
		c-0.8-0.2-1.7-0.4-2.5-0.7c-1.9-0.7-3.9-1-5.9-1c-2,0-3.9,0.7-5.5,2C659,474,658.4,474.6,657.9,475.3z"/>
	<path class="st3" d="M654,479.3c-0.2-0.1,1.3-2.3,1.7-5.4s-0.6-5.5-0.4-5.6c0.3,0.5,0.6,1,0.7,1.6c0.3,1.3,0.4,2.7,0.3,4.1
		c-0.2,1.4-0.6,2.7-1.2,3.9C654.5,478.9,654,479.3,654,479.3z"/>
	<path class="st4" d="M611.4,533.6c0.9,16,5.7,32.3,13.2,48.8h32.3c7.1-16.3,11.6-32.5,12.4-48.8H611.4z"/>
	<path class="st5" d="M663.9,559.5c0,0.2-10.6,0.3-23.7,0.3s-23.7-0.1-23.7-0.3c0-0.2,10.6-0.3,23.7-0.3S663.9,559.3,663.9,559.5z"
		/>
	<path class="st5" d="M663.2,565.3c0,0.2-10,0.3-22.2,0.3s-22.3-0.1-22.3-0.3s10-0.3,22.3-0.3S663.2,565.2,663.2,565.3z"/>
</g>
<g id="freepik--chart-2--inject-4">
	<path class="st3" d="M423.2,482.7h154.4c2.2,0,4,1.8,4,4v67c0,2.2-1.8,4-4,4H423.2c-2.2,0-4-1.8-4-4v-67
		C419.1,484.5,420.9,482.7,423.2,482.7z"/>
	<path class="st4" d="M430.5,534.5v2.4h-0.2v-2.1h-0.6v-0.2H430.5z"/>
	<path class="st4" d="M431.1,535.7c0-0.8,0.4-1.2,1-1.2s1,0.4,1,1.2s-0.4,1.2-1,1.2S431.1,536.5,431.1,535.7z M432.8,535.7
		c0-0.6-0.3-1-0.7-1s-0.7,0.4-0.7,1c0,0.7,0.3,1,0.7,1S432.8,536.4,432.8,535.7z"/>
	<path class="st4" d="M431.5,522v0.2h-1.7V522l1-1c0.3-0.3,0.3-0.4,0.3-0.6c0-0.2-0.2-0.5-0.6-0.5c-0.2,0-0.5,0.1-0.6,0.3l-0.2-0.2
		c0.2-0.2,0.5-0.4,0.8-0.3c0.5,0,0.8,0.2,0.8,0.6c0,0.3-0.2,0.6-0.4,0.7l-0.8,0.8L431.5,522z"/>
	<path class="st4" d="M431.8,521c0-0.8,0.4-1.2,1-1.2s0.9,0.5,0.9,1.2s-0.4,1.2-0.9,1.2S431.8,521.8,431.8,521z M433.5,521
		c0-0.6-0.3-1-0.7-1s-0.7,0.3-0.7,1s0.3,1,0.7,1S433.5,521.6,433.5,521z"/>
	<path class="st4" d="M431.5,506.8c0,0.4-0.3,0.7-0.9,0.7c-0.3,0-0.6-0.1-0.9-0.3l0.1-0.2c0.2,0.2,0.5,0.3,0.7,0.3
		c0.4,0,0.6-0.2,0.6-0.5s-0.2-0.5-0.6-0.5h-0.2v-0.2l0.7-0.8h-1.2v-0.2h1.5v0.2l-0.7,0.8C431.2,506.1,431.5,506.4,431.5,506.8z"/>
	<path class="st4" d="M431.8,506.3c0-0.8,0.4-1.2,1-1.2s0.9,0.5,0.9,1.2s-0.4,1.2-0.9,1.2S431.8,507,431.8,506.3z M433.5,506.3
		c0-0.6-0.3-1-0.7-1s-0.7,0.4-0.7,1s0.3,1,0.7,1S433.5,506.9,433.5,506.3z"/>
	<path class="st4" d="M441,543.5c0-0.8,0.4-1.2,0.9-1.2s1,0.5,1,1.2s-0.4,1.2-1,1.2S441,544.3,441,543.5z M442.6,543.5
		c0-0.6-0.3-1-0.7-1s-0.7,0.3-0.7,1s0.3,1,0.7,1S442.7,544.2,442.6,543.5L442.6,543.5z"/>
	<path class="st4" d="M458.6,542.3v2.4h-0.3v-2.2h-0.6v-0.2H458.6z"/>
	<path class="st4" d="M477.1,544.5v0.2h-1.7v-0.2l1-1c0.2-0.1,0.3-0.4,0.3-0.6c0-0.3-0.2-0.4-0.5-0.4c-0.2,0-0.5,0.1-0.6,0.3
		l-0.2-0.1c0.2-0.2,0.5-0.4,0.8-0.3c0.5,0,0.8,0.2,0.8,0.6c0,0.3-0.2,0.6-0.4,0.7l-0.8,0.8L477.1,544.5z"/>
	<path class="st4" d="M494.5,544c0,0.4-0.3,0.7-0.9,0.7c-0.3,0-0.6-0.1-0.9-0.3l0.1-0.2c0.2,0.2,0.5,0.3,0.7,0.3
		c0.4,0,0.6-0.2,0.6-0.5s-0.2-0.5-0.6-0.5h-0.2v-0.2l0.6-0.8h-1.2v-0.2h1.5v0.2l-0.7,0.8C494.3,543.4,494.5,543.6,494.5,544z"/>
	<path class="st4" d="M512.5,544.1h-0.5v0.6h-0.2v-0.6h-1.3v-0.2l1.3-1.6h0.3l-1.2,1.5h1v-0.5h0.2v0.5h0.5L512.5,544.1z"/>
	<path class="st4" d="M529.7,544c0,0.4-0.3,0.7-0.9,0.7c-0.3,0-0.6-0.1-0.8-0.3l0.1-0.2c0.2,0.2,0.5,0.3,0.7,0.3
		c0.4,0,0.6-0.2,0.6-0.5c0-0.3-0.2-0.5-0.8-0.5h-0.5l0.1-1.2h1.3v0.2h-1.1l-0.1,0.8h0.3C529.4,543.3,529.7,543.6,529.7,544z"/>
	<path class="st4" d="M547.4,544c0,0.4-0.3,0.7-0.7,0.7c0,0,0,0-0.1,0c-0.6,0-1-0.4-1-1.2s0.4-1.2,1.1-1.2c0.2,0,0.4,0,0.6,0.1
		l-0.1,0.2c-0.1-0.1-0.3-0.1-0.5-0.1c-0.5,0-0.8,0.3-0.8,1c0,0.1,0,0.1,0,0.2c0.1-0.3,0.4-0.4,0.7-0.4
		C546.9,543.3,547.3,543.5,547.4,544C547.4,543.9,547.4,544,547.4,544z M547.1,544c0-0.3-0.2-0.5-0.6-0.5c-0.3,0-0.6,0.2-0.6,0.5
		c0,0,0,0,0,0c0,0.3,0.2,0.5,0.6,0.5C546.8,544.5,547.1,544.3,547.1,544C547.1,544,547.1,544,547.1,544z"/>
	<path class="st4" d="M564.8,542.3v0.2l-1,2.2h-0.3l1-2.2h-1.2v0.5h-0.2v-0.7L564.8,542.3z"/>
	<path class="st4" d="M564.9,535.8c0,0.1-27.4,0.2-61.3,0.2s-61.3-0.1-61.3-0.2s27.4-0.2,61.3-0.2S564.9,535.7,564.9,535.8z"/>
	<path class="st4" d="M564.9,521c0,0.1-27.4,0.2-61.3,0.2s-61.3-0.1-61.3-0.2s27.4-0.2,61.3-0.2S564.9,520.9,564.9,521z"/>
	<path class="st4" d="M564.9,506.2c0,0.1-27.4,0.2-61.3,0.2s-61.3-0.1-61.3-0.2s27.4-0.2,61.3-0.2S564.9,506.1,564.9,506.2z"/>
	<path class="st4" d="M442.3,535.6c0,0.4-0.3,0.8-0.8,0.8s-0.8-0.3-0.8-0.8s0.3-0.8,0.8-0.8c0,0,0,0,0,0
		C442,534.8,442.3,535.2,442.3,535.6z"/>
	<path class="st4" d="M460,535.6c0,0.4-0.4,0.8-0.8,0.8c-0.4,0-0.8-0.4-0.8-0.8c0-0.4,0.4-0.8,0.8-0.8
		C459.6,534.8,460,535.2,460,535.6z"/>
	<path class="st4" d="M477.6,535.6c0,0.4-0.3,0.8-0.8,0.8s-0.8-0.3-0.8-0.8s0.3-0.8,0.8-0.8c0,0,0,0,0,0
		C477.2,534.8,477.6,535.2,477.6,535.6z"/>
	<path class="st4" d="M495.2,535.6c0,0.4-0.3,0.8-0.8,0.8s-0.8-0.3-0.8-0.8s0.3-0.8,0.8-0.8c0,0,0,0,0,0
		C494.9,534.8,495.2,535.2,495.2,535.6z"/>
	<path class="st4" d="M512.8,535.6c0,0.4-0.3,0.8-0.8,0.8c-0.4,0-0.8-0.3-0.8-0.8s0.3-0.8,0.8-0.8c0,0,0,0,0,0
		C512.5,534.8,512.8,535.2,512.8,535.6L512.8,535.6z"/>
	<path class="st4" d="M548.1,535.6c0,0.4-0.3,0.8-0.8,0.8c-0.4,0-0.8-0.3-0.8-0.8c0-0.4,0.3-0.8,0.8-0.8c0,0,0,0,0,0
		C547.7,534.8,548.1,535.2,548.1,535.6z"/>
	<path class="st4" d="M530.5,535.6c0,0.4-0.4,0.8-0.8,0.8c-0.4,0-0.8-0.4-0.8-0.8l0,0c0-0.4,0.4-0.8,0.8-0.8
		C530.1,534.8,530.5,535.2,530.5,535.6z"/>
	<path class="st4" d="M565.7,535.6c0,0.4-0.3,0.8-0.8,0.8c-0.4,0-0.8-0.3-0.8-0.8c0-0.4,0.3-0.8,0.8-0.8c0,0,0,0,0,0
		C565.3,534.8,565.7,535.2,565.7,535.6z"/>
	<path class="st4" d="M450.4,535.8c0,0.3-0.2,0.5-0.5,0.5c-0.3,0-0.5-0.2-0.5-0.5c0-0.3,0.2-0.5,0.5-0.5c0,0,0,0,0,0
		C450.1,535.3,450.4,535.6,450.4,535.8C450.4,535.8,450.4,535.8,450.4,535.8z"/>
	<path class="st4" d="M468.1,535.8c0,0.3-0.2,0.5-0.5,0.5c-0.3,0-0.5-0.2-0.5-0.5c0-0.3,0.2-0.5,0.5-0.5c0,0,0,0,0,0
		C467.8,535.3,468.1,535.6,468.1,535.8C468.1,535.8,468.1,535.8,468.1,535.8z"/>
	<path class="st4" d="M485.8,535.8c0.1,0.3-0.1,0.6-0.4,0.6c-0.3,0.1-0.6-0.1-0.6-0.4c0-0.1,0-0.2,0-0.3c-0.1-0.3,0.1-0.6,0.4-0.6
		c0.3-0.1,0.6,0.1,0.6,0.4C485.8,535.7,485.8,535.8,485.8,535.8z"/>
	<path class="st4" d="M503.4,535.8c0.1,0.3-0.1,0.6-0.4,0.6c-0.3,0.1-0.6-0.1-0.6-0.4c0-0.1,0-0.2,0-0.3c-0.1-0.3,0.1-0.6,0.4-0.6
		c0.3-0.1,0.6,0.1,0.6,0.4C503.5,535.7,503.5,535.8,503.4,535.8z"/>
	<path class="st4" d="M521.1,535.8c0.1,0.3-0.1,0.6-0.4,0.6c-0.3,0.1-0.6-0.1-0.6-0.4c0-0.1,0-0.2,0-0.3c-0.1-0.3,0.1-0.6,0.4-0.6
		c0.3-0.1,0.6,0.1,0.6,0.4C521.2,535.7,521.2,535.8,521.1,535.8z"/>
	<path class="st4" d="M538.8,535.8c0,0.3-0.2,0.5-0.5,0.5l0,0c-0.3,0-0.5-0.2-0.5-0.5c0-0.3,0.2-0.5,0.5-0.5l0,0
		C538.6,535.3,538.8,535.6,538.8,535.8L538.8,535.8z"/>
	<path class="st4" d="M556.5,535.8c-0.1,0.3-0.4,0.4-0.6,0.4c-0.2,0-0.3-0.2-0.4-0.4c0.1-0.3,0.4-0.4,0.6-0.4
		C556.3,535.5,556.5,535.7,556.5,535.8z"/>
	<path class="st2" d="M461.1,529.3c0,1.1-0.9,1.9-1.9,1.9s-1.9-0.9-1.9-1.9c0-1.1,0.9-1.9,1.9-1.9l0,0
		C460.2,527.4,461.1,528.2,461.1,529.3z"/>
	<path class="st2" d="M476.5,520.2c0,1.1-0.9,1.9-1.9,1.9s-1.9-0.9-1.9-1.9c0-1.1,0.9-1.9,1.9-1.9l0,0
		C475.6,518.3,476.5,519.2,476.5,520.2z"/>
	<path class="st2" d="M495.6,521c0,1.1-0.9,1.9-1.9,1.9c-1.1,0-1.9-0.9-1.9-1.9c0-1.1,0.9-1.9,1.9-1.9l0,0
		C494.7,519.1,495.6,519.9,495.6,521z"/>
	<path class="st2" d="M514.2,504.5c0,1.1-0.9,1.9-1.9,1.9c-1.1,0-1.9-0.9-1.9-1.9c0-1.1,0.9-1.9,1.9-1.9l0,0
		C513.3,502.6,514.2,503.5,514.2,504.5z"/>
	<path class="st2" d="M531.6,515c0,1.1-0.9,1.9-1.9,1.9c-1.1,0-1.9-0.9-1.9-1.9s0.9-1.9,1.9-1.9l0,0
		C530.7,513.1,531.6,513.9,531.6,515z"/>
	<path class="st2" d="M549.2,517.8c0,1.1-0.9,1.9-1.9,1.9s-1.9-0.9-1.9-1.9c0-1.1,0.9-1.9,1.9-1.9l0,0
		C548.4,515.9,549.2,516.7,549.2,517.8C549.2,517.8,549.2,517.8,549.2,517.8z"/>
	<path class="st2" d="M565.7,529.3c-0.1,0-0.3,0-0.5,0c-0.4,0-0.9-0.1-1.3-0.2c-1.7-0.3-3.3-1.1-4.6-2.2c-0.9-0.8-1.7-1.8-2.3-2.9
		c-0.7-1.3-1.5-2.5-2.4-3.7c-1-1.3-2.4-2.3-4-2.8c-0.9-0.2-1.8-0.2-2.6,0.1c-0.9,0.3-1.7,0.8-2.5,1.4c-1.5,1.3-2.6,3-4.1,4.7
		c-0.7,0.9-1.6,1.6-2.7,2.1c-1.1,0.5-2.3,0.6-3.5,0.3c-1.2-0.4-2.2-1.3-2.6-2.4c-0.5-1.1-0.9-2.3-1.2-3.5c-0.2-1.2-0.6-2.4-1-3.6
		c-0.2-0.6-0.6-1-1.1-1.3c-0.6-0.3-1.2-0.4-1.8-0.4c-1.3,0.1-2.6,0.4-3.9,0.7c-0.7,0.1-1.3,0.2-2,0.2c-0.7,0-1.4-0.1-2.1-0.4
		c-0.7-0.3-1.2-0.8-1.7-1.4c-0.4-0.6-0.7-1.2-1-1.9c-0.6-1.3-0.9-2.7-1.4-4c-0.2-0.7-0.6-1.3-0.9-1.9c-0.4-0.6-0.9-1-1.5-1.3
		l-0.5-0.1l-0.5,0c-0.3,0-0.6,0-0.9,0.2c-0.6,0.4-1.1,0.9-1.4,1.5c-0.7,1.3-1.3,2.6-1.6,4c-0.4,1.4-0.8,2.9-1.1,4.3
		c-0.6,2.4-1.1,4.9-1.7,7.2c-0.3,1.2-0.7,2.4-1.1,3.5c-0.4,1.2-1,2.3-1.8,3.2c-0.5,0.5-1.1,0.8-1.7,0.8c-0.6,0-1.2-0.2-1.8-0.5
		c-1-0.7-1.9-1.5-2.5-2.5c-1.2-1.9-2.2-4-3-6.1c-0.7-2-1.9-3.9-3.4-5.4c-1.6-1.4-3.7-1.9-5.7-1.4c-1,0.3-1.9,0.7-2.7,1.2
		c-0.8,0.5-1.6,1.1-2.4,1.7c-1.4,1.2-2.7,2.5-3.9,3.9l0,0c-1.8,1.8-3.7,3.4-5.8,4.8c-1.9,1.3-3.9,2.4-6,3.2c-1.8,0.8-3.8,1.1-5.8,1
		c-1.7-0.2-3.3-0.6-4.9-1.2c-2.2-0.8-4.3-1.8-6.3-2.9c-0.7-0.4-1.2-0.7-1.6-0.9l-0.5-0.3c0,0,0.2,0.1,0.5,0.3l1.6,0.8
		c2,1.1,4.1,2,6.3,2.7c1.6,0.6,3.2,0.9,4.8,1.1c2,0.1,3.9-0.2,5.7-1c2.1-0.8,4.1-1.9,5.9-3.2c2.1-1.4,4-3.1,5.8-4.8l0,0
		c1.2-1.5,2.5-2.8,4-4c0.8-0.6,1.6-1.2,2.4-1.7c0.9-0.6,1.8-1,2.8-1.2c2.1-0.5,4.4,0,6,1.5c1.6,1.6,2.8,3.5,3.5,5.6
		c0.8,2.1,1.8,4.1,3,6c0.6,1,1.4,1.8,2.4,2.4c0.5,0.3,1,0.5,1.6,0.5c0.5,0,1.1-0.3,1.4-0.7c0.8-0.9,1.4-1.9,1.7-3
		c0.4-1.1,0.8-2.3,1.1-3.4c0.6-2.3,1.1-4.8,1.7-7.2c0.3-1.5,0.7-2.9,1.1-4.4c0.4-1.5,1-2.8,1.7-4.2c0.4-0.7,0.9-1.2,1.6-1.6
		c0.4-0.2,0.8-0.3,1.2-0.2l0.6,0l0.6,0.2c0.7,0.3,1.3,0.8,1.7,1.4c0.4,0.6,0.7,1.3,1,2c0.5,1.3,0.9,2.7,1.4,4c0.4,1.3,1.3,2.3,2.4,3
		c1.2,0.4,2.6,0.5,3.9,0.1c1.3-0.3,2.6-0.5,3.9-0.7c0.7,0,1.4,0.1,2,0.4c0.6,0.4,1,0.9,1.3,1.5c0.5,1.2,0.8,2.4,1.1,3.6
		c0.2,1.2,0.6,2.3,1.1,3.4c0.4,1.1,1.3,1.9,2.4,2.2c1.1,0.3,2.2,0.2,3.2-0.3c1-0.5,1.8-1.2,2.5-2c1.4-1.6,2.5-3.4,4.1-4.7
		c0.8-0.6,1.6-1.1,2.6-1.4c0.9-0.3,1.9-0.3,2.8-0.1c1.6,0.5,3.1,1.5,4.1,2.9c0.9,1.2,1.7,2.4,2.3,3.7c0.5,1.1,1.3,2.1,2.2,2.9
		c1.3,1.1,2.8,1.8,4.5,2.2c0.4,0.1,0.9,0.2,1.3,0.2L565.7,529.3z"/>
	<path class="st3" d="M461.3,496.1c0,0.1-6.8,0.2-15.3,0.2s-15.3-0.1-15.3-0.2s6.8-0.2,15.3-0.2S461.3,495.9,461.3,496.1z"/>
</g>
<g id="freepik--chart-1--inject-4">
	<path class="st3" d="M221.6,167.8h330c5.2,0,9.4,4.2,9.4,9.4v284.4c0,5.2-4.2,9.4-9.4,9.4h-330c-5.2,0-9.4-4.2-9.4-9.4V177.1
		C212.2,172,216.4,167.8,221.6,167.8z"/>
	<path class="st4" d="M560.9,187.5c0,0.1-78.1,0.2-174.3,0.2s-174.4-0.1-174.4-0.2c0-0.1,78.1-0.2,174.4-0.2
		S560.9,187.4,560.9,187.5z"/>
	<ellipse class="st4" cx="231.4" cy="177.4" rx="2.1" ry="2.2"/>
	<ellipse class="st4" cx="238.8" cy="177.4" rx="2.1" ry="2.2"/>
	<path class="st4" d="M248.2,177.4c0,1.2-1,2.1-2.2,2.1c-1.2,0-2.1-1-2.1-2.2c0-1.1,1-2.1,2.1-2.1
		C247.3,175.2,248.2,176.2,248.2,177.4C248.2,177.3,248.2,177.3,248.2,177.4z"/>
	<path class="st4" d="M474.5,318.9c-4.8-0.7-9.7,1.1-14.5-0.1c-10.5-2.5-16.2-17.9-26.9-19.8c-7.5-1.3-14.4,4.6-20.3,10.3
		s-12.7,11.7-20.2,10.6c-12.1-1.8-18.4-20.8-30.5-22.1c-3.2-0.3-6.4,0.7-9.6,0.5c-10.3-0.4-17.5-11.9-21.8-22.7
		c-2.1-5.3-3.9-10.9-7-15.6c-3.1-4.7-7.6-8.5-12.6-8.5c-4.4-0.1-8.5,2.7-11.5,6.4c-3,3.7-5,8.3-6.8,13
		c-8.5,21.6-15.8,43.7-21.9,66.1l215.1-0.2C484.7,329.7,479.3,319.5,474.5,318.9z"/>
	<path class="st2" d="M256.1,442.1c0,0.8-0.6,1.4-1.4,1.4s-1.4-0.6-1.4-1.4c0-0.8,0.6-1.4,1.4-1.4S256.1,441.3,256.1,442.1
		L256.1,442.1z"/>
	<path class="st2" d="M269.4,442.3c-1.8,0.3-3.5,0.4-5.3,0.3c-1.8,0.1-3.6,0-5.3-0.3C262.2,441.9,265.8,441.9,269.4,442.3z"/>
	<path class="st4" d="M288.4,442.1c0,0.8-0.6,1.4-1.4,1.4s-1.4-0.6-1.4-1.4s0.6-1.4,1.4-1.4S288.4,441.3,288.4,442.1L288.4,442.1z"
		/>
	<path class="st4" d="M301.7,442.3c-3.5,0.4-7.1,0.4-10.7,0C294.5,441.9,298.1,441.9,301.7,442.3z"/>
	<circle class="st2" cx="253.8" cy="239.9" r="1.8"/>
	<path class="st2" d="M272.8,240.1c-2.3,0.3-4.6,0.3-6.9,0.3c-2.3,0.1-4.6,0-6.9-0.3c2.3-0.3,4.6-0.3,6.9-0.3
		C268.2,239.8,270.5,239.8,272.8,240.1z"/>
	<circle class="st4" cx="290.1" cy="239.9" r="1.8"/>
	<path class="st4" d="M309.1,240.1c-2.3,0.3-4.6,0.4-6.9,0.3c-2.3,0.1-4.6,0-6.9-0.3c2.3-0.3,4.6-0.3,6.9-0.3
		C304.5,239.8,306.8,239.8,309.1,240.1z"/>
	<path class="st6" d="M256.3,224.7h-2.9l-0.6,1.3h-1.5l2.8-6.2h1.4l2.8,6.2h-1.5L256.3,224.7z M255.9,223.6l-1-2.4l-1,2.4H255.9z"/>
	<path class="st6" d="M263.8,223.3v2.7h-1.4v-2.5c0-0.8-0.4-1.1-1-1.1s-1.1,0.4-1.1,1.3v2.3h-1.4v-4.8h1.3v0.6
		c0.4-0.4,1-0.7,1.6-0.6c1-0.1,1.9,0.7,2,1.7C263.9,223,263.9,223.1,263.8,223.3z"/>
	<path class="st6" d="M269.3,223.3v2.7H268v-0.6c-0.3,0.5-0.9,0.7-1.5,0.7c-1.1,0-1.8-0.6-1.8-1.5c0-0.8,0.6-1.4,2.1-1.4h1.2
		c0-0.6-0.4-0.9-1.1-0.9c-0.5,0-1,0.2-1.4,0.4l-0.5-1c0.6-0.4,1.3-0.6,2.1-0.6C268.5,221.2,269.3,221.9,269.3,223.3z M268,224.5V224
		h-1c-0.6,0-0.9,0.2-0.9,0.6s0.3,0.6,0.8,0.6C267.4,225.2,267.8,224.9,268,224.5z"/>
	<path class="st6" d="M270.6,219.4h1.4v6.6h-1.4L270.6,219.4z"/>
	<path class="st6" d="M278,221.2l-2.2,5.1c-0.2,0.9-1.1,1.5-2,1.5c-0.5,0-1-0.1-1.3-0.4l0.5-1c0.2,0.2,0.5,0.3,0.8,0.3
		c0.4,0,0.6-0.2,0.8-0.6v-0.1l-2.1-4.8h1.5l1.3,3.3l1.4-3.3L278,221.2z"/>
	<path class="st6" d="M281.8,225.8c-0.3,0.2-0.7,0.3-1.1,0.3c-0.9,0.1-1.7-0.5-1.8-1.3c0-0.1,0-0.2,0-0.4v-2h-0.7v-1h0.7v-1.2h1.4
		v1.2h1.2v1.1h-1.2v2c0,0.3,0.2,0.6,0.5,0.6c0,0,0.1,0,0.1,0c0.2,0,0.4-0.1,0.6-0.2L281.8,225.8z"/>
	<path class="st6" d="M282.4,219.8c0-0.4,0.4-0.8,0.8-0.8c0,0,0,0,0,0c0.4,0,0.8,0.3,0.9,0.7c0,0,0,0,0,0.1c0,0.4-0.4,0.8-0.8,0.8
		c0,0,0,0-0.1,0C282.9,220.6,282.5,220.3,282.4,219.8C282.4,219.8,282.4,219.8,282.4,219.8z M282.6,221.2h1.4v4.8h-1.4L282.6,221.2z
		"/>
	<path class="st6" d="M284.9,223.6c0-1.4,1.1-2.5,2.5-2.5c0.1,0,0.1,0,0.2,0c0.9-0.1,1.7,0.4,2.1,1.2l-1.1,0.6
		c-0.4-0.6-1.2-0.7-1.8-0.3c-0.6,0.4-0.7,1.2-0.3,1.8c0.2,0.3,0.6,0.6,1,0.6c0.5,0,0.9-0.3,1.1-0.7l1.1,0.6
		c-0.4,0.8-1.2,1.3-2.1,1.2c-1.4,0.1-2.6-0.9-2.7-2.3C284.9,223.8,284.9,223.7,284.9,223.6z"/>
	<path class="st6" d="M290.1,225.6l0.5-1c0.5,0.3,1.1,0.5,1.7,0.5c0.6,0,0.9-0.2,0.9-0.4c0-0.8-2.9,0-2.9-1.9c0-0.9,0.8-1.6,2.2-1.6
		c0.6,0,1.3,0.1,1.9,0.4l-0.5,1c-0.4-0.2-0.9-0.4-1.4-0.4c-0.6,0-0.9,0.2-0.9,0.5c0,0.8,2.9,0,2.9,1.9c0,0.9-0.8,1.5-2.3,1.5
		C291.4,226.1,290.7,225.9,290.1,225.6z"/>
	<path class="st4" d="M254.6,261.4v0.7h-2.9v-0.6l1.5-1.4c0.4-0.3,0.4-0.5,0.4-0.7s-0.2-0.5-0.6-0.5c-0.3,0-0.6,0.1-0.8,0.4
		l-0.7-0.4c0.4-0.5,0.9-0.8,1.6-0.7c0.9,0,1.4,0.5,1.4,1.1c0,0.5-0.2,0.9-0.6,1.2l-0.9,0.8H254.6z"/>
	<path class="st4" d="M255,260.2c0-1.3,0.7-2,1.7-2c1,0,1.7,0.7,1.7,2c0,1.3-0.7,2-1.7,2S255,261.5,255,260.2z M257.4,260.2
		c0-0.9-0.3-1.3-0.8-1.3s-0.8,0.4-0.8,1.3s0.3,1.3,0.8,1.3S257.4,261.1,257.4,260.2L257.4,260.2z"/>
	<path class="st4" d="M260.2,261l-0.4,0.4v0.8h-0.9V258h0.9v2.3l1.3-1.2h1l-1.2,1.3l1.4,1.7h-1L260.2,261z"/>
	<path class="st4" d="M253.2,276.9v3.9h-0.9v-3.2h-0.8v-0.7H253.2z"/>
	<path class="st4" d="M256.8,279.6c0,0.7-0.5,1.3-1.6,1.3c-0.5,0-1-0.1-1.5-0.4l0.4-0.7c0.3,0.2,0.7,0.4,1.1,0.4
		c0.4,0,0.7-0.2,0.7-0.5c0-0.3-0.2-0.5-0.9-0.5h-1l0.2-2.2h2.4v0.7H255l-0.1,0.7h0.3C256.4,278.4,256.8,278.9,256.8,279.6z"/>
	<path class="st4" d="M258.6,279.6l-0.4,0.4v0.8h-0.9v-4.1h0.9v2.3l1.3-1.2h1l-1.2,1.3l1.4,1.7h-1L258.6,279.6z"/>
	<path class="st4" d="M253.2,295.5v3.9h-0.9v-3.2h-0.8v-0.7H253.2z"/>
	<path class="st4" d="M253.9,297.5c0-1.3,0.7-2,1.7-2c1,0,1.7,0.7,1.7,2c0,1.3-0.7,2-1.7,2S253.9,298.7,253.9,297.5z M256.3,297.5
		c0-0.9-0.3-1.3-0.8-1.3s-0.8,0.4-0.8,1.3s0.3,1.3,0.8,1.3S256.3,298.3,256.3,297.5z"/>
	<path class="st4" d="M259.1,298.2l-0.4,0.4v0.8h-0.9v-4.1h0.9v2.3l1.3-1.2h1l-1.2,1.3l1.4,1.7h-1L259.1,298.2z"/>
	<path class="st4" d="M254.6,316.8c0,0.7-0.5,1.3-1.6,1.3c-0.5,0-1-0.1-1.5-0.4l0.4-0.7c0.3,0.2,0.7,0.4,1.1,0.4
		c0.4,0,0.7-0.2,0.7-0.5c0-0.3-0.2-0.5-0.9-0.5h-1l0.2-2.2h2.4v0.7h-1.6l-0.1,0.7h0.3C254.2,315.6,254.6,316.1,254.6,316.8z"/>
	<path class="st4" d="M256.5,316.8l-0.4,0.4v0.7h-0.9v-4.1h0.9v2.3l1.3-1.2h1l-1.3,1.3l1.4,1.7h-1L256.5,316.8z"/>
	<path class="st4" d="M251.7,334.7c0-1.3,0.7-2,1.7-2s1.7,0.7,1.7,2s-0.7,2-1.7,2S251.7,336,251.7,334.7z M254.1,334.7
		c0-0.9-0.3-1.3-0.8-1.3s-0.8,0.4-0.8,1.3s0.3,1.3,0.8,1.3S254.1,335.6,254.1,334.7z"/>
	<path class="st4" d="M256.9,335.5l-0.4,0.4v0.8h-0.9v-4.1h0.9v2.3l1.3-1.2h1l-1.2,1.3l1.4,1.7h-1L256.9,335.5z"/>
	<path class="st4" d="M528.3,261c0,0.1-59.5,0.3-132.9,0.3s-133-0.1-133-0.3s59.5-0.3,133-0.3S528.3,260.8,528.3,261z"/>
	<path class="st4" d="M528.3,280c0,0.1-59.5,0.3-132.9,0.3s-133-0.1-133-0.3s59.5-0.3,133-0.3S528.3,279.8,528.3,280z"/>
	<path class="st4" d="M528.3,298.9c0,0.1-59.5,0.3-132.9,0.3s-133-0.1-133-0.3s59.5-0.3,133-0.3S528.3,298.8,528.3,298.9z"/>
	<path class="st4" d="M528.3,317.9c0,0.1-59.5,0.3-132.9,0.3s-133-0.1-133-0.3s59.5-0.3,133-0.3S528.3,317.8,528.3,317.9z"/>
	<path class="st4" d="M528.3,336.9c0,0.2-59.5,0.3-132.9,0.3s-133-0.1-133-0.3c0-0.1,59.5-0.3,133-0.3S528.3,336.8,528.3,336.9z"/>
	<path class="st2" d="M263.7,336.9c13.6-1.8,25.4-7.3,35.6-13.1c10.2-5.8,19-12.5,28.6-18.6c3.8-2.4,8.3-4.9,13.7-4.8
		c4.8,0.1,9.4,2.2,12.7,5.8c2.7,2.9,4.3,6.3,7.7,8.9c2.2,1.8,5,2.8,7.8,2.8c4.6,0,8.2-3,12.8-2.9c6,0.1,8.8,4.8,14.4,6.1
		c4.5,1.1,9.6-0.3,13.5-2.1c3.8-1.9,7-4.2,11.3-5.6c6.8-2.2,15.3-1.4,22.1,0.7c6.8,2.1,10.9,7.1,16.3,10.5c7.1,4.4,15.6,11,23,12.2
		L263.7,336.9z"/>
	<path class="st4" d="M274.8,425.2c-13.6,0-24.6-11-24.6-24.6s11-24.6,24.6-24.6c13.6,0,24.6,11,24.6,24.6
		C299.4,414.2,288.4,425.2,274.8,425.2z M274.8,381c-10.8,0-19.6,8.8-19.6,19.6s8.8,19.6,19.6,19.6s19.6-8.8,19.6-19.6l0,0
		C294.4,389.8,285.7,381,274.8,381L274.8,381z"/>
	<path class="st2" d="M274.8,426.2c-2.6,0-5.2-0.4-7.7-1.2c-2.1-0.7-3.3-2.9-2.6-5s2.9-3.3,5-2.6c9.6,2.8,19.7-2.7,22.5-12.3
		c2.8-9.4-2.4-19.3-11.7-22.3c-2.1-0.6-3.3-2.8-2.7-5s2.8-3.3,5-2.7c0,0,0.1,0,0.1,0c13.7,4.4,21.4,19,17,32.8
		C296.2,418.8,286.2,426.1,274.8,426.2L274.8,426.2z"/>
	<path class="st6" d="M270,403.2h-1.3v1.7h-1.9v-1.7h-4.4v-1.3l3.9-5.2h2l-3.6,4.9h2.2v-1.5h1.8v1.5h1.3V403.2z"/>
	<path class="st6" d="M276.8,402.4c0,1.5-1.1,2.7-3.4,2.7c-1.1,0-2.2-0.3-3.1-0.9l0.8-1.5c0.7,0.5,1.5,0.7,2.3,0.7
		c1,0,1.5-0.4,1.5-1.1s-0.4-1.1-1.9-1.1h-2.1l0.4-4.6h5v1.5h-3.4l-0.1,1.6h0.7C275.8,399.8,276.8,400.9,276.8,402.4z"/>
	<path class="st6" d="M277.3,398.9c0.1-1.1,1.1-1.9,2.2-1.7s1.9,1.1,1.7,2.2c-0.1,1-1,1.7-2,1.7c-1.1,0-2-0.9-2-2
		C277.3,399.1,277.3,399,277.3,398.9z M280.2,398.9c0-0.9-0.3-1.3-0.9-1.3s-0.9,0.4-0.9,1.3s0.4,1.3,0.9,1.3
		S280.2,399.8,280.2,398.9L280.2,398.9z M284.2,396.7h1.4l-5.6,8.2h-1.4L284.2,396.7z M282.8,402.7c0.1-1.1,1.1-1.9,2.2-1.7
		s1.9,1.1,1.7,2.2c-0.1,1-1,1.7-2,1.7c-1.1,0-2-0.9-2-2C282.9,402.9,282.9,402.8,282.8,402.7L282.8,402.7z M285.7,402.7
		c0-0.9-0.3-1.3-0.9-1.3s-0.9,0.4-0.9,1.3s0.4,1.3,0.9,1.3S285.8,403.6,285.7,402.7L285.7,402.7z"/>
	<path class="st4" d="M349.9,379v0.6h-2.3v-0.4l1.2-1.1c0.3-0.3,0.3-0.4,0.3-0.6s-0.2-0.4-0.5-0.4c-0.2,0-0.5,0.1-0.6,0.3l-0.5-0.3
		c0.3-0.4,0.7-0.6,1.2-0.6c0.7,0,1.1,0.3,1.1,0.9c0,0.4-0.2,0.7-0.5,0.9l-0.7,0.7L349.9,379z"/>
	<path class="st4" d="M350.2,378.1c0-1,0.5-1.5,1.3-1.5s1.3,0.6,1.3,1.5c0,1-0.5,1.6-1.3,1.6S350.2,379.1,350.2,378.1z M352,378.1
		c0-0.7-0.2-1-0.6-1s-0.6,0.3-0.6,1c0,0.7,0.2,1,0.6,1S352,378.8,352,378.1L352,378.1z"/>
	<path class="st4" d="M354.2,378.7l-0.3,0.3v0.6h-0.7v-3.2h0.7v1.8l1-0.9h0.8l-1,1l1,1.3h-0.8L354.2,378.7z"/>
	<path class="st4" d="M348.8,391v3h-0.7v-2.5h-0.6V391H348.8z"/>
	<path class="st4" d="M351.6,393.1c0,0.5-0.4,1-1.3,1c-0.4,0-0.8-0.1-1.1-0.3l0.3-0.5c0.2,0.2,0.5,0.3,0.9,0.3
		c0.4,0,0.6-0.1,0.6-0.4s-0.1-0.4-0.7-0.4h-0.8l0.1-1.7h1.8v0.5h-1.3v0.6h0.3C351.2,392.1,351.6,392.5,351.6,393.1z"/>
	<path class="st4" d="M353,393.1l-0.3,0.3v0.6H352v-3.2h0.7v1.8l1-0.9h0.8l-1,1l1,1.3h-0.8L353,393.1z"/>
	<path class="st4" d="M348.8,405.4v3h-0.7v-2.4h-0.6v-0.6H348.8z"/>
	<path class="st4" d="M349.3,406.9c0-1,0.5-1.5,1.3-1.5s1.3,0.6,1.3,1.5s-0.5,1.6-1.3,1.6S349.3,407.9,349.3,406.9z M351.2,406.9
		c0-0.7-0.2-1-0.6-1s-0.6,0.3-0.6,1s0.2,1,0.6,1S351.2,407.6,351.2,406.9z"/>
	<path class="st4" d="M353.4,407.5l-0.3,0.3v0.6h-0.7v-3.2h0.6v1.8l1-0.9h0.8l-1,1l1,1.3H354L353.4,407.5z"/>
	<path class="st4" d="M349.9,421.8c0,0.5-0.4,1-1.2,1c-0.4,0-0.8-0.1-1.1-0.3l0.3-0.5c0.2,0.2,0.5,0.3,0.9,0.3
		c0.4,0,0.6-0.1,0.6-0.4s-0.1-0.4-0.7-0.4h-0.8l0.2-1.7h1.8v0.5h-1.3l0,0.6h0.3C349.5,420.9,349.9,421.3,349.9,421.8z"/>
	<path class="st4" d="M351.3,421.9l-0.3,0.3v0.6h-0.7v-3.2h0.7v1.8l1-0.9h0.8l-1,1l1,1.3H352L351.3,421.9z"/>
	<path class="st4" d="M347.6,435.6c0-1,0.5-1.5,1.3-1.5s1.3,0.6,1.3,1.5s-0.5,1.6-1.3,1.6S347.6,436.6,347.6,435.6z M349.5,435.6
		c0-0.7-0.2-1-0.6-1s-0.6,0.3-0.6,1s0.2,1,0.6,1S349.5,436.3,349.5,435.6z"/>
	<path class="st4" d="M351.7,436.3l-0.3,0.3v0.6h-0.7V434h0.7v1.8l1-0.9h0.8l-1,1l1,1.3h-0.8L351.7,436.3z"/>
	<path class="st4" d="M529.7,378.7c0,0.1-38.9,0.3-86.9,0.3s-86.9-0.1-86.9-0.3s38.9-0.3,86.9-0.3S529.7,378.5,529.7,378.7z"/>
	<path class="st4" d="M529.7,393.4c0,0.1-38.9,0.3-86.9,0.3s-86.9-0.1-86.9-0.3s38.9-0.3,86.9-0.3S529.7,393.2,529.7,393.4z"/>
	<path class="st4" d="M529.7,408c0,0.1-38.9,0.3-86.9,0.3s-86.9-0.1-86.9-0.3s38.9-0.3,86.9-0.3S529.7,407.9,529.7,408z"/>
	<path class="st4" d="M529.7,422.7c0,0.1-38.9,0.3-86.9,0.3s-86.9-0.1-86.9-0.3s38.9-0.3,86.9-0.3S529.7,422.6,529.7,422.7z"/>
	<path class="st4" d="M529.7,437.4c0,0.1-38.9,0.3-86.9,0.3s-86.9-0.1-86.9-0.3s38.9-0.3,86.9-0.3S529.7,437.2,529.7,437.4z"/>
	<path class="st2" d="M363.4,430.1L363.4,430.1c-0.7,0-1.3-0.6-1.3-1.3l0,0v-40.5c0-0.7,0.6-1.3,1.3-1.3l0,0c0.7,0,1.3,0.6,1.3,1.3
		l0,0v40.5C364.7,429.5,364.1,430.1,363.4,430.1z"/>
	<path class="st6" d="M371.5,424.3L371.5,424.3c-0.7,0-1.3-0.6-1.3-1.3l0,0v-21.1c0-0.7,0.6-1.3,1.3-1.3l0,0l0,0
		c0.7,0,1.3,0.6,1.3,1.3V423C372.8,423.7,372.2,424.3,371.5,424.3C371.5,424.3,371.5,424.3,371.5,424.3z"/>
	<path class="st6" d="M388.5,424.3L388.5,424.3c-0.7,0-1.3-0.6-1.3-1.3l0,0v-30.9c0-0.7,0.6-1.3,1.3-1.3l0,0c0.7,0,1.3,0.6,1.3,1.3
		V423C389.9,423.7,389.3,424.3,388.5,424.3C388.6,424.3,388.6,424.3,388.5,424.3z"/>
	<path class="st6" d="M405.9,428.5L405.9,428.5c-0.7,0-1.3-0.6-1.3-1.3l0,0v-30.9c0-0.7,0.6-1.3,1.3-1.3l0,0l0,0
		c0.7,0,1.3,0.6,1.3,1.3l0,0v30.9C407.2,427.9,406.6,428.5,405.9,428.5z"/>
	<path class="st6" d="M423.4,428.5L423.4,428.5c-0.7,0-1.3-0.6-1.3-1.3v-30.9c0-0.7,0.6-1.3,1.3-1.3l0,0c0.7,0,1.3,0.6,1.3,1.3l0,0
		v30.9C424.7,427.9,424.1,428.5,423.4,428.5z"/>
	<path class="st6" d="M439.8,433.6L439.8,433.6c-0.7,0-1.3-0.6-1.3-1.3l0,0v-39.6c0-0.7,0.6-1.3,1.3-1.3l0,0l0,0
		c0.7,0,1.3,0.6,1.3,1.3v39.6C441.1,433,440.5,433.6,439.8,433.6z"/>
	<path class="st2" d="M482,427.1L482,427.1c-0.7,0-1.3-0.6-1.3-1.3l0,0v-39.6c0-0.7,0.6-1.3,1.3-1.3l0,0l0,0c0.7,0,1.3,0.6,1.3,1.3
		l0,0v39.6C483.3,426.6,482.7,427.1,482,427.1L482,427.1z"/>
	<path class="st6" d="M491.6,430.6L491.6,430.6c-0.7,0-1.3-0.6-1.3-1.3l0,0v-39.6c0-0.7,0.6-1.3,1.3-1.3l0,0l0,0
		c0.7,0,1.3,0.6,1.3,1.3v39.6C492.9,430,492.3,430.6,491.6,430.6z"/>
	<path class="st2" d="M464.9,427.1L464.9,427.1c-0.7,0-1.3-0.6-1.3-1.3l0,0v-39.6c0-0.7,0.6-1.3,1.3-1.3l0,0l0,0
		c0.7,0,1.3,0.6,1.3,1.3l0,0v39.6C466.2,426.6,465.6,427.1,464.9,427.1L464.9,427.1z"/>
	<path class="st2" d="M397.1,421L397.1,421c-0.7,0-1.3-0.6-1.3-1.3v-39.4c0-0.7,0.6-1.3,1.3-1.3l0,0l0,0c0.7,0,1.3,0.6,1.3,1.3l0,0
		v39.4C398.4,420.4,397.8,421,397.1,421z"/>
	<path class="st2" d="M380.3,428.7L380.3,428.7c-0.7,0-1.3-0.6-1.3-1.3l0,0v-21.1c0-0.7,0.6-1.3,1.3-1.3l0,0l0,0
		c0.7,0,1.3,0.6,1.3,1.3l0,0v21.1C381.6,428.1,381.1,428.7,380.3,428.7L380.3,428.7z"/>
	<path class="st2" d="M414.4,423.8L414.4,423.8c-0.7,0-1.3-0.6-1.3-1.3v-16.4c0-0.7,0.6-1.3,1.3-1.3l0,0l0,0c0.7,0,1.3,0.6,1.3,1.3
		l0,0v16.4C415.7,423.2,415.2,423.8,414.4,423.8z"/>
	<path class="st6" d="M472.6,418.9L472.6,418.9c-0.7,0-1.3-0.6-1.3-1.3v-16.4c0-0.7,0.6-1.3,1.3-1.3l0,0c0.7,0,1.3,0.6,1.3,1.3l0,0
		v16.4C473.9,418.3,473.3,418.9,472.6,418.9L472.6,418.9z"/>
	<path class="st2" d="M500.3,423.6L500.3,423.6c-0.7,0-1.3-0.6-1.3-1.3l0,0v-16.4c0-0.7,0.6-1.3,1.3-1.3l0,0l0,0
		c0.7,0,1.3,0.6,1.3,1.3l0,0v16.4C501.7,423,501.1,423.6,500.3,423.6z"/>
	<path class="st6" d="M508.3,428.4L508.3,428.4c-0.7,0-1.3-0.6-1.3-1.3v-16.4c0-0.7,0.6-1.3,1.3-1.3l0,0c0.7,0,1.3,0.6,1.3,1.3l0,0
		v16.4C509.6,427.8,509,428.4,508.3,428.4z"/>
	<path class="st2" d="M517.3,411.4L517.3,411.4c-0.7,0-1.3-0.6-1.3-1.3v-16.4c0-0.7,0.6-1.3,1.3-1.3l0,0c0.7,0,1.3,0.6,1.3,1.3v16.4
		C518.7,410.8,518.1,411.4,517.3,411.4z"/>
	<path class="st6" d="M457.1,423.8L457.1,423.8c-0.7,0-1.3-0.6-1.3-1.3l0,0V406c0-0.7,0.6-1.3,1.3-1.3l0,0c0.7,0,1.3,0.6,1.3,1.3
		v16.4C458.4,423.2,457.8,423.8,457.1,423.8z"/>
	<path class="st2" d="M430.7,420L430.7,420c-0.7,0-1.3-0.6-1.3-1.3v-16.4c0-0.7,0.6-1.3,1.3-1.3l0,0l0,0c0.7,0,1.3,0.6,1.3,1.3l0,0
		v16.4C432,419.4,431.4,420,430.7,420z"/>
	<path class="st2" d="M448.2,424L448.2,424c-0.7,0-1.3-0.6-1.3-1.3v-26.6c0-0.7,0.6-1.3,1.3-1.3l0,0c0.7,0,1.3,0.6,1.3,1.3v26.6
		C449.5,423.4,448.9,424,448.2,424z"/>
	<path class="st4" d="M539.9,455.7h0.4c0.4,0,0.8-0.1,1.2-0.1c1.5-0.3,2.9-0.9,4.1-1.9c0.9-0.7,1.6-1.6,2.1-2.6c0.6-1.2,1-2.5,1-3.9
		c0-3,0-6.4,0-10.2c0-15.3,0-37.5-0.1-64.9v-2.6c0-0.9,0-1.7-0.2-2.6c-0.3-1.7-1.1-3.3-2.4-4.6c-1.3-1.3-2.9-2.1-4.6-2.4
		c-0.9-0.1-1.8-0.2-2.7-0.1h-26.1h-51.5H343.2c-2.6,0-5,1.1-6.6,3.1c-0.8,1-1.4,2.1-1.7,3.3c-0.3,1.2-0.4,2.5-0.3,3.8v45.5
		c0,9.9,0,19.5,0,29c0,1.2,0,2.3,0.1,3.5c0.2,1.1,0.5,2.2,1.1,3.2c1.2,2,3.1,3.4,5.3,3.9c1.1,0.2,2.3,0.3,3.4,0.3h10.3l96.3,0.1
		l64.9,0.1l17.7,0h4.6h1.6h-1.6h-4.6h-17.7l-64.9,0.1l-96.3,0h-10.3c-1.2,0.1-2.4,0-3.5-0.3c-3.6-0.9-6.3-3.9-6.9-7.5
		c-0.1-1.2-0.1-2.4-0.1-3.6v-29c0-9.9,0-19.9,0-30.1V370c-0.1-1.3,0-2.6,0.3-3.9c1-4,4.7-6.9,8.9-6.9h117.9h51.5h23.3h2.8
		c0.9,0,1.9,0,2.8,0.2c3.7,0.7,6.6,3.6,7.3,7.3c0.1,0.9,0.2,1.8,0.2,2.6v2.6c0,27.4-0.1,49.6-0.1,64.9c0,3.8,0,7.2,0,10.2
		c-0.1,2.5-1.3,4.9-3.2,6.5c-1.2,1-2.6,1.6-4.2,1.9c-0.4,0.1-0.8,0.1-1.2,0.1L539.9,455.7z"/>
	<path class="st4" d="M318.4,455.7c0,0,0.3,0,1-0.1c0.9-0.1,1.8-0.5,2.6-1c1.3-0.8,2.3-2,2.8-3.4c0.3-0.9,0.5-1.9,0.4-2.9
		c0-1,0-2.2,0-3.3c0-9.5,0-23.1-0.1-40c0-8.4,0-17.7,0-27.6c0-2.5,0-5,0-7.6c0-1.3,0-2.6,0-3.9c-0.1-1.3-0.5-2.5-1.3-3.5
		c-1.1-1.6-2.9-2.6-4.9-2.7c-0.6,0-1.3,0-2,0h-8.3h-72.6c-3.2,0-6,2.3-6.6,5.4c-0.1,0.8-0.2,1.5-0.1,2.3v7.1c0,6.3,0,12.4,0,18.5
		c0,12.1,0,23.8,0,35c0,5.6,0,11,0,16.3c0,1.3,0,2.6,0,3.9c-0.1,1.3,0.2,2.5,0.8,3.6c1.2,2.2,3.5,3.5,6,3.5H264l39.9,0.1l10.9,0h2.8
		h1h-1h-2.8h-10.9l-39.9,0.1h-27.6c-2.7,0-5.1-1.4-6.4-3.7c-0.6-1.2-0.9-2.5-0.9-3.8v-3.9c0-5.3,0-10.7,0-16.3c0-11.2,0-22.9,0-35
		v-25.3c0-0.8,0-1.6,0.1-2.4c0.6-3.4,3.6-5.9,7.1-5.8h72.5h8.3c0.7,0,1.3,0,2,0c0.7,0.1,1.4,0.2,2,0.5c2.6,1,4.4,3.5,4.6,6.3
		c0,1.3,0,2.6,0,3.9v7.6c0,9.9,0,19.2,0,27.6c0,16.9-0.1,30.5-0.1,40c0,1.2,0,2.3,0,3.3c0,1-0.1,2-0.5,2.9c-0.6,1.5-1.6,2.7-2.9,3.5
		c-0.8,0.5-1.7,0.8-2.7,0.9C319.2,455.7,318.8,455.7,318.4,455.7z"/>
	<path class="st4" d="M534.3,201.8h0.6c0.6,0,1.2,0.1,1.8,0.2c2.3,0.4,4.5,1.3,6.3,2.8c3,2.3,5,5.8,5.4,9.6c0.1,1.1,0.1,2.3,0.1,3.5
		v3.7c0,2.6,0,5.3,0,8.2c0,23.2,0,56.8,0.1,98.2v7.9c0,1.3,0,2.7-0.1,4c-0.1,1.4-0.4,2.7-0.9,4c-1,2.6-2.8,4.9-5.1,6.5
		c-1.2,0.8-2.4,1.4-3.8,1.9c-1.4,0.4-2.8,0.7-4.2,0.7h-35.3h-77.9H242.9c-6.2,0-11.7-4-13.7-9.9c-0.2-0.5-0.3-1-0.4-1.5
		s-0.1-1-0.2-1.5l-0.1-1.5v-70.2c0-14.9,0-29.6,0-43.9v-5.4c-0.1-1.8,0-3.6,0.2-5.4c0.8-5.5,4.7-10,10-11.6c1.7-0.5,3.5-0.7,5.2-0.6
		h10.4l145.8,0.1l98.3,0.1H525h7c1.6,0,2.4,0,2.4,0h-2.4h-7h-26.7l-98.3,0.3L254.2,202h-10.4c-1.7-0.1-3.4,0.1-5.1,0.6
		c-5.1,1.6-8.8,5.9-9.6,11.2c-0.2,1.8-0.2,3.5-0.2,5.3v49.3c0,14.9,0,30.1,0,45.5v24.8l0.1,1.4c0.1,0.5,0.1,1,0.2,1.4
		s0.2,0.9,0.4,1.4c1.9,5.7,7.2,9.6,13.2,9.6h178.4h77.9h35.3c1.4,0,2.8-0.3,4.1-0.7c3.9-1.3,7.1-4.3,8.6-8.1
		c0.5-1.2,0.8-2.5,0.9-3.9c0.1-1.3,0-2.7,0.1-4V328c0-41.5,0.1-75,0.1-98.3c0-2.9,0-5.6,0-8.2c0-1.3,0-2.5,0-3.7s0-2.4-0.1-3.5
		c-0.7-6.2-5.4-11.3-11.5-12.3c-0.6-0.1-1.2-0.2-1.8-0.2L534.3,201.8z"/>
</g>
</svg>
