<?xml version="1.0" encoding="utf-8"?>
<!-- Generator: Adobe Illustrator 24.0.2, SVG Export Plug-In . SVG Version: 6.00 Build 0)  -->
<svg version="1.1" id="圖層_1" xmlns="http://www.w3.org/2000/svg" xmlns:xlink="http://www.w3.org/1999/xlink" x="0px" y="0px"
	 viewBox="0 0 500 500" style="enable-background:new 0 0 500 500;" xml:space="preserve">
<style type="text/css">
	.st0{fill:#D1E3D3;}
	.st1{fill:#69A4A7;}
	.st2{opacity:0.7;fill:#FFFFFF;enable-background:new    ;}
	.st3{opacity:0.2;enable-background:new    ;}
	.st4{fill:#FFFFFF;stroke:#263238;stroke-linecap:round;stroke-linejoin:round;}
	.st5{fill:#69A4A7;stroke:#263238;stroke-linecap:round;stroke-linejoin:round;}
	.st6{fill:#263238;stroke:#263238;stroke-linecap:round;stroke-linejoin:round;}
	.st7{fill:none;stroke:#263238;stroke-linecap:round;stroke-linejoin:round;}
	.st8{fill:#263238;}
	.st9{fill:#69A4A7;stroke:#263238;stroke-width:0.5;stroke-miterlimit:10;}
	.st10{fill:#263238;stroke:#263238;stroke-width:0.5;stroke-miterlimit:10;}
	.st11{fill:#69A4A7;stroke:#263238;stroke-width:0.75;stroke-linecap:round;stroke-linejoin:round;}
	.st12{fill:#263238;stroke:#263238;stroke-width:0.75;stroke-linecap:round;stroke-linejoin:round;}
	.st13{fill:#FFFFFF;stroke:#263238;stroke-width:0.75;stroke-linecap:round;stroke-linejoin:round;}
	.st14{fill:#69A4A7;stroke:#263238;stroke-miterlimit:10;}
	.st15{fill:#263238;stroke:#263238;stroke-miterlimit:10;}
	.st16{fill:#FFFFFF;stroke:#263238;stroke-miterlimit:10;}
	.st17{fill:none;stroke:#263238;stroke-width:0.5;stroke-miterlimit:10;}
	.st18{opacity:0.5;fill:#FFFFFF;enable-background:new    ;}
</style>
<rect class="st0" width="500" height="500"/>
<g id="freepik--background-simple--inject-2">
	<path class="st1" d="M358.8,83C311.1,48.7,229.5,39.8,187,54.2c-76.7,25.9-89,76.2-88.2,121.1s58.5,83.6,73.8,122.9
		s43.5,92.1,97.8,75.9s52-74.7,68.5-114.2s59.5-80,57.2-116.3C394.4,118.4,379.9,98.2,358.8,83z"/>
	<path class="st2" d="M358.8,83C311.1,48.7,229.5,39.8,187,54.2c-76.7,25.9-89,76.2-88.2,121.1s58.5,83.6,73.8,122.9
		s43.5,92.1,97.8,75.9s52-74.7,68.5-114.2s59.5-80,57.2-116.3C394.4,118.4,379.9,98.2,358.8,83z"/>
</g>
<g id="freepik--Charts--inject-2">
	<path class="st3" d="M97.2,116.7h131.4c4.7,0,8.6,3.8,8.6,8.6v94.8c0,4.7-3.8,8.6-8.6,8.6H97.2c-4.7,0-8.6-3.8-8.6-8.6v-94.8
		C88.7,120.5,92.5,116.7,97.2,116.7z"/>
	<path class="st4" d="M93.6,110.8h131.4c4.7,0,8.6,3.8,8.6,8.6v94.8c0,4.7-3.8,8.6-8.6,8.6H93.6c-4.7,0-8.6-3.8-8.6-8.6v-94.8
		C85,114.6,88.8,110.8,93.6,110.8z"/>
	<path class="st5" d="M133,162l-31.7,10.3c-5.7-17.5,3.9-36.4,21.4-42.1c3.3-1.1,6.8-1.7,10.3-1.6V162z"/>
	<path class="st4" d="M133,162l19.6,27c-14.9,10.8-35.8,7.5-46.6-7.4c-2.1-2.8-3.7-6-4.7-9.3L133,162z"/>
	<path class="st6" d="M133,162l31.8-10.3c4.6,13.7-0.3,28.9-12.1,37.3L133,162z"/>
	<path class="st4" d="M133,162v-33.4c14.5-0.2,27.4,9.2,31.8,23.1L133,162z"/>
	<circle class="st4" cx="133.1" cy="162" r="20.8"/>
	<rect x="175.8" y="126.6" class="st5" width="45.8" height="3.8"/>
	<rect x="175.8" y="134.7" class="st6" width="35.9" height="3.8"/>
	<rect x="175.8" y="142.8" class="st4" width="26.4" height="3.8"/>
	<rect x="175.8" y="150.9" class="st5" width="37.5" height="3.8"/>
	<rect x="175.8" y="159" class="st6" width="17.8" height="3.8"/>
	<rect x="175.8" y="167.1" class="st4" width="45.8" height="3.8"/>
	<rect x="175.8" y="175.2" class="st5" width="33.7" height="3.8"/>
	<rect x="175.8" y="183.3" class="st6" width="29.4" height="3.8"/>
	<rect x="175.8" y="191.4" class="st4" width="45.8" height="3.8"/>
	<line class="st7" x1="116" y1="202.5" x2="151.5" y2="202.5"/>
	<line class="st7" x1="111" y1="207.5" x2="156.5" y2="207.5"/>
	<line class="st7" x1="177" y1="202.5" x2="212.5" y2="202.5"/>
	<line class="st7" x1="172" y1="207.5" x2="217.5" y2="207.5"/>
	<path class="st3" d="M116.5,275.3h112.8c4.7,0,8.6,3.8,8.6,8.5v80.8c0,4.7-3.8,8.5-8.6,8.5H116.5c-4.7,0-8.6-3.8-8.6-8.5v-80.8
		C108,279.1,111.8,275.3,116.5,275.3z"/>
	<path class="st4" d="M112.1,270.1h112.8c4.7,0,8.6,3.8,8.6,8.5v80.8c0,4.7-3.8,8.5-8.6,8.5H112.1c-4.7,0-8.6-3.8-8.6-8.5v-80.8
		C103.5,274,107.4,270.1,112.1,270.1z"/>
	<line class="st7" x1="112.4" y1="316.7" x2="129.8" y2="316.7"/>
	<line class="st7" x1="112.4" y1="320.6" x2="139.9" y2="320.6"/>
	<line class="st7" x1="112.4" y1="324.5" x2="129.8" y2="324.5"/>
	<line class="st7" x1="112.4" y1="328.4" x2="137.4" y2="328.4"/>
	<line class="st7" x1="112.4" y1="332.4" x2="129.8" y2="332.4"/>
	<line class="st7" x1="112.4" y1="336.3" x2="143.1" y2="336.3"/>
	<line class="st7" x1="155.8" y1="316.7" x2="173.2" y2="316.7"/>
	<line class="st7" x1="155.8" y1="320.6" x2="183.3" y2="320.6"/>
	<line class="st7" x1="155.8" y1="324.5" x2="173.2" y2="324.5"/>
	<line class="st7" x1="155.8" y1="328.4" x2="180.8" y2="328.4"/>
	<line class="st7" x1="155.8" y1="332.4" x2="173.2" y2="332.4"/>
	<line class="st7" x1="155.8" y1="336.3" x2="186.5" y2="336.3"/>
	<line class="st7" x1="199.2" y1="316.7" x2="216.6" y2="316.7"/>
	<line class="st7" x1="199.2" y1="320.6" x2="226.6" y2="320.6"/>
	<line class="st7" x1="199.2" y1="324.5" x2="216.6" y2="324.5"/>
	<line class="st7" x1="199.2" y1="328.4" x2="224.2" y2="328.4"/>
	<line class="st7" x1="199.2" y1="332.4" x2="216.6" y2="332.4"/>
	<line class="st7" x1="199.2" y1="336.3" x2="229.9" y2="336.3"/>
	<rect x="111.3" y="303.8" class="st8" width="33.5" height="6.7"/>
	<rect x="155.5" y="303.8" class="st8" width="33.5" height="6.7"/>
	<rect x="199.6" y="303.8" class="st8" width="33.5" height="6.7"/>
	<line class="st7" x1="150.1" y1="303.4" x2="150.1" y2="337.4"/>
	<line class="st7" x1="193.9" y1="303.4" x2="193.9" y2="337.4"/>
	<path class="st9" d="M125,287.9l7.3-2.4c1.3,4-0.9,8.3-4.9,9.6c-4,1.3-8.3-0.9-9.6-4.9c-1.3-4,0.9-8.3,4.9-9.6
		c0.8-0.3,1.6-0.4,2.4-0.4L125,287.9z"/>
	<path class="st10" d="M125,287.9v-7.6c3.3,0,6.3,2.1,7.3,5.3L125,287.9z"/>
	<path class="st9" d="M198.5,287.9l7.3-2.4c1.3,4-0.9,8.3-4.9,9.6s-8.3-0.9-9.6-4.9c-1.3-4,0.9-8.3,4.9-9.6c0,0,0,0,0,0
		c0.8-0.3,1.6-0.4,2.4-0.4V287.9z"/>
	<path class="st10" d="M198.5,287.9v-7.6c3.3,0,6.3,2.1,7.3,5.3L198.5,287.9z"/>
	<path class="st9" d="M149.5,287.9v7.6c-4.2,0-7.6-3.4-7.6-7.6s3.4-7.6,7.6-7.6l0,0V287.9z"/>
	<path class="st10" d="M149.5,287.9v-7.6c4.2,0,7.6,3.4,7.6,7.6s-3.4,7.6-7.6,7.6l0,0V287.9z"/>
	<path class="st9" d="M174,287.9l7.3,2.4c-1.3,4-5.6,6.2-9.6,4.9c-4-1.3-6.2-5.6-4.9-9.6l0,0c1-3.2,3.9-5.3,7.3-5.3V287.9z"/>
	<path class="st10" d="M174,287.9v-7.6c4.2,0,7.6,3.4,7.6,7.6c0,0,0,0,0,0c0,0.8-0.1,1.6-0.4,2.4L174,287.9z"/>
	<path class="st9" d="M223,287.9l7.3,2.4c-1.3,4-5.6,6.2-9.6,4.9c-4-1.3-6.2-5.6-4.9-9.6l0,0c1-3.2,3.9-5.3,7.3-5.3V287.9z"/>
	<path class="st10" d="M223,287.9v-7.6c4.2,0,7.6,3.4,7.6,7.6c0,0,0,0,0,0c0,0.8-0.1,1.6-0.4,2.4L223,287.9z"/>
	<rect x="217.8" y="357.2" class="st11" width="6.7" height="2.3"/>
	<rect x="210.4" y="345.9" class="st12" width="6.7" height="13.5"/>
	<rect x="203" y="350.8" class="st13" width="6.7" height="8.7"/>
	<rect x="195.6" y="344" class="st11" width="6.7" height="15.5"/>
	<rect x="188.1" y="355.5" class="st12" width="6.7" height="4"/>
	<rect x="180.7" y="354.3" class="st13" width="6.7" height="5.2"/>
	<rect x="173.3" y="349" class="st11" width="6.7" height="10.4"/>
	<rect x="165.9" y="357.7" class="st12" width="6.7" height="1.7"/>
	<rect x="158.5" y="345.9" class="st13" width="6.7" height="13.5"/>
	<rect x="151.1" y="348.5" class="st11" width="6.7" height="11"/>
	<rect x="143.6" y="358.9" class="st12" width="6.7" height="0.5"/>
	<rect x="136.2" y="358.8" class="st13" width="6.7" height="0.7"/>
	<rect x="128.8" y="350.8" class="st11" width="6.7" height="8.7"/>
	<rect x="121.4" y="357.7" class="st12" width="6.7" height="1.7"/>
	<rect x="114" y="356" class="st13" width="6.7" height="3.5"/>
	<path class="st3" d="M273.6,190.5H405c4.7,0,8.5,3.8,8.5,8.6v94.8c0,4.7-3.8,8.5-8.5,8.5H273.6c-4.7,0-8.5-3.8-8.5-8.5v-94.8
		C265,194.3,268.9,190.5,273.6,190.5z"/>
	<path class="st4" d="M268.4,184.6h131.4c4.7,0,8.5,3.8,8.5,8.6V288c0,4.7-3.8,8.5-8.5,8.5H268.4c-4.7,0-8.5-3.8-8.5-8.5v-94.8
		C259.9,188.4,263.7,184.6,268.4,184.6z"/>
	<rect x="391.3" y="272.2" class="st11" width="7.7" height="8.5"/>
	<rect x="382.7" y="229.5" class="st12" width="7.7" height="51.2"/>
	<rect x="374.2" y="247.9" class="st13" width="7.7" height="32.8"/>
	<rect x="365.6" y="222.3" class="st11" width="7.7" height="58.5"/>
	<rect x="357.1" y="265.6" class="st12" width="7.7" height="15.1"/>
	<rect x="348.5" y="261" class="st13" width="7.7" height="19.7"/>
	<rect x="340" y="241.3" class="st11" width="7.7" height="39.4"/>
	<rect x="331.4" y="274.1" class="st12" width="7.7" height="6.6"/>
	<rect x="322.8" y="229.5" class="st13" width="7.7" height="51.2"/>
	<rect x="314.3" y="239.3" class="st11" width="7.7" height="41.4"/>
	<rect x="305.7" y="278.7" class="st12" width="7.7" height="2"/>
	<rect x="297.2" y="278.1" class="st13" width="7.7" height="2.6"/>
	<rect x="288.6" y="247.9" class="st11" width="7.7" height="32.8"/>
	<rect x="280.1" y="274.1" class="st12" width="7.7" height="6.6"/>
	<rect x="271.5" y="267.6" class="st13" width="7.7" height="13.1"/>
	<rect x="272.5" y="208" class="st14" width="127" height="6.5"/>
	<rect x="306" y="208.5" class="st15" width="20.6" height="5.6"/>
	<rect x="327.4" y="208.5" class="st16" width="38.7" height="5.6"/>
	<path class="st3" d="M285.7,69.6h103c4.7,0,8.5,3.8,8.5,8.6v73.4c0,4.7-3.8,8.6-8.5,8.6h-103c-4.7,0-8.5-3.8-8.5-8.6V78.2
		C277.2,73.4,281,69.6,285.7,69.6z"/>
	<path class="st4" d="M281.3,63.7h103c4.7,0,8.5,3.8,8.5,8.5v73.4c0,4.7-3.8,8.6-8.5,8.6h-103c-4.7,0-8.5-3.8-8.5-8.6V72.3
		C272.7,67.6,276.6,63.7,281.3,63.7z"/>
	<line class="st17" x1="278.3" y1="145.8" x2="391.1" y2="145.8"/>
	<line class="st17" x1="278.3" y1="145.8" x2="278.3" y2="147.5"/>
	<line class="st17" x1="285.8" y1="145.8" x2="285.8" y2="147.5"/>
	<line class="st17" x1="293.4" y1="145.8" x2="293.4" y2="147.5"/>
	<line class="st17" x1="300.9" y1="145.8" x2="300.9" y2="147.5"/>
	<line class="st17" x1="308.4" y1="145.8" x2="308.4" y2="147.5"/>
	<line class="st17" x1="315.9" y1="145.8" x2="315.9" y2="147.5"/>
	<line class="st17" x1="323.4" y1="145.8" x2="323.4" y2="147.5"/>
	<line class="st17" x1="331" y1="145.8" x2="331" y2="147.5"/>
	<line class="st17" x1="338.5" y1="145.8" x2="338.5" y2="147.5"/>
	<line class="st17" x1="346" y1="145.8" x2="346" y2="147.5"/>
	<line class="st17" x1="353.5" y1="145.8" x2="353.5" y2="147.5"/>
	<line class="st17" x1="361" y1="145.8" x2="361" y2="147.5"/>
	<line class="st17" x1="368.6" y1="145.8" x2="368.6" y2="147.5"/>
	<line class="st17" x1="376.1" y1="145.8" x2="376.1" y2="147.5"/>
	<line class="st17" x1="383.6" y1="145.8" x2="383.6" y2="147.5"/>
	<line class="st17" x1="391.1" y1="145.8" x2="391.1" y2="147.5"/>
	<path class="st1" d="M282.1,144.4h105.3v-14.6l-7.5-14.4c0-0.1-0.1-0.2-0.1-0.3l-6.6-42.7c0-0.4-0.4-0.8-0.8-0.8
		c-0.4,0-0.8,0.4-0.8,0.8l0,0l-6.7,52.1c0,0.2-0.2,0.5-0.4,0.6l-6.5,5c-0.3,0.3-0.8,0.2-1.1-0.2c0-0.1-0.1-0.1-0.1-0.2l-6.5-13.5
		c-0.1-0.4-0.6-0.6-1-0.4c-0.1,0.1-0.3,0.1-0.3,0.3l-6.8,8.8l-7.5,9.7l-7.5-9.7l-6.6-8.6c-0.2-0.3-0.7-0.4-1.1-0.2
		c-0.2,0.1-0.3,0.3-0.3,0.5l-7,21.8l-7.5-38.9l-7.5,42.8l-7.5-5.8l-6-16.9c-0.3-1-1.6-0.7-1.6,0.4L282.1,144.4z"/>
	<path class="st8" d="M387.4,144.5H282.1V132l7.4-12.4c0.1-0.1,0.1-0.2,0.1-0.3l6.6-36.7c0.1-0.4,0.5-0.7,1-0.6
		c0.3,0.1,0.6,0.3,0.6,0.6l6.7,44.8c0,0.2,0.2,0.4,0.4,0.6l6.5,4.3c0.4,0.2,0.9,0.2,1.1-0.2c0,0,0,0,0-0.1l6.5-11.6
		c0.2-0.4,0.7-0.5,1.1-0.3c0.1,0,0.1,0.1,0.2,0.2l6.8,7.5l7.5,8.3l7.5-8.3l6.6-7.3c0.3-0.3,0.8-0.4,1.2-0.1c0.1,0.1,0.2,0.2,0.2,0.3
		l7,18.8h7.5l7.5,3.3l7.5-5l6-14.5c0.2-0.4,0.6-0.6,1-0.5c0.3,0.1,0.5,0.4,0.5,0.8L387.4,144.5z"/>
	<line class="st7" x1="339.1" y1="75.8" x2="362.4" y2="75.8"/>
	<line class="st7" x1="339.1" y1="81.3" x2="362.4" y2="81.3"/>
	<line class="st7" x1="339.1" y1="86.7" x2="362.4" y2="86.7"/>
	<line class="st7" x1="339.1" y1="92.2" x2="362.4" y2="92.2"/>
	<line class="st7" x1="339.1" y1="97.6" x2="362.4" y2="97.6"/>
	<line class="st7" x1="339.1" y1="103.1" x2="362.4" y2="103.1"/>
	<line class="st7" x1="333.8" y1="75.8" x2="336.7" y2="75.8"/>
	<line class="st7" x1="333.8" y1="81.3" x2="336.7" y2="81.3"/>
	<line class="st7" x1="333.8" y1="86.7" x2="336.7" y2="86.7"/>
	<line class="st7" x1="333.8" y1="92.2" x2="336.7" y2="92.2"/>
	<line class="st7" x1="333.8" y1="97.6" x2="336.7" y2="97.6"/>
	<line class="st7" x1="333.8" y1="103.1" x2="336.7" y2="103.1"/>
</g>
<g id="freepik--Shadow--inject-2">
	<ellipse class="st1" cx="247.5" cy="418.5" rx="59.4" ry="29.5"/>
	<ellipse class="st18" cx="247.5" cy="418.5" rx="59.4" ry="29.5"/>
</g>
</svg>
