<?xml version="1.0" encoding="utf-8"?>
<!-- Generator: Adobe Illustrator 24.0.2, SVG Export Plug-In . SVG Version: 6.00 Build 0)  -->
<svg version="1.1" id="圖層_1" xmlns="http://www.w3.org/2000/svg" xmlns:xlink="http://www.w3.org/1999/xlink" x="0px" y="0px"
	 viewBox="0 0 500 500" style="enable-background:new 0 0 500 500;" xml:space="preserve">
<style type="text/css">
	.st0{fill:#D1E3D8;}
	.st1{fill:#F5F5F5;}
	.st2{fill:#E0E0E0;}
	.st3{fill:#EBEBEB;}
	.st4{fill:#69A4A7;}
	.st5{opacity:0.2;enable-background:new    ;}
	.st6{fill:#FFFFFF;}
	.st7{opacity:0.7;enable-background:new    ;}
	.st8{opacity:0.5;enable-background:new    ;}
	.st9{opacity:0.7;fill:#FFFFFF;enable-background:new    ;}
	.st10{opacity:0.8;fill:#FFFFFF;enable-background:new    ;}
	.st11{fill:#455A64;}
	.st12{opacity:0.6;fill:#FFFFFF;enable-background:new    ;}
</style>
<rect class="st0" width="500" height="500"/>
<g id="freepik--Floor--inject-2">
	<path class="st1" d="M98,388.3c87.5,45.7,229.3,45.7,316.7,0s87.5-119.8,0-165.5s-229.2-45.7-316.7,0S10.6,342.6,98,388.3z"/>
</g>
<g id="freepik--filing-cabinets--inject-2">
	<polygon class="st2" points="73.6,313.3 45.2,296.9 45.2,235.9 73.6,252.4 	"/>
	<polygon class="st3" points="73.6,252.4 114.2,228.9 114.2,289.9 73.6,313.3 	"/>
	<polygon class="st1" points="114.2,228.9 73.6,252.4 45.2,235.9 85.8,212.5 	"/>
	<polygon class="st2" points="77.7,254.7 110.2,235.9 110.9,236.4 110.9,259 78.4,277.7 77.7,277.3 	"/>
	<polygon class="st1" points="78.4,255.1 110.9,236.4 110.9,259 78.4,277.7 	"/>
	<path class="st2" d="M91.2,251.6l5.5-3.2c0.7-0.4,1.3-0.2,1.3,0.4c-0.1,0.8-0.6,1.5-1.3,1.9l-5.5,3.2c-0.7,0.4-1.3,0.2-1.3-0.4
		C90,252.7,90.5,252,91.2,251.6z"/>
	<polygon class="st2" points="76.9,283.3 109.4,264.5 109.4,287.1 110.2,287.5 77.7,306.3 76.9,305.9 	"/>
	<polygon class="st1" points="77.7,283.7 110.2,264.9 110.2,287.5 77.7,306.3 	"/>
	<path class="st2" d="M90.4,280.2L96,277c0.7-0.4,1.3-0.2,1.3,0.4c-0.1,0.8-0.6,1.5-1.3,1.9l-5.5,3.2c-0.7,0.4-1.3,0.2-1.3-0.4
		C89.3,281.3,89.7,280.6,90.4,280.2z"/>
	<polygon class="st2" points="73.6,248.8 45.2,232.4 45.2,171.4 73.6,187.9 	"/>
	<polygon class="st3" points="73.6,187.9 114.2,164.4 114.2,225.4 73.6,248.8 	"/>
	<polygon class="st1" points="114.2,164.4 73.6,187.9 45.2,171.4 85.8,148 	"/>
	<polygon class="st2" points="77.7,190.2 110.2,171.4 110.9,171.9 110.9,194.5 78.4,213.2 77.7,212.8 	"/>
	<path class="st2" d="M91.2,187.1l5.5-3.2c0.7-0.4,1.3-0.2,1.3,0.4c-0.1,0.8-0.6,1.5-1.3,1.9l-5.5,3.2c-0.7,0.4-1.3,0.2-1.3-0.4
		C90,188.2,90.5,187.5,91.2,187.1z"/>
	<polygon class="st2" points="76.9,218.8 109.4,200 109.4,222.6 110.2,223 77.7,241.8 76.9,241.4 	"/>
	<polygon class="st1" points="77.7,219.2 110.2,200.4 110.2,223 77.7,241.8 	"/>
	<path class="st2" d="M90.4,215.7l5.6-3.2c0.7-0.4,1.3-0.2,1.3,0.4c-0.1,0.8-0.6,1.5-1.3,1.9l-5.6,3.2c-0.7,0.4-1.3,0.2-1.3-0.4
		C89.2,216.8,89.7,216.1,90.4,215.7z"/>
	<polygon class="st2" points="77.7,190.2 110.2,171.4 110.2,194 77.7,212.8 	"/>
	<polygon class="st2" points="126.4,182.6 108.6,172.3 108.6,192.2 126.4,202.5 	"/>
	<polygon class="st3" points="89.9,216 89.9,187.9 96.8,183.8 98,185.5 118.3,173.8 118.3,199.6 	"/>
	<polygon class="st1" points="89.9,216 91.9,191.4 120.3,175 118.3,199.6 	"/>
	<polygon class="st3" points="93.9,201.4 78.4,192.4 78.4,212.3 93.9,221.3 	"/>
	<polygon class="st1" points="93.9,199.6 126.4,180.8 126.4,203.4 93.9,222.2 	"/>
	<path class="st2" d="M106.7,196.1l5.5-3.2c0.7-0.4,1.3-0.2,1.3,0.4c-0.1,0.8-0.6,1.5-1.3,1.9l-5.5,3.2c-0.7,0.4-1.3,0.2-1.3-0.4
		C105.5,197.2,106,196.5,106.7,196.1z"/>
	<polygon class="st2" points="93.9,199.6 92.8,199 92.8,221.5 93.9,222.2 	"/>
	<polygon class="st3" points="92.8,199 125.3,180.2 126.4,180.8 93.9,199.6 	"/>
	<polygon class="st2" points="409.5,276.4 381.1,260 381.1,199 409.5,215.4 	"/>
	<polygon class="st3" points="409.5,215.4 450.1,191.9 450.1,252.9 409.5,276.4 	"/>
	<polygon class="st1" points="450.1,191.9 409.5,215.4 381.1,199 421.7,175.5 	"/>
	<polygon class="st2" points="413.6,217.8 446.1,199 446.8,199.4 446.8,222 414.3,240.8 413.6,240.3 	"/>
	<polygon class="st1" points="414.3,218.2 446.8,199.4 446.8,222 414.3,240.8 	"/>
	<path class="st2" d="M427,214.6l5.5-3.2c0.7-0.4,1.3-0.2,1.3,0.4c-0.1,0.8-0.6,1.5-1.3,1.9L427,217c-0.7,0.4-1.3,0.2-1.3-0.4
		C425.9,215.8,426.3,215.1,427,214.6z"/>
	<polygon class="st2" points="412.8,246.3 445.3,227.6 445.3,250.1 446.1,250.6 413.6,269.3 412.8,268.9 	"/>
	<polygon class="st1" points="413.6,246.8 446.1,228 446.1,250.6 413.6,269.3 	"/>
	<path class="st2" d="M426.3,243.2l5.5-3.2c0.7-0.4,1.3-0.2,1.3,0.4c-0.1,0.8-0.6,1.5-1.3,1.9l-5.5,3.2c-0.7,0.4-1.3,0.2-1.3-0.4
		C425.1,244.3,425.6,243.6,426.3,243.2z"/>
</g>
<g id="freepik--Plants--inject-2">
	<path class="st4" d="M139,340.1c0,0,0.1-15.9-9.9-27.8c-8.8-10.5-13.6-17.2-10.8-20.3s8.8-3.8,16.9,4.7s8.7,32.1,7.6,37.5
		L139,340.1z"/>
	<path class="st5" d="M139,340.1c0,0,0.1-15.9-9.9-27.8c-8.8-10.5-13.6-17.2-10.8-20.3s8.8-3.8,16.9,4.7s8.7,32.1,7.6,37.5
		L139,340.1z"/>
	<path class="st6" d="M140.7,323.1c-0.2,0-0.4-0.2-0.5-0.4c-3.5-16.4-12.5-25.4-17.5-29.4c-0.2-0.2-0.3-0.5-0.1-0.7
		c0.2-0.2,0.5-0.3,0.7-0.1c5.2,4,14.3,13.3,17.9,29.9c0.1,0.3-0.1,0.5-0.4,0.6c0,0,0,0,0,0L140.7,323.1z"/>
	<path class="st4" d="M138.6,346l-4.1,2.4c-0.9-2.4-3-4.2-5.5-4.7c-4.4-1-9.1-0.8-12.2-4.7s0.7-8.1,0-10.9s-1.1-3.7-6.7-6.5
		s-7.8-7.5-3.6-10.7s11-0.9,15.1,2c3.7,2.5,7.1,3.2,11.2,3.7s10.8,2.8,9.7,12.3C142,334.7,140.6,340.4,138.6,346z"/>
	<path class="st6" d="M123,333.5c-0.2,0-0.4-0.1-0.5-0.4c-0.1-0.3,0.1-0.5,0.3-0.6c0.4-0.1,9-2.9,12.7,0.1c0.2,0.2,0.2,0.5,0,0.7
		c-0.2,0.2-0.4,0.2-0.6,0.1c-3.2-2.6-11.7,0.1-11.8,0.1L123,333.5z"/>
	<path class="st6" d="M139.1,345.2c-0.3,0-0.5-0.2-0.5-0.4c-2.2-21.1-27.6-31-27.8-31.1c-0.3-0.1-0.4-0.4-0.3-0.6c0,0,0,0,0,0
		c0.1-0.3,0.4-0.4,0.6-0.3c0.3,0.1,26.2,10.3,28.5,32C139.6,345,139.4,345.2,139.1,345.2L139.1,345.2z"/>
	<path class="st4" d="M387.8,332.2c0.1-0.4,4.4-22.4,0-38.1c-4-14.4-9.2-19.7-16.7-20.8s-10.7,4.2-6.7,11.5s13.5,16.9,15.8,33.1
		c1,6.7,1.8,12.5,1.8,12.5L387.8,332.2z"/>
	<path class="st5" d="M387.8,332.2c0.1-0.4,4.4-22.4,0-38.1c-4-14.4-9.2-19.7-16.7-20.8s-10.7,4.2-6.7,11.5s13.5,16.9,15.8,33.1
		c1,6.7,1.8,12.5,1.8,12.5L387.8,332.2z"/>
	<path class="st6" d="M385.3,319.5L385.3,319.5c-0.3,0-0.5-0.3-0.5-0.5c0,0,0,0,0,0c1-17.9-4.8-33.8-15.3-41.7
		c-0.2-0.2-0.3-0.5-0.1-0.7l0,0c0.2-0.2,0.5-0.3,0.7-0.1c10.7,8,16.8,24.3,15.7,42.5C385.8,319.3,385.6,319.5,385.3,319.5z"/>
	<path class="st4" d="M399.3,343.7c-0.6-4.1,1.8-10.3,7.4-11.7s8.1-4.7,6.1-8.2s-1.5-6.8,3.5-8.2s9.5-4,6.6-9.4
		c-2.1-3.9-2.6-6.4,2.6-14.1c4.3-6.4,0.8-10.1-4.6-9.4s-8.8,7.2-12.2,8.2s-4.2-4.7-8.6-2.1s-4.2,9.2-4.3,13.8s-0.4,5.6-4.5,5.1
		s-8,0.1-7.9,9.9c0.1,8.4,4.5,18.8,4.5,18.8L399.3,343.7z"/>
	<path class="st6" d="M392.2,337.4L392.2,337.4c-0.3,0-0.5-0.3-0.5-0.6c2.8-25.2,24.4-46.4,30.1-50.8c0.2-0.2,0.5-0.1,0.7,0.1
		s0.1,0.5-0.1,0.7c-5.6,4.3-26.9,25.2-29.7,50.1C392.7,337.2,392.5,337.4,392.2,337.4z"/>
	<path class="st6" d="M402.1,310.5c-0.2,0-0.4-0.1-0.5-0.3c-0.1-0.3,0-0.5,0.3-0.6c8.1-3,17.2-1.6,17.6-1.5c0.3,0,0.5,0.3,0.4,0.6
		c-0.1,0.3-0.3,0.5-0.6,0.4c-0.1,0-9.3-1.4-17.1,1.5C402.2,310.5,402.1,310.5,402.1,310.5z"/>
	<path class="st6" d="M394.9,325.6c-0.1,0-0.3-0.1-0.4-0.2c-3.4-3.9-5.6-8.6-6.6-13.7c0-0.3,0.1-0.5,0.4-0.6c0,0,0,0,0,0
		c0.3,0,0.5,0.1,0.6,0.4c0,0,0,0,0,0c1,4.9,3.1,9.4,6.4,13.1c0.2,0.2,0.2,0.5-0.1,0.7C395.1,325.6,395,325.6,394.9,325.6
		L394.9,325.6z"/>
</g>
<g id="freepik--folder-2--inject-2">
	<polygon class="st4" points="138.6,191.2 138.6,346 297,254.6 297,113.8 179.2,181.9 175.2,170.1 	"/>
	<polygon class="st7" points="138.6,191.2 138.6,346 297,254.6 297,113.8 179.2,181.9 175.2,170.1 	"/>
	<polygon class="st2" points="138.6,346 146.7,205.3 305.2,113.8 297,254.6 	"/>
	<polygon class="st4" points="138.6,346 150.8,207.6 309.2,116.2 297,254.6 	"/>
	<polygon class="st7" points="138.6,346 150.8,207.6 309.2,116.2 297,254.6 	"/>
</g>
<g id="freepik--folder-1--inject-2">
	<polygon class="st4" points="163,205.3 163,360.1 321.4,268.6 321.4,127.9 203.6,195.9 199.6,184.2 	"/>
	<polygon class="st8" points="163,205.3 163,360.1 321.4,268.6 321.4,127.9 203.6,195.9 199.6,184.2 	"/>
	<polygon class="st2" points="163,360.1 171.1,219.4 329.5,127.9 321.4,268.6 	"/>
	<polygon class="st4" points="163,360.1 175.2,221.7 333.6,130.3 321.4,268.6 	"/>
	<polygon class="st8" points="163,360.1 175.2,221.7 333.6,130.3 321.4,268.6 	"/>
</g>
<g id="freepik--Documents--inject-2">
	<path class="st2" d="M297,409.3c-28.4-16.4-54.8-34.3-66.9-55.2l36.6-21.1L297,409.3z"/>
	<polygon class="st4" points="191.4,221.7 191.4,376.5 349.8,285 349.8,144.3 232,212.3 228,200.6 	"/>
	<polygon class="st5" points="191.4,221.7 191.4,376.5 349.8,285 349.8,144.3 232,212.3 228,200.6 	"/>
	<path class="st6" d="M237.1,267.5c-0.4,0-0.5-0.5-0.5-0.7v-132c0.1-1,0.6-2,1.5-2.6l114.3-66c0.2-0.1,0.3-0.2,0.5-0.2
		c0.4,0,0.5,0.5,0.5,0.7v132c-0.1,1-0.6,2-1.5,2.6l-114.3,66C237.4,267.4,237.2,267.5,237.1,267.5z"/>
	<path class="st4" d="M352.9,66.5c0,0.1,0,0.1,0,0.2v132c-0.1,0.9-0.5,1.6-1.2,2.1l-114.3,66l-0.2,0.1c0-0.1,0-0.1,0-0.2v-132
		c0.1-0.9,0.5-1.6,1.2-2.1l114.3-66C352.7,66.5,352.8,66.5,352.9,66.5 M352.9,65.5c-0.3,0-0.5,0.1-0.8,0.2l-114.3,66
		c-1,0.7-1.7,1.8-1.7,3v132c0,0.8,0.4,1.2,1,1.2c0.3,0,0.5-0.1,0.8-0.2l114.3-66c1-0.7,1.7-1.8,1.7-3v-132
		C354,65.9,353.6,65.5,352.9,65.5L352.9,65.5z"/>
	<path class="st9" d="M352.9,66.5c0,0.1,0,0.1,0,0.2v132c-0.1,0.9-0.5,1.6-1.2,2.1l-114.3,66l-0.2,0.1c0-0.1,0-0.1,0-0.2v-132
		c0.1-0.9,0.5-1.6,1.2-2.1l114.3-66C352.7,66.5,352.8,66.5,352.9,66.5 M352.9,65.5c-0.3,0-0.5,0.1-0.8,0.2l-114.3,66
		c-1,0.7-1.7,1.8-1.7,3v132c0,0.8,0.4,1.2,1,1.2c0.3,0,0.5-0.1,0.8-0.2l114.3-66c1-0.7,1.7-1.8,1.7-3v-132
		C354,65.9,353.6,65.5,352.9,65.5L352.9,65.5z"/>
	<polygon class="st4" points="248.3,139.8 288.9,116.3 288.9,163.2 248.3,186.7 	"/>
	<polygon class="st10" points="248.3,139.8 288.9,116.3 288.9,163.2 248.3,186.7 	"/>
	<path class="st6" d="M282.8,128v14.1l-1.3,0.7v-4.3c0-2.4-1.9-3.2-4.3-1.8l-17.2,9.9c-2.4,1.4-4.3,4.4-4.3,6.8v4.3l-1.3,0.8v-14.1
		L282.8,128z"/>
	<path class="st6" d="M275,163.9c-2.1,1.2-3.8-0.1-3.8-2.8v-22.6l-5.2,2.8v22.8c0,2.8-1.7,6-3.8,7.2l-3.8,2.2v1.5l20.3-11.7v-1.5
		L275,163.9z"/>
	<path class="st11" d="M297,114c0,1.3,1.2,1.7,2.6,0.8L339.1,92c1.4-0.8,2.4-2.2,2.6-3.8c0-1.3-1.2-1.7-2.6-0.8l-39.5,22.8
		C298.2,110.9,297.2,112.4,297,114z"/>
	<path class="st11" d="M297,128c0,1.3,1.2,1.7,2.6,0.9l39.5-22.8c1.4-0.8,2.4-2.2,2.6-3.8c0-1.3-1.2-1.7-2.6-0.8l-39.5,22.8
		C298.2,125,297.2,126.4,297,128z"/>
	<path class="st11" d="M297,142.1c0,1.3,1.2,1.7,2.6,0.9l39.5-22.8c1.4-0.8,2.4-2.2,2.6-3.8c0-1.3-1.2-1.7-2.6-0.8l-39.5,22.8
		C298.2,139.1,297.2,140.5,297,142.1z"/>
	<path class="st11" d="M297,156.2c0,1.3,1.2,1.7,2.6,0.9l39.5-22.8c1.4-0.8,2.4-2.2,2.6-3.8c0-1.3-1.2-1.7-2.6-0.9l-39.5,22.8
		C298.2,153.1,297.2,154.6,297,156.2z"/>
	<path class="st11" d="M248.3,198.4c0,1.3,1.2,1.7,2.6,0.9l88.2-51c1.4-0.8,2.4-2.2,2.6-3.8c0-1.3-1.2-1.7-2.6-0.9l-88.2,51
		C249.5,195.4,248.5,196.8,248.3,198.4z"/>
	<path class="st11" d="M248.3,212.5c0,1.3,1.2,1.7,2.6,0.9l88.2-50.9c1.4-0.8,2.4-2.2,2.6-3.9c0-1.3-1.2-1.7-2.6-0.8l-88.2,50.9
		C249.5,209.4,248.5,210.8,248.3,212.5z"/>
	<path class="st11" d="M248.3,226.5c0,1.3,1.2,1.7,2.6,0.8l88.2-50.9c1.4-0.8,2.4-2.2,2.6-3.9c0-1.3-1.2-1.7-2.6-0.8l-88.2,50.9
		C249.5,223.5,248.5,224.9,248.3,226.5z"/>
	<polygon class="st4" points="191.4,376.5 219.9,252.2 378.3,160.7 349.8,285 	"/>
	<polygon class="st4" points="230.2,261.9 230.2,354.1 266.7,333 266.7,240.8 	"/>
	<polygon class="st5" points="230.2,261.9 230.2,354.1 266.7,333 266.7,240.8 	"/>
	<path class="st6" d="M297.1,408.7c-3.1-2.3-33.1-25.2-48.3-58c-16.2-34.8-16.2-75.5-16.2-90.8v-0.5l108.7-62.7
		c0,15.4,0,56.1,16.3,91.1c14.9,32,43.7,54.6,48.3,58.1L297.1,408.7z"/>
	<path class="st4" d="M340.7,197.6c0,16.1,0.3,56,16.3,90.4c14.4,30.9,41.8,53.1,47.8,57.8l-107.8,62.2
		c-4.2-3.2-33.1-25.7-47.9-57.6C233,315.8,233,275.3,233,260v-0.2L340.7,197.6 M341.7,195.9L232,259.2c0,14.4-0.3,56.2,16.3,91.8
		c16.3,34.9,48.8,58.4,48.8,58.4L406.7,346c0,0-32.5-23.5-48.7-58.4C341.4,252.1,341.7,210.3,341.7,195.9L341.7,195.9z"/>
	<path class="st9" d="M340.7,197.6c0,16.1,0.3,56,16.3,90.4c14.4,30.9,41.8,53.1,47.8,57.8l-107.8,62.2
		c-4.2-3.2-33.1-25.7-47.9-57.6C233,315.8,233,275.3,233,260v-0.2L340.7,197.6 M341.7,195.9L232,259.2c0,14.4-0.3,56.2,16.3,91.8
		c16.3,34.9,48.8,58.4,48.8,58.4L406.7,346c0,0-32.5-23.5-48.7-58.4C341.4,252.1,341.7,210.3,341.7,195.9L341.7,195.9z"/>
	<path class="st11" d="M329.3,217.1l-34.7,20c-1.4,0.8-2.3,2.2-2.5,3.8c0,1.3,1.3,1.6,2.7,0.8l34.7-20c1.4-0.8,2.3-2.2,2.5-3.7
		C331.9,216.7,330.8,216.3,329.3,217.1z"/>
	<path class="st11" d="M330,230.8l-34.7,20c-1.4,0.7-2.3,2.2-2.4,3.7c0.1,1.2,1.4,1.6,2.8,0.7l34.7-20c1.4-0.7,2.3-2.2,2.4-3.7
		C332.7,230.3,331.5,230,330,230.8z"/>
	<path class="st11" d="M331.4,244.1l-34.7,20c-1.4,0.8-2.5,2.5-2.3,3.7s1.5,1.5,2.9,0.7l34.7-20c1.4-0.8,2.5-2.5,2.3-3.7
		S332.9,243.2,331.4,244.1z"/>
	<path class="st11" d="M333.5,256.9l-34.7,20c-1.4,0.8-2.4,2.5-2.2,3.6s1.6,1.4,3,0.6l34.7-20c1.4-0.8,2.4-2.4,2.2-3.6
		S335,256.1,333.5,256.9z"/>
	<path class="st11" d="M336.3,269.4l-34.7,20c-1.4,0.8-2.4,2.4-2,3.5s1.7,1.4,3.2,0.5l34.7-20c1.4-0.8,2.3-2.4,2-3.5
		S337.8,268.5,336.3,269.4z"/>
	<path class="st11" d="M340,281.4l-84.5,48.8c-1.4,0.8-2.3,2.4-1.9,3.4s1.9,1.3,3.3,0.4l84.5-48.8c1.4-0.8,2.3-2.4,1.9-3.4
		S341.4,280.5,340,281.4z"/>
	<path class="st11" d="M344.5,292.8l-84.5,48.8c-1.4,0.8-2.2,2.3-1.8,3.4s2,1.2,3.5,0.4l84.5-48.8c1.4-0.8,2.2-2.3,1.7-3.4
		S345.9,292,344.5,292.8z"/>
	<path class="st11" d="M350,303.7l-84.5,48.8c-1.4,0.8-2.1,2.3-1.6,3.3s2.2,1.1,3.6,0.2l84.5-48.8c1.4-0.8,2.1-2.3,1.5-3.2
		S351.4,302.9,350,303.7z"/>
	<path class="st11" d="M356.5,314l-84.5,48.8c-1.4,0.8-2.1,2.3-1.4,3.2s2.4,1,3.8,0.2l84.5-48.8c1.4-0.8,2.1-2.2,1.4-3.2
		S357.9,313.2,356.5,314z"/>
	<path class="st11" d="M363.9,323.9l-84.5,48.8c-1.4,0.8-2,2.2-1.3,3.1s2.5,0.9,3.9,0.1l84.5-48.8c1.4-0.8,2-2.2,1.3-3.1
		S365.3,323,363.9,323.9z"/>
	<path class="st11" d="M372,333.2L287.5,382c-1.4,0.8-2,2.2-1.2,3s2.6,0.8,4,0l84.5-48.8c1.4-0.8,1.9-2.2,1.1-3
		S373.5,332.4,372,333.2z"/>
	<path class="st11" d="M381,342.1l-84.5,48.8c-1.4,0.8-1.9,2.2-1,3s2.7,0.8,4.2-0.1l84.5-48.8c1.4-0.8,1.9-2.1,1-2.9
		S382.4,341.3,381,342.1z"/>
	<path class="st4" d="M282.1,244.4l-39.9,23c0.4,14.5,2.1,35.3,8.1,56.3l39.9-23C284.1,279.7,282.5,258.9,282.1,244.4z"/>
	<path class="st10" d="M282.1,244.4l-39.9,23c0.4,14.5,2.1,35.3,8.1,56.3l39.9-23C284.1,279.7,282.5,258.9,282.1,244.4z"/>
	<path class="st4" d="M258.4,264.3c0.1-1.9-0.6-3.7-1.9-5.1l-14.3,8.3c0.1,3.8,0.3,8.1,0.7,12.7c1.9,0.2,3.7-0.1,5.4-1
		C253.9,276.6,258.4,269.9,258.4,264.3z"/>
	<path class="st12" d="M258.4,264.3c0.1-1.9-0.6-3.7-1.9-5.1l-14.3,8.3c0.1,3.8,0.3,8.1,0.7,12.7c1.9,0.2,3.7-0.1,5.4-1
		C253.9,276.6,258.4,269.9,258.4,264.3z"/>
	<path class="st4" d="M286.8,286.9L286.8,286.9c-2.7-3.4-8.1-13.7-10.4-18.2c-0.3-0.5-0.9-0.7-1.3-0.4c-0.2,0.1-0.4,0.3-0.5,0.6
		c-2.5,8.5-3.9,17.4-4.3,26.3c-3.3-2.6-6.2-5.8-8.5-9.4c-0.3-0.4-0.8-0.5-1.2-0.2c-0.2,0.1-0.3,0.3-0.4,0.5
		c-4.4,16.8-2.2,33.3-2.2,33.3l0,0l32.2-18.6C288.9,296.1,287.8,291.5,286.8,286.9z"/>
	<path class="st12" d="M286.8,286.9L286.8,286.9c-2.7-3.4-8.1-13.7-10.4-18.2c-0.3-0.5-0.9-0.7-1.3-0.4c-0.2,0.1-0.4,0.3-0.5,0.6
		c-2.5,8.5-3.9,17.4-4.3,26.3c-3.3-2.6-6.2-5.8-8.5-9.4c-0.3-0.4-0.8-0.5-1.2-0.2c-0.2,0.1-0.3,0.3-0.4,0.5
		c-4.4,16.8-2.2,33.3-2.2,33.3l0,0l32.2-18.6C288.9,296.1,287.8,291.5,286.8,286.9z"/>
</g>
</svg>
