<?xml version="1.0" encoding="utf-8"?>
<!-- Generator: Adobe Illustrator 24.0.2, SVG Export Plug-In . SVG Version: 6.00 Build 0)  -->
<svg version="1.1" id="圖層_1" xmlns="http://www.w3.org/2000/svg" xmlns:xlink="http://www.w3.org/1999/xlink" x="0px" y="0px"
	 viewBox="0 0 500 500" style="enable-background:new 0 0 500 500;" xml:space="preserve">
<style type="text/css">
	.st0{fill:#D1DEE3;}
	.st1{fill:#69A4A7;}
	.st2{opacity:0.7;fill:#FFFFFF;enable-background:new    ;}
	.st3{opacity:0.5;}
	.st4{fill:#FFFFFF;}
	.st5{fill:#69A4A7;stroke:#2E353A;stroke-width:1.1359;stroke-linecap:round;stroke-linejoin:round;}
	.st6{fill:#2E353A;}
	.st7{fill:none;stroke:#2E353A;stroke-width:0.568;stroke-linecap:round;stroke-linejoin:round;}
	.st8{fill:#FFFFFF;stroke:#2E353A;stroke-width:1.1359;stroke-linecap:round;stroke-linejoin:round;}
	.st9{fill:none;stroke:#2E353A;stroke-width:1.2105;stroke-linecap:round;stroke-linejoin:round;}
	.st10{fill:none;stroke:#69A4A7;stroke-width:1.1359;stroke-linecap:round;stroke-linejoin:round;}
	.st11{fill:#FFFFFF;stroke:#2E353A;stroke-width:1.2727;stroke-linecap:round;stroke-linejoin:round;}
	.st12{fill:#2E353A;stroke:#2E353A;stroke-width:1.2727;stroke-linecap:round;stroke-linejoin:round;}
	.st13{fill:#FFFFFF;stroke:#2E353A;stroke-width:1.4364;stroke-linecap:round;stroke-linejoin:round;}
	
		.st14{opacity:0.5;fill:#69A4A7;stroke:#2E353A;stroke-width:1.4364;stroke-linecap:round;stroke-linejoin:round;enable-background:new    ;}
	.st15{fill:none;stroke:#2E353A;stroke-width:0.7182;stroke-linecap:round;stroke-linejoin:round;}
	.st16{fill:#69A4A7;stroke:#2E353A;stroke-width:1.4364;stroke-linecap:round;stroke-linejoin:round;}
	.st17{fill:#2E353A;stroke:#2E353A;stroke-width:1.4364;stroke-linecap:round;stroke-linejoin:round;}
	.st18{fill:#FFFFFF;stroke:#2E353A;stroke-width:0.9473;stroke-miterlimit:10;}
	.st19{opacity:0.5;fill:#69A4A7;stroke:#2E353A;stroke-width:0.9473;stroke-miterlimit:10;enable-background:new    ;}
	.st20{fill:#69A4A7;stroke:#2E353A;stroke-width:0.9473;stroke-miterlimit:10;}
</style>
<rect class="st0" width="500" height="500"/>
<g id="freepik--background-simple--inject-1--inject-2">
	<path class="st1" d="M425,239c0.9-5.4,2.5-10.7,3.5-16.2c2-10.6,2.1-21.5,0.5-32.1c-3.1-20.4-11.3-39.8-23.7-56.3
		c-13.2-17.7-33-32-54.3-26.6c-22.2,5.6-40.9,22.7-62.5,30.5c-36.5,13.2-73.4-10.9-110.2-10c-31.8,0.7-65.1,12.1-86,40.3
		c-8.5,11.5-14.5,27-12.5,42.2c2.5,18.6,16.1,32.7,26.3,46.4c15.6,21.1,21.5,44,8.4,68.6c-8.9,16.7-20.8,31.4-19.8,52.1
		c1.7,33.1,32.2,53.1,57.4,62c25.6,9.1,54.7,10,80.1-0.2c22.6-9.1,38.4-29,59-41.7c18.1-11.2,39.4-15.9,60.5-13.3
		c21.8,2.6,44.7,7.2,65.8-2.2c20.1-9,29.7-33,30.4-56.1c0.4-11.5-1.3-23-5.1-33.8c-4.7-13.1-15-23.3-17.9-37.1
		C423.9,250,423.9,244.4,425,239z"/>
	<path class="st2" d="M425,239c0.9-5.4,2.5-10.7,3.5-16.2c2-10.6,2.1-21.5,0.5-32.1c-3.1-20.4-11.3-39.8-23.7-56.3
		c-13.2-17.7-33-32-54.3-26.6c-22.2,5.6-40.9,22.7-62.5,30.5c-36.5,13.2-73.4-10.9-110.2-10c-31.8,0.7-65.1,12.1-86,40.3
		c-8.5,11.5-14.5,27-12.5,42.2c2.5,18.6,16.1,32.7,26.3,46.4c15.6,21.1,21.5,44,8.4,68.6c-8.9,16.7-20.8,31.4-19.8,52.1
		c1.7,33.1,32.2,53.1,57.4,62c25.6,9.1,54.7,10,80.1-0.2c22.6-9.1,38.4-29,59-41.7c18.1-11.2,39.4-15.9,60.5-13.3
		c21.8,2.6,44.7,7.2,65.8-2.2c20.1-9,29.7-33,30.4-56.1c0.4-11.5-1.3-23-5.1-33.8c-4.7-13.1-15-23.3-17.9-37.1
		C423.9,250,423.9,244.4,425,239z"/>
</g>
<g id="freepik--Plants--inject-1--inject-2">
	<path class="st1" d="M367.7,77.3c0.1,0,1.9-4.7,1.9-5c0.9-3.6,0.5-11.2-3-13.4c-2.4-1.4-5.5-0.5-6.8,1.9c-0.1,0.1-0.1,0.2-0.2,0.4
		c-1.3,2.7-0.4,6.2,0.9,8.7C361.9,72.7,367.7,77.3,367.7,77.3z"/>
	<path class="st1" d="M450.6,111.9c-2.9-3-10.4-1.8-13.7-0.1c-0.3,0.1-4.6,2.9-4.5,3l0.1,0.1c-1.2,0.2-2.4,0.4-3.8,0.7
		c-2.5,0.5-5.4,1.1-8.5,2c-3.3,0.9-6.6,2-9.8,3.2c-3.6,1.4-7,3.1-10.3,5.1L400,126c0.8-0.9,2.9-3.6,3.1-3.8c2-3.2,4-10.5,1.3-13.7
		c-1.9-2-5-2.2-7.1-0.3c-0.1,0.1-0.2,0.2-0.3,0.3c-2.1,2.1-2.3,5.8-1.9,8.5c0.5,3.1,4.2,8.8,4.5,9.3c-3.3,2.1-6.4,4.5-9.4,7
		c-1.7,1.5-3.4,3-5.1,4.6c0.7-0.8,1.3-1.6,1.3-1.7c2-3.2,4-10.5,1.3-13.7c-1.9-2-5-2.2-7.1-0.3c-0.1,0.1-0.2,0.2-0.3,0.3
		c-2.1,2.1-2.3,5.8-1.9,8.5s3.5,7.8,4.3,9l-1.9,1.8c-3.1,2.9-6.1,5.9-9.2,8.6c-1.1,1-2.2,1.9-3.3,2.8c0.6-0.7,1.1-1.4,1.1-1.5
		c2-3.2,4-10.5,1.3-13.7c-1.8-2.1-5-2.2-7.1-0.4c-0.1,0.1-0.2,0.2-0.3,0.3c-2.1,2.1-2.3,5.8-1.9,8.5s3.2,7.3,4.2,8.8
		c-1.1,0.9-2.3,1.8-3.5,2.7c-0.8,0.6-1.5,1.1-2.4,1.6l-2.4,1.6c-1.6,0.9-3.2,1.9-4.8,2.8c-1.1,0.6-2.1,1.2-3.2,1.8
		c1.1-1,3.2-2.9,3.3-3.1c2.1-2.6,3.4-5.6,4-8.9c0.2-0.3,0.5-0.6,0.6-0.9c1.5-2.3,0.7-5.4-1.6-6.9c-0.1-0.1-0.3-0.1-0.4-0.2
		c-2.9-1.3-7.3,0.6-10.4,2.8c0.1-2.1,0.1-3.4,0.1-3.4l-0.8,0.1l0.6-1.4c0.4-0.9,0.7-1.9,1-2.8c0.8-2.2,1.5-4.5,2.1-6.8
		c1.5,0.7,6.6,3.1,9.4,3.3s6.4-0.5,8.3-2.8c1.8-2.1,1.6-5.3-0.5-7.1c-0.1-0.1-0.2-0.2-0.4-0.3c-3.5-2.3-10.5,0.5-13.4,2.9
		c-0.2,0.1-2.1,2.1-3.1,3.1c0.4-1.4,0.8-2.8,1.1-4.2c1-4.1,1.8-8.2,2.6-12.4c0.3-1.3,0.5-2.5,0.8-3.8c0.5,0.3,6.6,3.3,9.7,3.4
		c2.8,0.1,6.4-0.5,8.3-2.8c1.8-2.1,1.6-5.3-0.5-7.1c-0.1-0.1-0.2-0.2-0.3-0.3c-3.5-2.3-10.5,0.5-13.4,2.8c-0.2,0.2-3,2.9-3.6,3.7
		c0.6-2.8,1.2-5.6,1.9-8.3c1-3.7,2.2-7.2,3.6-10.7c0.2,0.1,6.6,3.3,9.8,3.4c2.8,0.1,6.4-0.5,8.3-2.8c1.8-2.1,1.5-5.3-0.6-7
		c-0.1-0.1-0.2-0.2-0.3-0.3c-3.5-2.3-10.5,0.5-13.4,2.8c-0.2,0.2-3.2,3.2-3.7,3.7c0.1-0.2,0.1-0.4,0.2-0.6c1.5-3.5,3.3-6.8,5.5-10
		c1.1-1.8,2.3-3.4,3.5-4.9c1.1,0.7,6.3,3.9,9.2,4.4s6.4,0.2,8.5-1.9c2-1.9,2.1-5.1,0.2-7.1c-0.1-0.1-0.2-0.2-0.3-0.3
		c-3.2-2.7-10.5-0.7-13.7,1.4c-0.2,0.1-1.8,1.4-3,2.4c0.5-0.7,1.1-1.4,1.6-2.1c2-2.4,4-4.6,5.8-6.4c1-1,2-2,2.9-2.8
		c1.5,0.1,7.4,0.6,10.1-0.3s5.8-2.8,6.7-5.6c0.9-2.6-0.4-5.5-3-6.4c-0.1,0-0.3-0.1-0.4-0.1c-4.1-0.9-9.6,4.3-11.5,7.5
		c-0.2,0.3-2.2,4.9-2.1,5h0.1c-0.9,0.8-1.8,1.7-2.8,2.7c-1.8,1.8-3.9,3.9-6,6.3c-2.3,2.6-4.4,5.3-6.4,8.1c-2.2,3.2-4.1,6.5-5.8,10
		l-0.1,0.1c0.2-1.2,0.5-4.6,0.5-4.9c-0.1-3.7-2.4-10.9-6.5-12.1c-2.7-0.7-5.4,0.9-6.1,3.6c0,0.1-0.1,0.3-0.1,0.4
		c-0.5,2.9,1.3,6.1,3.1,8.1c2.1,2.3,8.4,5,8.9,5.3c-1.6,3.6-2.9,7.2-4,11c-0.6,2.2-1.2,4.4-1.8,6.7c0.1-1.1,0.2-2,0.2-2.1
		c-0.1-3.7-2.4-10.9-6.5-12.1c-2.7-0.7-5.4,0.9-6.1,3.6c0,0.1-0.1,0.3-0.1,0.4c-0.6,2.9,1.3,6.1,3.1,8.1s7.2,4.5,8.6,5.2
		c-0.2,0.9-0.4,1.7-0.6,2.6c-1,4.1-1.9,8.3-2.9,12.3c-0.4,1.4-0.8,2.8-1.2,4.2c0.1-0.9,0.1-1.7,0.1-1.9c-0.1-3.7-2.4-10.9-6.5-12.1
		c-2.7-0.7-5.4,0.9-6.1,3.6c0,0.1-0.1,0.3-0.1,0.4c-0.6,2.9,1.3,6.1,3.1,8.2s6.7,4.3,8.4,5c-0.5,1.4-0.9,2.8-1.4,4.1
		c-0.4,0.9-0.6,1.8-1.1,2.7l-1.1,2.6c-0.9,0.1-1.9,0.4-3.1,0.6c-0.3-3.8-1.7-8.4-4.6-9.7c-2.5-1.1-5.5,0.1-6.6,2.6
		c-0.1,0.1-0.1,0.3-0.2,0.4c-1,2.8,0.3,6.2,1.9,8.5c0.2,0.4,0.5,0.7,0.8,1c-4.9,2-9.3,5.1-13,8.9c-10.4,11.6-9.6,29.2-9.6,29.2
		s14.7-1,25.2-10c3.2-1.5,7.4-3.5,12.1-6.1c1.8-0.9,3.7-2,5.6-3.1c0.5,0.6,4.6,5.8,7.4,7.1c2.5,1.3,6,2.2,8.7,0.9
		c2.5-1.2,3.6-4.1,2.4-6.6c-0.1-0.1-0.1-0.2-0.2-0.4c-2.2-3.6-9.8-3.9-13.4-3c-0.2,0.1-2.5,0.9-3.9,1.4c0.8-0.4,1.5-0.9,2.4-1.4
		c1.6-0.9,3.1-1.9,4.8-2.9l2.4-1.6c0.8-0.5,1.6-1.2,2.4-1.8c1.9-1.4,3.7-2.9,5.5-4.5c0.8,1.4,3.8,6.3,6.1,7.9s5.6,3.1,8.5,2.2
		c2.7-0.8,4.2-3.5,3.4-6.2c0-0.1-0.1-0.3-0.1-0.4c-1.6-3.9-9-5.4-12.8-5c-0.2,0-2.9,0.6-4.3,0.9c1.1-0.9,2.1-1.9,3.2-2.9
		c3-2.9,6-5.9,9-8.9c0.9-0.9,1.9-1.8,2.8-2.7c0.3,0.5,3.7,6.4,6.3,8.2c2.3,1.6,5.6,3.1,8.4,2.2c2.7-0.8,4.2-3.5,3.4-6.2
		c0-0.1-0.1-0.3-0.1-0.4c-1.6-3.9-9-5.4-12.8-5c-0.3,0-4.1,0.8-5,1.1c2-2,4.1-4,6.2-5.8c2.8-2.5,5.8-4.9,8.9-7
		c0.1,0.2,3.7,6.4,6.3,8.3c2.3,1.6,5.6,3.1,8.4,2.2c2.7-0.8,4.2-3.5,3.4-6.2c0-0.1-0.1-0.3-0.1-0.4c-1.6-3.9-9-5.4-12.8-5
		c-0.3,0-4.4,0.9-5.1,1.1c0.2-0.1,0.4-0.3,0.5-0.4c3.2-2.1,6.6-3.8,10.1-5.3c1.9-0.8,3.8-1.5,5.6-2.1c0.5,1.2,3.1,6.7,5.2,8.7
		s5.3,3.7,8.1,3.1c2.7-0.5,4.6-3,4.1-5.8c0-0.2-0.1-0.3-0.1-0.4c-1.2-4-8.4-6.3-12.1-6.4c-0.2,0-2.3,0.2-3.8,0.3
		c0.8-0.3,1.7-0.6,2.5-0.8c3-0.9,5.9-1.6,8.4-2.1c1.4-0.3,2.7-0.6,4-0.8c1.1,0.9,5.8,4.6,8.6,5.3s6.4,0.8,8.7-1
		c2.3-1.6,2.8-4.7,1.2-7C451,112.3,450.8,112.1,450.6,111.9z M343.7,168.8c-2.2,1.1-4.2,2.1-6.1,3c3.2-4.7,5.4-10,6.5-15.5
		c0.6,0.1,1.1,0.3,1.7,0.4c0.2,3.1,2.7,8.8,3,9.5C347.1,167.1,345.4,168,343.7,168.8z"/>
	<path class="st1" d="M421.1,115.3c2.8-2.5,6.6-9,4.9-12.8c-1.2-2.5-4.2-3.5-6.7-2.2c-0.1,0.1-0.3,0.1-0.4,0.2
		c-2.5,1.5-3.7,4.9-4.1,7.7c-0.4,3.3,1.9,10.3,1.9,10.3S420.9,115.5,421.1,115.3z"/>
	<path class="st1" d="M300,84.2c0,0-21.4,21.7-21.5,48.5s21,48.7,21,48.7s21.4-21.7,21.5-48.5S300,84.2,300,84.2z"/>
	<path class="st1" d="M253.1,145.6c0,0-0.1,17.6,10.7,28.9s28.4,11.8,28.4,11.8s0.1-17.6-10.6-28.9S253.1,145.6,253.1,145.6z"/>
	<g class="st3">
		<path class="st4" d="M367.7,77.3c0.1,0,1.9-4.7,1.9-5c0.9-3.6,0.5-11.2-3-13.4c-2.4-1.4-5.5-0.5-6.8,1.9c-0.1,0.1-0.1,0.2-0.2,0.4
			c-1.3,2.7-0.4,6.2,0.9,8.7C361.9,72.7,367.7,77.3,367.7,77.3z"/>
		<path class="st4" d="M450.6,111.9c-2.9-3-10.4-1.8-13.7-0.1c-0.3,0.1-4.6,2.9-4.5,3l0.1,0.1c-1.2,0.2-2.4,0.4-3.8,0.7
			c-2.5,0.5-5.4,1.1-8.5,2c-3.3,0.9-6.6,2-9.8,3.2c-3.6,1.4-7,3.1-10.3,5.1L400,126c0.8-0.9,2.9-3.6,3.1-3.8c2-3.2,4-10.5,1.3-13.7
			c-1.9-2-5-2.2-7.1-0.3c-0.1,0.1-0.2,0.2-0.3,0.3c-2.1,2.1-2.3,5.8-1.9,8.5c0.5,3.1,4.2,8.8,4.5,9.3c-3.3,2.1-6.4,4.5-9.4,7
			c-1.7,1.5-3.4,3-5.1,4.6c0.7-0.8,1.3-1.6,1.3-1.7c2-3.2,4-10.5,1.3-13.7c-1.9-2-5-2.2-7.1-0.3c-0.1,0.1-0.2,0.2-0.3,0.3
			c-2.1,2.1-2.3,5.8-1.9,8.5s3.5,7.8,4.3,9l-1.9,1.8c-3.1,2.9-6.1,5.9-9.2,8.6c-1.1,1-2.2,1.9-3.3,2.8c0.6-0.7,1.1-1.4,1.1-1.5
			c2-3.2,4-10.5,1.3-13.7c-1.8-2.1-5-2.2-7.1-0.4c-0.1,0.1-0.2,0.2-0.3,0.3c-2.1,2.1-2.3,5.8-1.9,8.5s3.2,7.3,4.2,8.8
			c-1.1,0.9-2.3,1.8-3.5,2.7c-0.8,0.6-1.5,1.1-2.4,1.6l-2.4,1.6c-1.6,0.9-3.2,1.9-4.8,2.8c-1.1,0.6-2.1,1.2-3.2,1.8
			c1.1-1,3.2-2.9,3.3-3.1c2.1-2.6,3.4-5.6,4-8.9c0.2-0.3,0.5-0.6,0.6-0.9c1.5-2.3,0.7-5.4-1.6-6.9c-0.1-0.1-0.3-0.1-0.4-0.2
			c-2.9-1.3-7.3,0.6-10.4,2.8c0.1-2.1,0.1-3.4,0.1-3.4l-0.8,0.1l0.6-1.4c0.4-0.9,0.7-1.9,1-2.8c0.8-2.2,1.5-4.5,2.1-6.8
			c1.5,0.7,6.6,3.1,9.4,3.3s6.4-0.5,8.3-2.8c1.8-2.1,1.6-5.3-0.5-7.1c-0.1-0.1-0.2-0.2-0.4-0.3c-3.5-2.3-10.5,0.5-13.4,2.9
			c-0.2,0.1-2.1,2.1-3.1,3.1c0.4-1.4,0.8-2.8,1.1-4.2c1-4.1,1.8-8.2,2.6-12.4c0.3-1.3,0.5-2.5,0.8-3.8c0.5,0.3,6.6,3.3,9.7,3.4
			c2.8,0.1,6.4-0.5,8.3-2.8c1.8-2.1,1.6-5.3-0.5-7.1c-0.1-0.1-0.2-0.2-0.3-0.3c-3.5-2.3-10.5,0.5-13.4,2.8c-0.2,0.2-3,2.9-3.6,3.7
			c0.6-2.8,1.2-5.6,1.9-8.3c1-3.7,2.2-7.2,3.6-10.7c0.2,0.1,6.6,3.3,9.8,3.4c2.8,0.1,6.4-0.5,8.3-2.8c1.8-2.1,1.5-5.3-0.6-7
			c-0.1-0.1-0.2-0.2-0.3-0.3c-3.5-2.3-10.5,0.5-13.4,2.8c-0.2,0.2-3.2,3.2-3.7,3.7c0.1-0.2,0.1-0.4,0.2-0.6c1.5-3.5,3.3-6.8,5.5-10
			c1.1-1.8,2.3-3.4,3.5-4.9c1.1,0.7,6.3,3.9,9.2,4.4s6.4,0.2,8.5-1.9c2-1.9,2.1-5.1,0.2-7.1c-0.1-0.1-0.2-0.2-0.3-0.3
			c-3.2-2.7-10.5-0.7-13.7,1.4c-0.2,0.1-1.8,1.4-3,2.4c0.5-0.7,1.1-1.4,1.6-2.1c2-2.4,4-4.6,5.8-6.4c1-1,2-2,2.9-2.8
			c1.5,0.1,7.4,0.6,10.1-0.3s5.8-2.8,6.7-5.6c0.9-2.6-0.4-5.5-3-6.4c-0.1,0-0.3-0.1-0.4-0.1c-4.1-0.9-9.6,4.3-11.5,7.5
			c-0.2,0.3-2.2,4.9-2.1,5h0.1c-0.9,0.8-1.8,1.7-2.8,2.7c-1.8,1.8-3.9,3.9-6,6.3c-2.3,2.6-4.4,5.3-6.4,8.1c-2.2,3.2-4.1,6.5-5.8,10
			l-0.1,0.1c0.2-1.2,0.5-4.6,0.5-4.9c-0.1-3.7-2.4-10.9-6.5-12.1c-2.7-0.7-5.4,0.9-6.1,3.6c0,0.1-0.1,0.3-0.1,0.4
			c-0.5,2.9,1.3,6.1,3.1,8.1c2.1,2.3,8.4,5,8.9,5.3c-1.6,3.6-2.9,7.2-4,11c-0.6,2.2-1.2,4.4-1.8,6.7c0.1-1.1,0.2-2,0.2-2.1
			c-0.1-3.7-2.4-10.9-6.5-12.1c-2.7-0.7-5.4,0.9-6.1,3.6c0,0.1-0.1,0.3-0.1,0.4c-0.6,2.9,1.3,6.1,3.1,8.1s7.2,4.5,8.6,5.2
			c-0.2,0.9-0.4,1.7-0.6,2.6c-1,4.1-1.9,8.3-2.9,12.3c-0.4,1.4-0.8,2.8-1.2,4.2c0.1-0.9,0.1-1.7,0.1-1.9c-0.1-3.7-2.4-10.9-6.5-12.1
			c-2.7-0.7-5.4,0.9-6.1,3.6c0,0.1-0.1,0.3-0.1,0.4c-0.6,2.9,1.3,6.1,3.1,8.2s6.7,4.3,8.4,5c-0.5,1.4-0.9,2.8-1.4,4.1
			c-0.4,0.9-0.6,1.8-1.1,2.7l-1.1,2.6c-0.9,0.1-1.9,0.4-3.1,0.6c-0.3-3.8-1.7-8.4-4.6-9.7c-2.5-1.1-5.5,0.1-6.6,2.6
			c-0.1,0.1-0.1,0.3-0.2,0.4c-1,2.8,0.3,6.2,1.9,8.5c0.2,0.4,0.5,0.7,0.8,1c-4.9,2-9.3,5.1-13,8.9c-10.4,11.6-9.6,29.2-9.6,29.2
			s14.7-1,25.2-10c3.2-1.5,7.4-3.5,12.1-6.1c1.8-0.9,3.7-2,5.6-3.1c0.5,0.6,4.6,5.8,7.4,7.1c2.5,1.3,6,2.2,8.7,0.9
			c2.5-1.2,3.6-4.1,2.4-6.6c-0.1-0.1-0.1-0.2-0.2-0.4c-2.2-3.6-9.8-3.9-13.4-3c-0.2,0.1-2.5,0.9-3.9,1.4c0.8-0.4,1.5-0.9,2.4-1.4
			c1.6-0.9,3.1-1.9,4.8-2.9l2.4-1.6c0.8-0.5,1.6-1.2,2.4-1.8c1.9-1.4,3.7-2.9,5.5-4.5c0.8,1.4,3.8,6.3,6.1,7.9s5.6,3.1,8.5,2.2
			c2.7-0.8,4.2-3.5,3.4-6.2c0-0.1-0.1-0.3-0.1-0.4c-1.6-3.9-9-5.4-12.8-5c-0.2,0-2.9,0.6-4.3,0.9c1.1-0.9,2.1-1.9,3.2-2.9
			c3-2.9,6-5.9,9-8.9c0.9-0.9,1.9-1.8,2.8-2.7c0.3,0.5,3.7,6.4,6.3,8.2c2.3,1.6,5.6,3.1,8.4,2.2c2.7-0.8,4.2-3.5,3.4-6.2
			c0-0.1-0.1-0.3-0.1-0.4c-1.6-3.9-9-5.4-12.8-5c-0.3,0-4.1,0.8-5,1.1c2-2,4.1-4,6.2-5.8c2.8-2.5,5.8-4.9,8.9-7
			c0.1,0.2,3.7,6.4,6.3,8.3c2.3,1.6,5.6,3.1,8.4,2.2c2.7-0.8,4.2-3.5,3.4-6.2c0-0.1-0.1-0.3-0.1-0.4c-1.6-3.9-9-5.4-12.8-5
			c-0.3,0-4.4,0.9-5.1,1.1c0.2-0.1,0.4-0.3,0.5-0.4c3.2-2.1,6.6-3.8,10.1-5.3c1.9-0.8,3.8-1.5,5.6-2.1c0.5,1.2,3.1,6.7,5.2,8.7
			s5.3,3.7,8.1,3.1c2.7-0.5,4.6-3,4.1-5.8c0-0.2-0.1-0.3-0.1-0.4c-1.2-4-8.4-6.3-12.1-6.4c-0.2,0-2.3,0.2-3.8,0.3
			c0.8-0.3,1.7-0.6,2.5-0.8c3-0.9,5.9-1.6,8.4-2.1c1.4-0.3,2.7-0.6,4-0.8c1.1,0.9,5.8,4.6,8.6,5.3s6.4,0.8,8.7-1
			c2.3-1.6,2.8-4.7,1.2-7C451,112.3,450.8,112.1,450.6,111.9z M343.7,168.8c-2.2,1.1-4.2,2.1-6.1,3c3.2-4.7,5.4-10,6.5-15.5
			c0.6,0.1,1.1,0.3,1.7,0.4c0.2,3.1,2.7,8.8,3,9.5C347.1,167.1,345.4,168,343.7,168.8z"/>
		<path class="st4" d="M421.1,115.3c2.8-2.5,6.6-9,4.9-12.8c-1.2-2.5-4.2-3.5-6.7-2.2c-0.1,0.1-0.3,0.1-0.4,0.2
			c-2.5,1.5-3.7,4.9-4.1,7.7c-0.4,3.3,1.9,10.3,1.9,10.3S420.9,115.5,421.1,115.3z"/>
		<path class="st4" d="M300,84.2c0,0-21.4,21.7-21.5,48.5s21,48.7,21,48.7s21.4-21.7,21.5-48.5S300,84.2,300,84.2z"/>
		<path class="st4" d="M253.1,145.6c0,0-0.1,17.6,10.7,28.9s28.4,11.8,28.4,11.8s0.1-17.6-10.6-28.9S253.1,145.6,253.1,145.6z"/>
	</g>
	<polygon class="st4" points="313.4,157 312.7,156.1 300.2,166 300.3,144.3 317.7,128.9 317,128 300.3,142.8 300.4,119 312.1,108.8 
		311.4,108 300.4,117.5 300.5,84.2 299.4,84.2 299.2,133.3 285.4,113.1 284.5,113.7 299.1,135.1 299.2,135 299.1,155.4 282.5,140.5 
		281.8,141.4 299.1,156.9 299.1,156.9 299,181.4 300.1,181.4 300.2,167.4 	"/>
	<polygon class="st4" points="345.6,145.5 344.8,144.7 326.3,165.4 328,152 326.9,151.9 325,166.8 325,166.8 317.6,175.1 
		316.2,162.8 315.1,162.9 316.6,176.3 307.2,186.7 308,187.5 313.4,181.5 323,182.1 323,181 314.3,180.5 322.3,171.5 335.7,171.5 
		335.7,170.4 323.3,170.4 332.1,160.6 341,160.7 341,159.6 333,159.5 	"/>
	<polygon class="st4" points="288.3,170.5 287.2,170.3 286,179 277.7,170.4 278.7,157 277.6,156.9 276.7,169.3 267.5,159.8 
		268.3,150.9 267.2,150.8 266.5,158.7 253.5,145.2 252.7,146 271.9,165.9 258.7,163.3 258.5,164.3 273.2,167.3 273.2,167.3 
		281,175.4 268.6,175.8 268.6,176.9 282,176.4 291.7,186.6 292.5,185.8 287,180 	"/>
</g>
<g id="freepik--Notebook--inject-1--inject-2">
	<polyline class="st5" points="296.4,435.7 424.1,387.8 425,377.5 298.3,425.5 296.4,435.7 	"/>
	<path class="st6" d="M274.9,266.3c-2.2,0-4.4-0.8-6.1-2.2c-2.2-1.8-3.6-4.3-4-7.1c-0.1-1.1,0.7-2,1.7-2.1c1-0.1,1.9,0.6,2.1,1.5
		c0.3,1.8,1.2,3.5,2.6,4.7c2.4,2,5.9,1.8,7.9-0.6c0.2-0.2,0.4-0.5,0.5-0.7c0.6-0.9,1.8-1.1,2.7-0.4c0.8,0.6,1.1,1.7,0.5,2.6
		c-1.5,2.3-3.9,3.9-6.6,4.3C275.9,266.3,275.4,266.3,274.9,266.3z"/>
	<path class="st6" d="M256.5,272c-4.9,0-9.3-3.9-10.2-9.3c-0.2-1.1,0.6-2.1,1.6-2.2c0,0,0,0,0,0c1.1-0.1,2,0.6,2.2,1.6
		c0.6,3.8,3.8,6.5,7.1,6c1.6-0.3,3.1-1.2,3.9-2.6c0.6-0.9,1.8-1.1,2.7-0.4c0.8,0.6,1.1,1.7,0.5,2.6c-1.5,2.3-3.9,3.9-6.6,4.3
		C257.4,272,257,272,256.5,272z"/>
	<path class="st6" d="M239.6,278.5c-2.2,0-4.4-0.8-6.1-2.2c-2.2-1.8-3.6-4.3-4-7.1c-0.1-1.1,0.7-2,1.7-2.1c1-0.1,1.9,0.6,2.1,1.5
		c0.3,1.8,1.2,3.5,2.6,4.7c1.3,1.1,2.9,1.5,4.5,1.3c1.6-0.3,3.1-1.2,3.9-2.6c0.8-0.8,2.1-0.7,2.8,0c0.5,0.6,0.7,1.4,0.4,2.1
		c-1.5,2.3-3.9,3.9-6.6,4.3C240.6,278.4,240.1,278.5,239.6,278.5z"/>
	<path class="st6" d="M221.2,283.8c-4.9,0-9.3-3.9-10.2-9.3c-0.2-1.1,0.5-2.1,1.5-2.3s2.1,0.5,2.3,1.5c0,0.1,0,0.1,0,0.2
		c0.6,3.8,3.8,6.5,7.1,6c1.6-0.3,3.1-1.2,3.9-2.6c0.5-0.9,1.7-1.3,2.7-0.7c0.9,0.5,1.3,1.7,0.7,2.7c0,0.1-0.1,0.1-0.1,0.2
		c-1.5,2.3-3.9,3.9-6.6,4.3C222.1,283.7,221.7,283.8,221.2,283.8z"/>
	<path class="st6" d="M202.3,291.3c-4.9,0-9.3-3.9-10.2-9.3c0.1-1.1,1-1.9,2.1-1.9c0.8,0.1,1.4,0.5,1.7,1.3c0.6,3.8,3.8,6.5,7.1,6
		c1.6-0.3,3.1-1.2,3.9-2.6c0.6-0.9,1.8-1.1,2.7-0.4c0.8,0.6,1.1,1.7,0.5,2.6c-1.5,2.3-3.9,3.9-6.6,4.3
		C203.3,291.2,202.8,291.3,202.3,291.3z"/>
	<path class="st6" d="M184.1,297.9c-2.2,0-4.4-0.8-6.1-2.2c-2.2-1.8-3.6-4.3-4-7.1c-0.1-1.1,0.7-2,1.7-2.1c1-0.1,1.9,0.6,2.1,1.5
		c0.3,1.8,1.2,3.5,2.6,4.7c2.4,2,5.9,1.8,7.9-0.6c0.2-0.2,0.4-0.5,0.5-0.7c0.8-0.8,2.1-0.7,2.8,0c0.5,0.6,0.7,1.4,0.4,2.1
		c-1.5,2.3-3.9,3.9-6.6,4.3C185,297.9,184.5,297.9,184.1,297.9z"/>
	<line class="st7" x1="299.9" y1="429.4" x2="405.6" y2="390.5"/>
	<line class="st7" x1="297.1" y1="432.7" x2="364.8" y2="407.7"/>
	<polyline class="st5" points="169.2,293.5 169.2,305.5 296.4,435.7 298.3,425.5 169.2,293.5 	"/>
	<line class="st7" x1="171.1" y1="302.9" x2="246.6" y2="378.5"/>
	<line class="st7" x1="206.8" y1="335.4" x2="285.5" y2="416"/>
	<polygon class="st8" points="169.2,293.5 298.3,425.5 425,377.5 293.6,251.6 	"/>
	<polygon class="st5" points="167.6,291.4 48,179.8 170.5,141.6 292.7,249.7 	"/>
	<line class="st9" x1="66.3" y1="180.5" x2="101.3" y2="169.6"/>
	<line class="st9" x1="71.5" y1="184.5" x2="106.5" y2="173.6"/>
	<path class="st6" d="M190.5,294.4c-0.4,0-0.8-0.1-1.1-0.3c-0.9-0.6-1.1-1.8-0.6-2.7c1-1.6,1.4-3.4,1.1-5.2
		c-0.3-2.8-2.4-5.2-5.1-5.9c-1-0.3-1.7-1.4-1.4-2.4c0.3-1,1.2-1.6,2.2-1.4c4.3,1.1,7.5,4.7,8.1,9.1c0.5,2.8-0.1,5.6-1.7,8
		C191.7,294.1,191.1,294.4,190.5,294.4z"/>
	<path class="st6" d="M208.7,287.7c-0.4,0-0.8-0.1-1.1-0.3c-0.9-0.6-1.1-1.8-0.6-2.7c0,0,0,0,0,0c1-1.6,1.4-3.4,1.1-5.2
		c-0.3-2.8-2.4-5.2-5.1-5.9c-1.1-0.2-1.8-1.2-1.6-2.2c0.2-1.1,1.2-1.8,2.2-1.6c0.1,0,0.1,0,0.2,0c4.3,1.1,7.5,4.7,8.1,9.1
		c0.5,2.8-0.1,5.6-1.7,8C210,287.4,209.4,287.7,208.7,287.7z"/>
	<path class="st6" d="M281.3,262.8c-1.1-0.1-2-1-1.9-2.1c0-0.3,0.1-0.6,0.3-0.9c1-1.5,1.4-3.4,1.1-5.2c-0.3-2.8-2.4-5.2-5.1-5.9
		c-1-0.2-1.7-1.3-1.5-2.3c0,0,0,0,0,0c0.3-1,1.3-1.7,2.3-1.5c4.3,1.1,7.5,4.7,8.1,9.1c0.5,2.8-0.1,5.6-1.7,8
		C282.6,262.5,282,262.8,281.3,262.8z"/>
	<path class="st6" d="M262.9,268.4c-0.4,0-0.8-0.1-1.1-0.3c-0.9-0.6-1.1-1.8-0.6-2.7c0,0,0,0,0,0c1-1.6,1.4-3.4,1.1-5.2
		c-0.3-2.8-2.4-5.2-5.1-5.9c-1.1-0.2-1.8-1.2-1.6-2.2s1.2-1.8,2.2-1.6c0.1,0,0.1,0,0.2,0c4.3,1.1,7.5,4.7,8.1,9.1
		c0.5,2.8-0.1,5.6-1.7,8C264.1,268.1,263.5,268.4,262.9,268.4z"/>
	<path class="st6" d="M246,274.9c-0.4,0-0.8-0.1-1.1-0.3c-0.9-0.6-1.1-1.8-0.6-2.7c1-1.5,1.4-3.4,1.1-5.2c-0.3-2.8-2.4-5.2-5.1-5.9
		c-1.1-0.2-1.8-1.2-1.6-2.2c0.2-1.1,1.2-1.8,2.2-1.6c0.1,0,0.1,0,0.2,0c4.3,1.1,7.5,4.7,8.1,9.1c0.5,2.8-0.1,5.6-1.7,8
		C247.3,274.6,246.7,274.9,246,274.9z"/>
	<path class="st6" d="M227.6,280.2c-0.4,0-0.8-0.1-1.1-0.3c-0.9-0.6-1.1-1.8-0.6-2.7c0,0,0,0,0,0c1-1.6,1.4-3.4,1.1-5.2
		c-0.3-2.8-2.4-5.2-5.1-5.9c-1.1,0-2-0.9-2-2c0-1.1,0.9-2,2-2c0.3,0,0.6,0.1,0.9,0.2c4.3,1.1,7.5,4.7,8.1,9.1c0.5,2.8-0.1,5.6-1.7,8
		C228.8,279.9,228.2,280.2,227.6,280.2z"/>
	<line class="st7" x1="400.6" y1="374.5" x2="405.5" y2="372.7"/>
	<line class="st7" x1="303.5" y1="410.4" x2="396.1" y2="376.2"/>
	<line class="st7" x1="306.1" y1="394.9" x2="394.5" y2="362.3"/>
	<line class="st7" x1="292.5" y1="399.9" x2="300.2" y2="397.1"/>
	<line class="st7" x1="281.5" y1="389.5" x2="383.5" y2="351.8"/>
	<line class="st7" x1="270.4" y1="379.1" x2="372.5" y2="341.4"/>
	<line class="st7" x1="357.2" y1="332.5" x2="361.5" y2="330.9"/>
	<line class="st7" x1="259.4" y1="368.6" x2="351.1" y2="334.8"/>
	<line class="st7" x1="248.4" y1="358.2" x2="350.5" y2="320.5"/>
	<line class="st7" x1="237.4" y1="347.8" x2="339.4" y2="310.1"/>
	<line class="st7" x1="226.4" y1="337.3" x2="328.4" y2="299.6"/>
	<line class="st7" x1="215.4" y1="326.9" x2="317.4" y2="289.2"/>
	<line class="st7" x1="302.8" y1="280.1" x2="306.4" y2="278.8"/>
	<line class="st7" x1="204.3" y1="316.4" x2="299.6" y2="281.3"/>
	<line class="st7" x1="223.8" y1="294.8" x2="295.4" y2="268.3"/>
	<line class="st7" x1="193.3" y1="306" x2="213" y2="298.7"/>
	<path class="st10" d="M228.7,333c10.3,1.4,9.4-16.3,6.8-22.3c-3.9,4.4-5.6,10.3-4.9,16.1c0.1,1.3,0.6,2.6,1.4,3.7
		c0.8,1.1,2.2,1.6,3.6,1.3c0.9-0.4,1.7-1.1,2.3-1.9c1.9-2.5,3.2-5.6,5.2-8c2.8,1.9,12.6,5.1,11.2-1.8c-0.8-3.8,1.1-3.4,3.1-1.5
		c0.8,0.8,2.2,0.4,3.2-0.1l10-4.4c1.3-0.6,2.7-1.1,4.1-1.2c4.8-0.2,7.9,4.2,12.6,1.1c2-1.3,2.5-4.9,5-6.3c1.8-1,3.9-1.1,6-1.3
		c7.1-0.9,10.7-4.7,17.2-8.1"/>
	<path class="st10" d="M236.7,344c3.9,0.7,7.2-2.9,10.6-4c4.4-1.5,6.3-3.2,10.5-5c5.5-2.4,12.1-3.5,10.9-11.9
		c-0.8,3-0.9,6.3-1.5,9.4c4.5,2.2,5.7-1.6,6.2-5c1.5,0,3-0.3,4.4-0.9c0,0.6,0.2,1.3,0.2,1.9c2.2,0.9,3,0.3,3.5-1.6
		c2.4-0.5,3.2-2.7,5.3-3.2c0.5,5.6,1.9,10.5,1.6,16.3c-3.8,1-4.4-5.6-3.5-8.4c1-2.9,3.9-4.5,4.9-7.5c0.2,0.4,0,0.8,0.2,1.2
		c4.8-2.9,11-2.1,15.8-5.5c1.5-1.1,2.6-3.2,4.2-3.9c3.5-1.6,4.5,0.3,7.1-3.5"/>
	<path class="st10" d="M271.6,377c7-2,10-19.3,8-25.6c-2.3-7.7-5.6,0.7-6.3,4.9c-0.6,3.3-1.6,12,1.5,14.5c6.8,5.5,11-5.9,11.8-11
		c0.3,3.2-1.6,7.2-0.9,10.7c5.5,0.6,8.3-4,7.9-8.7c1.4,1.3,1.8,3.4,1,5.2c5.3-0.4,4.4-9.3,5-12.9c-0.3,2.5-0.1,5.5,1.6,7.5
		c1.4,1.7,4.1,2.4,5.9,1.1s1.4-4.7-0.7-5.2v21.6c0.1,0.6-0.1,1.3-0.4,1.8c-0.7,1-2.5,0.8-3.3-0.2c-0.7-1-1-2.3-1-3.6
		c-0.1-7.1,2.1-16.8,7.6-21.6c0.3,0.7,0.4,1.4,0.3,2.2c1.1-0.4,1.9-1.3,2.3-2.4c0.4,1.6,1.3,3.6,2.9,3.3c0.5-0.1,1-0.4,1.4-0.8
		c2.6-2.2,5.5-3.6,7.3-6.7c0.3,0.8,0.5,1.6,0.8,2.4c0.4-1.5,1.9-2.5,3.3-3.2c2.2-1,4.5-1.6,6.9-1.7c2-0.1,4.2,0.1,6-0.8
		c0.8-0.4,1.6-0.9,2.3-1.5c2.1-1.4,4.5-2.2,7-2.3"/>
</g>
<g id="freepik--Glasses--inject-1--inject-2">
	<path class="st11" d="M189.2,187.1c0,0,15.9-20.1,21.4-27.3s9.3-12.7,9.3-12.7s2.9,2.3,2,4.9S202,180.4,197.8,187
		s-3.6,14.9-3.3,17.8S186.4,198.3,189.2,187.1z"/>
	<path class="st12" d="M219.9,147.1c0,0,9.9-13.8,17.3-25.3s18.1-28.8,20.7-31.1s3.2,3.7,2.4,7.7s-9.6,15.2-15.6,24.4
		s-9.6,15.8-14.8,21.9s-4.8,6.3-8,7.2S219.3,149.7,219.9,147.1z"/>
	<path class="st12" d="M185.8,189.1c1.1-7.4,3.6-21.2,9.3-25.5s22.9-1,24.3-0.7s24.1,5.3,31,9.5c6.9,4.3,11.6,16.5,13.3,23.6
		s5.6,19.1,6.1,20c0,0,5.8,2.5,8.9,2.2s7.3-14.9,16.2-23.6s13.4-9.8,23.1-9s46.7,10.9,50.5,14.6s6.1,12,5.3,18s0.4,12.6,0.4,13.7
		s3.5,4.9,2.6,8s-1.4,10-3.9,10.9s-21.5,0.4-35.5-1.5s-33.6-10.4-46.5-16.3s-19.2-8.5-28.7-8.4s-27.8,0.5-44.7-3.4
		s-28.4-11-31.6-14.1S184.7,196.6,185.8,189.1z M287.1,224.2c4.6,6.9,23.3,13.6,33.3,16.4s34.1,7.8,40.4,4.3s9.6-24.1,9-31.3
		s-3.5-11.1-3.5-11.1c-12.4-7.6-51.1-15.7-59.1-12.5s-15.6,13.6-18.5,21.9S287.1,224.2,287.1,224.2z M206.2,212.5
		c12.4,7.4,31.9,9.5,39.6,9.8s15.1-3.8,15.4-12.7s-4.5-23.7-6.2-28s-7.5-6.8-7.5-6.8c-7.8-3.7-39.9-11.8-45.3-10.9
		s-10.2,9.2-11.3,21.2S193.9,205.1,206.2,212.5L206.2,212.5z"/>
	<path class="st11" d="M373.3,231.7c0,0,3.2,4.9,5.5,1.4s31.5-36.3,31.5-36.3s1.1-0.3,0.9,2s-30.9,43.4-32.1,45.5s-6,2.6-7.1,1.8
		S373.3,231.7,373.3,231.7z"/>
	<path class="st12" d="M408.3,197.9c1.7-3,3.2-6,4.5-9.2c3.1-6.9,5-20.4,5.5-34.4s1-22.3,3.6-19.8s0.4,16.3-0.1,27.2
		s-3.9,21.8-4.7,27.5c-0.6,4.3-3.9,11.2-6.2,11.2S408.9,199.9,408.3,197.9z"/>
</g>
<g id="freepik--Pencils--inject-1--inject-2">
	<polygon class="st13" points="219.4,377.4 232,391.7 213.3,387.5 80.1,306 86.2,296 	"/>
	<polygon class="st14" points="219.4,377.4 232,391.7 213.3,387.5 80.1,306 86.2,296 	"/>
	
		<rect x="146.5" y="263.6" transform="matrix(0.5219 -0.853 0.853 0.5219 -219.9028 291.0856)" class="st15" width="6.4" height="156.1"/>
	<polygon class="st13" points="219.4,377.5 213.3,387.5 232,391.7 	"/>
	<polygon class="st16" points="222.6,389.6 232,391.7 225.7,384.6 	"/>
	<path class="st13" d="M68.2,291.8L68.2,291.8c-1.7,2.8-0.8,6.4,1.9,8.1c0,0,0,0,0,0l9.9,6.1l6.1-10l-9.9-6.1
		C73.5,288.2,69.9,289.1,68.2,291.8z"/>
	<path class="st17" d="M68.2,291.8L68.2,291.8c-1.7,2.8-0.8,6.4,1.9,8.1c0,0,0,0,0,0l4.7,2.9l6.1-10l-4.7-2.9
		C73.5,288.2,69.9,289.1,68.2,291.8z"/>
	<path class="st18" d="M337,244.1l-3.5-2.5c-1.1-0.8-2.5-1-3.8-0.6c-3.7,1.1-10.7,3.8-12.7,6c-2.6,2.7-3.4,7.5-2.2,9.8
		s6.4,5.2,6.4,5.2l21.5-13.1L337,244.1z"/>
	<path class="st19" d="M337,244.1l-3.5-2.5c-1.1-0.8-2.5-1-3.8-0.6c-3.7,1.1-10.7,3.8-12.7,6c-2.6,2.7-3.4,7.5-2.2,9.8
		s6.4,5.2,6.4,5.2l21.5-13.1L337,244.1z"/>
	<path class="st18" d="M339.2,243.1l-17,7.8c0,0-5.8,3.3-3.9,13.2l99.5,73.3c0,0,3.5,2.5,9.7,0.4s12.6-9.5,14-15.7s-3-8.2-3.8-8.9
		s-95.2-69.3-95.2-69.3C341.6,243.2,340.4,242.9,339.2,243.1z"/>
	<path class="st19" d="M339.2,243.1l-17,7.8c0,0-5.8,3.3-3.9,13.2l99.5,73.3c0,0,3.5,2.5,9.7,0.4s12.6-9.5,14-15.7s-3-8.2-3.8-8.9
		s-95.2-69.3-95.2-69.3C341.6,243.2,340.4,242.9,339.2,243.1z"/>
	<path class="st18" d="M434.8,332.6c-6.3,5.9-13.9,7.9-17,4.6s-0.5-10.8,5.7-16.6s13.9-7.9,17-4.6S441.1,326.7,434.8,332.6z"/>
	<path class="st20" d="M434.8,332.6c-6.3,5.9-13.9,7.9-17,4.6s-0.5-10.8,5.7-16.6s13.9-7.9,17-4.6S441.1,326.7,434.8,332.6z"/>
	<path class="st12" d="M342.5,243.8c-1-0.6-2.2-0.9-3.4-0.7l-17,7.8c0,0-5.8,3.3-3.9,13.2l68.8,50.7c-0.5-2.3-0.4-5.8,2.2-9.8
		c2.4-3.8,13.4-9.9,19.3-13C380.6,271.5,342.5,243.8,342.5,243.8z"/>
	<path class="st18" d="M421.5,320.4L385.2,294c-1.8-1.3-2.2-3.8-0.9-5.6c0.3-0.5,0.8-0.9,1.3-1.1l5.6-3.1c1.3-0.7,3-0.6,4.2,0.3
		l38.4,27.8"/>
	<path class="st19" d="M421.5,320.4L385.2,294c-1.8-1.3-2.2-3.8-0.9-5.6c0.3-0.5,0.8-0.9,1.3-1.1l5.6-3.1c1.3-0.7,3-0.6,4.2,0.3
		l38.4,27.8"/>
</g>
</svg>
