<?xml version="1.0" encoding="utf-8"?>
<!-- Generator: Adobe Illustrator 24.0.2, SVG Export Plug-In . SVG Version: 6.00 Build 0)  -->
<svg version="1.1" id="圖層_1" xmlns="http://www.w3.org/2000/svg" xmlns:xlink="http://www.w3.org/1999/xlink" x="0px" y="0px"
	 viewBox="0 0 500 500" style="enable-background:new 0 0 500 500;" xml:space="preserve">
<style type="text/css">
	.st0{fill:#D1D8E3;}
	.st1{fill:#F5F5F5;}
	.st2{fill:#E6E6E6;}
	.st3{fill:#EBEBEB;}
	.st4{fill:#F0F0F0;}
	.st5{fill:#FAFAFA;}
	.st6{fill:#69A4A7;}
	.st7{opacity:0.1;enable-background:new    ;}
	.st8{opacity:5.000000e-02;enable-background:new    ;}
	.st9{opacity:0.4;fill:#FFFFFF;enable-background:new    ;}
	.st10{fill:#E0E0E0;}
	.st11{fill:#455A64;}
	.st12{opacity:0.3;}
	.st13{fill:none;stroke:#69A4A7;stroke-miterlimit:10;}
	.st14{opacity:0.3;enable-background:new    ;}
	.st15{opacity:0.2;enable-background:new    ;}
	.st16{opacity:0.3;fill:#FFFFFF;enable-background:new    ;}
	.st17{opacity:0.7;}
</style>
<rect class="st0" width="500" height="500"/>
<g id="freepik--Floor--inject-1--inject-2">
	<ellipse id="freepik--floor--inject-1--inject-2" class="st1" cx="245" cy="353.8" rx="230" ry="125.1"/>
</g>
<g id="freepik--Shadows--inject-1--inject-2">
	<polygon id="freepik--Shadow--inject-1--inject-2" class="st2" points="285.6,449.1 167.8,381.1 279.5,316.7 397.3,384.7 	"/>
	<path id="freepik--shadow--inject-1--inject-2" class="st2" d="M52.8,379.9l23.5,13.5c2.7,1.4,5.9,1.4,8.6,0l155.9-90.2
		c2.4-1.4,2.4-3.6,0-4.9l-23.5-13.5c-2.7-1.4-5.9-1.4-8.6,0L52.8,375C50.4,376.4,50.4,378.6,52.8,379.9z"/>
	<ellipse id="freepik--shadow--inject-1--inject-2_1_" class="st2" cx="373.7" cy="305.9" rx="44.5" ry="25.7"/>
	<ellipse id="freepik--shadow--inject-1--inject-2_2_" class="st2" cx="312.5" cy="297.1" rx="15" ry="8.7"/>
</g>
<g id="freepik--Notebook--inject-1--inject-2">
	<path class="st3" d="M67.8,380.3l-7.9-4.6l-0.1-0.1c-1.2-0.9-1.8-2.3-1.7-3.8V128.4l160.6-92.7l8,4.6L66.2,133v243.5
		C66,377.9,66.6,379.3,67.8,380.3z"/>
	<path class="st4" d="M226.8,40.3v243.4c-0.2,4.2-2.5,8.1-6,10.4L72.2,379.9c-1.2,0.8-2.7,1-4,0.5l-0.3-0.2
		c-1.2-0.9-1.8-2.3-1.6-3.8V133L226.8,40.3z"/>
	<polygon class="st5" points="218.7,35.7 226.8,40.3 66.2,133 58.1,128.4 	"/>
	<path class="st6" d="M66.7,382.7l-1.8-1.1l-0.1-0.1c-1.2-0.9-1.8-2.3-1.7-3.8V132.6l164.6-95l2,1.1L65,133.7v245.2
		C64.9,380.4,65.5,381.8,66.7,382.7z"/>
	<path class="st7" d="M66.7,382.7l-1.8-1.1l-0.1-0.1c-1.2-0.9-1.8-2.3-1.7-3.8V132.6l164.6-95l2,1.1L65,133.7v245.2
		C64.9,380.4,65.5,381.8,66.7,382.7z"/>
	<path class="st6" d="M229.7,38.7v245.2c-0.2,4.2-2.5,8.1-6,10.4L71,382.4c-1.2,0.8-2.7,1-4,0.5l-0.3-0.2c-1.2-0.9-1.8-2.3-1.6-3.8
		V133.7L229.7,38.7z"/>
	<path class="st8" d="M229.7,38.7v245.2c-0.2,4.2-2.5,8.1-6,10.4L71,382.4c-1.2,0.8-2.7,1-4,0.5l-0.3-0.2c-1.2-0.9-1.8-2.3-1.6-3.8
		V133.7L229.7,38.7z"/>
	<polygon class="st6" points="227.7,37.5 229.7,38.7 65,133.7 63.1,132.6 	"/>
	<polygon class="st9" points="227.7,37.5 229.7,38.7 65,133.7 63.1,132.6 	"/>
	<path class="st6" d="M69.8,384.5l-1.8-1.1l-0.1-0.1c-1.2-0.9-1.8-2.3-1.7-3.8V134.4l164.6-95l2,1.1l-164.6,95v245.2
		C68.1,382.2,68.7,383.6,69.8,384.5z"/>
	<path class="st7" d="M69.8,384.5l-1.8-1.1l-0.1-0.1c-1.2-0.9-1.8-2.3-1.7-3.8V134.4l164.6-95l2,1.1l-164.6,95v245.2
		C68.1,382.2,68.7,383.6,69.8,384.5z"/>
	<path class="st6" d="M232.8,40.5v245.2c-0.2,4.2-2.5,8.1-6,10.4L74.2,384.2c-1.2,0.8-2.7,1-4,0.5l-0.3-0.2
		c-1.2-0.9-1.8-2.3-1.6-3.8V135.5L232.8,40.5z"/>
	<polygon class="st6" points="230.8,39.4 232.8,40.5 68.2,135.5 66.2,134.4 	"/>
	<polygon class="st9" points="230.8,39.4 232.8,40.5 68.2,135.5 66.2,134.4 	"/>
	<path class="st3" d="M79.8,387.2l-7.9-4.6l-0.1-0.1c-1.2-0.9-1.8-2.3-1.7-3.8V135.4l160.6-92.7l8,4.6L78.2,140v243.4
		C78.1,384.9,78.7,386.3,79.8,387.2z"/>
	<path class="st1" d="M238.8,47.3v243.4c-0.2,4.2-2.5,8.1-6,10.4L84.2,386.9c-1.2,0.8-2.7,1-4,0.5l-0.3-0.2
		c-1.2-0.9-1.8-2.3-1.6-3.8V140L238.8,47.3z"/>
	<polygon class="st5" points="230.8,42.6 238.8,47.3 78.2,140 70.2,135.4 	"/>
	<path class="st10" d="M90.3,142.3c2.2-1.3,4-0.3,4,2.3c-0.2,2.8-1.6,5.4-4,6.9c-2.2,1.3-4,0.2-4-2.3
		C86.4,146.4,87.9,143.8,90.3,142.3z"/>
	<path class="st11" d="M79,110.3c-4.4-2.5-8.6-2.9-11.8-1s-5,5.7-5,10.7c0,1.9,0.3,3.8,0.7,5.7l2.7-1.6c-0.3-1.4-0.4-2.7-0.4-4.1
		c0-4,1.3-6.8,3.5-8.2s5.4-1,8.8,1c7.6,4.4,13.8,15.2,13.8,24c0.1,1.9-0.3,3.8-1.1,5.5c-0.5,1.1-1.4,2-2.4,2.6l-0.2,0.1
		c-0.7,1.1-1.1,2.2-1.3,3.5c1.1-0.2,2.1-0.5,3-1.1c2-1.2,3.5-3.1,4.2-5.3c0.6-1.8,0.9-3.6,0.8-5.4C94.3,127.1,87.4,115.1,79,110.3z"
		/>
	<path class="st10" d="M109.8,131c2.2-1.3,4-0.3,4,2.3c-0.2,2.8-1.6,5.4-4,6.9c-2.2,1.3-4,0.2-4-2.3
		C105.9,135.1,107.4,132.6,109.8,131z"/>
	<path class="st11" d="M98.4,99c-4.4-2.5-8.6-2.9-11.8-1s-5,5.7-5,10.7c0,1.9,0.3,3.8,0.7,5.7l2.6-1.6c-0.3-1.4-0.4-2.8-0.4-4.1
		c0-4,1.3-6.8,3.5-8.2s5.4-1,8.8,1c7.6,4.4,13.8,15.2,13.8,24c0.1,1.9-0.3,3.8-1.1,5.5c-0.5,1.1-1.4,2-2.4,2.6l-0.2,0.1
		c-0.7,1.1-1.1,2.2-1.3,3.5c1.1-0.1,2.1-0.5,3-1c2-1.2,3.5-3.1,4.2-5.3c0.6-1.8,0.9-3.6,0.8-5.5C113.8,115.8,106.9,103.9,98.4,99z"
		/>
	<path class="st10" d="M129.3,119.8c2.2-1.3,4-0.2,4,2.3c-0.1,2.8-1.6,5.4-4,7c-2.2,1.3-4,0.2-4-2.3
		C125.4,123.9,126.9,121.3,129.3,119.8z"/>
	<path class="st11" d="M118,87.8c-4.4-2.5-8.6-2.9-11.8-1s-5,5.7-5,10.7c0,1.9,0.3,3.8,0.7,5.7l2.7-1.6c-0.3-1.4-0.4-2.8-0.4-4.1
		c0-4,1.3-6.8,3.5-8.2s5.4-1,8.8,1c7.6,4.4,13.8,15.2,13.8,24c0.1,1.9-0.3,3.8-1.1,5.5c-0.5,1.1-1.4,2-2.4,2.6l-0.2,0.1
		c-0.7,1.1-1.1,2.2-1.3,3.5c1.1-0.1,2.1-0.5,3-1c2-1.2,3.5-3.1,4.2-5.3c0.6-1.8,0.9-3.6,0.9-5.5C133.3,104.5,126.4,92.6,118,87.8z"
		/>
	<path class="st10" d="M148.8,108.5c2.2-1.3,4-0.2,4,2.3c-0.1,2.8-1.6,5.4-4,7c-2.2,1.3-4,0.3-4-2.3
		C144.9,112.7,146.4,110.1,148.8,108.5z"/>
	<path class="st11" d="M137.5,76.5c-4.4-2.5-8.6-2.9-11.8-1s-5,5.7-5,10.7c0,1.9,0.3,3.8,0.7,5.7l2.6-1.6c-0.3-1.4-0.4-2.8-0.4-4.1
		c0-4,1.3-6.8,3.5-8.2s5.4-1,8.8,1c7.6,4.4,13.8,15.2,13.8,24c0.1,1.9-0.3,3.8-1.1,5.5c-0.5,1.1-1.4,2-2.4,2.6l-0.2,0.1
		c-0.7,1.1-1.1,2.2-1.3,3.5c1.1-0.1,2.1-0.5,3-1c2-1.2,3.5-3.1,4.2-5.3c0.6-1.8,0.9-3.6,0.9-5.5C152.8,93.3,145.9,81.4,137.5,76.5z"
		/>
	<path class="st10" d="M168.3,97.3c2.2-1.3,4-0.2,4,2.3c-0.1,2.8-1.6,5.4-4,7c-2.2,1.3-4,0.3-4-2.3
		C164.4,101.4,165.9,98.8,168.3,97.3z"/>
	<path class="st11" d="M157,65.2c-4.4-2.5-8.6-2.9-11.8-1s-5,5.7-5,10.7c0,1.9,0.3,3.8,0.7,5.7l2.7-1.6c-0.3-1.4-0.4-2.7-0.4-4.1
		c0-4,1.3-6.8,3.5-8.2s5.4-1,8.8,1c7.6,4.4,13.8,15.2,13.8,24c0.1,1.9-0.3,3.8-1.1,5.5c-0.5,1.1-1.4,2-2.4,2.6l-0.2,0.1
		c-0.7,1.1-1.1,2.2-1.3,3.5c1.1-0.2,2.1-0.5,3-1c2-1.2,3.5-3.1,4.2-5.3c0.6-1.8,0.9-3.6,0.9-5.5C172.3,82,165.4,70.1,157,65.2z"/>
	<path class="st10" d="M187.8,86c2.2-1.3,4-0.2,4,2.3c-0.1,2.8-1.6,5.4-4,7c-2.2,1.3-4,0.3-4-2.3C183.9,90.2,185.4,87.6,187.8,86z"
		/>
	<path class="st11" d="M176.5,54c-4.4-2.5-8.6-2.9-11.8-1s-5,5.7-5,10.7c0,1.9,0.2,3.8,0.7,5.7l2.6-1.6c-0.3-1.4-0.4-2.7-0.4-4.1
		c0-4,1.3-6.8,3.5-8.2s5.4-1,8.8,1c7.6,4.4,13.8,15.2,13.8,24c0.1,1.9-0.3,3.8-1.1,5.5c-0.5,1.1-1.4,2-2.4,2.6l-0.2,0.1
		c-0.7,1.1-1.1,2.2-1.3,3.5c1.1-0.1,2.1-0.5,3-1c2-1.2,3.5-3.1,4.2-5.3c0.6-1.8,0.9-3.6,0.9-5.5C191.8,70.8,184.9,58.8,176.5,54z"/>
	<path class="st10" d="M207.3,74.7c2.2-1.3,4-0.2,4,2.3c-0.1,2.8-1.6,5.4-4,7c-2.2,1.3-4,0.3-4-2.3
		C203.4,78.9,204.9,76.3,207.3,74.7z"/>
	<path class="st11" d="M196,42.7c-4.4-2.5-8.6-2.9-11.8-1s-5,5.7-5,10.7c0,1.9,0.2,3.8,0.7,5.7l2.7-1.5c-0.3-1.4-0.4-2.7-0.4-4.1
		c0-4,1.3-6.8,3.5-8.2s5.4-0.9,8.8,1c7.6,4.4,13.8,15.2,13.8,24c0.1,1.9-0.3,3.8-1.1,5.5c-0.5,1.1-1.4,2-2.4,2.6l-0.2,0.1
		c-0.7,1-1.1,2.2-1.3,3.4c1.1-0.1,2.1-0.5,3-1c2-1.2,3.5-3.1,4.2-5.3c0.6-1.8,0.9-3.6,0.9-5.5C211.3,59.5,204.4,47.6,196,42.7z"/>
	<path class="st10" d="M226.8,63.5c2.2-1.3,4-0.2,4,2.3c-0.1,2.8-1.6,5.4-4,7c-2.2,1.3-4,0.3-4-2.3C222.9,67.6,224.4,65,226.8,63.5z
		"/>
	<path class="st11" d="M215.5,31.5c-4.4-2.5-8.6-2.9-11.8-1s-5,5.7-5,10.7c0,1.9,0.2,3.8,0.7,5.7l2.6-1.6c-0.3-1.4-0.4-2.7-0.4-4.1
		c0-4,1.3-6.8,3.5-8.2s5.4-0.9,8.8,1c7.6,4.4,13.8,15.2,13.8,24c0.1,1.9-0.3,3.8-1.1,5.5c-0.5,1.1-1.4,2-2.4,2.6l-0.2,0.1
		c-0.7,1.1-1.1,2.2-1.3,3.5c1.1-0.1,2.1-0.5,3-1c2-1.2,3.5-3.1,4.2-5.3c0.6-1.8,0.9-3.6,0.9-5.5C230.8,48.2,223.9,36.3,215.5,31.5z"
		/>
	<g class="st12">
		<path class="st13" d="M90.5,160.7l136-78.5c2.4-1.4,4.3-0.3,4.3,2.5v8.7c-0.2,3-1.8,5.8-4.3,7.4l-136,78.5
			c-2.4,1.4-4.3,0.3-4.3-2.5v-8.7C86.4,165.1,88,162.3,90.5,160.7z"/>
		<line class="st13" x1="230.8" y1="89" x2="86.2" y2="172.4"/>
	</g>
	<g class="st12">
		<path class="st13" d="M90.5,188.5l136-78.5c2.4-1.4,4.3-0.3,4.3,2.5v166.3c-0.2,3-1.8,5.8-4.3,7.4l-136,78.5
			c-2.4,1.4-4.3,0.3-4.3-2.5V195.9C86.4,192.9,88,190.2,90.5,188.5z"/>
		<line class="st13" x1="230.8" y1="116.8" x2="86.2" y2="200.3"/>
		<line class="st13" x1="230.8" y1="126.1" x2="86.2" y2="209.5"/>
		<line class="st13" x1="230.8" y1="135.3" x2="86.2" y2="218.8"/>
		<line class="st13" x1="230.8" y1="144.6" x2="86.2" y2="228.1"/>
		<line class="st13" x1="230.8" y1="153.9" x2="86.2" y2="237.3"/>
		<line class="st13" x1="230.8" y1="163.1" x2="86.2" y2="246.6"/>
		<line class="st13" x1="230.8" y1="172.4" x2="86.2" y2="255.9"/>
		<line class="st13" x1="230.8" y1="181.7" x2="86.2" y2="265.1"/>
		<line class="st13" x1="230.8" y1="191" x2="86.2" y2="274.4"/>
		<line class="st13" x1="230.8" y1="200.2" x2="86.2" y2="283.7"/>
		<line class="st13" x1="230.8" y1="209.5" x2="86.2" y2="293"/>
		<line class="st13" x1="230.8" y1="218.8" x2="86.2" y2="302.2"/>
		<line class="st13" x1="230.8" y1="228.1" x2="86.2" y2="311.5"/>
		<line class="st13" x1="230.8" y1="237.3" x2="86.2" y2="320.8"/>
		<line class="st13" x1="230.8" y1="246.6" x2="86.2" y2="330"/>
		<line class="st13" x1="230.8" y1="255.9" x2="86.2" y2="339.3"/>
		<line class="st13" x1="230.8" y1="265.1" x2="86.2" y2="348.6"/>
		<line class="st13" x1="230.8" y1="274.4" x2="86.2" y2="357.9"/>
	</g>
	<path class="st11" d="M92.3,199.3c-0.1-4.7-0.1-8.4,0-9.1c0-0.5,0.1-0.9,0.4-1.4c0,0,0,0,0.1-0.1s0.4,0.1,0.8,1.1
		c0.3,0.5,0.6,1.3,0.9,1.8s0.8,1.7,1.3,2.7c0.8,1.8,1.5,3.1,1.8,3.7l0.2,0.3v-1.5c0-0.8,0-2.8-0.1-4.3s-0.1-3.5-0.1-4.5
		c0-1.9,0-2.1,0.3-2.2s0.4-0.1,0.4,0.1s0.1,1.3,0.1,2.6s0,3.3,0.1,4.4c0.1,3.3,0.1,7.2,0,7.5c-0.1,0.6-0.4,0.8-0.7,0.6
		c-0.8-1.3-1.5-2.6-2.1-4c-0.3-0.8-0.8-1.8-1.1-2.3l-0.9-1.9c-0.4-0.8-0.5-1-0.5-0.9s0,6.4,0.1,8.8c0.1,2,0,2.7-0.2,3
		s-0.3,0.4-0.4,0.3S92.3,203.1,92.3,199.3z"/>
	<path class="st11" d="M100.3,197.3c-0.1-0.5-0.2-1-0.1-1.5c-0.1-0.9,0.1-1.8,0.4-2.6c0.3-0.8,0.7-1.5,1.2-2.2
		c0.4-0.6,1-0.9,1.7-0.9c0.7,0.1,1.3,0.6,1.4,1.4c0.1,0.9,0.2,1.9,0.1,2.8c-0.2,1.4-0.8,2.7-1.8,3.7c-0.3,0.3-0.7,0.5-1.1,0.6
		C101.2,198.8,100.6,198.3,100.3,197.3z M104.1,193.2c0-0.3,0-0.7-0.2-1c-0.1-0.4-0.4-0.7-0.8-0.9c-0.1,0-0.3,0-0.6,0.2
		c-0.5,0.3-0.9,0.8-1.1,1.4c-0.5,0.9-0.6,2-0.5,3c0,0.5,0.2,1,0.5,1.4c0.4,0.4,0.8,0.3,1.5-0.4C103.8,195.9,104.2,194.6,104.1,193.2
		L104.1,193.2z"/>
	<path class="st11" d="M107.1,191v-2.8l-0.1,0.1c-0.3,0.3-0.6,0.5-1,0.6c-0.3,0-0.5-0.1-0.4-0.3c0.1-0.4,0.3-0.6,0.9-1
		c0.2-0.1,0.4-0.3,0.6-0.5c0-0.3,0-0.7,0-1c0-1.6,0.1-4.1,0.2-4.4s0.1-0.3,0.2-0.4s0.1,0,0.2,0.1s0.2,0.8,0.3,3.2l0.1,1.8
		c0,0,0.2,0,0.5-0.2c0.6-0.3,0.7-0.3,0.8,0.1c0,0.1,0,0.3-0.1,0.4c-0.1,0.2-0.2,0.3-0.7,0.5c-0.2,0.1-0.4,0.3-0.6,0.4
		c-0.2,2-0.2,3.9-0.1,5.9c0,0.2,0,0.7,0.1,1.1c0,0.6,0,0.6-0.1,0.9s-0.4,0.5-0.6,0.4S107.2,194.7,107.1,191z"/>
	<path class="st11" d="M110.2,191.1c-0.1-2.1,0.5-4.2,1.7-5.9c0.4-0.6,1.2-1.2,1.7-1.2c0.5,0.1,0.9,0.6,0.8,1.2c0,0,0,0,0,0
		c-0.5,1.6-1.3,3-2.4,4.2c-0.7,0.9-0.9,1.1-0.8,1.4c0.1,0.5,0.4,1,0.7,0.9c1.1-0.5,2-1.3,2.5-2.3c0.2-0.3,0.2-0.4,0.4-0.4
		s0.3,0,0.3,0.1c-0.3,0.6-0.6,1.2-1,1.8c-0.9,1.3-1.5,1.8-2.2,1.9C110.8,193.1,110.3,192.6,110.2,191.1z M113.2,186.5
		c0.2-0.2,0.2-0.5,0.2-0.8c0-0.3,0-0.3-0.1-0.4c-0.1,0-0.2,0-0.3,0.1c-0.3,0.2-0.5,0.4-0.7,0.7c-0.7,1-1.1,2.1-1.2,3.3
		c0,0.1,0,0.1,0.3-0.1C112.1,188.4,112.7,187.5,113.2,186.5z"/>
	<path class="st11" d="M116.7,189.7c-0.4-0.1-0.6-0.3-0.5-0.6s0-0.3,0.2-0.4c0.2-0.1,0.5-0.2,0.7-0.1c0.5,0.1,1.1-0.1,1.5-0.4
		c0.5-0.2,0.7-0.7,0.7-1.2c0-0.4,0-0.5-0.2-0.7c-0.3-0.4-0.7-0.8-1.1-1.1c-0.4-0.2-0.7-0.6-0.8-1c-0.3-0.8-0.2-1.8,0.4-2.5
		c0.1-0.2,0.3-0.3,0.4-0.4c0.6-0.4,1.6-0.3,1.9,0.2c0.1,0.1,0.1,0.3,0,0.5c-0.1,0.4-0.4,0.4-0.9,0.2c-0.2-0.1-1-0.3-1,0.6
		s0.2,1,1,1.4c1,0.6,1.5,1.9,1.2,3.1c-0.3,1-1,1.8-2,2.2C117.7,189.8,117.2,189.8,116.7,189.7z"/>
	<path class="st11" d="M121.7,181.4c0-0.3,0.1-0.7,0.3-1c0.2-0.4,0.5-0.6,0.7-0.4c0.2,0.3,0.3,0.7,0.1,1.1c-0.1,0.3-0.4,0.5-0.7,0.6
		C121.9,181.7,121.8,181.6,121.7,181.4z M121.7,186.9c0-0.4,0.1-0.7,0.3-1c0.2-0.4,0.5-0.6,0.7-0.4c0.2,0.3,0.3,0.7,0.1,1.1
		c-0.1,0.3-0.4,0.5-0.7,0.6C121.9,187.2,121.8,187,121.7,186.9z"/>
	<path class="st11" d="M165.3,188.9c0-0.2-0.4-0.1-0.5-0.1c-1,0.6-1.9,1.4-2.6,2.3l-0.9,1c-0.8,0.8-1.2,0.9-1.4,0.2
		c0,0-0.3-0.2-0.4-0.2c-2.1,0-2.9,1.8-4.3,3c-0.5-1.7-2.2-0.1-3,1c-1.6,2.3-4.9,2.9-6.8,5c0-0.7-0.1-1.3-0.8-1.4
		c0-0.6-0.1-1.1-0.5-1.6c-0.1-0.1-0.2-0.1-0.3-0.1c-1.6,0.3-2.5,2.5-3.1,4c0.1-1.9,0.2-3.9,0.2-5.8c0-0.4-0.7-0.2-0.7,0.1
		c-0.1,3.1-1.3,5.4-3.1,7.8c-0.5,0.6-1,1.2-1.5,1.8c-0.7,0.6-1.6,1-2.5,1.3c-0.4,0.1-0.7,0.3-1,0.5c-0.3,0.2-0.6,0.4-0.9,0.6
		c-0.2,0.1-0.4,0-0.7,0.1c-0.7,0.5-1.2,1.1-1.6,1.8c-0.6-0.5-1-0.4-1.7,0.1c-0.5,0.4-1,1.2-1.5,1.5c-1.3,0.8-0.6-0.1-1.2-0.8
		c-0.9-0.9-1.8-0.1-2.6,0.6c-0.9,0.7-1.6,1.7-2.1,2.8c-0.2-0.9-0.6-1.6-1.5-1.4c-1.3,0.2-2.2,2.7-2.7,3.6c-0.6,1.3-1.5,2.4-2.6,3.3
		c-0.6,0.4-1.3,0.7-2,0.9c-0.2,0-0.3-0.1-0.6-0.1c-0.4,0.2-0.7,0.4-1,0.7c-0.7,0.4,0.3,0.8-1.1,0.4c-0.9-0.3-0.8-0.6-1.2-1.3
		c-0.1-0.1-0.3-0.1-0.4-0.1c-0.6,0.3-1.1,0.8-1.4,1.4c-0.6,0.7-1.9,3.3-2.9,3.3c-1.7,0.1-1.7-4.1-1.7-5.1c-0.1-2,0.2-4,0.3-6
		c0-0.2-0.5-0.2-0.5,0c-0.5,2.7-1.1,5.4-2,8c-0.9,2.5-2.2,4.8-2.3,7.5c0,0.2,0.3,0.2,0.3,0.1c0.2-2.8,1.7-5.3,2.6-7.9
		c0.5-1.3,0.8-2.7,1.2-4.1c-0.1,1.4-0.1,2.8,0,4.3c0.1,1,0.1,3.6,1.4,3.9c1,0.2,2.1-1.3,2.6-1.9c0.4-0.4,1.2-2.2,1.8-2.4
		c1.1-0.4,0.9,0.9,1.5,1.4s1,0.2,1.6-0.2c0.8-0.6,0.4-1.1,1.8-1.4c0.3-0.1,0.7,0.2,1.1,0c1.2-0.6,2.2-1.5,3-2.6
		c0.6-1.1,1.2-2.2,1.7-3.4c0.2-0.3,0.7-1.6,1.1-1.6l1.3,1.4c0,0.5,0,0.9,0,1.4s0.7,0.2,0.7-0.1c0.1-1.8,1.1-4.7,3.3-4.8
		c1.3,0,0.8,0.6,1.6,1.3c0.2,0.1,0.4,0.1,0.5,0c0.6-0.6,2.2-3.2,3.3-2.2c0.2,0.1,0.4,0.1,0.6-0.1c0,0,0,0,0,0
		c0.3-0.3,1.4-2.3,1.8-1.7c0.1,0.2,0.4,0.1,0.5,0c0.6-0.5,1.2-1,1.9-1.3c0.2-0.1,0.5-0.1,0.8-0.2c1.2-0.6,2.2-1.5,2.9-2.5
		c1.2-1.4,2.2-3,2.9-4.7c-0.1,1.6-0.2,3.2-0.3,4.8c-0.4,2.5-0.6,5.1-0.5,7.7c0,0.4,0.7,0.2,0.7-0.1c0.1-2.6,0.3-5.1,0.5-7.7
		c0.1-0.4,0.2-0.8,0.3-1.3c0.4-1.3,0.8-3,1.8-3.9c0.8-0.7,1.2-0.3,1.3,0.3c-0.3,0.4-0.4,0.9-0.3,1.3c0.1,0.3,0.5,0.1,0.6,0
		c0-0.1,0.1-0.2,0.1-0.2c0.3-0.2,0.5-0.1,0.3,0.3s0,0.6-0.1,0.9s0.6,0.2,0.7,0c0.9-1.8,3.8-3.4,5.6-4.3c0.4-0.1,0.8-0.3,1.1-0.6
		c0.1-0.1,2.4-3.6,2.6-1.8c0,0.2,0.3,0.3,0.5,0.2c1-0.7,1.5-2,2.6-2.5c2.7-1.4,0.9,0.1,2.4,0.4c0.9,0.1,4.4-4.1,4.4-4.3
		c0.1,0.3,0.7,0.1,0.6-0.2L165.3,188.9z"/>
	<path class="st11" d="M200.1,167.2c-0.7,1.2-1.6,2.3-2.6,3.3c-0.4,1.2-1.6,1.6-3.3,1c-0.1-0.1-0.2-0.3-0.4-0.4
		c-0.2,0-0.4-0.1-0.6-0.1c-1.3,0.1-2,3.5-3.1,2.1c-0.1-0.1-0.4-0.1-0.5,0c-0.8,0.5-1.4,1.1-1.9,1.9c-0.2,0.3-0.3,0.9-0.5,1.1
		l-0.1,0.1c-0.1,0-0.2,0-0.3,0.1c-0.1,0-0.6-0.2-0.8-0.1c-0.4,0.1-0.6,0.5-0.8,0.8c-0.4,0.7-0.7,1.4-0.9,2.1
		c-0.1,0.1-0.1,0.2-0.2,0.3c0.1-0.3,0-0.6-0.3-0.7c-1-0.7-1.9,0.9-2.5,2c-0.2-1.1-0.6-2.3-1.9-1.7c-1.6,0.6-2.1,2-2.6,3.4
		c0-2-0.3-4.9-1.9-4.6c-1.1,0.2-2.2,2.3-2.7,3.1c-0.7,1.1-1,2.8-1.9,3.8c-0.2,0.2,0.3,0.3,0.4,0.2c1.2-1.2,1.8-3.5,2.8-4.9
		c0.4-0.6,1.1-1.8,2.1-0.9c0.3,0.3,0.2,1.4,0.3,1.8c0.1,1.2,0.1,2.3,0.3,3.5c0,0.4,0.6,0.2,0.7-0.1c0.4-0.7,0.5-1.5,0.8-2.2
		c0.2-0.7,0.6-1.4,1.2-1.8c1.3,0,1.9,0.5,1.9,1.6c0.1,0.3,0.5,0.2,0.7,0c0.4-0.5,1.8-3.2,2.2-1.7c0.1,0.2,0.2,0.2,0.4,0.2
		c1-0.2,1.8-4.3,2.7-3c0.1,0.1,0.4,0.1,0.5,0c1-0.7,1.5-4.4,3-2.7c0.1,0.1,0.2,0.1,0.3,0.1c0.8-0.3,1-1,1.5-1.6s0.2-0.6,1-0.8
		c1.4-0.5,0.2,0,1.1,0.1c0.6,0.1,0.8,0.4,1.4,0.3c0.8-0.1,1.6-0.5,2.1-1.1c0.6-0.7,1.1-1.6,1.7-2.4c0.5-0.5,1-1.2,1.3-1.9
		C200.7,167,200.2,167,200.1,167.2z"/>
	<path class="st11" d="M221.9,157.3c-0.5,0-1,0.2-1.4,0.4c-1.2,0.6-2.3,1.6-3.4,2.3c-0.6,0.4-1.1,0.9-1.7,1.3
		c-1.5,0.9-1.9-0.2-2.8-1.2c-0.1-0.1-0.2-0.1-0.4,0c-1.2,0.3-1.2,1.3-2.1,1.9c-0.6,0.4-0.6,0.5-1.1-0.3c-0.3-0.4-0.3-0.9-0.7-1.3
		c-0.1-0.1-0.4-0.1-0.5,0c-1.1,0.7-1.8,1.9-2.7,2.8s-2,3.1-3.4,3.6c-0.3,0.1,0,0.3,0.2,0.3c1-0.2,1.5-1,2.1-1.8s1.3-1.5,2-2.2
		c0.3-0.4,1-1.5,1.3-1.6c1.4-0.4,0.9,2.8,2.7,1.6c0.5-0.3,0.6-1.1,1-1.4c1.4-1,1.3-0.3,2,0.3s0.9,1.1,1.8,0.9
		c0.2-0.1,0.4-0.3,0.6-0.4c0.2-0.2,0.3-0.3,0.4-0.5c0.8-0.7,1.7-1.3,2.7-1.6c1.1-0.7,2.1-1.9,3.3-2.2
		C222.2,157.8,222.4,157.2,221.9,157.3z"/>
	<path class="st11" d="M139.6,223.4c-0.5,1.8-3.1,4.1-4.6,1.9c-0.6-1-0.3-3.1-0.3-4.3v-5.3c0-1.3,0-2.6,0-4c0-0.5-0.8-0.3-0.8,0.1
		v2.6c0,4.2-0.4,8.2-2.3,12.2c-0.4,1.1-1,2.1-1.6,3c-1.3,1.4-2.4,1.2-3.2,0.6c0.2-0.3,0.3-0.6,0.5-0.9c0.3-0.5,1.2-1.5,0.9-2.2
		c-0.4-1-2.2-0.9-2.7-0.1c-0.5,1-0.3,2.3,0.4,3.2c-0.6,0.9-1.4,1.8-2.4,0.9c-0.2-0.1-0.4-0.1-0.6,0.1c-0.5,0.6-0.7,1.4-1.2,1.9
		c-0.6,0.8-0.7,2-1.9,2c-0.3,0-0.5-0.1-0.7-0.2c-0.6-0.5,0.2-1.7,0.3-2.3c0.2-0.9,0.1-1.8-0.3-2.6c-0.1-0.2-0.3-0.2-0.5-0.1
		c-1.8,0.8-2.7,2.8-2.3,4.6c0.1,0.4,0.6,0.9,0.4,1.1s-1,0.3-1.3,0.2c-0.5-0.2-0.9-0.5-1.3-0.9c-0.9-1-2.4,3-2.7,3.5
		c-0.7,1.3-1.2,2.5-2.4,3.3c-0.2,0.2-0.5,0.2-0.8,0.2c-0.6-0.1-0.4-0.8-0.5-1.2c0,0.2-0.1-1,0-0.9c0-0.2-0.3-0.2-0.4-0.1
		c-0.7,0.2-0.8,0.6-1.2,1.3c-0.2,0.3-0.5,0.9-0.8,1.2c-0.2,0.5-0.6,0.9-1.1,1.1h-0.6c-0.7,0.5-1.2,1.2-1.9,1.7
		c-1.1,0.7-2.1,1.2-2.2-0.6c0-0.6-0.1-1.1-0.2-1.7c-0.1-0.3-0.5-0.1-0.6,0c-0.7,1-1.3,2-1.7,3.1c-0.3,0.7-2.2,5.4-3,2.2
		c-0.2-1,1-2.8,1.4-3.7c0.8-1.7,0.9-2.2,3.4-2.4c0.3,0,1.2,0.1,1.4,0.1s0.2-0.3,0-0.3c-1.7,0-2.7-0.9-4.1,0.4
		c-1,0.9-1.3,2.3-1.8,3.4c-0.6,1-1,2.1-1,3.2c0.1,1.1,0.8,1.9,1.9,1.3c0.7-0.4,1.1-1.4,1.4-2c0.7-1.4,1.3-2.9,2.1-4.3
		c0.1,1.1,0,2.1,0.8,2.9c0.1,0.1,0.2,0.1,0.4,0.1c0.9-0.5,1.8-1.1,2.6-1.8c0.7-0.6,1.8-0.7,2.4-1.3c0.6-0.7,1.1-1.5,1.6-2.4
		c0.2-0.2,0.4-0.5,0.5-0.7c0,0.4,0,0.7,0,1.1c0.3,1.4,1.4,1.3,2.4,0.6c0.8-0.7,1.5-1.6,2-2.6c0.7-1.2,1.2-3,2.2-4.1
		c0.5,1.2,1.9,1.7,3.1,1.2c0.3-0.1,0.5-0.3,0.7-0.5c0,0,0.1-0.1,0.2-0.1c1.2,0.4,2.6,0.1,3.5-0.9c0.5-0.5,0.8-1,1.1-1.6
		c0.2-0.4,0.4-0.8,0.6-1.1c0.3-0.5,0.6-0.6,0.9-0.1c0.8,0,0.9,0.3,1.6-0.2c0.5-0.3,0.8-0.7,1.1-1.2c0.5,0.5,1.2,0.7,1.9,0.7
		c2.5-0.3,3.9-4.5,4.8-6.3c0.3-0.8,0.6-1.6,0.8-2.4c-0.1,1.2,0,2.6,0.7,3.4c2.2,2.4,5.1-0.4,5.7-2.7
		C140.6,222.9,139.8,223,139.6,223.4z M117.1,232.7c0.2-1.2,1.9-2.9,1.6-0.8c-0.1,0.5-0.2,0.9-0.3,1.3c-0.1,0.3-0.2,0.6-0.3,0.9
		c0,0.1,0,0.1-0.1,0.2C117.1,234.5,116.8,234.2,117.1,232.7L117.1,232.7z M125.8,227.8c0-0.3,0.1-0.6,0.4-0.7c0.1,0,0.2,0,0.3,0
		c0.2,0,0.3,0,0.5,0.1c0.2,0.1,0.3,0.3,0.3,0.6c0,0.3-0.1,0.7-0.3,0.9l-0.5,0.8l-0.1,0.1c0,0-0.3-0.8-0.4-0.8
		c-0.1-0.3-0.1-0.5-0.1-0.8C125.8,227.9,125.8,227.9,125.8,227.8L125.8,227.8z"/>
	<path class="st11" d="M182,196.6h-0.3c-0.1,0-0.2,0.1-0.3,0.2c-0.6,1.4-1.4,2.6-2.4,3.7c-2.6,2.6-2.5-1.2-2.6-2.5
		c0-0.3-0.4-0.3-0.5-0.1c-1.1,0.8-2,1.8-2.4,3.1c-0.1,0.3-1,2.3-1.2,2.2c0.3,0.1-0.1-1.7-0.3-2s-0.3-0.1-0.4-0.1
		c-2.4,1.1-4.2,3.2-4.9,5.8c-0.3-0.3-0.7-0.3-1.2,0s-1.1,1.8-1.6,1.9c0,0-0.6-0.7-0.8-0.8c-1.2-0.3-2.7,1.5-3.4,2.2
		c-1.9,1.9-0.9-0.9-2.6-1c-0.1,0-0.3,0-0.4,0.1c-0.8,1.4-1.6,2.7-2.6,4c-0.9,1.1-1.6,1.5-2-0.2c-0.3-1.2,0.8-2.5,0.9-3.7
		c0-0.3-0.4-0.3-0.6-0.1c-2.1,3-3.6,6.2-6.1,8.9c-0.2,0.2,0.3,0.3,0.4,0.2c2.2-2.1,3.6-4.7,5.1-7.2c-0.5,1.6-1.1,3.6,0.2,4.1
		s2.4-1.6,2.9-2.3c0.5-0.9,1-1.8,1.6-2.6c0.6-0.6,0.2-0.6,0.9,0.2c0.3,0.3,0.3,0.8,0.6,1c0.3,0.3,0.8,0.3,1.2,0.1
		c0.6-0.3,3-4.8,3.8-2.3c0.1,0.1,0.3,0.2,0.4,0.1c0.6-0.2,2.3-3,2.8-1.5c0.1,0.3,0.6,0.1,0.6-0.1c0.1-2,1.2-3.3,2.5-4.6
		c0.5-0.6,1.1-1.7,1.9-0.7c0,0.4,0.1,0.8,0.1,1.3c0.1,0.2,0.3,0.2,0.5,0.1c1.8-0.8,2-3.7,3.5-5.1c0.1,1.5,0,3.7,2.1,3.4
		c0.8-0.2,1.5-0.8,1.9-1.5c0.5-0.7,0.9-1.3,1.4-2c0.1-0.1,0.9-1.5,0.9-1.6C182.5,196.9,182.3,196.6,182,196.6z"/>
	<path class="st11" d="M215.6,178.5c-0.5-0.1-1.1,0.1-1.5,0.5c-0.4,0.3-0.6,0.8-1,1.2c-2,1.8-3-0.2-3.2-2c-0.1-0.4-0.6-0.2-0.7,0
		c-0.8,1.3-0.5,2.6-1.5,4c-0.8,1-3.8,4.6-4.3,1.6c-0.1-0.3-0.5-0.2-0.6-0.1c-0.8,0.8-1.2,1.9-2,2.8c-0.4,0.5-1.7,1.9-2.1,1.9
		c-1.1-0.1-1.2-1.8-1.2-2.5c0-0.3-0.4-0.2-0.6-0.1c-0.4,0.4-3.6,7.1-4.5,6.4c-0.2-0.2-0.8,0.2-0.5,0.4c1.7,1.3,3.8-3.4,4.9-5.6
		c0,1.2,0.1,2.4,1.6,2.1c2.1-0.4,3.2-2.8,4.4-4.5c0.5,1.3,1.6,1.7,2.9,0.7c1.2-1,2.2-2.1,2.9-3.4c0.4-0.7,0.6-1.5,0.7-2.3
		c0.3,1.1,0.9,2.1,2.2,2.1c1.9,0.1,2.1-2.6,3.9-2.7C215.8,179,216,178.5,215.6,178.5z"/>
	<path class="st11" d="M123.8,248.6c0.6-0.8,1.1-1.4,2.2-1.4c0.1,0,0.2,0,0.3,0.1c0.1,0,0.1,0.1,0.2,0.2c0.4,0.6,1,1.1,1.7,1.2
		c1,0.1,2.8-1.5,4-3.2c1,0.4,2.8-1,3.5-1.7c0.4-0.4-0.2-0.7-0.5-0.4c-0.4,0.9-1.3,1.4-2.2,1.4c-0.1,0-0.1,0-0.1-0.1
		c0.1-0.7,1.6-2.4,0.4-2.9s-1.8,1.5-1.7,2.2c0,0.3,0.1,0.7,0.2,1c-0.3,0.5-0.6,0.9-0.9,1.4c-0.4,0.4-0.7,0.7-1.1,1
		c-0.2,0.2-0.4,0.4-0.7,0.5c-0.4,0.1-0.9,0-1.3-0.3c-0.7-0.5,0.5-1.3,0.8-1.7c0.5-0.6,0.9-1.2,1.2-1.9c0.4-1,0.7-2.3-0.8-2.4
		c-2,0-3.1,2.8-2.7,4.9c-0.4,0-0.8,0.1-1.2,0.3c-0.7,0.4-1.3,1-1.7,1.6c-0.8,1-1.2,1.6-1.2-0.1c0-0.3-0.5-0.3-0.6,0
		c-0.6,1.8-1.5,3.4-2.6,4.9c-0.7,0.8-1.7,1.7-2.5,1.3c0.8-1.2,1.4-2.6,1.8-4c0.2-1,1-4.1-0.9-4.3c-1.5-0.1-2,3.1-2.2,4
		c-0.4,1.4-0.2,3,0.3,4.3l0.1,0.2c-0.3,0.5-0.7,1-1.1,1.4c-0.7,0.7-1.7,1.8-2.8,1.8c-0.2,0-0.4-0.1-0.6-0.2
		c-0.5-0.6,0.7-1.7,0.9-2.2c0.4-0.8,0.5-1.8,0.4-2.7c0-0.1-0.1-0.2-0.3-0.2h-0.3c-0.2,0-0.3,0.1-0.4,0.2c-0.9,1.3-1.4,2.9-1.3,4.5
		l-0.7,0.8c-0.6,0.7-1.8,2.8-2.8,1.1c-0.1-0.1-0.2-0.1-0.3-0.1c-0.6,0.1-0.7,0.4-1.1,0.9s-0.8,1.8-1.8,0.9c0,0,0-1.3-0.1-1.4
		s-0.5-0.1-0.6,0c-0.9,1.1-1.4,2.8-2.3,3.8c0.2-0.8,0.4-1.5,0.7-2.3c0.1-0.4-0.5-0.4-0.6,0c-0.8,2.2-1.6,4.5-3.3,6.2
		c-0.5,0.9-1.6,1.2-2.6,0.8c-0.6-1-0.5-2.3,0.3-3.2c0.4-1,1.1-1.8,2-2.5c0.9-0.4,1.3-0.3,1.2,0.3c0,0.3,0.5,0.2,0.5,0
		c0.1-1.2-1-1.1-1.9-0.7c-1.5,0.7-3.4,3.6-3.3,5.3c0.1,1.5,1.7,1.9,2.9,1.4c1.7-0.6,2.8-2.4,3.6-4.3c0.1,0,0.3,0,0.4-0.1
		c1.2-0.9,1.7-2.5,2.5-3.8c0,1-0.1,1.9,1.2,1.7c0.9-0.2,1-0.9,1.5-1.5c0.9-1,0.3-0.5,1.2,0c1.2,0.7,2-0.7,2.7-1.5l1-1.1
		c0,0.1,0.1,0.2,0.2,0.3c1.1,1.4,2.6,0,3.5-0.9c0.7-0.7,1.4-1.4,2-2.2c1.9,1.7,4.4-3,5.6-5.5c0,0.3,0.3,0.6,0.7,0.6
		c0.1,0,0.2,0,0.2-0.1C123,250.2,123.6,249,123.8,248.6z M111.2,255.6c-0.1,0.1-0.1,0.3-0.2,0.4c-0.2,0.3-0.3,0.4-0.3,0
		c0-0.7,0.1-1.3,0.4-1.9c0.1-0.2,0.2-0.5,0.4-0.6c0.1-0.1,0.2-0.1,0.3,0c0,0,0,0.1,0,0.1c0,0.2,0,0.4,0,0.6c-0.1,0.3-0.2,0.7-0.3,1
		L111.2,255.6z M115.9,253.9c-0.2-0.6-0.3-1.2-0.3-1.8c0-1.5,0.2-3,0.8-4.4c0-0.1,0.1-0.2,0.1-0.3c0.2-0.2,0.5-0.3,0.7-0.1
		c0.2,0.1,0.4,0.3,0.5,0.6c0.1,0.2,0.1,0.5,0.1,0.8c0,0.9-0.1,1.7-0.3,2.6c-0.3,0.7-0.6,1.4-1,2.1c-0.1,0.3-0.3,0.5-0.4,0.7
		L115.9,253.9z M127.1,246.2c0,0-0.1-0.1-0.1-0.1c0-0.1,0-0.2,0-0.3c0-0.7,0.1-1.5,0.3-2.2c0.2-0.7,0.7-1.4,1.5-1.3
		c0.1,0,0.2,0,0.3,0.1c0.8,0.5,0,1.7-0.3,2.2c-0.3,0.4-0.5,0.7-0.8,1C127.8,245.8,127.4,246.4,127.1,246.2L127.1,246.2z"/>
	<path d="M138.6,242.6c-0.4,0-0.6,0.6-0.1,0.6S139.1,242.6,138.6,242.6z"/>
</g>
<g id="freepik--post-it--inject-1--inject-2">
	<polygon class="st6" points="184.1,372.5 289.7,311.5 391.2,370.2 285.6,431.1 	"/>
	<polygon class="st14" points="184.1,372.5 289.7,311.5 391.2,370.2 285.6,431.1 	"/>
	<polygon class="st6" points="184.1,372.5 171.9,365.5 277.5,304.5 289.7,311.5 	"/>
	<polygon class="st7" points="184.1,372.5 171.9,365.5 277.5,304.5 289.7,311.5 	"/>
	<polygon class="st6" points="171.9,365.5 171.9,379.6 285.6,445.2 285.6,431.1 	"/>
	<polygon class="st15" points="171.9,365.5 171.9,379.6 285.6,445.2 285.6,431.1 	"/>
	<polygon class="st6" points="285.6,431.1 391.2,370.2 391.2,384.3 285.6,445.2 	"/>
	<path class="st6" d="M371.5,349.4L371.5,349.4l-81.9-37.8l-105.6,61l101.6,46.9l91.4-52.8c5.6-3.2,11-8.7,10.7-15.8
		C384.5,352.4,379.4,353,371.5,349.4z"/>
	<path class="st16" d="M371.5,349.4L371.5,349.4l-81.9-37.8l-105.6,61l101.6,46.9l91.4-52.8c5.6-3.2,11-8.7,10.7-15.8
		C384.5,352.4,379.4,353,371.5,349.4z"/>
	<g class="st17">
		<path class="st11" d="M295.7,332.5c-0.5,0.5-0.8,1.2-0.8,1.9c-0.5,2.6-1.7,4-4.9,6c-1.5,0.9-1.7,1.7-2.6,2.7
			c-2.2,2.4-3.2,0.6-5.3-0.3c-0.6-0.2-1.3,0.1-1.2,0.5c0.5,1.6,3.2,6.1-1.4,6.3c-2.4,0.1-3.1-1.2-5.1-1.9c-2.2-0.8-1,4-0.8,4.8
			c0.2,0.9,0.3,1.9,0.3,2.8c0.1,1.2-0.3,2.3-1.2,3.1c-0.5,0.3-1.1,0.5-1.7,0.5c-1.6,0.2-3.3,0.1-4.8-0.4c0.3-0.6,0.9-1,1.1-1.7
			c0.3-0.7,0.4-1.5,0.3-2.3c-0.2-1.7-1.1-3.3-2.3-4.5c-1.1-1-4.2-2.5-6.3-1.5s-1,4-0.5,5.2c0.8,1.7,2.8,3.5,5.1,4.8
			c-1.3,0.6-2.6,1-4,1.2c-2.3,0.4-4.1,0.2-4.8,1.7c-0.4,0.8,0.3,2.1-0.5,2.8c-1.5,1.2-3-0.1-4.3,0.1c-1.7,0.2-2.2,0.5-2.3,1.6
			c0,0.4,0.5,0.9,0.4,1.2l0.3,0.4c-0.8,0.1-1.6,0-2.3-0.3c-0.3-0.1-2-0.7-2-0.7c-0.4-0.1-0.9,0-1.1,0.3c-0.8,1.6-0.2,3.3,0.1,4.9
			c-2.5-3.4-4.2-6.8-8.9-9.7c-2.6-1.5-7-3.5-10.2-1.4c-4.8,3.2-3.2,11.8,3.4,13.9c0.3,0,0.6,0,0.8-0.2l0.5-0.5
			c0.5-0.4-0.3-1-0.9-0.5c-1.2,1-4.2-4.4-4.3-4.7c-0.5-1.9-0.7-4.3,0.7-6.1c2.9-3.9,9.2,0.4,11.6,2.4c3.6,3,4.6,6.4,7.5,9.6
			c0.5,0.5,1.6,0.5,1.7-0.1c0.4-2.1-1-4.2-0.6-6.3c1.8,0.8,4.8,2.3,5.9,0.8c0.6-0.7-0.6-1.6-0.3-2.4c0.5-1.2,0.4-0.5,2.1-0.2
			c0.6,0.1,1.3,0.2,1.9,0.1c0.6-0.1,1.2-0.4,1.6-1c1.4-1.6-0.2-3.3,3.4-4.3c2-0.5,3.7-0.3,5.5-1.3l0.5-0.3l1.1,0.5
			c3.1,1.3,6.8,1,8.4-1.1c0.9-1.3,1.2-2.9,1.1-4.4c0.1-1,0.1-2.1,0-3.1c-0.1-0.6-0.4-1.2-0.6-1.8c1.7,1,3.2,2.4,5.9,1.6
			c3.8-1.1,2.9-4.2,2.1-6.4c2.2,1.2,4.2,2.4,5.8-0.2c0.9-1.4,1.1-2.3,3-3.5c1-0.5,2-1.2,2.9-1.9c2-1.9,0.8-4,2.3-5.9
			C297.4,332.5,296.3,331.9,295.7,332.5z M262,355.8c-1.5-1.2-2.8-3.1-2.5-4.7c0.2-1,1.4-2.2,3.3-1.2c1.7,0.9,2.7,3.5,2.8,4.7
			c0.2,1.1-0.2,2.3-1.1,3C263.6,357.1,262.8,356.4,262,355.8z"/>
		<path class="st11" d="M316.6,347.9c-0.7,0.3-1.3,0.6-1.9,0.9c-1.2,0.7-2.7,1-4.1,1l0.1-0.2c0.5-1.7-0.9-3.8-2.6-5.2
			c-1.3-1.2-3.2-1.4-4.8-0.6c-1.9,1.1-0.6,3.2,0.5,4.3c1.2,1.1,2.6,1.9,4.2,2.3c-0.8,0.7-1.7,1.2-2.7,1.5c-1.6,0.6-2.4,0.6-2.5,2
			c0.1,0.7,0.2,1.4,0.4,2.1c0.3,1.4,0,3-3,2.8c-1.3-0.1-2.6-0.4-3.8-1c-0.6-0.2-1.2,0-1.2,0.4c-0.2,1.1,0.3,2.3,0.3,3.5
			c-0.2,3.2-4.7,0-6.1-1c-0.7-0.5-1.6,0-1.3,0.5c0.9,1.8,0.5,4,0,5.8c-0.3,0.9-0.6,2.7-2.1,3.4c-1.2,0.6-2.7,0.3-3.7-0.6
			c1.6-2.6,2-5.6,1.4-8.6c-0.4-1.4-1.4-3-4.2-2.2c-3.4,1-3,3.7-2.4,5.4c0.8,2,2,3.8,3.5,5.4c-1.9,3.2-5.4,5.8-9.9,8.5
			c-0.6,0.4-0.1,1.1,0.7,0.7c4.6-2.5,7.9-4.8,10.2-8.2c1.6,1.5,4.1,1.6,5.8,0.2c2.5-1.8,3.2-5.4,2.7-8.1c1.5,1.1,3.5,2.1,5.4,1.5
			c2.6-0.8,1.6-3.5,1.3-5.2c1.9,0.7,4.4,1.4,6.5,0.6c3-1.2,1-3.4,1.2-5c0.2-1.9,2.7-1.7,4.4-2.9c0.5-0.3,0.9-0.7,1.2-1.2
			c3,0.2,6.2-0.8,7.9-2.9c0.1-0.1,0.1-0.4-0.1-0.5c0,0,0,0,0,0l-0.3-0.3C317,346.8,316.2,347.6,316.6,347.9z M280,367
			c-0.8-1.2-2.9-4.5-1.7-6c0.1-0.2,0.3-0.3,0.5-0.4c0.6-0.3,1.3-0.4,2-0.1c1,0.4,1.7,1.4,1.6,2.4c0,0.8-0.1,1.7-0.2,2.5
			c-0.1,1.2-0.4,2.4-0.9,3.5C280.8,368.2,280.4,367.6,280,367z M304.7,347.4c-0.4-0.3-0.6-0.7-0.6-1.2c0-0.7,0.6-1.3,1.4-1.4
			c1.3-0.1,2,0.8,2.7,1.7c0.1,0.2,1.4,3,0.8,2.9C307.4,349.3,305.9,348.6,304.7,347.4L304.7,347.4z"/>
		<path class="st11" d="M276.6,390.1c0.7,3,3.2,5.6,5.1,8c2,2.6,4.4,4.9,7.1,6.8c0.8,0.5,1.4-0.3,1.1-0.7c-0.4-0.8-1-1.6-1.6-2.2
			c-0.2-0.2-0.7-0.1-1,0.1c-1.7-1.7-3-3.6-4.5-5.3c-1.7-2.1-4.3-4.7-5.1-7C277.6,389.1,276.5,389.7,276.6,390.1z"/>
		<path class="st11" d="M292.8,386.7c-1.7-0.4-3.5-0.4-5.3-0.1c0.6-0.8,1.9-1,2.7-0.3c0,0,0,0,0.1,0.1c0.6,0.4,1.4-0.5,0.8-0.8
			c-1.4-0.7-3.1-0.7-4.5,0.2c-1,0.4-1.7,1.2-1.9,2.3c0,0,0,0.1,0,0.1c0,0.7,0.1,1.5,0.2,2.2c0.4,2.6,2.3,4.7,4.4,6.9
			c1.6,1.9,4.1,3,6.7,2.7c6.6-0.7,5-6.8,2.9-9.1C297.4,389,296.2,387.4,292.8,386.7z M298.2,397.4c-4.6,4.3-9.6-2.9-10.8-4.6
			c-0.6-1-1-2.1-1-3.3c0-0.5,0.1-1,0.3-1.4C294.6,385.4,302.1,393.7,298.2,397.4z"/>
		<path class="st11" d="M300.3,382.4c-0.3-0.1-0.7,0-0.9,0.3c-0.1,0.3-0.3,0.6-0.4,0.9s0.2,0.3,0.5,0.3c0.3,0,0.5-0.1,0.7-0.4
			c0.1-0.2,0.3-0.3,0.4-0.5c0.2-0.1,0.2-0.4,0-0.5C300.5,382.5,300.4,382.4,300.3,382.4z"/>
		<path class="st11" d="M312.4,375.2c-2.1-0.8-4.6-0.5-6.4,0.9c-2,1.5-1.4,3.4-0.9,5.1c0.2,0.5,1.4,0.1,1.2-0.3
			c-0.3-0.7-0.5-1.5-0.6-2.4c1.6,1.9,3,4,4.7,5.9c-0.1,0.2-0.3,0.4-0.4,0.5c-0.4,0.4,0.5,1.2,1.1,0.6l0.2-0.2c1.4,1.6,3,3,4.8,4.1
			c0.8,0.6,1.8-0.3,1.1-0.8c-1.8-1.2-3.5-2.7-4.9-4.3c0.5-0.7,0.8-1.4,1.3-2.1c0.6-0.8,1.1-1.7,1.5-2.7
			C315.3,378,314.7,376.3,312.4,375.2z M312.4,376.5c2,1.5,1.1,3.2,0.1,4.8c-0.4,0.6-0.8,1.3-1.2,1.9c-1.6-1.9-3-3.9-4.5-5.7
			c-0.2-0.2-0.4-0.2-0.6-0.2c0-0.1,0.1-0.1,0.1-0.2C307.3,375.7,310.5,375.1,312.4,376.5L312.4,376.5z"/>
		<path class="st11" d="M340.6,368.5c-0.5,0.9-1.4,1.5-2.4,1.9c-2.4,0.9-4.6-0.2-6.2-1.3c-1.4-1-1.8-2.3-3-3.4
			c-0.9-1-2.3-1.5-3.7-1.3c-3.7,0.8-2,5.1-1.5,7.6c-1.1-0.7-2.4-1-3.7-1.1c-0.3,0-0.5,0.1-0.7,0.3c-0.6,0.9-0.8,2-0.4,3
			c-1.5-1.2-2.9-2.4-4.3-3.6c-0.6-0.5-1.6,0.2-1.1,0.6c2.4,2.1,4.8,4.3,7.5,6.3c0.7,0.5,1.4,0.1,1.1-0.7c-0.3-0.6-1.1-1.1-1.5-1.7
			c-0.5-0.6-0.5-1.4-0.1-2c0.3-0.3,0.7-0.5,1.1-0.5c0.4,0,0.8,0.1,1.2,0.2c0.6,0.2,2.6,1.7,2.5,0.3c0-1.4-0.2-2.7-0.4-4.1
			c-0.2-0.6-0.2-1.2,0-1.8c0.2-0.5,0.7-0.9,1.3-1c0.6-0.1,1.1,0.1,1.6,0.4c1.1,0.9,1.7,2.1,2.7,3c0.7,0.7,1.6,1.2,2.5,1.7
			c3.9,1.7,8.5-0.3,8.7-2.8C341.8,367.9,340.7,368.1,340.6,368.5z"/>
	</g>
</g>
</svg>
