<?xml version="1.0" encoding="utf-8"?>
<!-- Generator: Adobe Illustrator 24.0.2, SVG Export Plug-In . SVG Version: 6.00 Build 0)  -->
<svg version="1.1" id="圖層_1" xmlns="http://www.w3.org/2000/svg" xmlns:xlink="http://www.w3.org/1999/xlink" x="0px" y="0px"
	 viewBox="0 0 500 500" style="enable-background:new 0 0 500 500;" xml:space="preserve">
<style type="text/css">
	.st0{fill:#D1D3E3;}
	.st1{fill:#69A4A7;}
	.st2{opacity:0.7;fill:#FFFFFF;enable-background:new    ;}
	.st3{opacity:0.3;enable-background:new    ;}
	.st4{fill:#263238;stroke:#263238;stroke-linecap:round;stroke-miterlimit:10;}
	.st5{fill:#FFFFFF;stroke:#263238;stroke-linecap:round;stroke-miterlimit:10;}
	.st6{fill:#69A4A7;stroke:#263238;stroke-linecap:round;stroke-miterlimit:10;}
	.st7{opacity:0.3;}
	.st8{fill:none;stroke:#000000;stroke-linecap:round;stroke-miterlimit:10;}
	.st9{fill:none;stroke:#263238;stroke-linecap:round;stroke-miterlimit:10;}
	.st10{clip-path:url(#SVGID_2_);}
	.st11{opacity:0.5;enable-background:new    ;}
	.st12{fill:none;stroke:#263238;stroke-linecap:round;stroke-linejoin:round;}
	.st13{fill:#263238;}
	.st14{clip-path:url(#SVGID_4_);}
	.st15{opacity:0.26;fill:none;stroke:#FFFFFF;stroke-linecap:round;stroke-linejoin:round;enable-background:new    ;}
	.st16{fill:none;stroke:#FFFFFF;stroke-linecap:round;stroke-linejoin:round;}
	.st17{fill:#263238;stroke:#263238;stroke-linecap:round;stroke-linejoin:round;}
	.st18{fill:#FFFFFF;stroke:#263238;stroke-linecap:round;stroke-linejoin:round;}
	.st19{fill:none;stroke:#263238;stroke-width:0.5;stroke-linecap:round;stroke-linejoin:round;}
	.st20{fill:#FFFFFF;}
	.st21{clip-path:url(#SVGID_6_);}
	.st22{opacity:0.5;fill:#FFFFFF;enable-background:new    ;}
	.st23{clip-path:url(#SVGID_8_);}
	.st24{clip-path:url(#SVGID_10_);}
</style>
<rect class="st0" width="500" height="500"/>
<g id="freepik--background-simple--inject-2">
	<path class="st1" d="M377.7,228.7c0,0,3.5-11.8,15.2-36.6c16.1-34-7-72.3-52.9-92.2c-53.8-23.4-123-14.7-172.9-0.4
		c-41.3,11.8-58.3,42.7-65.7,73.4c-3.8,15.6-4.5,31.5-6.9,47.3c-3.2,21.1-10.1,42.5-16.1,63.1c-7.3,24.9-14.5,53.1-4.2,80
		c31.7,82.9,206.1,86.4,274.7,48.1c38.8-21.7,53.1-53.5,40-90.7C379.2,293.1,369.7,255.5,377.7,228.7z"/>
	<path class="st2" d="M377.7,228.7c0,0,3.5-11.8,15.2-36.6c16.1-34-7-72.3-52.9-92.2c-53.8-23.4-123-14.7-172.9-0.4
		c-41.3,11.8-58.3,42.7-65.7,73.4c-3.8,15.6-4.5,31.5-6.9,47.3c-3.2,21.1-10.1,42.5-16.1,63.1c-7.3,24.9-14.5,53.1-4.2,80
		c31.7,82.9,206.1,86.4,274.7,48.1c38.8-21.7,53.1-53.5,40-90.7C379.2,293.1,369.7,255.5,377.7,228.7z"/>
</g>
<g id="freepik--Notebook--inject-2">
	<path class="st3" d="M334.9,156.2c0.5,0.1,1.1-0.3,1.1-0.8c0.1-0.5-0.3-1.1-0.8-1.1c-0.2,0-0.4,0-0.6,0.1l-3.8,0.6l-0.1-0.7
		l3.8-0.6c0.5-0.2,0.7-0.8,0.5-1.3c-0.1-0.3-0.4-0.5-0.8-0.6l-3.8,0.6l-0.8-5.2l-11.4-10.3l-149.1,274l11.4,7.7l186.7-29.1
		l-2.1-13.4l3.8-0.6c0.5,0.1,1.1-0.3,1.1-0.8c0.1-0.5-0.3-1.1-0.8-1.1c-0.2,0-0.4,0-0.6,0.1l-3.8,0.6l-0.1-0.7l3.8-0.6
		c0.5-0.1,0.9-0.6,0.8-1.1c0,0,0,0,0,0c-0.1-0.5-0.6-0.9-1.1-0.8l-3.8,0.6l-1.1-7l3.8-0.6c0.5-0.3,0.7-0.9,0.4-1.3
		c-0.1-0.3-0.4-0.5-0.7-0.5l-3.8,0.6l-0.1-0.7l3.8-0.6c0.5-0.2,0.7-0.8,0.5-1.3c-0.1-0.3-0.4-0.5-0.8-0.6l-3.8,0.6l-1.1-7l3.8-0.6
		c0.5-0.1,0.9-0.5,0.8-1c0,0,0,0,0,0c-0.1-0.5-0.6-0.9-1.1-0.8l-3.8,0.6l-0.1-0.7l3.8-0.6c0.5-0.2,0.7-0.8,0.5-1.3
		c-0.1-0.3-0.4-0.5-0.8-0.6l-3.8,0.6l-1.1-7l3.8-0.6c0.5-0.2,0.7-0.8,0.5-1.3c-0.1-0.3-0.4-0.5-0.8-0.6l-3.8,0.6l-0.1-0.7l3.8-0.6
		c0.5-0.1,0.8-0.6,0.8-1.1c-0.1-0.5-0.5-0.9-1-0.8c0,0,0,0,0,0l-3.8,0.6l-1.1-7l3.8-0.6c0.5-0.1,0.8-0.6,0.8-1.1
		c-0.1-0.5-0.5-0.9-1-0.8c0,0,0,0,0,0l-3.8,0.6l-0.1-0.7l3.8-0.6c0.5,0.1,1.1-0.3,1.1-0.8c0.1-0.5-0.3-1.1-0.8-1.1
		c-0.2,0-0.4,0-0.6,0.1l-3.8,0.6l-1.1-7l3.8-0.6c0.5,0.1,1.1-0.3,1.1-0.8c0.1-0.5-0.3-1.1-0.8-1.1c-0.2,0-0.4,0-0.6,0.1l-3.8,0.6
		l-0.1-0.7l3.8-0.6c0.5,0.1,1.1-0.3,1.1-0.8c0.1-0.5-0.3-1.1-0.8-1.1c-0.2,0-0.4,0-0.6,0.1l-3.8,0.6l-1.1-7l3.8-0.6
		c0.5,0.1,1.1-0.3,1.1-0.8c0.1-0.5-0.3-1.1-0.8-1.1c-0.2,0-0.4,0-0.6,0.1l-3.8,0.6l-0.1-0.7l3.8-0.6c0.5-0.1,0.9-0.6,0.8-1.1
		c-0.1-0.5-0.6-0.9-1.1-0.8l-3.8,0.6l-1.1-7l3.8-0.6c0.5-0.1,0.9-0.6,0.8-1.1c-0.1-0.5-0.6-0.9-1.1-0.8l-3.8,0.6l-0.1-0.7l3.8-0.6
		c0.5-0.2,0.7-0.8,0.5-1.3c-0.1-0.3-0.4-0.5-0.8-0.6l-3.8,0.6l-1.1-7l3.8-0.6c0.5-0.2,0.7-0.8,0.5-1.3c-0.1-0.3-0.4-0.5-0.8-0.6
		l-3.8,0.6l-0.1-0.7l3.8-0.6c0.5-0.2,0.7-0.8,0.5-1.3c-0.1-0.3-0.4-0.5-0.8-0.6l-3.8,0.6l-1.1-7l3.8-0.6c0.5-0.2,0.7-0.8,0.5-1.3
		c-0.1-0.3-0.4-0.5-0.8-0.6l-3.8,0.6l-0.1-0.7l3.8-0.6c0.5,0.1,1.1-0.3,1.1-0.8c0.1-0.5-0.3-1.1-0.8-1.1c-0.2,0-0.4,0-0.6,0.1
		l-3.8,0.6l-1.1-7l3.8-0.6c0.5,0.1,1.1-0.3,1.1-0.8c0.1-0.5-0.3-1.1-0.8-1.1c-0.2,0-0.4,0-0.6,0.1l-3.8,0.6l-0.1-0.7l3.8-0.6
		c0.5-0.2,0.7-0.8,0.4-1.3c-0.1-0.3-0.4-0.5-0.7-0.5l-3.8,0.6l-1.1-7l3.8-0.6c0.5-0.2,0.7-0.8,0.4-1.3c-0.1-0.3-0.4-0.5-0.7-0.5
		l-3.8,0.6l-0.1-0.7l3.8-0.6c0.5-0.1,0.9-0.6,0.8-1.1c-0.1-0.5-0.6-0.9-1.1-0.8l-3.8,0.6l-1.1-7.1l3.8-0.6c0.5,0.1,1.1-0.3,1.1-0.8
		c0.1-0.5-0.3-1.1-0.8-1.1c-0.2,0-0.4,0-0.6,0.1l-3.8,0.6l-0.1-0.7l3.8-0.6c0.5-0.2,0.7-0.8,0.5-1.3c-0.1-0.3-0.4-0.5-0.8-0.6
		l-3.8,0.6l-1.1-7l3.8-0.6c0.5-0.2,0.7-0.8,0.4-1.3c-0.1-0.3-0.4-0.5-0.7-0.5l-3.8,0.6l-0.1-0.7l3.8-0.6c0.5-0.2,0.7-0.8,0.5-1.3
		c-0.1-0.3-0.4-0.5-0.8-0.6l-3.8,0.6l-1.1-7l3.8-0.6c0.5,0.1,1.1-0.3,1.1-0.8c0.1-0.5-0.3-1.1-0.8-1.1c-0.2,0-0.4,0-0.6,0.1
		l-3.8,0.6l-0.1-0.7l3.8-0.6c0.5,0.1,1.1-0.3,1.1-0.8c0.1-0.5-0.3-1.1-0.8-1.1c-0.2,0-0.4,0-0.6,0.1l-3.8,0.6l-1.1-7l3.8-0.6
		c0.5-0.2,0.7-0.9,0.4-1.3c-0.1-0.3-0.4-0.5-0.7-0.5l-3.8,0.6l-0.1-0.7l3.8-0.6c0.5,0.1,1.1-0.3,1.1-0.8c0.1-0.5-0.3-1.1-0.8-1.1
		c-0.2,0-0.4,0-0.6,0.1l-3.8,0.6l-1.1-7.1l3.8-0.6c0.5,0.1,1.1-0.3,1.1-0.8c0.1-0.5-0.3-1.1-0.8-1.1c-0.2,0-0.4,0-0.6,0.1l-3.8,0.6
		l-0.1-0.7l3.8-0.6c0.5-0.2,0.7-0.9,0.4-1.3c-0.1-0.3-0.4-0.5-0.7-0.5l-3.8,0.6l-1.1-7.1l3.8-0.6c0.5-0.2,0.7-0.9,0.4-1.3
		c-0.1-0.3-0.4-0.5-0.7-0.5l-3.8,0.6l-0.1-0.7l3.8-0.6c0.5-0.1,0.9-0.6,0.8-1.1c-0.1-0.5-0.6-0.9-1.1-0.8l-3.8,0.6l-1.1-7.1l3.8-0.6
		c0.5-0.1,0.9-0.6,0.8-1.1c-0.1-0.5-0.6-0.9-1.1-0.8l-3.8,0.6l-0.1-0.7l3.8-0.6c0.5-0.2,0.7-0.8,0.5-1.3c-0.1-0.3-0.4-0.5-0.8-0.6
		l-3.8,0.6l-1.1-7L334.9,156.2z"/>
	<path class="st4" d="M175.2,413.4l173.1-26.9l-38.6-248.4l-173.2,27c-4.4,0.7-7.4,4.8-6.8,9.2c0,0,0,0,0,0L166,406.6
		C166.7,411,170.8,414.1,175.2,413.4z"/>
	<path class="st5" d="M178.4,404.7l-9.9,1.5c-1.4,0.2-2.8-0.8-3-2.2l-3.5-22.3c-0.2-1.4,0.8-2.8,2.2-3l9.9-1.5l0,0L178.4,404.7
		L178.4,404.7z"/>
	<path class="st6" d="M173.9,375.7l-9.9,1.5c-1.4,0.2-2.8-0.8-3-2.2l-3.5-22.3c-0.2-1.4,0.8-2.8,2.2-3l9.9-1.5l0,0L173.9,375.7
		L173.9,375.7z"/>
	<path class="st5" d="M169.4,346.7l-9.9,1.5c-1.4,0.2-2.8-0.8-3-2.2l-3.5-22.3c-0.2-1.4,0.8-2.8,2.2-3l9.9-1.5l0,0L169.4,346.7
		L169.4,346.7z"/>
	<path class="st6" d="M164.9,317.7l-9.9,1.5c-1.4,0.2-2.8-0.8-3-2.2l-3.5-22.3c-0.2-1.4,0.8-2.8,2.2-3l9.9-1.5l0,0L164.9,317.7
		L164.9,317.7z"/>
	<path class="st5" d="M146.2,262.7l5.9-0.9L137.1,165l181.2-28.2l38.6,248.3l-181.2,28.2l-19.3-123.9l-5.9,0.9
		c-1.4,0.2-2.8-0.8-3-2.2l-3.5-22.3C143.8,264.3,144.8,262.9,146.2,262.7C146.2,262.7,146.2,262.7,146.2,262.7z"/>
	<polygon class="st1" points="165.6,217.9 166.2,231.4 233.8,220.4 232,209.1 	"/>
	<path class="st4" d="M308.2,152c0.3,1.9,2.1,3.3,4,3c1.9-0.3,3.3-2.1,3-4c-0.3-1.9-2.1-3.3-4-3c0,0,0,0-0.1,0
		C309.2,148.3,307.9,150.1,308.2,152z"/>
	<path class="st5" d="M312,150.9l10.6-1.6c0.5-0.1,0.8-0.6,0.8-1.1l0,0c-0.1-0.5-0.6-0.8-1.1-0.8l-10.5,1.6
		c-0.5,0.1-0.9,0.6-0.8,1.1l0,0C311,150.6,311.5,150.9,312,150.9z"/>
	<path class="st5" d="M312.4,153.5l10.6-1.6c0.5-0.1,0.9-0.6,0.8-1.1l0,0c-0.1-0.5-0.6-0.9-1.1-0.8l-10.6,1.6
		c-0.5,0.1-0.8,0.6-0.8,1.1l0,0C311.4,153.2,311.9,153.6,312.4,153.5z"/>
	<path class="st4" d="M310,163.5c0.3,1.9,2.1,3.3,4,3c1.9-0.3,3.3-2.1,3-4c-0.3-1.9-2.1-3.3-4-3c0,0,0,0,0,0
		C311.1,159.8,309.7,161.6,310,163.5z"/>
	<path class="st5" d="M313.8,162.4l10.6-1.6c0.5-0.1,0.9-0.6,0.8-1.1l0,0c-0.1-0.5-0.6-0.9-1.1-0.8l-10.6,1.6
		c-0.5,0.1-0.8,0.6-0.8,1.1l0,0C312.8,162.1,313.3,162.5,313.8,162.4z"/>
	<path class="st5" d="M314.2,165l10.6-1.6c0.5-0.1,0.8-0.6,0.8-1.1l0,0c-0.1-0.5-0.6-0.9-1.1-0.8l-10.6,1.6
		c-0.5,0.1-0.9,0.6-0.8,1.1l0,0C313.2,164.7,313.7,165.1,314.2,165z"/>
	<path class="st4" d="M311.8,175.1c0.3,1.9,2.1,3.3,4,3c1.9-0.3,3.3-2.1,3-4c-0.3-1.9-2.1-3.3-4-3c0,0,0,0-0.1,0
		C312.8,171.4,311.5,173.2,311.8,175.1z"/>
	<path class="st5" d="M315.6,174l10.6-1.6c0.5-0.1,0.8-0.6,0.8-1.1l0,0c-0.1-0.5-0.6-0.9-1.1-0.8l-10.6,1.6
		c-0.5,0.1-0.9,0.6-0.8,1.1l0,0C314.6,173.7,315.1,174.1,315.6,174z"/>
	<path class="st5" d="M316,176.6l10.6-1.6c0.5-0.1,0.9-0.6,0.8-1.1l0,0c-0.1-0.5-0.6-0.9-1.1-0.8l-10.6,1.6
		c-0.5,0.1-0.9,0.6-0.8,1.1l0,0C315,176.3,315.5,176.6,316,176.6z"/>
	<path class="st4" d="M313.5,186.6c0.3,1.9,2.1,3.3,4,3c1.9-0.3,3.3-2.1,3-4c-0.3-1.9-2.1-3.3-4-3c0,0,0,0,0,0
		C314.6,182.9,313.3,184.7,313.5,186.6z"/>
	<path class="st5" d="M317.4,185.5l10.6-1.6c0.5-0.1,0.9-0.6,0.8-1.1l0,0c-0.1-0.5-0.6-0.9-1.1-0.8l-10.6,1.6
		c-0.5,0.1-0.9,0.6-0.8,1.1c0,0,0,0,0,0l0,0C316.4,185.2,316.9,185.6,317.4,185.5z"/>
	<path class="st5" d="M317.8,188.1l10.6-1.6c0.5-0.1,0.9-0.6,0.8-1.1c0,0,0,0,0,0l0,0c-0.1-0.5-0.6-0.9-1.1-0.8c0,0,0,0,0,0
		l-10.6,1.6c-0.5,0.1-0.8,0.6-0.8,1.1l0,0C316.8,187.8,317.3,188.2,317.8,188.1z"/>
	<path class="st4" d="M315.4,198.1c0.3,1.9,2.1,3.3,4,3c1.9-0.3,3.3-2.1,3-4c-0.3-1.9-2.1-3.3-4-3c0,0,0,0-0.1,0
		C316.4,194.5,315.1,196.2,315.4,198.1z"/>
	<path class="st5" d="M319.2,197.1l10.6-1.6c0.5-0.1,0.8-0.6,0.8-1.1l0,0c-0.1-0.5-0.6-0.9-1.1-0.8c0,0,0,0,0,0l-10.6,1.6
		c-0.5,0.1-0.8,0.6-0.8,1.1l0,0C318.2,196.8,318.7,197.1,319.2,197.1z"/>
	<path class="st5" d="M319.6,199.7l10.6-1.7c0.5-0.1,0.9-0.6,0.8-1.1l0,0c-0.1-0.5-0.6-0.8-1.1-0.8l-10.6,1.6
		c-0.5,0.1-0.9,0.6-0.8,1.1l0,0C318.6,199.4,319.1,199.7,319.6,199.7z"/>
	<path class="st4" d="M317.1,209.7c0.3,1.9,2.1,3.3,4,3c1.9-0.3,3.3-2.1,3-4c-0.3-1.9-2.1-3.2-4-3
		C318.2,205.9,316.9,207.7,317.1,209.7C317.1,209.7,317.1,209.7,317.1,209.7z"/>
	<path class="st5" d="M321,208.6l10.6-1.6c0.5-0.1,0.9-0.6,0.8-1.1l0,0c-0.1-0.5-0.6-0.8-1.1-0.8l-10.6,1.6
		c-0.5,0.1-0.9,0.6-0.8,1.1l0,0C320,208.3,320.5,208.6,321,208.6z"/>
	<path class="st5" d="M321.4,211.2l10.6-1.6c0.5-0.1,0.9-0.6,0.8-1.1l0,0c-0.1-0.5-0.6-0.9-1.1-0.8l-10.6,1.6
		c-0.5,0.1-0.8,0.6-0.8,1.1l0,0C320.4,210.9,320.9,211.2,321.4,211.2z"/>
	<path class="st4" d="M318.9,221.2c0.3,1.9,2.1,3.3,4,3c1.9-0.3,3.3-2.1,3-4c-0.3-1.9-2.1-3.3-4-3c0,0,0,0-0.1,0
		C320,217.5,318.7,219.3,318.9,221.2z"/>
	<path class="st5" d="M322.8,220.1l10.6-1.6c0.5-0.1,0.9-0.6,0.8-1.1l0,0c-0.1-0.5-0.6-0.8-1.1-0.8l-10.6,1.6
		c-0.5,0.1-0.8,0.6-0.8,1.1l0,0C321.8,219.8,322.3,220.2,322.8,220.1C322.8,220.1,322.8,220.1,322.8,220.1z"/>
	<path class="st5" d="M323.2,222.7l10.6-1.6c0.5-0.1,0.8-0.6,0.8-1.1l0,0c-0.1-0.5-0.6-0.9-1.1-0.8l-10.6,1.6
		c-0.5,0.1-0.9,0.6-0.8,1.1l0,0C322.2,222.4,322.7,222.8,323.2,222.7z"/>
	<path class="st4" d="M320.7,232.8c0.3,1.9,2.1,3.3,4,3c1.9-0.3,3.3-2.1,3-4c-0.3-1.9-2.1-3.3-4-3c0,0,0,0-0.1,0
		C321.8,229.1,320.5,230.8,320.7,232.8z"/>
	<path class="st5" d="M324.6,231.7l10.6-1.7c0.5-0.1,0.8-0.6,0.8-1.1l0,0c-0.1-0.5-0.6-0.9-1.1-0.8l-10.6,1.6
		c-0.5,0.1-0.9,0.6-0.8,1.1l0,0C323.6,231.4,324.1,231.7,324.6,231.7z"/>
	<path class="st5" d="M325,234.3l10.6-1.6c0.5-0.1,0.9-0.6,0.8-1.1l0,0c-0.1-0.5-0.6-0.9-1.1-0.8l-10.6,1.6
		c-0.5,0.1-0.8,0.6-0.8,1.1l0,0C324,234,324.5,234.3,325,234.3z"/>
	<path class="st4" d="M322.5,244.3c0.3,1.9,2.1,3.3,4,3c1.9-0.3,3.3-2.1,3-4c-0.3-1.9-2.1-3.3-4-3c0,0,0,0,0,0
		C323.6,240.6,322.3,242.4,322.5,244.3z"/>
	<path class="st5" d="M326.4,243.2l10.6-1.6c0.5-0.1,0.9-0.6,0.8-1.1l0,0c-0.1-0.5-0.6-0.9-1.1-0.8l-10.6,1.6
		c-0.5,0.1-0.8,0.6-0.8,1.1l0,0C325.4,242.9,325.9,243.2,326.4,243.2z"/>
	<path class="st5" d="M326.8,245.8l10.6-1.6c0.5-0.1,0.8-0.6,0.8-1.1l0,0c-0.1-0.5-0.6-0.8-1.1-0.8l-10.6,1.6
		c-0.5,0.1-0.9,0.6-0.8,1.1l0,0C325.8,245.5,326.3,245.9,326.8,245.8z"/>
	<path class="st4" d="M324.3,255.8c0.3,1.9,2.1,3.3,4,3c1.9-0.3,3.3-2.1,3-4c-0.3-1.9-2.1-3.3-4-3c0,0,0,0-0.1,0
		C325.4,252.1,324.1,253.9,324.3,255.8z"/>
	<path class="st5" d="M328.2,254.7l10.6-1.6c0.5-0.1,0.8-0.6,0.8-1.1l0,0c-0.1-0.5-0.6-0.8-1.1-0.8l-10.6,1.6
		c-0.5,0.1-0.9,0.6-0.8,1.1l0,0C327.2,254.4,327.7,254.8,328.2,254.7z"/>
	<path class="st5" d="M328.6,257.4l10.6-1.6c0.5-0.1,0.9-0.6,0.8-1.1l0,0c-0.1-0.5-0.6-0.8-1.1-0.8l-10.6,1.6
		c-0.5,0.1-0.8,0.6-0.8,1.1l0,0C327.6,257.1,328.1,257.4,328.6,257.4z"/>
	<path class="st4" d="M326.1,267.4c0.3,1.9,2.1,3.3,4,3s3.3-2.1,3-4c-0.3-1.9-2.1-3.2-4-3C327.2,263.6,325.8,265.4,326.1,267.4
		C326.1,267.3,326.1,267.4,326.1,267.4z"/>
	<path class="st5" d="M330,266.3l10.6-1.6c0.5-0.1,0.9-0.6,0.8-1.1l0,0c-0.1-0.5-0.6-0.8-1.1-0.8l-10.6,1.6
		c-0.5,0.1-0.8,0.6-0.8,1.1l0,0C329,266,329.5,266.3,330,266.3z"/>
	<path class="st5" d="M330.4,268.9l10.6-1.6c0.5-0.1,0.8-0.6,0.8-1.1l0,0c-0.1-0.5-0.5-0.9-1-0.8c0,0,0,0,0,0l-10.6,1.6
		c-0.5,0.1-0.9,0.6-0.8,1.1l0,0C329.4,268.6,329.9,268.9,330.4,268.9z"/>
	<path class="st4" d="M327.9,278.9c0.3,1.9,2.1,3.3,4,3c1.9-0.3,3.3-2.1,3-4s-2.1-3.3-4-3c0,0,0,0-0.1,0
		C329,275.2,327.6,277,327.9,278.9z"/>
	<path class="st5" d="M331.8,277.8l10.6-1.6c0.5-0.1,0.8-0.6,0.8-1.1l0,0c-0.1-0.5-0.6-0.8-1.1-0.8l-10.6,1.6
		c-0.5,0.1-0.9,0.6-0.8,1.1l0,0C330.8,277.5,331.3,277.9,331.8,277.8z"/>
	<path class="st5" d="M332.2,280.4l10.6-1.6c0.5-0.1,0.9-0.6,0.8-1.1l0,0c-0.1-0.5-0.6-0.9-1.1-0.8l-10.6,1.6
		c-0.5,0.1-0.9,0.6-0.8,1.1l0,0C331.2,280.1,331.7,280.5,332.2,280.4z"/>
	<path class="st4" d="M329.7,290.5c0.3,1.9,2.1,3.3,4,3c1.9-0.3,3.3-2.1,3-4s-2.1-3.3-4-3c0,0,0,0,0,0
		C330.8,286.7,329.4,288.5,329.7,290.5z"/>
	<path class="st5" d="M333.6,289.4l10.6-1.6c0.5-0.1,0.9-0.6,0.8-1.1l0,0c-0.1-0.5-0.6-0.9-1.1-0.8l-10.6,1.6
		c-0.5,0.1-0.9,0.6-0.8,1.1l0,0C332.6,289.1,333.1,289.4,333.6,289.4z"/>
	<path class="st5" d="M334,292l10.6-1.6c0.5-0.1,0.8-0.6,0.8-1.1l0,0c-0.1-0.5-0.6-0.9-1.1-0.8l-10.6,1.6c-0.5,0.1-0.8,0.6-0.8,1.1
		l0,0C333,291.7,333.5,292.1,334,292C334,292,334,292,334,292z"/>
	<path class="st4" d="M331.5,302c0.3,1.9,2.1,3.3,4,3c1.9-0.3,3.3-2.1,3-4s-2.1-3.3-4-3c0,0,0,0-0.1,0
		C332.5,298.3,331.2,300.1,331.5,302z"/>
	<path class="st5" d="M335.4,300.9l10.6-1.6c0.5-0.1,0.9-0.6,0.8-1.1c0,0,0,0,0,0l0,0c-0.1-0.5-0.6-0.9-1.1-0.8l-10.6,1.6
		c-0.5,0.1-0.9,0.6-0.8,1.1c0,0,0,0,0,0l0,0C334.4,300.6,334.8,301,335.4,300.9C335.4,300.9,335.4,300.9,335.4,300.9z"/>
	<path class="st5" d="M335.8,303.5l10.6-1.6c0.5-0.1,0.9-0.5,0.8-1.1c0,0,0,0,0,0l0,0c-0.1-0.5-0.6-0.9-1.1-0.8l-10.6,1.6
		c-0.5,0.1-0.9,0.6-0.8,1.1l0,0C334.8,303.2,335.3,303.6,335.8,303.5z"/>
	<path class="st4" d="M333.3,313.5c0.3,1.9,2.1,3.3,4,3c1.9-0.3,3.3-2.1,3-4s-2.1-3.3-4-3c0,0,0,0,0,0
		C334.4,309.8,333,311.6,333.3,313.5z"/>
	<path class="st5" d="M337.2,312.4l10.6-1.6c0.5-0.1,0.9-0.6,0.8-1.1l0,0c-0.1-0.5-0.6-0.9-1.1-0.8l-10.6,1.6
		c-0.5,0.1-0.9,0.6-0.8,1.1l0,0C336.2,312.1,336.7,312.5,337.2,312.4z"/>
	<path class="st5" d="M337.6,315l10.6-1.6c0.5-0.1,0.9-0.6,0.8-1.1l0,0c-0.1-0.5-0.6-0.8-1.1-0.8l-10.6,1.6
		c-0.5,0.1-0.8,0.6-0.8,1.1l0,0C336.6,314.7,337.1,315.1,337.6,315z"/>
	<path class="st4" d="M335.1,325.1c0.3,1.9,2.1,3.3,4,3c1.9-0.3,3.3-2.1,3-4s-2.1-3.3-4-3c0,0,0,0-0.1,0
		C336.1,321.4,334.8,323.2,335.1,325.1z"/>
	<path class="st5" d="M339,324l10.6-1.6c0.5-0.1,0.9-0.6,0.8-1.1l0,0c-0.1-0.5-0.6-0.8-1.1-0.8l-10.6,1.6c-0.5,0.1-0.8,0.6-0.8,1.1
		l0,0C338,323.7,338.5,324.1,339,324z"/>
	<path class="st5" d="M339.4,326.6l10.6-1.6c0.5-0.1,0.8-0.6,0.8-1.1l0,0c-0.1-0.5-0.6-0.8-1.1-0.8l-10.6,1.6
		c-0.5,0.1-0.9,0.6-0.8,1.1l0,0C338.4,326.3,338.9,326.6,339.4,326.6z"/>
	<path class="st4" d="M336.9,336.6c0.3,1.9,2.1,3.3,4,3s3.3-2.1,3-4c-0.3-1.9-2.1-3.2-4-3C338,332.8,336.6,334.6,336.9,336.6
		C336.9,336.6,336.9,336.6,336.9,336.6z"/>
	<path class="st5" d="M340.8,335.5l10.6-1.6c0.5-0.1,0.8-0.6,0.8-1.1l0,0c-0.1-0.5-0.6-0.9-1.1-0.8l-10.6,1.6
		c-0.5,0.1-0.9,0.6-0.8,1.1l0,0C339.7,335.2,340.2,335.6,340.8,335.5z"/>
	<path class="st5" d="M341.2,338.1l10.6-1.6c0.5-0.1,0.9-0.6,0.8-1.1l0,0c-0.1-0.5-0.6-0.9-1.1-0.8l-10.6,1.6
		c-0.5,0.1-0.8,0.6-0.8,1.1l0,0C340.2,337.8,340.7,338.2,341.2,338.1z"/>
	<path class="st4" d="M338.7,348.1c0.3,1.9,2.1,3.3,4,3c1.9-0.3,3.3-2.1,3-4s-2.1-3.3-4-3c0,0,0,0-0.1,0
		C339.7,344.4,338.4,346.2,338.7,348.1z"/>
	<path class="st5" d="M342.6,347l10.6-1.6c0.5-0.1,0.9-0.6,0.8-1.1l0,0c-0.1-0.5-0.6-0.9-1.1-0.8c0,0,0,0,0,0l-10.6,1.6
		c-0.5,0.1-0.8,0.6-0.8,1.1l0,0C341.5,346.7,342,347.1,342.6,347C342.5,347,342.6,347,342.6,347z"/>
	<path class="st5" d="M343,349.6l10.5-1.6c0.5-0.1,0.8-0.6,0.8-1.1l0,0c-0.1-0.5-0.6-0.9-1.1-0.8l-10.6,1.6
		c-0.5,0.1-0.9,0.6-0.8,1.1l0,0C342,349.4,342.5,349.7,343,349.6z"/>
	<path class="st4" d="M340.5,359.7c0.3,1.9,2.1,3.3,4,3c1.9-0.3,3.3-2.1,3-4s-2.1-3.3-4-3c0,0,0,0-0.1,0
		C341.5,356,340.2,357.8,340.5,359.7z"/>
	<path class="st5" d="M344.4,358.6l10.6-1.6c0.5-0.1,0.8-0.6,0.8-1.1l0,0c-0.1-0.5-0.6-0.9-1.1-0.8l-10.6,1.6
		c-0.5,0.1-0.9,0.6-0.8,1.1l0,0C343.4,358.3,343.8,358.6,344.4,358.6z"/>
	<path class="st5" d="M344.8,361.2l10.6-1.6c0.5-0.1,0.9-0.6,0.8-1.1l0,0c-0.1-0.5-0.6-0.9-1.1-0.8l-10.6,1.6
		c-0.5,0.1-0.8,0.6-0.8,1.1l0,0C343.8,360.9,344.2,361.2,344.8,361.2z"/>
	<path class="st4" d="M342.3,371.2c0.3,1.9,2.1,3.3,4,3c1.9-0.3,3.3-2.1,3-4s-2.1-3.3-4-3c0,0,0,0,0,0
		C343.3,367.5,342,369.3,342.3,371.2z"/>
	<path class="st5" d="M346.1,370.1l10.6-1.6c0.5-0.1,0.9-0.6,0.8-1.1l0,0c-0.1-0.5-0.6-0.9-1.1-0.8l-10.6,1.6
		c-0.5,0.1-0.8,0.6-0.8,1.1l0,0C345.2,369.8,345.6,370.2,346.1,370.1z"/>
	<path class="st5" d="M346.5,372.7l10.6-1.6c0.5-0.1,0.8-0.6,0.8-1.1l0,0c-0.1-0.5-0.6-0.9-1.1-0.8c0,0,0,0,0,0l-10.6,1.6
		c-0.5,0.1-0.9,0.5-0.8,1c0,0,0,0,0,0l0,0C345.6,372.4,346,372.8,346.5,372.7z"/>
	<g class="st7">
		<line class="st8" x1="191.1" y1="175.5" x2="193.7" y2="175.1"/>
		<line class="st8" x1="196.3" y1="174.7" x2="199" y2="174.3"/>
		<line class="st8" x1="165.4" y1="183.2" x2="168" y2="182.8"/>
		<line class="st8" x1="170.6" y1="182.4" x2="173.3" y2="182"/>
		<line class="st8" x1="175.9" y1="181.6" x2="178.5" y2="181.2"/>
		<line class="st8" x1="181.1" y1="180.8" x2="183.8" y2="180.4"/>
		<line class="st8" x1="186.4" y1="179.9" x2="189" y2="179.5"/>
		<line class="st8" x1="191.6" y1="179.1" x2="194.3" y2="178.7"/>
		<line class="st8" x1="196.9" y1="178.3" x2="199.5" y2="177.9"/>
		<line class="st8" x1="165.9" y1="186.8" x2="168.6" y2="186.4"/>
		<line class="st8" x1="171.2" y1="186" x2="173.8" y2="185.6"/>
		<line class="st8" x1="176.4" y1="185.2" x2="179.1" y2="184.8"/>
		<line class="st8" x1="181.7" y1="184.4" x2="184.3" y2="184"/>
		<line class="st8" x1="187" y1="183.6" x2="189.6" y2="183.2"/>
		<line class="st8" x1="192.2" y1="182.8" x2="194.8" y2="182.3"/>
		<line class="st8" x1="197.5" y1="181.9" x2="200.1" y2="181.5"/>
		<line class="st8" x1="166.5" y1="190.5" x2="169.1" y2="190.1"/>
		<line class="st8" x1="171.8" y1="189.6" x2="174.4" y2="189.2"/>
		<line class="st8" x1="177" y1="188.8" x2="179.6" y2="188.4"/>
		<line class="st8" x1="182.3" y1="188" x2="184.9" y2="187.6"/>
		<line class="st8" x1="187.5" y1="187.2" x2="190.1" y2="186.8"/>
		<line class="st8" x1="192.8" y1="186.4" x2="195.4" y2="186"/>
		<line class="st8" x1="198" y1="185.6" x2="200.6" y2="185.1"/>
		<line class="st8" x1="167.1" y1="194.1" x2="169.7" y2="193.7"/>
		<line class="st8" x1="172.3" y1="193.3" x2="174.9" y2="192.9"/>
		<line class="st8" x1="177.6" y1="192.4" x2="180.2" y2="192"/>
		<line class="st8" x1="182.8" y1="191.6" x2="185.5" y2="191.2"/>
		<line class="st8" x1="188.1" y1="190.8" x2="190.7" y2="190.4"/>
		<line class="st8" x1="193.3" y1="190" x2="196" y2="189.6"/>
		<line class="st8" x1="198.6" y1="189.2" x2="201.2" y2="188.8"/>
		<line class="st8" x1="164.1" y1="174.9" x2="166.7" y2="174.4"/>
		<line class="st8" x1="169.3" y1="174" x2="172" y2="173.6"/>
		<line class="st8" x1="174.6" y1="173.2" x2="177.2" y2="172.8"/>
		<line class="st8" x1="179.8" y1="172.4" x2="182.5" y2="172"/>
		<line class="st8" x1="185.1" y1="171.6" x2="187.7" y2="171.2"/>
		<line class="st8" x1="190.4" y1="170.8" x2="193" y2="170.4"/>
		<line class="st8" x1="195.6" y1="169.9" x2="198.2" y2="169.5"/>
		<line class="st8" x1="198.8" y1="171.5" x2="164.2" y2="176.9"/>
		<line class="st8" x1="173.8" y1="168.7" x2="187.1" y2="166.6"/>
		<line class="st8" x1="157.2" y1="206" x2="304.4" y2="183.1"/>
		<line class="st8" x1="159" y1="217.9" x2="306.3" y2="195"/>
		<line class="st8" x1="160.9" y1="229.7" x2="308.1" y2="206.8"/>
		<line class="st8" x1="162.7" y1="241.6" x2="310" y2="218.7"/>
		<line class="st8" x1="164.6" y1="253.5" x2="311.8" y2="230.6"/>
		<line class="st8" x1="166.4" y1="265.3" x2="313.6" y2="242.4"/>
		<line class="st8" x1="168.3" y1="277.2" x2="315.5" y2="254.3"/>
		<line class="st8" x1="170.1" y1="289" x2="317.3" y2="266.1"/>
		<line class="st8" x1="171.9" y1="300.9" x2="319.2" y2="278"/>
		<line class="st8" x1="173.8" y1="312.8" x2="321" y2="289.8"/>
		<line class="st8" x1="175.6" y1="324.6" x2="322.9" y2="301.7"/>
		<line class="st8" x1="177.5" y1="336.5" x2="324.7" y2="313.5"/>
		<line class="st8" x1="179.3" y1="348.3" x2="326.6" y2="325.4"/>
		<line class="st8" x1="183.7" y1="376.5" x2="330.9" y2="353.6"/>
		<line class="st8" x1="185.2" y1="385.9" x2="332.4" y2="363"/>
		<line class="st8" x1="186.6" y1="395.3" x2="333.9" y2="372.3"/>
	</g>
	<path class="st9" d="M178.2,217.4c0,0-12.6,13.6-5.3,11.4s17.2-16.3,15.1-10.4s-2,9.9,1.4,5.9s5.3-4.9,4.6-2.8s2.1,0.7,2.1,0.7
		s7-4.1,6.3-2s-1.2,2.2,0.8,1.9l6.4-1c0,0-0.4,0.6,5.5-0.4s8.2-2.3,11.2-2.8"/>
	<path class="st9" d="M172.5,236c0,0,9.7-6.1,10.9-4.7s-0.4,3.6,3.9,2.4s8.4-4.8,8.7-2.9s3.1,0.5,3.1,0.5l2.5-0.4
		c0,0,4.5-0.2,5.9-0.9s2.9-7.5,1.8,1.8s-4.9,1.3,4.1-2.7s10.7,0.4,10.7,0.4c1-0.2,2-0.6,2.9-1c1.9-0.8,3.6-3.1,5.4-1.3s5-3.8,5-3.8
		c1.2,0.2,2.5,0.5,3.7,0.9c1.2,0.4,2.4,0.6,3.6,0.4c1.5,0.1,3,0,4.5-0.2c2-0.3,3.6-2.6,5.3-1.8c1.6,0.8,4.1-6.2,2.9,2.1
		s-9.3,12.1-6,7c2.9-4.4,6.6-8.3,10.9-11.3c3.6-2.6,4.7-2.3,5.5-0.4s1.8,1.7,3.7,0.9s0.3-1.6,1.9-0.8c1.1,0.6,2.4,0.8,3.6,0.4
		c1.5-0.2-5.5,3.9,1.5-0.2s9.4-20.7,5.8-11.5s-2.3,11.5,2.6,10.2"/>
	<path class="st9" d="M173.5,252.6c0,0,11.9-11.5,11.1-12.9s-4.5,0.2-7.3,5.2s-0.8,7.7,6.6,3.5s-3.4,1,4.3,1.4s9.9-4.6,10.1-3.1
		s-2.3,1.4,3.7,1s3.1-3,9.2-2.4s8.9-1.4,8.9-1.4l3.9-0.6c0,0-8,0.7,2.4-0.9s14.9-14.5,9.9-7.6s-2.6,9,2.5,6.2l5.1-2.8
		c0,0,6.5-7.1,3.4,2.5s-6.7,2.6,4.7-2.3s11.1-0.2,14.9-1.8s3.2-5.6,5.7-2.4s2.4,2.2,6.3,1.6s2.9-1,6.4-1.5l7.5-1.2"/>
	<path class="st9" d="M175.5,288.2c0,0,8.3-5.3,9.6-13.1s-5.2,2.3-4.5,13.4s-3.2-4.1,8.4-7.9s-1,3.2,0.3,5s10.8-5.7,10.6-3.2
		s2,3.2,7.8-1.7s-3.6-4-4.1-0.4s2.4,2.2,9.5-0.5s0.1,1,4.6,0.3s14.2-9.3,12.3-5.5s-0.1,6.1,2.1,3.7s6.8-8.6,7.1-6.2
		c0.2,1.5-0.1,3-0.9,4.2"/>
</g>
<g id="freepik--highlighter-pen--inject-2">
	<path class="st3" d="M129.1,194.1c-0.2-0.2-0.4-0.4-0.6-0.6c-0.6-0.5-1.3-0.9-2.1-1.2l-0.4-0.2h-0.1c-3.9-1.2-17.4-1.8-21.9-2
		c-2.3-0.1-4.4,1.4-5,3.7v0.1c-1,3.7-14.7,94.2-14.7,94.2s-0.1,2-0.2,5.1c-0.1,1.4-0.1,3-0.2,4.6c0,0.4,0,0.9,0,1.3
		c0,0.9-0.1,1.8-0.1,2.7c-0.1,3.2-0.3,6.6-0.3,9.7c-0.1,2.2-0.1,4.3-0.2,6c0,1.4,0,2.6,0,3.5c0,2.1,0.1,4.2,0.3,6.3
		c0.4,2.6,1.3,3.8,3.5,4.2c0.6,0.1,1.3,0.2,2.3,0.3l0.6,0.1l2.8,0.3l0.8,0.1l2.3,0.2l1.6,0.1l1.6,0.1c1.1,0,2.1,0.1,3.1,0.1
		c1.5,0,2.9-0.1,4.4-0.3l0,0h0.1l0.4-0.1l0,0l0.4-0.1h0.1l0.4-0.1l0.7-0.3l0.6-0.3c0.8-0.3,1.7-0.8,2.4-1.3c0.2-0.2,0.5-0.4,0.7-0.6
		c0.2-0.2,0.4-0.4,0.6-0.6l0.3-0.3c0.4-0.5,0.7-0.9,1-1.4l0,0c0-0.1,0.1-0.2,0.1-0.3l0.1-0.1l0.1-0.3c0-0.1,0-0.2,0.1-0.2
		c0-0.1,0.1-0.2,0.1-0.3l0.1-0.3c0-0.1,0.1-0.3,0.1-0.4s0.1-0.2,0.1-0.3s0.1-0.3,0.1-0.5s0.1-0.3,0.1-0.4s0.1-0.3,0.1-0.5
		s0.1-0.3,0.1-0.5s0.1-0.4,0.1-0.6l0.1-0.5l0.2-0.6c0-0.2,0.1-0.4,0.1-0.5l0.2-0.6c0.1-0.2,0.1-0.4,0.1-0.6s0.1-0.5,0.2-0.7l0.2-0.6
		c0-0.2,0.1-0.5,0.2-0.7s0.1-0.4,0.2-0.7s0.1-0.5,0.2-0.7c0-0.1,0-0.1,0-0.2c0-0.1,0.1-0.3,0.1-0.4s0.1-0.5,0.2-0.8s0.1-0.4,0.1-0.6
		s0.1-0.5,0.2-0.8l0.2-0.7l0.2-0.8c0-0.2,0.1-0.5,0.2-0.7l0.2-0.8c0-0.3,0.1-0.5,0.2-0.8l0.2-0.8c0-0.1,0-0.2,0.1-0.4
		s0.1-0.3,0.1-0.4s0.1-0.5,0.2-0.8s0.1-0.5,0.2-0.8s0.1-0.5,0.2-0.8s0.1-0.5,0.2-0.8s0.1-0.5,0.2-0.8s0.1-0.5,0.2-0.8l0.2-0.7
		c0.1-0.3,0.1-0.5,0.2-0.8s0.1-0.5,0.2-0.8l0.2-0.8c0-0.2,0.1-0.5,0.1-0.7s0.1-0.3,0.1-0.5l0.1-0.3c0-0.2,0.1-0.4,0.1-0.7
		s0.1-0.5,0.2-0.8s0.1-0.4,0.1-0.6l0.2-0.8c0-0.2,0.1-0.4,0.1-0.5l0.1-0.6c0-0.1,0-0.1,0-0.2s0.1-0.3,0.1-0.5l0.2-0.7l0.1-0.5
		c0.1-0.2,0.1-0.5,0.1-0.7l0.1-0.4l0.1-0.7c0-0.1,0-0.2,0.1-0.3l0.1-0.6l0.1-0.3c0-0.2,0.1-0.4,0.1-0.6l0,0l0,0
		c0-0.2,0.1-0.5,0.1-0.7c0.2-1,0.4-3.2,0.7-6.3c0.1-1.2,0.2-2.4,0.3-3.8c0.4-5.1,0.9-11.7,1.5-18.9c0-0.6,0.1-1.3,0.1-2
		c2-27.2,4.2-62.1,4.2-62.1C129.8,195.2,129.6,194.6,129.1,194.1z"/>
	<path class="st1" d="M79.6,287.1c0,0-1.2,25.8-1.1,32.9s0.3,9.8,3.8,10.4s17.2,2,21,0.6s5-2.6,6.3-4.7s7.3-30.6,8.7-38.6
		s6.8-93.1,6.8-93.1s0.2-1.8-3.4-3.4c-3-1.4-17.7-2-22.5-2.2c-2.3-0.1-4.4,1.4-5.1,3.7c0,0,0,0.1,0,0.1
		C93.3,196.6,79.6,287.1,79.6,287.1z"/>
	<g>
		<defs>
			<path id="SVGID_1_" d="M79.6,287.1c0,0-1.2,25.8-1.1,32.9s0.3,9.8,3.8,10.4s17.2,2,21,0.6s5-2.6,6.3-4.7s7.3-30.6,8.7-38.6
				s6.8-93.1,6.8-93.1s0.2-1.8-3.4-3.4c-3-1.4-17.7-2-22.5-2.2c-2.3-0.1-4.4,1.4-5.1,3.7c0,0,0,0.1,0,0.1
				C93.3,196.6,79.6,287.1,79.6,287.1z"/>
		</defs>
		<clipPath id="SVGID_2_">
			<use xlink:href="#SVGID_1_"  style="overflow:visible;"/>
		</clipPath>
		<g class="st10">
			<path class="st11" d="M101.4,331.5c0.7-0.1,1.4-0.2,2-0.4c3.8-1.4,5-2.6,6.3-4.7s7.3-30.6,8.7-38.6s6.8-93.1,6.8-93.1
				s0.2-1.8-3.4-3.4c-0.4-0.1-0.7-0.3-1.1-0.4c-0.8,19.8-3.5,43.2-8.2,71.1C108.1,288.4,103.1,320.2,101.4,331.5z"/>
		</g>
	</g>
	<path class="st12" d="M79.6,287.1c0,0-1.2,25.8-1.1,32.9s0.3,9.8,3.8,10.4s17.2,2,21,0.6s5-2.6,6.3-4.7s7.3-30.6,8.7-38.6
		s6.8-93.1,6.8-93.1s0.2-1.8-3.4-3.4c-3-1.4-17.7-2-22.5-2.2c-2.3-0.1-4.4,1.4-5.1,3.7c0,0,0,0.1,0,0.1
		C93.3,196.6,79.6,287.1,79.6,287.1z"/>
	<path class="st13" d="M107.6,290.1c-4.3,0-22.7-1.9-25.5-2.5c-0.8-0.2-1.6-0.4-2.4-0.6v0.2c0,0-1.2,25.8-1.1,32.9s0.3,9.8,3.8,10.4
		s17.2,2,21,0.6s5-2.6,6.3-4.7s7-29,8.5-37.9C114.6,290.4,111.1,290.1,107.6,290.1z"/>
	<g>
		<defs>
			<path id="SVGID_3_" d="M107.6,290.1c-4.3,0-22.7-1.9-25.5-2.5c-0.8-0.2-1.6-0.4-2.4-0.6v0.2c0,0-1.2,25.8-1.1,32.9
				s0.3,9.8,3.8,10.4s17.2,2,21,0.6s5-2.6,6.3-4.7s7-29,8.5-37.9C114.6,290.4,111.1,290.1,107.6,290.1z"/>
		</defs>
		<clipPath id="SVGID_4_">
			<use xlink:href="#SVGID_3_"  style="overflow:visible;"/>
		</clipPath>
		<g class="st14">
			<path class="st11" d="M101.4,331.5c0.7-0.1,1.4-0.2,2-0.4c3.8-1.4,5-2.6,6.3-4.7s7.3-30.6,8.7-38.6s6.8-93.1,6.8-93.1
				s0.2-1.8-3.4-3.4c-0.4-0.1-0.7-0.3-1.1-0.4c-0.8,19.8-3.5,43.2-8.2,71.1C108.1,288.4,103.1,320.2,101.4,331.5z"/>
			<path class="st15" d="M107.6,292.5c2.8-0.1,5.6-0.5,8.3-1.3"/>
			<path class="st16" d="M81.1,289.6c0,0,22.6,3.1,26.5,3"/>
		</g>
	</g>
	<path class="st12" d="M107.6,290.1c-4.3,0-22.7-1.9-25.5-2.5c-0.8-0.2-1.6-0.4-2.4-0.6v0.2c0,0-1.2,25.8-1.1,32.9s0.3,9.8,3.8,10.4
		s17.2,2,21,0.6s5-2.6,6.3-4.7s7-29,8.5-37.9C114.6,290.4,111.1,290.1,107.6,290.1z"/>
</g>
<g id="freepik--Plant--inject-2">
	<circle class="st17" cx="381.9" cy="146.5" r="42.9"/>
	<circle class="st18" cx="378.6" cy="142.2" r="42.9"/>
	
		<ellipse transform="matrix(0.1621 -0.9868 0.9868 0.1621 176.9476 492.7969)" class="st17" cx="378.7" cy="142.2" rx="38.6" ry="38.7"/>
	<path class="st1" d="M374.1,113.2c0,0-4.3-10.7-11.7-18.2s-37.8-12.3-37.8-12.3c4.9,4.7,9.4,9.9,13.3,15.5
		c6.9,9.6,29.9,31.4,29.9,31.4s-11.2-9.6-21.3-10.7s-35.7,4.3-37.3,4.3s9.6,4.3,17.6,8s38.9,6.9,38.9,6.9s-13.3,3.7-22.4,6.9
		s-17.6,26.6-17.6,26.6s11.7-10.7,21.9-13.3S372,151,372,151s-9.1,10.1-11.2,17.1s-0.5,22.9-0.5,22.9s4.8-14.9,10.7-20.8
		s12.3-16,12.3-16c3,4.8,5.6,9.8,8,14.9c4.3,9.1,6.9,22.4,6.9,22.4s6.9-14.9,6.4-22.4s-8.5-20.8-8.5-20.8s5.3-3.7,13.3-0.5
		s21.9,16.5,21.9,16.5s-3.2-17.6-8.5-24.5s-28.3-9.1-28.3-9.1s12.8-7.5,20.8-9.1s18.7,2.1,18.7,2.1s-12.3-17-21.9-18.1
		s-24,13.9-24,13.9s3.2-16,4.3-21.3s-1.1-18.7-1.1-18.7s-5.9,3.2-12.8,13.3C374.3,98.8,372.8,106.1,374.1,113.2z"/>
	<path class="st11" d="M374.1,113.2c0,0-4.3-10.7-11.7-18.2s-37.8-12.3-37.8-12.3c4.9,4.7,9.4,9.9,13.3,15.5
		c6.9,9.6,29.9,31.4,29.9,31.4s-11.2-9.6-21.3-10.7s-35.7,4.3-37.3,4.3s9.6,4.3,17.6,8s38.9,6.9,38.9,6.9s-13.3,3.7-22.4,6.9
		s-17.6,26.6-17.6,26.6s11.7-10.7,21.9-13.3S372,151,372,151s-9.1,10.1-11.2,17.1s-0.5,22.9-0.5,22.9s4.8-14.9,10.7-20.8
		s12.3-16,12.3-16c3,4.8,5.6,9.8,8,14.9c4.3,9.1,6.9,22.4,6.9,22.4s6.9-14.9,6.4-22.4s-8.5-20.8-8.5-20.8s5.3-3.7,13.3-0.5
		s21.9,16.5,21.9,16.5s-3.2-17.6-8.5-24.5s-28.3-9.1-28.3-9.1s12.8-7.5,20.8-9.1s18.7,2.1,18.7,2.1s-12.3-17-21.9-18.1
		s-24,13.9-24,13.9s3.2-16,4.3-21.3s-1.1-18.7-1.1-18.7s-5.9,3.2-12.8,13.3C374.3,98.8,372.8,106.1,374.1,113.2z"/>
	<path class="st19" d="M384.6,96.9c0.4-1.5,0.8-3.1,1.2-4.6"/>
	<path class="st19" d="M349,96.9c5,3.7,11.2,8.7,14.4,13c5.9,8,17.6,25.1,17.6,25.1c-0.3-11.5,0.6-22.9,2.7-34.2"/>
	<path class="st19" d="M341.6,91.8c0,0,1.5,1,3.9,2.6"/>
	<path class="st19" d="M381.1,135c0,0,20.3-20.3,28.8-21.9s16,4.8,16,4.8"/>
	<path class="st19" d="M344.9,152c-4.9,3.1-5.4,4.9-5.4,4.9"/>
	<path class="st19" d="M425.3,153.7c0,0-3.2-8-14.4-11.7s-28.8-4.3-28.8-4.3s-24.7,8.1-33.7,12.3"/>
	<path class="st19" d="M371.4,134.6c6,1.7,10.8,3,10.8,3"/>
	<path class="st19" d="M333.8,125.2c5.8,0.3,13.3,1.1,17.4,2.9c3.4,1.4,10,3.6,16.3,5.4"/>
	<path class="st19" d="M325.6,124.9c0,0,2,0,4.8,0.1"/>
	<path class="st19" d="M381.1,140.9c0,0-14.9,22.4-16,27.7c-0.6,3.2-1,6.4-1.1,9.6"/>
	<path class="st19" d="M387.7,147.9c2.9,3.7,6.3,8.6,7.8,12.7c1.7,4.9,2.9,9.8,3.7,14.9"/>
	<path class="st19" d="M383.2,142.5c0,0,1.2,1.3,2.8,3.4"/>
	<path class="st1" d="M367.4,117.8c0,0-2.8-11.2-1-21.6s23.6-32,23.6-32c-1.2,6.7-1.8,13.5-1.8,20.3c0,11.8-5.9,43-5.9,43
		s3.5-14.3,11.1-21.1S424.8,89,426.1,88s-5.3,9.1-9.6,16.8s-27.6,28.3-27.6,28.3s13-4.7,22.2-7.4s29.9,11.4,29.9,11.4
		s-15.7-1.8-25.5,1.9s-24.3,8.2-24.3,8.2s13.3,2.9,19,7.3s13.8,18.3,13.8,18.3s-12.6-9.3-20.8-10.7s-19.3-5.8-19.3-5.8
		c0.4,5.6,1.2,11.2,2.2,16.8c1.8,9.9,7.4,22.2,7.4,22.2s-14.3-8.1-18.3-14.5s-5.2-21.9-5.2-21.9s-6.5,0.1-11.1,7.3
		s-8.1,26.2-8.1,26.2s-7.7-16.1-7.4-24.9s17.7-23.8,17.7-23.8s-14.8,1.4-22.2,4.8s-13.9,12.6-13.9,12.6s0-21,7.2-27.5
		s27.6-2.8,27.6-2.8l-15.9-14.8c-4-3.7-10-15.8-10-15.8s6.6-0.8,18.2,3.4C358.9,106.2,364.4,111.2,367.4,117.8z"/>
	<path class="st19" d="M349.4,110.7c-1.2-1-2.4-2-3.7-3"/>
	<path class="st19" d="M378.3,89.9c-1.9,5.9-4.1,13.6-4.1,19c-0.1,9.9,0.3,30.6,0.3,30.6c-6.4-9.5-13.8-18.3-22.1-26.2"/>
	<path class="st19" d="M381.3,81.5c0,0-0.7,1.7-1.6,4.4"/>
	<path class="st19" d="M374.5,139.5c0,0-28.3-4.6-36.1-1s-10.2,13.2-10.2,13.2"/>
	<path class="st19" d="M413.8,132.2c5.8-0.3,7.2,0.9,7.2,0.9"/>
	<path class="st19" d="M349.4,180.5c0,0-2.1-8.4,4.9-17.9s20.9-20.3,20.9-20.3s24.7-7.8,34.5-9.7"/>
	<path class="st19" d="M382.1,133.6c-3.8,4.9-7,8.8-7,8.8"/>
	<path class="st19" d="M407.1,104c-4.5,3.7-10.1,8.7-12.4,12.5c-1.9,3.2-6.1,8.8-10.1,13.9"/>
	<path class="st19" d="M413.6,99c0,0-1.6,1.1-3.9,2.9"/>
	<path class="st19" d="M377.9,144.3c0,0,25.2,9.5,29.2,13.2c2.4,2.2,4.5,4.6,6.5,7.2"/>
	<path class="st19" d="M376.6,153.9c-0.2,4.7-0.1,10.7,1.1,14.8c1.5,4.9,3.4,9.7,5.7,14.3"/>
	<path class="st19" d="M377.1,146.9c0,0-0.2,1.8-0.4,4.4"/>
</g>
<g id="freepik--Hand--inject-2">
	<path class="st3" d="M387.2,363.3c-1.9-5.4-2.3-33.8-1.8-54l11.2,2.4c1.9,0.4,4,0.1,5.7-0.9c0.4-0.2,0.8-0.5,1.2-0.8
		c0.4-0.3,0.7-0.6,1-1c1.1-1.2,1.8-2.6,2-4.2c0-0.3,0.1-0.6,0.1-0.8c0.1-1.6-0.3-3.2-1.2-4.6c-0.3-0.5-0.6-0.9-0.9-1.3
		c-1.3-1.4-3-2.4-4.9-2.6l-13.6-2c0.1-1.8,0.3-3.1,0.4-4c0.2-1.3,0.3-2.7,0.3-4l0.9-3c1.4-4.4,0.3-10.9-3.4-14.5s-17-10.1-20.9-13.5
		s-32.9-24.1-38.1-22.9s-11.4,8.6-16.6,12.8S284.5,264,284.5,264c0.1-0.6-9.7,3.3-12.1,7.1c-0.4,0.3-0.6,0.8-0.5,1.3
		c0.6,2.2,2.2,4,4.3,4.8l-8.5-1.3c-1-0.1-2,0.3-2.5,1.1c-3-0.5-9.1-1.1-13.5,0.1c0,0,7.2,3.5,12.6,4.7c0.3,0.8,1,1.5,1.9,1.7
		l11.3,2.4c-0.2,0.7-0.4,1.3-0.5,2c-0.1,0.6,0,1.2,0.3,1.8c0,0.4,0.1,0.8,0.2,1.2c1.6,6.8,10.2,15.1,16.5,20.5s12.3,14.8,16.1,25.6
		s6.1,20.8,14.4,31.8c1.4,1.9,3,3.6,4.6,5.3l77.6,49C406.6,423.3,390,371.3,387.2,363.3z M286,278c-0.1,0.2-0.3,0.4-0.4,0.6
		l-2.1-0.3C284.3,278.3,285.2,278.2,286,278z"/>
	<path class="st20" d="M361.2,449.9l-49.5-85.6c0,0-5.5-38.9-17.4-54.5s-28.4-27.1-18.8-35.1s34-23.3,39-22.3s38.7,18,48.2,20.8
		s12.8,6.8,11.4,15s-2,65.8,0.8,73.7s34.1,64.6,34.1,64.6"/>
	<g>
		<defs>
			<path id="SVGID_5_" d="M361.2,449.9l-49.5-85.6c0,0-5.5-38.9-17.4-54.5s-28.4-27.1-18.8-35.1s34-23.3,39-22.3s38.7,18,48.2,20.8
				s12.8,6.8,11.4,15s-2,65.8,0.8,73.7s34.1,64.6,34.1,64.6"/>
		</defs>
		<clipPath id="SVGID_6_">
			<use xlink:href="#SVGID_5_"  style="overflow:visible;"/>
		</clipPath>
		<g class="st21">
			<path class="st1" d="M375,361.9c-2.8-8-2.2-65.5-0.8-73.7c0.9-5,0-8.5-3.1-11c0.1,4.6-0.6,9.1-2.2,13.4c-2.7,7.6-4,12.9-4,12.9
				s-0.4,27.1,1.3,41s10.7,38.3,19.1,51.6c6.3,9.9,15.2,18.8,19.4,22.8C396.1,403,377.1,368,375,361.9z"/>
			<path class="st22" d="M375,361.9c-2.8-8-2.2-65.5-0.8-73.7c0.9-5,0-8.5-3.1-11c0.1,4.6-0.6,9.1-2.2,13.4c-2.7,7.6-4,12.9-4,12.9
				s-0.4,27.1,1.3,41s10.7,38.3,19.1,51.6c6.3,9.9,15.2,18.8,19.4,22.8C396.1,403,377.1,368,375,361.9z"/>
		</g>
	</g>
	<path class="st9" d="M361.2,449.9l-49.5-85.6c0,0-5.5-38.9-17.4-54.5s-28.4-27.1-18.8-35.1s34-23.3,39-22.3s38.7,18,48.2,20.8
		s12.8,6.8,11.4,15s-2,65.8,0.8,73.7s34.1,64.6,34.1,64.6"/>
	<path class="st1" d="M262.5,276.2c7.8-0.4,15.3-2.9,21.8-7.1c11.1-7.1,7.6-8.5,7.6-8.5s5.8-1.8,9.3-3.1c3-1.3,5.8-3,8.5-4.9
		c0,0,14.3,9.4,20.9,12c3.2,1.4,6.5,2.5,9.8,3.4l9.3,12.2c-5.2,2.5-9.7,6.3-12.9,11.1c-5.3,8-12,18.7-15.1,20s-1.8,2.7-15.6-2.7
		S261.6,284.3,262.5,276.2z"/>
	<path class="st22" d="M262.5,276.2c7.8-0.4,15.3-2.9,21.8-7.1c11.1-7.1,7.6-8.5,7.6-8.5s5.8-1.8,9.3-3.1c3-1.3,5.8-3,8.5-4.9
		c0,0,14.3,9.4,20.9,12c3.2,1.4,6.5,2.5,9.8,3.4l9.3,12.2c-5.2,2.5-9.7,6.3-12.9,11.1c-5.3,8-12,18.7-15.1,20s-1.8,2.7-15.6-2.7
		S261.6,284.3,262.5,276.2z"/>
	<path class="st9" d="M287.1,280.4c0,0,10.7-1.3,18.2-15c0,0,8.9,3.8,18.1,1.4"/>
	<path class="st9" d="M316.1,270.4c0,0-5.2,13.7,5.7,31.7"/>
	<path class="st9" d="M304.7,271.7c0,0,5.4,6.6,6.3,12.4"/>
	<path class="st9" d="M314.8,308.5c0,0,9-5.7,13.8-11.6s7-12.2,14.5-14.6"/>
	<line class="st9" x1="305.4" y1="265.3" x2="303.2" y2="262.7"/>
	<path class="st4" d="M254.8,276c0,0-9.3-1.9-15.4-0.2c0,0,8.9,4.4,14.3,5L254.8,276z"/>
	<path class="st6" d="M387.3,294.1l-131.8-19.6c-1.3-0.2-2.5,0.6-2.9,1.9L252,279c-0.4,1.4,0.5,2.8,1.8,3.1c0,0,0.1,0,0.1,0
		l130.5,28.2c4.4,1,8.8-1.9,9.8-6.3c0-0.2,0.1-0.3,0.1-0.5l0,0C394.9,299,391.8,294.8,387.3,294.1
		C387.3,294.1,387.3,294.1,387.3,294.1z"/>
	<path class="st4" d="M387.3,294.1l-19.9-3c-3.7,2.3-5.6,6.7-4.5,10.9c0.3,1.5,1,2.8,1.9,4l19.6,4.2c4.4,1,8.8-1.9,9.8-6.3
		c0-0.2,0.1-0.3,0.1-0.5l0,0C394.9,299,391.8,294.8,387.3,294.1z"/>
	<path class="st20" d="M333.9,306.4c0,0-11.3,2.7-16.4,1.5s-15.4-15.8-22.5-20.5s-11.4-5.9-18.9-7s-12.6,2.5-11,9.3
		s10.2,15.1,16.5,20.5s12.3,14.8,16.1,25.6s6.1,20.8,14.4,31.8s18.7,15.5,22.2,16.1"/>
	<g>
		<defs>
			<path id="SVGID_7_" d="M333.9,306.4c0,0-11.3,2.7-16.4,1.5s-15.4-15.8-22.5-20.5s-11.4-5.9-18.9-7s-12.6,2.5-11,9.3
				s10.2,15.1,16.5,20.5s12.3,14.8,16.1,25.6s6.1,20.8,14.4,31.8s18.7,15.5,22.2,16.1"/>
		</defs>
		<clipPath id="SVGID_8_">
			<use xlink:href="#SVGID_7_"  style="overflow:visible;"/>
		</clipPath>
		<g class="st23">
			<path class="st1" d="M328.3,308l-0.8-0.4c-3.4,0.5-7.5,0.9-10,0.3c-5.1-1.2-15.4-15.8-22.5-20.5s-11.4-5.9-18.9-7
				c-1.2-0.2-2.4-0.2-3.6-0.2c5.7,1.4,11.2,3.9,16,7.3c7.9,5.7,13.6,20.2,22.4,22.9S328.3,308,328.3,308z"/>
			<path class="st22" d="M328.3,308l-0.8-0.4c-3.4,0.5-7.5,0.9-10,0.3c-5.1-1.2-15.4-15.8-22.5-20.5s-11.4-5.9-18.9-7
				c-1.2-0.2-2.4-0.2-3.6-0.2c5.7,1.4,11.2,3.9,16,7.3c7.9,5.7,13.6,20.2,22.4,22.9S328.3,308,328.3,308z"/>
		</g>
	</g>
	<path class="st9" d="M333.9,306.4c0,0-11.3,2.7-16.4,1.5s-15.4-15.8-22.5-20.5s-11.4-5.9-18.9-7s-12.6,2.5-11,9.3
		s10.2,15.1,16.5,20.5s12.3,14.8,16.1,25.6s6.1,20.8,14.4,31.8s18.7,15.5,22.2,16.1"/>
	<path class="st5" d="M270.8,294.5c0,0,0.5-5.9,8.6-11.3c0,0-5.4-3.5-9-2.9s-5.1,2.6-5.7,6.4S270.8,294.5,270.8,294.5z"/>
	<path class="st9" d="M276.1,300.7c0.6,0.6,1.3,1.2,2.1,1.6"/>
	<path class="st9" d="M282,286.8c0,0-8.5,4.4-7.2,11.3"/>
	<path class="st20" d="M374,285.5l1.4-4.4c1.4-4.4,0.3-10.8-3.4-14.5s-17-10.1-20.9-13.5S318.2,229,313,230.3s-11.4,8.6-16.6,12.8
		s-24.1,19.5-24.1,19.5s-13.3,5.7-12.6,8.4s3.4,6.1,11.7,5.9s22.2-8.5,24.3-9.8s15.2-9.8,15.2-9.8c3.4,3.3,7.3,6.1,11.5,8.3
		c6.2,2.9,7,3.1,7,3.1s1.6,5.9,6.1,8.9"/>
	<g>
		<defs>
			<path id="SVGID_9_" d="M374,285.5l1.4-4.4c1.4-4.4,0.3-10.8-3.4-14.5s-17-10.1-20.9-13.5S318.2,229,313,230.3
				s-11.4,8.6-16.6,12.8s-24.1,19.5-24.1,19.5s-13.3,5.7-12.6,8.4s3.4,6.1,11.7,5.9s22.2-8.5,24.3-9.8s15.2-9.8,15.2-9.8
				c3.4,3.3,7.3,6.1,11.5,8.3c6.2,2.9,7,3.1,7,3.1s1.6,5.9,6.1,8.9"/>
		</defs>
		<clipPath id="SVGID_10_">
			<use xlink:href="#SVGID_9_"  style="overflow:visible;"/>
		</clipPath>
		<g class="st24">
			<path class="st1" d="M366.6,266.9c4.8,3.8,5.1,11.2,3.8,17.9l3.6,0.7l1.4-4.4c1.4-4.4,0.3-10.8-3.4-14.5s-17-10.1-20.9-13.5
				c-1-0.9-3.8-2.9-7.3-5.5l-0.7,0.1C343.1,247.7,360.4,262,366.6,266.9z"/>
			<path class="st22" d="M366.6,266.9c4.8,3.8,5.1,11.2,3.8,17.9l3.6,0.7l1.4-4.4c1.4-4.4,0.3-10.8-3.4-14.5s-17-10.1-20.9-13.5
				c-1-0.9-3.8-2.9-7.3-5.5l-0.7,0.1C343.1,247.7,360.4,262,366.6,266.9z"/>
			<path class="st1" d="M262.5,276.2c7.8-0.4,15.3-2.9,21.8-7.1c11.1-7.1,7.6-8.5,7.6-8.5s5.8-1.8,9.3-3.1c3-1.3,5.8-3,8.5-4.9
				c0,0,14.3,9.4,20.9,12c3.2,1.4,6.5,2.5,9.8,3.4l9.3,12.2c-5.2,2.5-9.7,6.3-12.9,11.1c-5.3,8-12,18.7-15.1,20s-1.8,2.7-15.6-2.7
				S261.6,284.3,262.5,276.2z"/>
			<path class="st22" d="M262.5,276.2c7.8-0.4,15.3-2.9,21.8-7.1c11.1-7.1,7.6-8.5,7.6-8.5s5.8-1.8,9.3-3.1c3-1.3,5.8-3,8.5-4.9
				c0,0,14.3,9.4,20.9,12c3.2,1.4,6.5,2.5,9.8,3.4l9.3,12.2c-5.2,2.5-9.7,6.3-12.9,11.1c-5.3,8-12,18.7-15.1,20s-1.8,2.7-15.6-2.7
				S261.6,284.3,262.5,276.2z"/>
		</g>
	</g>
	<path class="st9" d="M374,285.5l1.4-4.4c1.4-4.4,0.3-10.8-3.4-14.5s-17-10.1-20.9-13.5S318.2,229,313,230.3s-11.4,8.6-16.6,12.8
		s-24.1,19.5-24.1,19.5s-13.3,5.7-12.6,8.4s3.4,6.1,11.7,5.9s22.2-8.5,24.3-9.8s15.2-9.8,15.2-9.8c3.4,3.3,7.3,6.1,11.5,8.3
		c6.2,2.9,7,3.1,7,3.1s1.6,5.9,6.1,8.9"/>
	<path class="st5" d="M259.6,271c0,0,1.3,0.6,4.2-0.5s8.4-7.2,8.4-8S260,266.9,259.6,271z"/>
	<path class="st9" d="M310.2,247.6c0.1-0.6,0.3-1.2,0.5-1.8"/>
	<path class="st9" d="M310.7,257.4c-0.8-2.4-1.1-4.9-0.9-7.4"/>
</g>
</svg>
