<?xml version="1.0" encoding="utf-8"?>
<!-- Generator: Adobe Illustrator 24.0.2, SVG Export Plug-In . SVG Version: 6.00 Build 0)  -->
<svg version="1.1" id="圖層_1" xmlns="http://www.w3.org/2000/svg" xmlns:xlink="http://www.w3.org/1999/xlink" x="0px" y="0px"
	 viewBox="0 0 500 500" style="enable-background:new 0 0 500 500;" xml:space="preserve">
<style type="text/css">
	.st0{fill:#D4D1E3;}
	.st1{fill:#F5F5F5;}
	.st2{fill:#EBEBEB;}
	.st3{fill:#E0E0E0;}
	.st4{fill:#FAFAFA;}
	.st5{fill:#263238;}
	.st6{fill:#69A4A7;}
	.st7{fill:#455A64;}
	.st8{opacity:0.3;}
	.st9{clip-path:url(#SVGID_2_);}
	.st10{fill:none;}
</style>
<rect class="st0" width="500" height="500"/>
<g id="freepik--background-complete--inject-2">
	<polygon class="st1" points="275.5,379 453.4,381.5 443.8,317.5 	"/>
	
		<rect x="274.7" y="321.4" transform="matrix(0.9995 -3.001516e-02 3.001516e-02 0.9995 -10.3304 10.9531)" class="st2" width="170" height="56.4"/>
	<path class="st3" d="M422,338.3c0,0.1-28.5,1.1-63.6,2.2s-63.6,1.8-63.6,1.6s28.5-1.1,63.6-2.2S422,338.1,422,338.3z"/>
	<path class="st3" d="M423.4,352.9c0,0.1-28.5,1.1-63.6,2.2s-63.6,1.8-63.6,1.6s28.5-1.1,63.6-2.2S423.3,352.8,423.4,352.9z"/>
	<polygon class="st1" points="323.3,314.4 389.1,312.4 386,315.7 391,319.1 385.9,322.1 391.2,325.9 322.1,327.9 326,323.8 
		323.4,320.2 326.9,317.9 	"/>
	<path class="st4" d="M28.5,213.6l12.7,48.2c6.1,2.1,12.3,3.8,19.9,1.8l36-10.7l-17.8-55.2L28.5,213.6z"/>
	<polygon class="st1" points="25.3,211.8 38,260 57.9,261.8 93.9,251.1 79.2,197 	"/>
	<path class="st3" d="M43,254.6l-5,5.4c2.5,1.5,5.3,2.5,8.3,2.9c3.9,0.4,7.8,0.1,11.6-1C57.9,261.9,48.8,261.8,43,254.6z"/>
	<polygon class="st2" points="24.9,223.7 44.1,205.4 40.3,201.4 20.6,219.5 	"/>
	<polygon class="st2" points="88.9,206.8 65,195.5 62.6,200.5 86.6,212.4 	"/>
	<path class="st3" d="M77.8,215.8c0,0.1-9.1,2.8-20.4,5.9S37,227.2,36.9,227s9.1-2.8,20.4-5.9S77.8,215.6,77.8,215.8z"/>
	<path class="st3" d="M79.7,223.2c0,0.1-9.1,2.8-20.4,5.9s-20.5,5.5-20.5,5.4s9.1-2.8,20.4-5.9S79.7,223,79.7,223.2z"/>
	<path class="st3" d="M81.7,229.7c0,0.1-9.1,2.8-20.4,5.9s-20.5,5.5-20.5,5.4s9.1-2.8,20.4-5.9S81.7,229.5,81.7,229.7z"/>
	<path class="st3" d="M83.4,236c0,0.1-9.1,2.8-20.4,5.9s-20.5,5.5-20.5,5.4s9.1-2.8,20.4-5.9S83.4,235.8,83.4,236z"/>
	<path class="st2" d="M435.8,387.3c-3,0.3-5.7,1.8-7.5,4.1c-1.8,2.4-3.1,5.1-3.6,8c-1.3,5.5-0.2,12,1.5,17.5
		c5.9-2.3,9.4-8.8,10.9-12.2C439.5,399.3,440.7,388.1,435.8,387.3"/>
	<path class="st2" d="M417.8,423.8c1.7-2.9,1.8-6.5,0.1-9.4c-1.7-2.9-4.4-5-7.7-5.8c-1.4-0.5-3.1-0.4-4.4,0.4
		c-1.1,0.9-1.7,2.4-1.4,3.8c0.3,1.4,0.9,2.7,1.8,3.8C409.2,420.4,412.9,423.5,417.8,423.8"/>
	<path class="st3" d="M417.7,442.2c0.1-0.4,0.2-0.8,0.2-1.1c0.1-0.8,0.3-1.9,0.5-3.2c0.7-3.5,0.8-7,0.3-10.5c-0.5-3.5-2-6.9-4.2-9.6
		c-0.7-0.8-1.5-1.6-2.3-2.2c-0.2-0.2-0.5-0.3-0.7-0.5c-0.2-0.1-0.3-0.2-0.3-0.1c1.1,0.9,2.2,1.9,3.1,3c2.1,2.8,3.5,6.1,4,9.5
		c0.4,3.5,0.4,7-0.2,10.4c-0.2,1.3-0.3,2.4-0.4,3.2C417.6,441.4,417.6,441.8,417.7,442.2z"/>
	<path class="st3" d="M434.1,395.7c-0.1,0.1-0.2,0.3-0.2,0.5l-0.6,1.3c-0.5,1.2-1.2,2.9-2,5c-1.7,4.2-3.9,10.1-6.2,16.6
		s-4.3,12.5-5.6,16.8c-0.7,2.2-1.2,3.9-1.6,5.1c-0.2,0.6-0.3,1-0.4,1.4c-0.1,0.2-0.1,0.3-0.1,0.5c0.1-0.1,0.1-0.3,0.2-0.5l0.5-1.4
		l1.7-5.1c1.4-4.3,3.4-10.3,5.7-16.8s4.5-12.4,6.1-16.6c0.8-2.1,1.4-3.8,1.9-5l0.5-1.4C434,396.1,434.1,395.9,434.1,395.7z"/>
	<path class="st2" d="M424.4,429.8c3.4-6.2,9.6-10.3,16.6-11.1c1.8-0.2,3.9,0,4.7,1.6s-0.2,3.5-1.3,4.8c-5.1,5.6-13,7.6-20.1,5.1"/>
	<path class="st3" d="M438.5,423.5c-0.4,0-0.7,0-1.1,0.1c-0.4,0-0.9,0.1-1.3,0.2c-0.5,0.1-1.1,0.2-1.7,0.4c-0.7,0.2-1.3,0.4-2,0.6
		c-0.8,0.3-1.5,0.6-2.2,0.9c-3.3,1.6-6.2,4-8.4,6.9c-0.5,0.6-0.9,1.3-1.3,2c-0.4,0.6-0.7,1.2-1,1.9c-0.3,0.5-0.5,1-0.7,1.6
		c-0.2,0.4-0.3,0.8-0.4,1.2c-0.1,0.3-0.2,0.7-0.3,1.1c0.1,0,0.5-1.5,1.6-3.8c0.3-0.6,0.6-1.2,1-1.8c0.4-0.7,0.8-1.3,1.3-2
		c2.2-2.9,5-5.2,8.3-6.8c1.3-0.6,2.7-1.2,4.1-1.6C436.9,423.7,438.5,423.6,438.5,423.5z"/>
</g>
<g id="freepik--Floor--inject-2">
	<path class="st5" d="M462.9,442.4c0,0.1-95.3,0.3-212.9,0.3s-212.9-0.1-212.9-0.3s95.3-0.3,212.9-0.3S462.9,442.2,462.9,442.4z"/>
</g>
<g id="freepik--Notes--inject-2">
	<path class="st2" d="M243.7,82l0.4,8c1.2-1.1,2.7-1.8,4.4-1.9c3.9,0.1,6.9,3.3,6.8,7.2c-0.1,3.5-2.7,6.3-6.1,6.8
		c-1.6,0.1-3.3-0.4-4.6-1.4l0.4,8.1c1.2-1.1,2.7-1.8,4.4-1.9c3.9,0.1,6.9,3.3,6.8,7.2c-0.1,3.5-2.7,6.3-6.1,6.8
		c-1.6,0.1-3.3-0.4-4.6-1.4l0.4,8.1c1.2-1.1,2.7-1.8,4.4-1.9c3.9,0.1,6.9,3.4,6.8,7.2c-0.1,3.4-2.7,6.2-6,6.7
		c-1.6,0.1-3.3-0.4-4.6-1.4l0.4,8.1c1.2-1.1,2.7-1.8,4.4-1.9c3.9,0.1,6.9,3.4,6.8,7.2c-0.1,3.4-2.7,6.2-6,6.7
		c-1.6,0.1-3.3-0.4-4.6-1.4l0.4,8.1c1.2-1.1,2.7-1.8,4.4-1.9c3.9,0.1,6.9,3.4,6.8,7.2c-0.1,3.4-2.7,6.2-6,6.7
		c-1.6,0.1-3.3-0.4-4.6-1.4l0.4,8.1c1.2-1.1,2.7-1.8,4.4-1.9c3.9,0.1,6.9,3.3,6.8,7.2c-0.1,3.5-2.7,6.3-6.1,6.8
		c-1.6,0.1-3.3-0.4-4.6-1.4l0.3,5l215.1-5.1L454.1,68.6L243.7,82z"/>
	<path class="st1" d="M238.9,76.8l0.4,8.1c1.2-1.1,2.7-1.8,4.4-1.9c3.9,0.1,6.9,3.3,6.8,7.2c-0.1,3.5-2.7,6.3-6.1,6.8
		c-1.6,0.1-3.3-0.4-4.6-1.4l0.4,8.1c2.8-2.7,7.2-2.6,9.9,0.2c2.7,2.8,2.6,7.2-0.2,9.9c-2.5,2.4-6.4,2.6-9.1,0.5l0.4,8.1
		c1.2-1.1,2.7-1.8,4.4-1.9c3.9,0.1,6.9,3.3,6.8,7.2c-0.1,3.4-2.7,6.2-6,6.7c-1.6,0.1-3.3-0.4-4.6-1.4l0.4,8.1
		c1.2-1.1,2.7-1.8,4.4-1.9c3.9,0.1,6.9,3.3,6.8,7.2c-0.1,3.4-2.7,6.2-6,6.7c-1.6,0.1-3.3-0.4-4.6-1.4l0.4,8.1
		c1.2-1.1,2.7-1.8,4.4-1.9c3.9,0.1,6.9,3.3,6.8,7.2c-0.1,3.5-2.7,6.3-6.1,6.8c-1.6,0.1-3.3-0.4-4.6-1.4l0.4,8.1
		c1.2-1.1,2.7-1.8,4.4-1.9c3.9,0.1,6.9,3.3,6.8,7.2c-0.1,3.5-2.7,6.3-6.1,6.8c-1.6,0.1-3.3-0.4-4.6-1.4l0.3,5l215-11.5l-6.3-117
		L238.9,76.8z"/>
	<path class="st3" d="M455.2,88.5c0,0.1-48.1,2.8-107.5,6s-107.5,5.7-107.5,5.5s48.1-2.8,107.5-6S455.2,88.3,455.2,88.5z"/>
	<path class="st3" d="M456.2,107.2c0,0.1-48.1,2.8-107.5,6s-107.5,5.6-107.5,5.5s48.1-2.8,107.5-6S456.2,107.1,456.2,107.2z"/>
	<path class="st3" d="M457.2,125.9c0,0.2-48.1,2.8-107.5,6s-107.5,5.6-107.5,5.5s48.1-2.8,107.5-6S457.2,125.8,457.2,125.9z"/>
	<path class="st3" d="M458.2,144.6c0,0.1-48.1,2.8-107.5,6s-107.5,5.6-107.5,5.5s48.1-2.8,107.5-6S458.2,144.5,458.2,144.6z"/>
	<path class="st3" d="M459.2,163.4c0,0.1-48.1,2.8-107.5,6s-107.5,5.6-107.5,5.5s48.1-2.8,107.5-6S459.2,163.2,459.2,163.4z"/>
	
		<rect x="271.7" y="75.1" transform="matrix(0.9986 -5.338169e-02 5.338169e-02 0.9986 -6.7514 14.7068)" class="st6" width="0.5" height="117.2"/>
	<path class="st3" d="M294.5,191.2c-0.1,0-1.7-26.2-3.4-58.5s-3-58.5-2.9-58.5s1.7,26.2,3.4,58.5S294.7,191.2,294.5,191.2z"/>
	<path class="st3" d="M256.3,193.2c-0.1,0-1.7-26.2-3.4-58.5s-3-58.5-2.9-58.5s1.7,26.2,3.4,58.5S256.4,193.2,256.3,193.2z"/>
	<path class="st3" d="M315.5,190.1c-0.1,0-1.7-26.2-3.4-58.5s-3-58.5-2.9-58.5s1.7,26.2,3.4,58.5S315.7,190.1,315.5,190.1z"/>
	<path class="st3" d="M336.5,189c-0.1,0-1.7-26.2-3.4-58.5s-3-58.5-2.9-58.5s1.7,26.2,3.4,58.5S336.6,189,336.5,189z"/>
	<path class="st3" d="M357.4,187.8c-0.1,0-1.7-26.2-3.4-58.5s-3-58.5-2.9-58.5s1.7,26.2,3.4,58.5S357.6,187.8,357.4,187.8z"/>
	<path class="st3" d="M378.4,186.7c-0.1,0-1.7-26.2-3.4-58.5s-3-58.5-2.9-58.5s1.7,26.2,3.4,58.5S378.5,186.7,378.4,186.7z"/>
	<path class="st3" d="M399.4,185.6c-0.1,0-1.7-26.2-3.4-58.5s-3-58.5-2.9-58.5s1.7,26.2,3.4,58.5S399.5,185.6,399.4,185.6z"/>
	<path class="st3" d="M420.3,184.5c-0.1,0-1.7-26.2-3.4-58.5s-3-58.5-2.9-58.5s1.7,26.2,3.4,58.5S420.5,184.5,420.3,184.5z"/>
	<path class="st3" d="M441.3,183.3c-0.1,0-1.7-26.2-3.4-58.5s-3-58.5-2.9-58.5s1.7,26.2,3.4,58.5S441.4,183.3,441.3,183.3z"/>
	<path class="st5" d="M438.7,112.5c-0.1,0-0.3,0-0.4,0l-1.1,0.1l-4.4,0.3l-16.2,0.9c-13.7,0.8-32.5,1.8-53.4,2.8s-39.7,1.9-53.4,2.4
		c-6.8,0.3-12.4,0.4-16.2,0.5s-6,0-5.9-0.1c0.5,0.1,1,0.1,1.5,0.1c1,0,2.5-0.1,4.4-0.1c3.8-0.1,9.4-0.4,16.2-0.7l53.4-2.6l53.4-2.6
		l16.2-0.8l4.4-0.2h1.1C438.4,112.5,438.6,112.5,438.7,112.5z"/>
	<path class="st5" d="M443,133.9c0,0.1-34.7,1.9-77.5,3.8S288,141.1,288,141s34.7-1.9,77.5-3.8S443,133.7,443,133.9z"/>
	<path class="st5" d="M445.3,152.6c0,0.1-34.7,1.9-77.5,3.8s-77.5,3.4-77.5,3.3s34.7-1.9,77.5-3.8S445.3,152.4,445.3,152.6z"/>
	<path class="st3" d="M263,89.1c0.9,4.7,3,9.4,6.9,12.1c5.6,3.9,13.2,2.5,17.1-3.1s2.5-13.2-3.1-17.1c-2.8-1.9-6.2-2.6-9.5-1.9"/>
	<path class="st7" d="M262.5,89.1c0.3,5.4,4.9,9.5,10.3,9.2s9.5-4.9,9.2-10.3c-0.3-5.4-4.9-9.5-10.3-9.2
		C266.3,79.1,262.2,83.7,262.5,89.1C262.5,89.1,262.5,89.1,262.5,89.1z"/>
	<path class="st7" d="M256.9,85.4c0.2,3.2,2.9,5.7,6.2,5.5s5.7-2.9,5.5-6.2c-0.2-3.2-2.9-5.7-6.2-5.5
		C259.2,79.4,256.7,82.2,256.9,85.4C256.8,85.4,256.8,85.4,256.9,85.4z"/>
	<path class="st5" d="M262.3,90.9c0.7,0,1.5-0.1,2.2-0.3c1.7-0.5,3.1-1.8,3.7-3.4c0.6-1.7,0.3-3.6-0.6-5.1c-0.4-0.6-0.9-1.2-1.5-1.7
		c0,0,0.2,0.1,0.6,0.3c0.5,0.3,0.9,0.7,1.2,1.2c1.1,1.6,1.4,3.6,0.8,5.4c-0.4,1-1,1.9-1.8,2.5c-0.7,0.5-1.5,0.9-2.3,1.1
		c-0.6,0.1-1.1,0.2-1.7,0.1C262.5,91,262.3,90.9,262.3,90.9z"/>
	<path class="st5" d="M267.2,81.5c2.3,0.8,4.8,0.2,6.5-1.5c0,0-0.1,0.4-0.6,0.9c-1.3,1.3-3.2,1.7-4.9,1.1
		C267.5,81.9,267.2,81.6,267.2,81.5z"/>
	<path class="st5" d="M268.7,96.4c-0.2-0.4-0.3-0.8-0.4-1.2c-0.7-1.9-2.2-3.3-4.1-3.9c-0.7-0.2-1.2-0.3-1.2-0.3s0.5-0.2,1.3,0
		c2.1,0.4,3.8,2,4.4,4.1C268.9,95.9,268.8,96.4,268.7,96.4z"/>
	<path class="st3" d="M428.3,82.2c1,4.7,3,9.4,6.9,12c5.6,3.8,13.2,2.4,17.1-3.2c2.5-3.7,2.9-8.4,0.9-12.4c-2.6-4.9-8-7.6-13.5-6.6"
		/>
	<path class="st6" d="M447.1,79.5c0.3,5.2-3.7,9.7-8.9,9.9s-9.7-3.7-9.9-8.9c-0.3-5.2,3.7-9.7,8.9-9.9
		C442.4,70.3,446.9,74.3,447.1,79.5C447.1,79.5,447.1,79.5,447.1,79.5z"/>
	<circle class="st6" cx="446.5" cy="75.8" r="5.7"/>
	<path class="st5" d="M447.5,81.3c0,0-0.2,0.1-0.6,0.2c-0.5,0.1-1.1,0.2-1.6,0.1c-0.8-0.1-1.6-0.4-2.3-0.8c-0.9-0.5-1.6-1.3-2-2.2
		c-0.8-1.7-0.7-3.7,0.2-5.3c0.3-0.7,0.9-1.3,1.5-1.6c-0.5,0.6-0.9,1.2-1.2,1.8c-0.8,1.5-0.8,3.3-0.1,4.9c0.8,1.5,2.2,2.6,3.9,2.9
		C446.1,81.3,446.8,81.3,447.5,81.3z"/>
	<path class="st5" d="M441.8,72.8c0,0-0.3,0.3-0.8,0.6c-1.6,0.7-3.5,0.5-4.9-0.6c-0.5-0.4-0.7-0.8-0.7-0.8c0.9,0.6,2,1.1,3.1,1.3
		C439.6,73.3,440.7,73.2,441.8,72.8z"/>
	<path class="st5" d="M441.9,87.2c-0.1-0.4-0.2-0.8-0.1-1.3c0.2-1,0.6-2,1.3-2.8c0.7-0.8,1.5-1.4,2.5-1.7c0.8-0.2,1.3-0.2,1.3-0.1
		s-0.5,0.2-1.1,0.5c-1.8,0.8-3.1,2.3-3.6,4.2C442,86.8,442,87.2,441.9,87.2z"/>
	<path class="st3" d="M94.3,61.8L72.6,170.5c10.1,10.1,20.7,19.6,37.9,23.1l82.4,13.9l18.4-127.7L94.3,61.8z"/>
	<polygon class="st6" points="89.6,55.2 67.9,163.8 105.8,186.9 188.2,200.8 211.6,78.2 	"/>
	<path class="st6" d="M83.2,157.9l-15.3,5.9c0,0,5.6,9,13.7,13.8c7.4,4.6,15.6,7.7,24.2,9.3C105.8,186.9,87.7,178.1,83.2,157.9z"/>
	<g class="st8">
		<path d="M83.2,157.9c-5.9,4-12.4,9-15.3,5.9c0,0,5.6,9,13.7,13.8c7.4,4.6,15.6,7.7,24.2,9.3C105.8,186.9,87.7,178.1,83.2,157.9z"
			/>
	</g>
	<polygon class="st3" points="77.2,78.6 133.4,60.7 129.7,48.9 72.6,65.9 	"/>
	<polygon class="st3" points="221.6,107.4 184.8,61.4 175,69.1 211.4,116.2 	"/>
	<path class="st5" d="M190.7,114.4c0,0.1-20.8-3.7-46.4-8.5s-46.4-8.8-46.3-9s20.8,3.7,46.4,8.5S190.7,114.2,190.7,114.4z"/>
	<path class="st5" d="M187.1,131c0,0.1-20.8-3.7-46.4-8.5s-46.4-8.8-46.3-9s20.8,3.7,46.4,8.5S187.2,130.9,187.1,131z"/>
	<path class="st5" d="M184.9,146c0,0.1-20.8-3.6-46.4-8.5s-46.4-8.8-46.3-9s20.8,3.6,46.4,8.5S184.9,145.8,184.9,146z"/>
	<path class="st5" d="M182.1,160.2c0,0.1-20.8-3.6-46.4-8.5s-46.4-8.8-46.3-9s20.8,3.6,46.4,8.5S182.1,160.1,182.1,160.2z"/>
	<polygon class="st3" points="269.5,276.3 445.2,298.7 442.9,234.4 	"/>
	
		<rect x="328" y="171.9" transform="matrix(8.315607e-02 -0.9965 0.9965 8.315607e-02 70.7287 590.0961)" class="st7" width="56.2" height="169.3"/>
	<path class="st5" d="M419,252.4c0,0.1-28.3-2.1-63.2-5s-63.1-5.4-63.1-5.5s28.3,2.1,63.2,5S419,252.3,419,252.4z"/>
	<path class="st5" d="M418.7,267.1c0,0.1-28.3-2.1-63.2-5s-63.1-5.4-63.1-5.5s28.3,2.1,63.2,5S418.7,266.9,418.7,267.1z"/>
	<polygon class="st2" points="324,217.7 389.4,223.2 386,226.1 390.5,230 385.1,232.4 389.9,236.7 321.4,230.9 325.6,227.3 
		323.5,223.5 327.2,221.6 	"/>
	<path class="st3" d="M243.4,235.1c2.1,3.6,0.9,8.3-2.7,10.4c-3.6,2.1-8.3,0.9-10.4-2.7c-1.4-2.4-1.4-5.4,0-7.7h-8.8
		c2.1,3.6,0.9,8.3-2.7,10.4c-3.6,2.1-8.3,0.9-10.4-2.7c-1.4-2.4-1.4-5.4,0-7.7h-8.8c2.1,3.6,0.9,8.3-2.7,10.4
		c-3.6,2.1-8.3,0.9-10.4-2.7c-1.4-2.4-1.4-5.4,0-7.7h-8.8c2.1,3.6,0.9,8.3-2.7,10.4c-3.6,2.1-8.3,0.9-10.4-2.7
		c-1.4-2.4-1.4-5.4,0-7.7H156c2.1,3.6,0.9,8.3-2.7,10.4c-3.6,2.1-8.3,0.9-10.4-2.7c-1.4-2.4-1.4-5.4,0-7.7h-8.8
		c2.1,3.6,0.9,8.3-2.7,10.4c-3.6,2.1-8.3,0.9-10.4-2.7c-1.4-2.4-1.4-5.4,0-7.7h-5.5v157l137.3,7.5l-6.6-164.5L243.4,235.1z"/>
	<g>
		<defs>
			<path id="SVGID_1_" d="M241.4,230.8c2.2,3.6,1,8.3-2.6,10.4c-3.6,2.2-8.3,1-10.4-2.6c-1.5-2.4-1.5-5.5,0-7.9h-8.8
				c2.1,3.6,0.9,8.3-2.7,10.4c-3.6,2.1-8.3,0.9-10.4-2.7c-0.7-1.2-1.1-2.5-1.1-3.9c0-1.4,0.4-2.7,1.1-3.9h-8.8
				c2.1,3.6,0.9,8.3-2.7,10.4c-3.6,2.1-8.3,0.9-10.4-2.7c-0.7-1.2-1.1-2.5-1.1-3.9c0-1.4,0.4-2.7,1.1-3.9h-8.8
				c2.1,3.6,0.9,8.3-2.7,10.4c-3.6,2.1-8.3,0.9-10.4-2.7c-1.4-2.4-1.4-5.4,0-7.7H154c2.1,3.6,0.9,8.3-2.7,10.4
				c-3.6,2.1-8.3,0.9-10.4-2.7c-1.4-2.4-1.4-5.4,0-7.7h-8.8c2.1,3.6,0.9,8.3-2.7,10.4c-3.6,2.1-8.3,0.9-10.4-2.7
				c-1.4-2.4-1.4-5.4,0-7.7h-5.5v157h130.8v-157H241.4z"/>
		</defs>
		<clipPath id="SVGID_2_">
			<use xlink:href="#SVGID_1_"  style="overflow:visible;"/>
		</clipPath>
		<g class="st9">
			<path class="st1" d="M241.4,230.8c2.2,3.6,1,8.3-2.6,10.4c-3.6,2.2-8.3,1-10.4-2.6c-1.5-2.4-1.5-5.5,0-7.9h-8.8
				c2.1,3.6,0.9,8.3-2.7,10.4c-3.6,2.1-8.3,0.9-10.4-2.7c-0.7-1.2-1.1-2.5-1.1-3.9c0-1.4,0.4-2.7,1.1-3.9h-8.8
				c2.1,3.6,0.9,8.3-2.7,10.4c-3.6,2.1-8.3,0.9-10.4-2.7c-0.7-1.2-1.1-2.5-1.1-3.9c0-1.4,0.4-2.7,1.1-3.9h-8.8
				c2.1,3.6,0.9,8.3-2.7,10.4c-3.6,2.1-8.3,0.9-10.4-2.7c-1.4-2.4-1.4-5.4,0-7.7H154c2.1,3.6,0.9,8.3-2.7,10.4
				c-3.6,2.1-8.3,0.9-10.4-2.7c-1.4-2.4-1.4-5.4,0-7.7h-8.8c2.1,3.6,0.9,8.3-2.7,10.4c-3.6,2.1-8.3,0.9-10.4-2.7
				c-1.4-2.4-1.4-5.4,0-7.7h-5.5v157h130.8v-157H241.4z"/>
			<path class="st3" d="M105.6,395c-0.1,0-0.7-38-1.1-85s-0.8-85-0.6-85s0.6,38,1.1,85S105.8,395,105.6,395z"/>
			<path class="st3" d="M126.6,394.8c-0.1,0-0.6-38-1.1-85s-0.8-85-0.6-85s0.7,38,1.1,85S126.7,394.8,126.6,394.8z"/>
			<path class="st3" d="M137,394.8c-0.1,0-0.6-38-1.1-85s-0.8-85-0.6-85s0.6,38,1.1,85S137.2,394.8,137,394.8z"/>
			<path class="st3" d="M158.2,394.8c-0.1,0-0.6-38-1.1-85s-0.8-85-0.6-85s0.6,38,1.1,85S158.4,394.8,158.2,394.8z"/>
			<path class="st3" d="M179.4,394.8c-0.1,0-0.6-38-1.1-85s-0.8-85-0.6-85s0.6,38,1.1,85S179.6,394.8,179.4,394.8z"/>
			<path class="st3" d="M200.7,394.8c-0.1,0-0.6-38-1.1-85s-0.8-85-0.6-85s0.6,38,1.1,85S200.8,394.8,200.7,394.8z"/>
			<path class="st3" d="M220.8,394.8c-0.1,0-0.6-38-1.1-85s-0.8-85-0.6-85s0.6,38,1.1,85S220.9,394.8,220.8,394.8z"/>
			<path class="st3" d="M240.9,394.8c-0.1,0-0.6-38-1.1-85s-0.8-85-0.6-85s0.6,38,1.1,85S241.1,394.8,240.9,394.8z"/>
			<path class="st3" d="M147.6,394.6c-0.1,0-0.6-38-1.1-85s-0.8-85-0.6-85s0.6,38,1.1,85S147.7,394.6,147.6,394.6z"/>
			<path class="st3" d="M168.6,394.4c-0.1,0-0.6-38-1.1-85s-0.8-85-0.6-85s0.6,38,1.1,85S168.7,394.4,168.6,394.4z"/>
			<path class="st3" d="M189.6,394.1c-0.1,0-0.6-38-1.1-85s-0.8-85-0.6-85s0.6,38,1.1,85S189.7,394.1,189.6,394.1z"/>
			<path class="st3" d="M210.6,393.9c-0.1,0-0.6-38-1.1-85s-0.8-85-0.6-85s0.6,38,1.1,85S210.7,393.9,210.6,393.9z"/>
			<path class="st3" d="M230.7,395c-0.1,0-0.6-38-1.1-85s-0.8-85-0.6-85s0.6,38,1.1,85S230.8,395,230.7,395z"/>
			<path class="st3" d="M252.6,393.5c-0.1,0-0.6-38-1.1-85s-0.8-85-0.6-85s0.6,38,1.1,85S252.7,393.5,252.6,393.5z"/>
			<path class="st3" d="M275.1,373.6c0,0.1-38,0.6-85,1.1s-85,0.7-85,0.6s38-0.6,85-1.1S275.1,373.4,275.1,373.6z"/>
			<path class="st3" d="M276,384.3c0,0.1-38,0.6-85,1.1s-85,0.7-85,0.6s38-0.6,85-1.1S276,384.2,276,384.3z"/>
			<path class="st3" d="M274.9,352.6c0,0.1-38.1,0.6-85,1.1s-85,0.7-85,0.6s38-0.6,85-1.1S274.9,352.4,274.9,352.6z"/>
			<path class="st3" d="M274.6,331.6c0,0.1-38,0.6-85,1.1s-85,0.7-85,0.6s38-0.6,85-1.1S274.6,331.5,274.6,331.6z"/>
			<path class="st3" d="M274.4,310.6c0,0.1-38.1,0.6-85,1.1s-85,0.7-85,0.6s38-0.6,85-1.1S274.4,310.5,274.4,310.6z"/>
			<path class="st3" d="M274.2,289.6c0,0.1-38.1,0.6-85,1.1s-85,0.7-85,0.6s38-0.6,85-1.1S274.2,289.5,274.2,289.6z"/>
			<path class="st3" d="M274,268.6c0,0.1-38,0.6-85,1.1s-85,0.7-85,0.6s38-0.6,85-1.1S274,268.5,274,268.6z"/>
			<path class="st3" d="M273.8,247.6c0,0.1-38,0.6-85,1.1s-85,0.7-85,0.6s38-0.6,85-1.1S273.8,247.5,273.8,247.6z"/>
			<path class="st3" d="M273.8,239.2c0,0.1-38,0.6-85,1.1s-85,0.7-85,0.6s38-0.6,85-1.1S273.8,239.1,273.8,239.2z"/>
			<path class="st3" d="M273.8,258.4c0,0.1-38,0.6-85,1.1s-85,0.7-85,0.6s38-0.6,85-1.1S273.8,258.2,273.8,258.4z"/>
			<path class="st3" d="M273.8,279.2c0,0.1-38,0.6-85,1.1s-85,0.7-85,0.6s38-0.6,85-1.1S273.8,279,273.8,279.2z"/>
			<path class="st3" d="M273.8,300c0,0.1-38,0.6-85,1.1s-85,0.7-85,0.6s38-0.6,85-1.1S273.8,299.9,273.8,300z"/>
			<path class="st3" d="M273.8,320.8c0,0.1-38,0.6-85,1.1s-85,0.7-85,0.6s38-0.6,85-1.1S273.8,320.7,273.8,320.8z"/>
			<path class="st3" d="M273.8,341.6c0,0.1-38,0.6-85,1.1s-85,0.7-85,0.6s38-0.6,85-1.1S273.8,341.5,273.8,341.6z"/>
			<path class="st3" d="M273.8,362.5c0,0.1-38,0.6-85,1.1s-85,0.7-85,0.6s38-0.6,85-1.1S273.8,362.3,273.8,362.5z"/>
			<path class="st10" d="M241.4,230.8c2.2,3.6,1,8.3-2.6,10.4c-3.6,2.2-8.3,1-10.4-2.6c-1.5-2.4-1.5-5.5,0-7.9h-8.8
				c2.1,3.6,0.9,8.3-2.7,10.4c-3.6,2.1-8.3,0.9-10.4-2.7c-0.7-1.2-1.1-2.5-1.1-3.9c0-1.4,0.4-2.7,1.1-3.9h-8.8
				c2.1,3.6,0.9,8.3-2.7,10.4c-3.6,2.1-8.3,0.9-10.4-2.7c-0.7-1.2-1.1-2.5-1.1-3.9c0-1.4,0.4-2.7,1.1-3.9h-8.8
				c2.1,3.6,0.9,8.3-2.7,10.4c-3.6,2.1-8.3,0.9-10.4-2.7c-1.4-2.4-1.4-5.4,0-7.7H154c2.1,3.6,0.9,8.3-2.7,10.4
				c-3.6,2.1-8.3,0.9-10.4-2.7c-1.4-2.4-1.4-5.4,0-7.7h-8.8c2.1,3.6,0.9,8.3-2.7,10.4c-3.6,2.1-8.3,0.9-10.4-2.7
				c-1.4-2.4-1.4-5.4,0-7.7h-5.5v157h130.8v-157H241.4z"/>
		</g>
	</g>
	<path class="st3" d="M170,253.5c0.9,4.6,3,9.4,6.9,12c5.6,3.9,13.2,2.4,17.1-3.1s2.4-13.2-3.1-17.1c-2.8-1.9-6.2-2.6-9.4-1.9"/>
	<path class="st6" d="M169.8,253.5c0.3,5.4,4.9,9.5,10.3,9.2c5.4-0.3,9.5-4.9,9.2-10.3c-0.3-5.4-4.9-9.5-10.3-9.2
		C173.6,243.5,169.5,248.1,169.8,253.5C169.7,253.5,169.7,253.5,169.8,253.5z"/>
	<path class="st6" d="M164.1,249.9c0.2,3.2,2.9,5.7,6.2,5.6c3.2-0.2,5.7-2.9,5.6-6.2c-0.2-3.2-2.9-5.7-6.2-5.6c0,0,0,0,0,0
		C166.4,243.9,164,246.6,164.1,249.9z"/>
	<path class="st5" d="M169.6,255.3c0.7,0,1.5-0.1,2.2-0.3c1.7-0.5,3.1-1.8,3.7-3.4c0.5-1.7,0.3-3.6-0.6-5.1
		c-0.4-0.6-0.9-1.2-1.4-1.7c0.2,0,0.4,0.1,0.6,0.3c0.5,0.3,0.9,0.7,1.2,1.2c1.1,1.6,1.4,3.6,0.8,5.4c-0.4,1-1,1.9-1.8,2.5
		c-0.7,0.5-1.5,0.9-2.3,1.1c-0.6,0.1-1.1,0.2-1.7,0.1C169.8,255.4,169.6,255.3,169.6,255.3z"/>
	<path class="st5" d="M174.5,246c1.1,0.3,2.3,0.3,3.4,0.2c1.1-0.3,2.1-0.9,3-1.6c0.1,0-0.1,0.4-0.6,0.9c-0.6,0.6-1.4,1.1-2.3,1.3
		c-0.9,0.2-1.8,0.2-2.6-0.1C174.8,246.3,174.5,246,174.5,246z"/>
	<path class="st5" d="M176,260.8c-0.1,0-0.1-0.5-0.4-1.2c-0.3-0.9-0.9-1.8-1.6-2.4c-0.7-0.7-1.6-1.2-2.5-1.5
		c-0.7-0.2-1.2-0.3-1.2-0.4s0.5-0.1,1.3,0c2.1,0.4,3.8,2,4.4,4.1C176.1,260.3,176.1,260.8,176,260.8z"/>
	<path class="st5" d="M229.7,286.9c0,0.1-20.9,0.3-46.6,0.3s-46.6-0.1-46.6-0.3s20.9-0.3,46.6-0.3S229.7,286.7,229.7,286.9z"/>
	<path class="st5" d="M229.7,296.5c0,0.1-20.9,0.3-46.6,0.3s-46.6-0.1-46.6-0.3s20.9-0.3,46.6-0.3S229.7,296.4,229.7,296.5z"/>
	<path class="st5" d="M229.7,306.2c0,0.1-20.9,0.3-46.6,0.3s-46.6-0.1-46.6-0.3s20.9-0.3,46.6-0.3S229.7,306.1,229.7,306.2z"/>
	<path class="st5" d="M229.7,315.9c0,0.1-20.9,0.3-46.6,0.3s-46.6-0.1-46.6-0.3s20.9-0.3,46.6-0.3S229.7,315.8,229.7,315.9z"/>
	<path class="st5" d="M229.7,325.6c0,0.1-20.9,0.3-46.6,0.3s-46.6-0.1-46.6-0.3s20.9-0.3,46.6-0.3S229.7,325.5,229.7,325.6z"/>
	<path class="st5" d="M229.7,335.3c0,0.1-20.9,0.3-46.6,0.3s-46.6-0.1-46.6-0.3s20.9-0.3,46.6-0.3S229.7,335.2,229.7,335.3z"/>
	<path class="st5" d="M229.7,345c0,0.1-20.9,0.3-46.6,0.3s-46.6-0.1-46.6-0.3s20.9-0.3,46.6-0.3S229.7,344.9,229.7,345z"/>
</g>
<g id="freepik--Plant--inject-2">
	<path class="st5" d="M93,419.7c0-0.1,0.1-0.2,0.2-0.4c0.1-0.3,0.3-0.6,0.5-1c0.6-1.4,1.1-2.8,1.4-4.2c1.2-5.3,1.1-10.9-0.1-16.2
		c-0.8-3.7-1.8-7.3-3-10.9c-1.3-3.9-2.8-8-4-12.4c-1.4-4.6-2.1-9.4-2-14.3c0.2-5,1.7-10.1,3.3-15.1s3.3-9.9,3.8-14.9
		c0.6-4.7-0.4-9.5-2.7-13.7c-2.2-4-4.9-7.4-7-11c-1.9-3.3-3.3-6.9-4.2-10.6c-1.2-5.4-1.3-10.9-0.3-16.3c0.4-2,1-3.9,1.8-5.7
		c0,0.1-0.1,0.3-0.1,0.4c-0.1,0.3-0.2,0.6-0.3,1.1c-0.4,1.4-0.8,2.9-1.1,4.3c-1,5.4-0.8,10.9,0.4,16.2c0.9,3.7,2.3,7.2,4.2,10.4
		c2,3.5,4.8,6.9,7,11c2.4,4.3,3.4,9.2,2.8,14c-0.5,5-2.2,10-3.8,15s-3.1,10-3.3,14.9c-0.1,4.8,0.6,9.5,1.9,14.1
		c1.2,4.4,2.7,8.5,3.9,12.4c1.2,3.6,2.2,7.2,3,11c1.2,5.4,1.2,11,0,16.3c-0.4,1.4-0.9,2.8-1.6,4.2l-0.5,1
		C93.2,419.5,93.1,419.6,93,419.7z"/>
	<path class="st6" d="M86.3,309.1c0,0-4.2-13.3,3.3-21.1c0.2-0.2,0.5-0.2,0.6,0c0.1,0.1,0.1,0.2,0.1,0.2
		C90.8,290.5,91.3,297.2,86.3,309.1z"/>
	<path class="st5" d="M88.8,292.5c0,0.8-0.1,1.7-0.3,2.5c-0.3,1.7-0.6,3.7-1,5.9s-0.7,4.2-0.9,5.9c-0.1,0.8-0.2,1.6-0.4,2.4
		c-0.1-0.8-0.1-1.7,0.1-2.5c0.1-1.5,0.4-3.6,0.8-5.9s0.8-4.4,1.1-5.8C88.2,294.1,88.5,293.3,88.8,292.5z"/>
	<path class="st6" d="M91.2,340.5c0,0,2.5-13.7,12.8-17.1c0.2-0.1,0.5,0,0.6,0.3c0,0.1,0,0.2,0,0.3
		C103.9,326.1,101.2,332.2,91.2,340.5z"/>
	<path class="st5" d="M101.2,326.9c-0.4,0.7-0.9,1.4-1.4,2l-3.6,4.8c-1.3,1.8-2.5,3.4-3.6,4.8c-0.4,0.7-1,1.3-1.5,1.9
		c0.3-0.8,0.7-1.5,1.2-2.1c0.8-1.3,2-3,3.4-4.9s2.7-3.5,3.7-4.6C100,328.1,100.5,327.5,101.2,326.9z"/>
	<path class="st6" d="M88.4,374.8c0,0-1.5-13.8,7.3-20.1c0.2-0.1,0.5-0.1,0.6,0.1c0.1,0.1,0.1,0.2,0.1,0.3
		C96.4,357.4,95.6,364,88.4,374.8z"/>
	<path class="st5" d="M94,359c-0.2,0.8-0.4,1.6-0.7,2.4c-0.6,1.6-1.3,3.5-2,5.6s-1.4,4-2,5.6c-0.2,0.8-0.5,1.6-0.9,2.3
		c0.1-0.8,0.3-1.6,0.5-2.4c0.4-1.5,1.1-3.5,1.9-5.6s1.6-4.1,2.2-5.5C93.3,360.4,93.6,359.7,94,359z"/>
	<path class="st6" d="M96.1,409.4c0,0-1-13.9,8-19.8c0.2-0.1,0.5-0.1,0.6,0.1c0.1,0.1,0.1,0.2,0.1,0.3
		C104.7,392.2,103.7,398.8,96.1,409.4z"/>
	<path class="st5" d="M102.3,393.7c-0.2,0.8-0.5,1.6-0.8,2.3c-0.6,1.6-1.4,3.5-2.2,5.5s-1.6,3.9-2.2,5.5c-0.3,0.8-0.6,1.5-1,2.3
		c0.1-0.8,0.3-1.6,0.6-2.4c0.5-1.5,1.2-3.4,2.1-5.6s1.7-4.1,2.4-5.4C101.4,395.1,101.8,394.4,102.3,393.7z"/>
	<path class="st6" d="M80.3,297.5c0,0-12.3-6.5-12.6-17.2c0-0.3,0.2-0.5,0.4-0.5c0.1,0,0.2,0,0.3,0.1
		C70.3,281.1,75.4,285.5,80.3,297.5z"/>
	<path class="st5" d="M70.3,283.9c0.6,0.6,1.1,1.2,1.5,1.9l3.5,4.8l3.5,4.8c0.5,0.6,1,1.3,1.4,2c-0.6-0.5-1.2-1.1-1.7-1.8
		c-1-1.2-2.3-2.8-3.6-4.7s-2.5-3.6-3.4-4.9C71.1,285.4,70.6,284.7,70.3,283.9z"/>
	<path class="st6" d="M93.6,326c0,0-12.7-5.7-13.6-16.4c0-0.3,0.2-0.5,0.4-0.5c0.1,0,0.2,0,0.3,0.1C82.6,310.3,87.9,314.3,93.6,326z
		"/>
	<path class="st5" d="M82.8,313.1c0.6,0.6,1.2,1.2,1.7,1.9l3.8,4.6l3.8,4.5c0.6,0.6,1.1,1.2,1.5,1.9c-0.7-0.5-1.3-1.1-1.8-1.7
		c-1.1-1.1-2.4-2.7-3.9-4.5s-2.8-3.5-3.7-4.7C83.6,314.5,83.2,313.8,82.8,313.1z"/>
	<path class="st6" d="M86.3,357.8c0,0-8.7-10.8-4.6-20.8c0.1-0.2,0.4-0.4,0.6-0.3c0.1,0,0.2,0.1,0.2,0.2
		C83.6,338.8,86.5,344.9,86.3,357.8z"/>
	<path class="st5" d="M82.5,341.4c0.3,0.8,0.5,1.6,0.6,2.4c0.4,1.7,0.8,3.6,1.3,5.8s0.9,4.1,1.3,5.8c0.2,0.8,0.4,1.6,0.5,2.4
		c-0.4-0.7-0.7-1.5-0.8-2.3c-0.4-1.5-0.9-3.5-1.4-5.8s-0.9-4.3-1.1-5.9C82.6,343.1,82.5,342.3,82.5,341.4z"/>
	<path class="st6" d="M94.9,395.3c0,0-12.6-5.9-13.3-16.6c0-0.3,0.2-0.5,0.4-0.5c0.1,0,0.2,0,0.3,0.1
		C84.2,379.4,89.4,383.5,94.9,395.3z"/>
	<path class="st5" d="M84.3,382.2c0.6,0.6,1.2,1.2,1.6,1.9l3.7,4.6l3.7,4.6c0.6,0.6,1.1,1.3,1.5,2c-0.7-0.5-1.3-1.1-1.8-1.8
		c-1-1.1-2.4-2.7-3.8-4.6s-2.7-3.5-3.6-4.8C85.1,383.7,84.7,383,84.3,382.2z"/>
	<path class="st5" d="M120,340.5c0,0.1,0,0.2,0,0.3v0.9c0,0.8-0.1,2-0.2,3.4c-0.2,3-0.4,7.1-0.7,12.1l0,0l0,0
		c-0.9,5-3.5,10.6-6.9,16c-2.5,4-5.2,7.6-7.5,11c-2.1,3-3.9,6-5.6,9.3c-1.1,2.2-2,4.5-2.6,6.8c-0.2,0.8-0.4,1.5-0.5,1.9
		c0,0.2-0.1,0.5-0.2,0.7c0-0.2,0-0.5,0.1-0.7c0.1-0.5,0.2-1.1,0.4-2c0.6-2.4,1.4-4.7,2.5-6.9c1.6-3.3,3.5-6.4,5.5-9.4
		c2.3-3.4,4.9-7,7.4-11c3.4-5.4,6-10.9,6.9-15.9l0,0c0.3-5,0.6-9.1,0.8-12c0.1-1.4,0.2-2.5,0.3-3.4c0-0.4,0.1-0.6,0.1-0.9
		C120,340.7,120,340.6,120,340.5z"/>
	<path class="st6" d="M112.5,372.2c0,0,5.3-12.9-1.4-21.3c-0.2-0.2-0.4-0.2-0.6-0.1c-0.1,0.1-0.1,0.1-0.2,0.2
		C109.8,353.2,108.7,359.9,112.5,372.2z"/>
	<path class="st5" d="M111.6,355.4c0.2,0.8,0.4,1.6,0.4,2.4c0.2,1.5,0.4,3.6,0.6,5.9s0.2,4.4,0.2,5.9c0.1,0.8,0,1.7-0.2,2.5
		c-0.1-0.8-0.2-1.6-0.2-2.5c-0.1-1.7-0.3-3.7-0.4-5.9s-0.3-4.2-0.4-5.9C111.5,357.1,111.5,356.2,111.6,355.4z"/>
	<g class="st8">
		<path d="M112.5,372.2c0,0,5.3-12.9-1.4-21.3c-0.2-0.2-0.4-0.2-0.6-0.1c-0.1,0.1-0.1,0.1-0.2,0.2
			C109.8,353.2,108.7,359.9,112.5,372.2z"/>
	</g>
	<path class="st6" d="M96,403.2c0,0,4.3-13.3-3.1-21.1c-0.2-0.2-0.5-0.2-0.7,0c-0.1,0.1-0.1,0.1-0.1,0.2
		C91.7,384.5,91.1,391.2,96,403.2z"/>
	<path class="st5" d="M93.7,386.5c0.3,0.8,0.5,1.6,0.6,2.4c0.3,1.5,0.7,3.6,1,5.9s0.6,4.4,0.7,5.9c0.1,0.8,0.1,1.7,0,2.5
		c-0.2-0.8-0.3-1.6-0.4-2.4c-0.3-1.7-0.6-3.7-0.9-5.9s-0.6-4.2-0.9-5.9C93.7,388.2,93.6,387.4,93.7,386.5z"/>
	<g class="st8">
		<path d="M96,403.2c0,0,4.3-13.3-3.1-21.1c-0.2-0.2-0.5-0.2-0.7,0c-0.1,0.1-0.1,0.1-0.1,0.2C91.7,384.5,91.1,391.2,96,403.2z"/>
	</g>
	<path class="st6" d="M119.3,356.5c0,0,11.4-8,10.3-18.7c0-0.3-0.3-0.4-0.5-0.4c-0.1,0-0.2,0-0.2,0.1
		C127.2,339,122.7,344,119.3,356.5z"/>
	<g class="st8">
		<path d="M119.3,356.5c0,0,11.4-8,10.3-18.7c0-0.3-0.3-0.4-0.5-0.4c-0.1,0-0.2,0-0.2,0.1C127.2,339,122.7,344,119.3,356.5z"/>
	</g>
	<path class="st5" d="M127.5,341.8c-0.2,0.8-0.5,1.6-0.9,2.3c-0.7,1.4-1.6,3.3-2.7,5.3s-2.2,3.9-3,5.1c-0.4,0.7-0.9,1.4-1.4,2
		c0.3-0.8,0.7-1.5,1.1-2.2l2.8-5.2c1.1-2,2-3.7,2.8-5.2C126.6,343.2,127,342.5,127.5,341.8z"/>
	<path class="st6" d="M100.6,390.1c0,0,13.8-2.1,17.4-12.3c0.1-0.2,0-0.5-0.3-0.6c-0.1,0-0.2,0-0.3,0
		C115.3,377.8,109.1,380.3,100.6,390.1z"/>
	<g class="st8">
		<path d="M100.6,390.1c0,0,13.8-2.1,17.4-12.3c0.1-0.2,0-0.5-0.3-0.6c-0.1,0-0.2,0-0.3,0C115.3,377.8,109.1,380.3,100.6,390.1z"/>
	</g>
	<path class="st5" d="M114.4,380.5c-0.6,0.6-1.2,1.2-1.8,1.6c-1.2,1-2.9,2.2-4.8,3.6s-3.7,2.5-5,3.3c-0.7,0.5-1.4,0.9-2.2,1.2
		c0.6-0.5,1.3-1,2-1.5l4.8-3.4l4.8-3.4C113,381.3,113.7,380.8,114.4,380.5z"/>
	<polygon class="st7" points="87.5,415.4 83.4,442.4 108.5,442.4 105.2,415.4 	"/>
	<path class="st5" d="M106.2,423.8c-3.4,0.3-6.7,0.3-10.1,0.3c-3.4,0.1-6.7,0-10.1-0.3c3.4-0.3,6.7-0.4,10.1-0.3
		C99.5,423.4,102.9,423.5,106.2,423.8z"/>
	<path class="st5" d="M106.7,425.9c0,0.1-4.7,0.3-10.4,0.3s-10.4-0.1-10.4-0.3c3.5-0.3,6.9-0.4,10.4-0.3
		C99.8,425.5,103.2,425.6,106.7,425.9z"/>
</g>
</svg>
