<?xml version="1.0" encoding="utf-8"?>
<!-- Generator: Adobe Illustrator 24.0.2, SVG Export Plug-In . SVG Version: 6.00 Build 0)  -->
<svg version="1.1" id="圖層_1" xmlns="http://www.w3.org/2000/svg" xmlns:xlink="http://www.w3.org/1999/xlink" x="0px" y="0px"
	 viewBox="0 0 750 750" style="enable-background:new 0 0 750 750;" xml:space="preserve">
<style type="text/css">
	.st0{fill:#DFD1E3;}
	.st1{fill:#EBEBEB;}
	.st2{fill:#DBDBDB;}
	.st3{fill:#C7C7C7;}
	.st4{fill:#263238;}
	.st5{fill:#37474F;}
	.st6{fill:#FFFFFF;}
	.st7{fill:#69A4A7;}
	.st8{fill:#A6A6A6;}
	.st9{opacity:0.2;enable-background:new    ;}
	.st10{opacity:0.1;}
	.st11{fill:#455A64;}
	.st12{opacity:0.4;}
</style>
<rect class="st0" width="750" height="750"/>
<g id="freepik--background-complete--inject-12">
	<path class="st1" d="M537.2,230.3l8.3-13.4l-4.1-2.6c-1.2-0.8-1.8-2.1-1.7-3.5c0.1-0.8,0.1-1.5,0.1-2.3c0-1.4,0.7-2.8,2-3.4
		l4.2-2.3l-7.5-13.9l-4.3,2.3c-1.2,0.7-2.7,0.6-3.8-0.2c-0.7-0.5-1.4-0.9-2.1-1.3c-1.2-0.7-2-2-1.9-3.4l0.2-4.8l-15.7-0.5l-0.1,4.8
		c0,1.4-0.9,2.6-2.1,3.2c-0.4,0.2-0.7,0.4-1.1,0.5s-0.7,0.4-1.1,0.6c-1.2,0.7-2.7,0.7-3.9,0l-4.1-2.6l-8.3,13.4l4.1,2.6
		c1.2,0.8,1.8,2.1,1.7,3.5c-0.1,0.8-0.1,1.5-0.1,2.3c0.1,1.4-0.7,2.7-2,3.4l-4.2,2.3l7.4,13.9l4.2-2.3c1.3-0.7,2.8-0.6,3.9,0.3
		c0.6,0.4,1.3,0.8,2,1.2c1.2,0.7,2,2,2,3.4l-0.1,4.9l15.7,0.5l0.2-4.8c0.1-1.4,0.9-2.7,2.2-3.2c0.4-0.2,0.7-0.3,1-0.5s0.7-0.4,1-0.6
		c1.2-0.7,2.7-0.7,3.9,0L537.2,230.3z M525.4,219.5c-5.8,4.2-13.8,2.8-18-2.9c-4.2-5.8-2.8-13.8,2.9-18c5.8-4.2,13.8-2.8,18,2.9
		c0.7,0.9,1.2,1.9,1.6,3C531.9,210,530.1,216.1,525.4,219.5z"/>
	<path class="st1" d="M91.6,336.5c0.9,0.5,1.3,1.5,1.3,2.4c0,0.3,0,0.5,0,0.8c0,0.3,0,0.5,0,0.8c0.1,1-0.4,1.9-1.3,2.5l-2.9,1.7
		l5.5,9.5l2.9-1.7c0.9-0.5,1.9-0.5,2.8,0.1c0.5,0.3,0.9,0.6,1.4,0.8c0.9,0.4,1.4,1.3,1.4,2.3v3.4h11v-3.4c0-1,0.6-1.9,1.4-2.3
		c0.5-0.3,1-0.5,1.4-0.8c0.8-0.5,1.9-0.6,2.8-0.1l2.9,1.7l5.5-9.5l-2.9-1.7c-0.8-0.5-1.3-1.4-1.3-2.4c0-0.3,0-0.5,0-0.8s0-0.5,0-0.8
		c-0.1-1,0.4-1.9,1.3-2.4l2.9-1.7l-5.5-9.5l-2.9,1.7c-0.9,0.5-1.9,0.4-2.7-0.1c-0.5-0.3-0.9-0.6-1.4-0.8c-0.9-0.4-1.4-1.3-1.4-2.3
		v-3.4h-11v3.4c0,1-0.6,1.9-1.4,2.3c-0.5,0.2-1,0.5-1.4,0.8c-0.8,0.6-1.9,0.6-2.8,0.1l-2.9-1.7l-5.5,9.5L91.6,336.5z M108.2,330.7
		c5,0,9,4,9,9s-4,9-9,9s-9-4-9-9S103.2,330.7,108.2,330.7z"/>
	<path class="st1" d="M634.6,315.4c0.8,0.5,1.3,1.4,1.3,2.4c0,0.3,0,0.5,0,0.8s0,0.5,0,0.8c0.1,1-0.4,1.9-1.3,2.4l-2.9,1.7l5.5,9.5
		l2.9-1.7c0.9-0.5,1.9-0.5,2.8,0.1c0.5,0.3,0.9,0.6,1.4,0.8c0.9,0.4,1.4,1.3,1.5,2.3v3.4h11v-3.4c0-1,0.6-1.9,1.5-2.3
		c0.5-0.2,1-0.5,1.4-0.8c0.8-0.5,1.9-0.6,2.8-0.1l2.9,1.7l5.5-9.5l-3-1.7c-0.8-0.5-1.3-1.4-1.3-2.4c0-0.3,0-0.5,0-0.8s0-0.5,0-0.8
		c-0.1-1,0.4-1.9,1.3-2.4l2.9-1.7l-5.5-9.5l-2.9,1.7c-0.9,0.5-1.9,0.5-2.8-0.1c-0.5-0.3-0.9-0.6-1.4-0.8c-0.9-0.4-1.4-1.3-1.5-2.3
		v-3.4h-11v3.4c0,1-0.6,1.9-1.5,2.3c-0.5,0.2-1,0.5-1.4,0.8c-0.8,0.5-1.9,0.6-2.8,0.1l-2.9-1.7l-5.5,9.5L634.6,315.4z M651.2,309.7
		c5,0,9,4,9,9c0,5-4,9-9,9s-9-4-9-9l0,0C642.2,313.7,646.2,309.7,651.2,309.7L651.2,309.7L651.2,309.7z"/>
	<path class="st2" d="M167.4,231.3c-3.1,20.9-22.5,35.3-43.4,32.2c-20.9-3.1-35.3-22.5-32.2-43.4c2.8-18.7,18.9-32.6,37.8-32.6v38.2
		L167.4,231.3z"/>
	<path class="st1" d="M175.5,217.9c0,1.9-0.1,3.7-0.4,5.6l-37.8-5.6v-38.2C158.4,179.7,175.5,196.8,175.5,217.9
		C175.5,217.8,175.5,217.9,175.5,217.9z"/>
	<rect x="149" y="246.3" class="st3" width="40.6" height="1"/>
	<path class="st3" d="M192.4,250.1c-1.9,0-3.4-1.5-3.4-3.3c0-1.9,1.5-3.4,3.3-3.4c1.9,0,3.4,1.5,3.4,3.3c0,0,0,0,0,0
		C195.7,248.6,194.2,250.1,192.4,250.1z M192.4,244.5c-1.3,0-2.4,1-2.4,2.3c0,1.3,1,2.4,2.3,2.4c1.3,0,2.4-1,2.4-2.3c0,0,0,0,0,0
		C194.7,245.5,193.7,244.5,192.4,244.5z"/>
	<rect x="202.7" y="244.7" class="st3" width="31.5" height="1.4"/>
	<rect x="202.7" y="247.5" class="st3" width="17.9" height="1.4"/>
	<rect x="591.4" y="196.3" class="st1" width="9.4" height="67.1"/>
	<rect x="607.6" y="212.5" class="st1" width="9.4" height="50.9"/>
	<rect x="623.8" y="237.9" class="st1" width="9.4" height="25.4"/>
	<rect x="640" y="223.4" class="st1" width="9.4" height="40"/>
	<rect x="656.2" y="208.1" class="st1" width="9.4" height="55.2"/>
	<rect x="672.4" y="199.2" class="st1" width="9.4" height="64.2"/>
	<path class="st1" d="M585.9,187.7l0.1,18.9l0.1,18.9l0.1,37.8l-0.2-0.2c8.7,0,17.3,0,26,0h26l26,0.1l26,0.1l-26,0.1l-26,0h-26
		c-8.7,0-17.3,0-26,0h-0.2v-0.2l0.1-37.8l0.1-18.9L585.9,187.7z"/>
	<path class="st1" d="M583.8,191.5c1.4-0.4,2.8-0.4,4.2,0c-0.7,0.2-1.4,0.3-2.1,0.3C585.2,191.8,584.5,191.7,583.8,191.5z"/>
	<path class="st1" d="M583.8,197.3c0.7-0.2,1.4-0.3,2.1-0.3c0.7,0,1.4,0.1,2.1,0.3c-0.7,0.2-1.4,0.3-2.1,0.3
		C585.2,197.5,584.5,197.4,583.8,197.3z"/>
	<path class="st1" d="M583.8,203c1.4-0.3,2.8-0.3,4.2,0C586.6,203.4,585.2,203.4,583.8,203L583.8,203z"/>
	<path class="st1" d="M583.8,208.8c1.4-0.4,2.8-0.4,4.2,0C586.6,209.1,585.2,209.1,583.8,208.8z"/>
	<path class="st1" d="M583.8,214.5c1.4-0.4,2.8-0.4,4.2,0C586.6,214.9,585.2,214.9,583.8,214.5z"/>
	<path class="st1" d="M583.8,220.3c1.4-0.4,2.8-0.4,4.2,0C586.6,220.6,585.2,220.6,583.8,220.3z"/>
	<path class="st1" d="M583.8,226c1.4-0.3,2.8-0.3,4.2,0C586.6,226.4,585.2,226.4,583.8,226z"/>
	<path class="st1" d="M583.8,231.8c1.4-0.3,2.8-0.3,4.2,0C586.6,232.1,585.2,232.1,583.8,231.8z"/>
	<path class="st1" d="M583.8,237.5c1.4-0.4,2.8-0.4,4.2,0C586.6,237.9,585.2,237.9,583.8,237.5z"/>
	<path class="st1" d="M583.8,243.3c1.4-0.4,2.8-0.4,4.2,0C586.6,243.6,585.2,243.6,583.8,243.3z"/>
	<path class="st1" d="M583.8,249c1.4-0.4,2.8-0.4,4.2,0C586.6,249.3,585.2,249.3,583.8,249z"/>
	<path class="st1" d="M583.8,254.8c1.4-0.4,2.8-0.4,4.2,0C586.6,255.1,585.2,255.1,583.8,254.8z"/>
</g>
<g id="freepik--Shadow--inject-12">
	<ellipse class="st1" cx="556.7" cy="565.1" rx="133.9" ry="17.2"/>
</g>
<g id="freepik--Floor--inject-12">
	<polygon class="st4" points="72.1,537.4 147.8,537.2 223.6,537.1 375,536.9 526.4,537.1 602.2,537.2 677.9,537.4 602.2,537.7 
		526.4,537.8 375,537.9 223.6,537.8 147.8,537.7 	"/>
</g>
<g id="freepik--Screen--inject-12">
	<rect x="146.3" y="230.2" class="st1" width="457.5" height="289.7"/>
	<rect x="146.1" y="230.2" class="st5" width="457.9" height="11.2"/>
	<path class="st3" d="M154.9,235.7c0,1.5-1.2,2.8-2.8,2.8c-1.5,0-2.8-1.2-2.8-2.8c0-1.5,1.2-2.8,2.8-2.8c0,0,0,0,0,0
		C153.7,233,154.9,234.2,154.9,235.7z"/>
	<circle class="st6" cx="163.4" cy="235.7" r="2.8"/>
	<path class="st7" d="M177.5,235.7c0,1.5-1.2,2.8-2.8,2.8c-1.5,0-2.8-1.2-2.8-2.8c0-1.5,1.2-2.8,2.8-2.8S177.5,234.2,177.5,235.7
		L177.5,235.7z"/>
	<rect x="594.9" y="241.3" class="st2" width="9.1" height="278.5"/>
	<path class="st5" d="M599.4,244.1L599.4,244.1c1.3,0,2.3,1,2.3,2.3v138.3c0,1.3-1,2.3-2.3,2.3h0c-1.3,0-2.3-1-2.3-2.3V246.4
		C597,245.1,598.1,244.1,599.4,244.1z"/>
	<rect x="187" y="301.2" class="st7" width="12.4" height="62.8"/>
	<rect x="208.3" y="311.7" class="st7" width="12.4" height="52.4"/>
	<rect x="229.5" y="330.7" class="st7" width="12.4" height="33.3"/>
	<rect x="250.8" y="310.8" class="st7" width="12.4" height="53.3"/>
	<rect x="272" y="319.5" class="st7" width="12.4" height="44.6"/>
	<rect x="293.3" y="292.5" class="st7" width="12.4" height="71.6"/>
	<path class="st6" d="M179.9,288.1l0.1,19l0.1,19l0.1,38l-0.3-0.3c30-0.1,60.1,0,90.1,0.1l25,0.1l22.2,0.2l-22.2,0.2l-25,0.1
		c-30,0-60.1,0.1-90.1,0.1h-0.3v-0.3l0.1-38l0.1-19L179.9,288.1z"/>
	<path class="st6" d="M177.1,292.5c1.8-0.5,3.7-0.5,5.4,0C180.8,292.9,178.9,292.9,177.1,292.5z"/>
	<path class="st6" d="M177.1,300c0.9-0.2,1.8-0.4,2.7-0.4c0.9,0,1.8,0.1,2.7,0.4C180.8,300.5,178.9,300.5,177.1,300z"/>
	<path class="st6" d="M177.1,307.6c0.9-0.2,1.8-0.4,2.7-0.4c0.9,0,1.8,0.1,2.7,0.4c-0.9,0.2-1.8,0.4-2.7,0.4
		C178.9,307.9,178,307.8,177.1,307.6z"/>
	<path class="st6" d="M177.1,315.1c1.8-0.5,3.7-0.5,5.4,0C180.8,315.6,178.9,315.6,177.1,315.1z"/>
	<path class="st6" d="M177.1,322.6c1.8-0.5,3.7-0.5,5.4,0C180.8,323.1,178.9,323.1,177.1,322.6z"/>
	<path class="st6" d="M177.1,330.2c1.8-0.5,3.7-0.5,5.4,0C180.8,330.6,178.9,330.6,177.1,330.2z"/>
	<path class="st6" d="M177.1,337.7c0.9-0.2,1.8-0.4,2.7-0.4c0.9,0,1.8,0.1,2.7,0.4C180.8,338.2,178.9,338.2,177.1,337.7z"/>
	<path class="st6" d="M177.1,345.3c0.9-0.2,1.8-0.4,2.7-0.4c0.9,0,1.8,0.1,2.7,0.4c-0.9,0.2-1.8,0.4-2.7,0.4
		C178.9,345.6,178,345.5,177.1,345.3z"/>
	<path class="st6" d="M177.1,352.8c1.8-0.5,3.7-0.5,5.4,0C180.8,353.3,178.9,353.3,177.1,352.8z"/>
	<rect x="337.5" y="288.8" class="st6" width="51.2" height="75.7"/>
	<path class="st4" d="M378.5,311.9c0,8.5-7,15.4-15.5,15.3c-8.5,0-15.4-7-15.3-15.5c0-8.5,7-15.4,15.5-15.3c5.5,0,10.6,3,13.3,7.8
		C377.8,306.5,378.5,309.2,378.5,311.9z"/>
	<path class="st7" d="M376.5,304.2l-13.4,7.7v-15.4C368.6,296.4,373.7,299.4,376.5,304.2z"/>
	<path class="st8" d="M356,334.2l-1,0.6c-0.1,0.1-0.2,0-0.3-0.1c0,0,0,0,0,0c-0.1-0.1,0-0.2,0.1-0.3c0,0,0,0,0,0l1.4-0.8
		c0.1-0.1,0.3,0,0.3,0.1c0,0.1,0,0.1,0,0.2v6.4c0,0.1-0.1,0.2-0.2,0.2s-0.2-0.1-0.2-0.2L356,334.2z"/>
	<path class="st8" d="M358.3,339.8c-0.1-0.1-0.1-0.2,0-0.3c0,0,0,0,0,0c0.1-0.1,0.3-0.1,0.4,0c0,0,0,0,0,0c0.3,0.4,0.8,0.6,1.3,0.6
		c1,0,1.9-0.8,1.9-1.9c0-1-0.8-1.9-1.9-1.9c-0.5,0-1,0.2-1.3,0.5c-0.1,0.1-0.2,0.1-0.3,0c0,0,0,0,0,0c0,0,0,0-0.1-0.1l0,0l0,0
		c0,0,0-0.1,0-0.1l0,0l0.3-2.8c0-0.1,0-0.1,0.1-0.2c0,0,0.1-0.1,0.2-0.1h3.3c0.1,0,0.3,0.1,0.3,0.3c0,0.1-0.1,0.2-0.2,0.3
		c0,0,0,0,0,0h-3l-0.3,2.1c0.4-0.2,0.8-0.3,1.2-0.3c1.3,0,2.4,1.1,2.4,2.4c0,0,0,0,0,0c0,0.6-0.2,1.2-0.7,1.7
		c-0.4,0.4-1.1,0.7-1.7,0.7C359.4,340.6,358.8,340.3,358.3,339.8z"/>
	<path class="st8" d="M364.2,335.2L364.2,335.2c-0.1-0.9,0.4-1.7,1.3-1.8s1.7,0.4,1.8,1.3c0,0.2,0,0.3,0,0.5l0,0
		c0.1,0.9-0.6,1.7-1.5,1.8c0,0,0,0,0,0C364.9,336.9,364.2,336.1,364.2,335.2C364.2,335.2,364.2,335.2,364.2,335.2z M366.8,335.2
		L366.8,335.2c0-0.8-0.5-1.4-1-1.4s-1,0.6-1,1.3l0,0c0,0.8,0.5,1.4,1,1.4S366.8,335.9,366.8,335.2z M365.2,340.2l4.9-6.6
		c0-0.1,0.1-0.1,0.2-0.1c0.1,0,0.2,0.1,0.2,0.2c0,0,0,0,0,0c0,0,0,0.1,0,0.1l-4.9,6.6c0,0.1-0.1,0.1-0.2,0.1c-0.1,0-0.2-0.1-0.2-0.2
		c0,0,0,0,0,0C365.2,340.3,365.2,340.2,365.2,340.2L365.2,340.2z M368.3,338.8L368.3,338.8c-0.1-0.9,0.6-1.7,1.5-1.8c0,0,0,0,0,0
		c0.9,0.1,1.6,0.8,1.5,1.8c0,0,0,0,0,0l0,0c0.1,0.9-0.6,1.7-1.5,1.8c0,0,0,0,0,0C368.9,340.5,368.2,339.7,368.3,338.8
		C368.3,338.8,368.3,338.8,368.3,338.8L368.3,338.8z M370.8,338.8L370.8,338.8c0-0.8-0.5-1.4-1-1.4s-1,0.6-1,1.3l0,0
		c0,0.8,0.5,1.4,1,1.4S370.9,339.5,370.8,338.8L370.8,338.8z"/>
	<rect x="350.4" y="345.1" class="st8" width="25.4" height="1.6"/>
	<rect x="346.2" y="348.5" class="st1" width="33.9" height="1.6"/>
	<rect x="346.2" y="351.6" class="st1" width="33.9" height="1.6"/>
	<rect x="346.2" y="354.7" class="st1" width="33.9" height="1.6"/>
	<rect x="396.6" y="288.8" class="st6" width="51.2" height="75.7"/>
	<path class="st4" d="M437.6,311.9c0,0.8-0.1,1.5-0.2,2.3c-1.3,8.4-9.1,14.2-17.5,12.9c-8.4-1.3-14.2-9.1-12.9-17.5
		s9.1-14.2,17.5-12.9C432,297.8,437.6,304.2,437.6,311.9z"/>
	<path class="st7" d="M437.6,311.9c0,0.8-0.1,1.5-0.2,2.3l-15.2-2.3v-15.4C430.7,296.4,437.6,303.3,437.6,311.9
		C437.6,311.8,437.6,311.8,437.6,311.9L437.6,311.9z"/>
	<path class="st8" d="M412.6,340l3.3-3c0.4-0.3,0.6-0.8,0.6-1.3c0-1-0.8-1.8-1.8-1.8c-0.4,0-0.9,0.2-1.2,0.5l-0.3,0.3
		c-0.1,0.1-0.2,0.1-0.3,0c-0.1-0.1-0.1-0.2,0-0.3l0.3-0.3c0.4-0.4,1-0.6,1.5-0.6c1.3,0,2.3,1,2.3,2.3c0,0.6-0.3,1.3-0.8,1.7
		l-2.8,2.5h3.3c0.1,0,0.2,0.2,0.2,0.3c0,0.1-0.1,0.2-0.2,0.2h-3.9c-0.1,0-0.1,0-0.2-0.1C412.5,340.3,412.5,340.1,412.6,340z"/>
	<path class="st8" d="M418.7,339.8c-0.1-0.1-0.1-0.2,0-0.3c0,0,0,0,0,0c0.1-0.1,0.3-0.1,0.4,0c0,0,0,0,0,0c0.4,0.3,0.8,0.5,1.3,0.5
		c1,0,1.9-0.8,1.9-1.9c0-1-0.8-1.9-1.9-1.9c-0.5,0-1,0.2-1.3,0.5c-0.1,0.1-0.2,0.1-0.3,0c0,0,0,0,0,0c0,0,0,0-0.1-0.1l0,0l0,0
		c0,0,0-0.1,0-0.1l0,0l0.3-2.8c0-0.1,0-0.1,0.1-0.2c0,0,0.1-0.1,0.2-0.1h3.3c0.1,0,0.3,0.1,0.3,0.3c0,0.1-0.1,0.2-0.2,0.3
		c0,0,0,0,0,0h-3l-0.3,2.1c0.4-0.2,0.8-0.3,1.2-0.3c1.3,0,2.4,1.1,2.4,2.4c0,0,0,0,0,0c0,0.6-0.2,1.2-0.7,1.7
		c-0.4,0.4-1.1,0.7-1.7,0.7C419.7,340.5,419.1,340.2,418.7,339.8z"/>
	<path class="st8" d="M424.6,335.2L424.6,335.2c-0.1-0.9,0.4-1.7,1.3-1.8s1.7,0.4,1.8,1.3c0,0.2,0,0.3,0,0.5l0,0
		c0.1,0.9-0.6,1.7-1.5,1.8c0,0,0,0,0,0C425.2,336.9,424.5,336.1,424.6,335.2C424.6,335.2,424.6,335.2,424.6,335.2z M427.1,335.2
		L427.1,335.2c0-0.8-0.5-1.4-1-1.4s-1,0.6-1,1.3l0,0c0,0.8,0.5,1.4,1,1.4S427.1,335.9,427.1,335.2z M425.5,340.2l4.9-6.6
		c0-0.1,0.1-0.1,0.2-0.1c0.1,0,0.2,0.1,0.2,0.2c0,0,0,0,0,0c0,0,0,0.1,0,0.1l-4.9,6.6c0,0.1-0.1,0.1-0.2,0.1c-0.1,0-0.2-0.1-0.2-0.2
		c0,0,0,0,0,0C425.5,340.3,425.5,340.2,425.5,340.2L425.5,340.2z M428.6,338.8L428.6,338.8c-0.1-0.9,0.4-1.7,1.3-1.8
		c0.9-0.1,1.7,0.4,1.8,1.3c0,0.2,0,0.3,0,0.5l0,0c0.1,0.9-0.6,1.7-1.5,1.8c0,0,0,0,0,0C429.3,340.5,428.6,339.8,428.6,338.8
		C428.6,338.8,428.6,338.8,428.6,338.8L428.6,338.8z M431.2,338.8L431.2,338.8c0-0.8-0.5-1.4-1-1.4s-1,0.6-1,1.3l0,0
		c0,0.8,0.5,1.4,1,1.4S431.2,339.5,431.2,338.8L431.2,338.8z"/>
	<rect x="409.5" y="345.1" class="st8" width="25.4" height="1.6"/>
	<rect x="405.3" y="348.5" class="st1" width="33.9" height="1.6"/>
	<rect x="405.3" y="351.6" class="st1" width="33.9" height="1.6"/>
	<rect x="405.3" y="354.7" class="st1" width="33.9" height="1.6"/>
	<rect x="455.7" y="288.8" class="st6" width="51.2" height="75.7"/>
	<path class="st4" d="M496.7,311.9c0,8.5-7,15.4-15.5,15.3c-8.5,0-15.4-7-15.3-15.5s7-15.4,15.5-15.3c5.5,0,10.6,3,13.3,7.8
		C496,306.5,496.7,309.2,496.7,311.9z"/>
	<path class="st7" d="M496.7,311.9c0,6.4-3.9,12.1-9.9,14.4l-5.5-14.4v-15.4C489.8,296.5,496.7,303.3,496.7,311.9L496.7,311.9z"/>
	<path class="st8" d="M475.4,339h-3.8c-0.1,0-0.1,0-0.1,0c-0.1-0.1-0.1-0.2,0-0.3c0,0,0,0,0,0l4-5l0,0c0.1-0.1,0.2-0.1,0.3,0
		c0,0,0,0,0,0c0,0,0.1,0.1,0.1,0.1l0,0v4.8h0.5c0.1,0,0.2,0.1,0.2,0.2c0,0.1-0.1,0.2-0.2,0.2c0,0,0,0,0,0h-0.5v1.2
		c0,0.1-0.2,0.2-0.3,0.2c-0.1,0-0.2-0.1-0.2-0.2L475.4,339z M475.4,338.5v-4.1l-3.3,4.1H475.4z"/>
	<path class="st8" d="M478.1,339.8c-0.1-0.1-0.1-0.2,0-0.3c0,0,0,0,0,0c0.1-0.1,0.3-0.1,0.4,0c0,0,0,0,0,0c0.4,0.3,0.8,0.5,1.3,0.5
		c1,0,1.9-0.8,1.9-1.9c0-1-0.8-1.9-1.9-1.9c-0.5,0-1,0.2-1.3,0.5c-0.1,0.1-0.2,0.1-0.3,0c0,0,0,0,0,0c0,0,0,0-0.1-0.1l0,0l0,0
		c0,0,0-0.1,0-0.1l0,0l0.3-2.8c0-0.1,0-0.1,0.1-0.2c0,0,0.1-0.1,0.2-0.1h3.3c0.1,0,0.3,0.1,0.3,0.3c0,0.1-0.1,0.2-0.2,0.3
		c0,0,0,0,0,0h-3l-0.3,2.1c0.4-0.2,0.8-0.3,1.2-0.3c1.3,0,2.4,1.1,2.4,2.4c0,0,0,0,0,0c0,0.6-0.2,1.2-0.7,1.7
		c-0.4,0.4-1.1,0.7-1.7,0.7C479.2,340.5,478.6,340.2,478.1,339.8z"/>
	<path class="st8" d="M484,335.2L484,335.2c-0.1-0.9,0.4-1.7,1.3-1.8s1.7,0.4,1.8,1.3c0,0.2,0,0.3,0,0.5l0,0
		c0.1,0.9-0.6,1.7-1.5,1.8c0,0,0,0,0,0C484.6,336.9,483.9,336.1,484,335.2C484,335.2,484,335.2,484,335.2z M486.6,335.2L486.6,335.2
		c0-0.8-0.5-1.4-1-1.4s-1,0.6-1,1.3l0,0c0,0.8,0.5,1.4,1,1.4S486.6,335.9,486.6,335.2L486.6,335.2z M485,340.2l4.9-6.6
		c0-0.1,0.1-0.1,0.2-0.1c0.1,0,0.2,0.1,0.2,0.2c0,0,0,0,0,0c0,0,0,0.1,0,0.1l-4.9,6.6c0,0.1-0.1,0.1-0.2,0.1c-0.1,0-0.2-0.1-0.2-0.2
		c0,0,0,0,0,0C484.9,340.3,485,340.2,485,340.2L485,340.2z M488.1,338.8L488.1,338.8c-0.1-0.9,0.4-1.7,1.3-1.8
		c0.9-0.1,1.7,0.4,1.8,1.3c0,0.2,0,0.3,0,0.5l0,0c0.1,0.9-0.6,1.7-1.5,1.8c0,0,0,0,0,0C488.7,340.5,488,339.7,488.1,338.8
		C488.1,338.8,488.1,338.8,488.1,338.8L488.1,338.8z M490.6,338.8L490.6,338.8c0-0.8-0.5-1.4-1-1.4s-1,0.6-1,1.3l0,0
		c0,0.8,0.5,1.4,1,1.4S490.7,339.5,490.6,338.8L490.6,338.8z"/>
	<rect x="468.6" y="345.1" class="st8" width="25.4" height="1.6"/>
	<rect x="464.3" y="348.5" class="st1" width="33.9" height="1.6"/>
	<rect x="464.3" y="351.6" class="st1" width="33.9" height="1.6"/>
	<rect x="464.3" y="354.7" class="st1" width="33.9" height="1.6"/>
	<rect x="514.7" y="288.8" class="st6" width="51.2" height="75.7"/>
	<path class="st4" d="M555.8,311.9c0,8.5-7,15.4-15.5,15.4c-8.5,0-15.4-7-15.4-15.5c0-8.5,7-15.4,15.5-15.4c5.5,0,10.6,3,13.4,7.9
		C555.1,306.5,555.8,309.2,555.8,311.9z"/>
	<path class="st7" d="M555.8,311.9c0,8.5-6.9,15.5-15.5,15.4c-3.7,0-7.2-1.3-10-3.7l10-11.8v-15.5
		C548.8,296.4,555.8,303.3,555.8,311.9C555.8,311.9,555.8,311.9,555.8,311.9L555.8,311.9z"/>
	<path class="st8" d="M530.9,339.8c-0.1-0.1-0.1-0.2,0-0.3c0,0,0,0,0,0c0.1-0.1,0.3-0.1,0.4,0c0,0,0,0,0,0c0.4,0.3,0.8,0.5,1.3,0.5
		c1,0,1.9-0.8,1.9-1.9c0-1-0.8-1.9-1.9-1.9c-0.5,0-1,0.2-1.3,0.5c-0.1,0.1-0.2,0.1-0.3,0c0,0,0,0,0,0c0,0,0,0-0.1-0.1l0,0l0,0
		c0,0,0-0.1,0-0.1l0,0l0.3-2.8c0-0.1,0-0.1,0.1-0.2c0,0,0.1-0.1,0.2-0.1h3.3c0.1,0,0.3,0.1,0.3,0.3c0,0.1-0.1,0.2-0.2,0.3
		c0,0,0,0,0,0h-3l-0.3,2.1c0.4-0.2,0.8-0.3,1.2-0.3c1.3,0,2.4,1.1,2.4,2.4c0,0,0,0,0,0c0,0.6-0.2,1.2-0.7,1.7
		c-0.4,0.4-1.1,0.7-1.7,0.7C531.9,340.5,531.3,340.3,530.9,339.8z"/>
	<path class="st8" d="M536.9,339.8c-0.1-0.1-0.1-0.2,0-0.3c0,0,0,0,0,0c0.1-0.1,0.3-0.1,0.4,0c0,0,0,0,0,0c0.4,0.3,0.8,0.5,1.3,0.5
		c1,0,1.9-0.8,1.9-1.9c0-1-0.8-1.9-1.9-1.9c-0.5,0-1,0.2-1.3,0.5c-0.1,0.1-0.2,0.1-0.3,0c0,0,0,0,0,0c0,0,0,0-0.1-0.1l0,0l0,0
		c0,0,0-0.1,0-0.1l0,0l0.3-2.8c0-0.1,0-0.1,0.1-0.2c0,0,0.1-0.1,0.2-0.1h3.3c0.1,0,0.3,0.1,0.3,0.3c0,0.1-0.1,0.2-0.2,0.3
		c0,0,0,0,0,0h-3l-0.3,2.1c0.4-0.2,0.8-0.3,1.2-0.3c1.3,0,2.4,1.1,2.4,2.4c0,0,0,0,0,0c0,0.6-0.2,1.2-0.7,1.7
		c-0.4,0.4-1.1,0.7-1.7,0.7C538,340.5,537.4,340.2,536.9,339.8z"/>
	<path class="st8" d="M542.8,335.2L542.8,335.2c-0.1-0.9,0.4-1.7,1.3-1.8c0.9-0.1,1.7,0.4,1.8,1.3c0,0.2,0,0.3,0,0.5l0,0
		c0.1,0.9-0.6,1.7-1.5,1.8c0,0,0,0,0,0C543.4,336.9,542.8,336.1,542.8,335.2C542.8,335.2,542.8,335.2,542.8,335.2z M545.4,335.2
		L545.4,335.2c0-0.8-0.5-1.4-1-1.4s-1,0.6-1,1.3l0,0c0,0.8,0.5,1.4,1,1.4S545.4,335.9,545.4,335.2z M543.8,340.2l4.9-6.6
		c0-0.1,0.1-0.1,0.2-0.1c0.1,0,0.2,0.1,0.2,0.2c0,0,0,0,0,0c0,0,0,0.1,0,0.1l-4.9,6.6c0,0.1-0.1,0.1-0.2,0.1c-0.1,0-0.2-0.1-0.2-0.2
		c0,0,0,0,0,0C543.7,340.3,543.7,340.2,543.8,340.2L543.8,340.2z M546.9,338.8L546.9,338.8c-0.1-0.9,0.4-1.7,1.3-1.8
		c0.9-0.1,1.7,0.4,1.8,1.3c0,0.2,0,0.3,0,0.5l0,0c0.1,0.9-0.6,1.7-1.5,1.8c0,0,0,0,0,0C547.5,340.5,546.8,339.8,546.9,338.8
		C546.9,338.8,546.9,338.8,546.9,338.8L546.9,338.8z M549.4,338.8L549.4,338.8c0-0.8-0.5-1.4-1-1.4s-1,0.6-1,1.3l0,0
		c0,0.8,0.5,1.4,1,1.4S549.4,339.5,549.4,338.8L549.4,338.8z"/>
	<rect x="527.7" y="345.1" class="st8" width="25.4" height="1.6"/>
	<rect x="523.4" y="348.5" class="st1" width="33.8" height="1.6"/>
	<rect x="523.4" y="351.6" class="st1" width="33.8" height="1.6"/>
	<rect x="523.4" y="354.7" class="st1" width="33.8" height="1.6"/>
	<polygon class="st8" points="322.3,252.4 322.5,283 322.5,313.7 322.6,375 322.5,436.3 322.5,467 322.3,497.6 322.1,467 322,436.3 
		321.9,375 322,313.7 322.1,283 	"/>
	<polygon class="st8" points="577.7,375 527,375.2 476.3,375.3 375,375.4 273.7,375.3 223,375.2 172.3,375 223,374.8 273.7,374.8 
		375,374.6 476.3,374.8 527,374.8 	"/>
	<path class="st6" d="M338.6,407.3c38.4-0.2,74.8-0.1,113.2-0.2c38.4,0.1,75.8,0,114.2,0.2c-38.4,0.2-75.9,0.1-114.2,0.2
		C413.4,407.5,376.9,407.5,338.6,407.3z"/>
	<path class="st6" d="M338.6,425.4c38.4-0.2,74.8-0.1,113.2-0.2c38.4,0.1,75.8,0,114.2,0.2c-38.4,0.2-75.9,0.1-114.2,0.2
		C413.4,425.5,376.9,425.6,338.6,425.4z"/>
	<path class="st6" d="M338.6,443.5c38.4-0.2,74.8-0.1,113.2-0.2c38.4,0.1,75.8,0,114.2,0.2c-38.4,0.2-75.9,0.1-114.2,0.2
		C413.4,443.6,376.9,443.7,338.6,443.5z"/>
	<path class="st6" d="M338.6,461.6c38.4-0.2,74.8-0.1,113.2-0.2c38.4,0.1,75.8,0,114.2,0.2c-38.4,0.2-75.9,0.1-114.2,0.2
		C413.4,461.7,376.9,461.8,338.6,461.6z"/>
	<path class="st6" d="M338.6,479.7c38.4-0.2,74.8-0.1,113.2-0.2c38.4,0.1,75.8,0,114.2,0.2c-38.4,0.2-75.9,0.1-114.2,0.2
		C413.4,479.8,376.9,479.9,338.6,479.7z"/>
	<path class="st6" d="M360.4,395.5c0.2,16.9,0.1,33.8,0.2,50.7c-0.1,16.9,0,33.8-0.2,50.7c-0.2-16.9-0.1-33.8-0.2-50.7
		C360.2,429.4,360.2,412.5,360.4,395.5z"/>
	<path class="st6" d="M380,395.5c0.2,16.9,0.1,33.8,0.2,50.7s0,33.8-0.2,50.7c-0.2-16.9-0.1-33.8-0.2-50.7
		C379.9,429.4,379.8,412.5,380,395.5z"/>
	<path class="st6" d="M399.7,395.5c0.2,16.9,0.1,33.8,0.2,50.7c-0.1,16.9,0,33.8-0.2,50.7c-0.2-16.9-0.1-33.8-0.2-50.7
		S399.5,412.5,399.7,395.5z"/>
	<path class="st6" d="M419.3,395.5c0.2,16.9,0.1,33.8,0.2,50.7c-0.1,16.9,0,33.8-0.2,50.7c-0.2-16.9-0.1-33.8-0.2-50.7
		C419.2,429.4,419.1,412.5,419.3,395.5z"/>
	<path class="st6" d="M439,395.5c0.2,16.9,0.1,33.8,0.2,50.7c-0.1,16.9,0,33.8-0.2,50.7c-0.2-16.9-0.1-33.8-0.2-50.7
		S438.8,412.5,439,395.5z"/>
	<path class="st6" d="M458.6,395.5c0.2,16.9,0.1,33.8,0.2,50.7c-0.1,16.9,0,33.8-0.2,50.7c-0.2-16.9-0.1-33.8-0.2-50.7
		C458.5,429.4,458.5,412.5,458.6,395.5z"/>
	<path class="st6" d="M478.3,395.5c0.2,16.9,0.1,33.8,0.2,50.7c-0.1,16.9,0,33.8-0.2,50.7c-0.2-16.9-0.1-33.8-0.2-50.7
		S478.1,412.5,478.3,395.5z"/>
	<path class="st6" d="M498,395.5c0.2,16.9,0.1,33.8,0.2,50.7c-0.1,16.9,0,33.8-0.2,50.7c-0.2-16.9-0.1-33.8-0.2-50.7
		C497.8,429.4,497.8,412.5,498,395.5z"/>
	<path class="st6" d="M517.6,395.5c0.2,16.9,0.2,33.8,0.2,50.7c-0.1,16.9,0,33.8-0.2,50.7c-0.2-16.9-0.1-33.8-0.2-50.7
		C517.5,429.4,517.4,412.5,517.6,395.5z"/>
	<path class="st6" d="M537.3,395.5c0.2,16.9,0.1,33.8,0.2,50.7c-0.1,16.9,0,33.8-0.2,50.7c-0.2-16.9-0.1-33.8-0.2-50.7
		C537.1,429.4,537.1,412.5,537.3,395.5z"/>
	<path class="st6" d="M556.9,395.5c0.2,16.9,0.2,33.8,0.2,50.7s0,33.8-0.2,50.7c-0.2-16.9-0.1-33.8-0.2-50.7
		C556.8,429.4,556.7,412.5,556.9,395.5z"/>
	<path class="st6" d="M338.2,396.6c0.3,16.7,0.5,33.4,0.5,50.2L339,497l-0.7-0.4l112.2,0.1l56.1,0.1l60.3,0.2l-60.3,0.2l-56.1,0.1
		l-112.2,0.1h-0.7V497l0.2-50.2C337.8,430.1,338,413.4,338.2,396.6z"/>
	<path class="st7" d="M338.6,497c0,0,10.6-44,21.3-44c9,0,12.8,13,20.1,13c9.6,0,11-33.6,20.3-33.6s11.3,13.1,19.3,13.1
		s11.5-15.5,19.8-15.5s10.3,22.8,19.1,22.8s9-35.9,19.8-35.9s13.6,15.5,20,15.5s10-11.3,19.3-11.3c17.6,0,39.4,76,39.4,76H338.6z"/>
	<path class="st9" d="M338.6,497c0,0,10.6-44,21.3-44c9,0,12.8,13,20.1,13c9.6,0,11-33.6,20.3-33.6s11.3,13.1,19.3,13.1
		s11.5-15.5,19.8-15.5s10.3,22.8,19.1,22.8s9-35.9,19.8-35.9s13.6,15.5,20,15.5s10-11.3,19.3-11.3c17.6,0,39.4,76,39.4,76H338.6z"/>
	<path class="st7" d="M338.6,497c0,0,11.4-48.8,21.5-48.8s11.1,13.4,19.6,13.4s8.6-23.5,20-23.5c7.9,0,10.6,9.6,19.3,9.6
		c11.9,0,10.1-22.2,19.9-22.2c12.5,0,7.4,30.6,20.4,30.6c8.2,0,10.4-13.7,20.2-13.7c6.5,0,9.3,9.9,17.8,9.9s10.4-19.7,21-19.7
		c17.4,0,38.9,64.5,38.9,64.5L338.6,497z"/>
	<g class="st10">
		<path d="M338.6,497c0,0,11.4-48.8,21.5-48.8s11.1,13.4,19.6,13.4s8.6-23.5,20-23.5c7.9,0,10.6,9.6,19.3,9.6
			c11.9,0,10.1-22.2,19.9-22.2c12.5,0,7.4,30.6,20.4,30.6c8.2,0,10.4-13.7,20.2-13.7c6.5,0,9.3,9.9,17.8,9.9s10.4-19.7,21-19.7
			c17.4,0,38.9,64.5,38.9,64.5L338.6,497z"/>
	</g>
	<path class="st7" d="M338.6,497c0,0,10.3-22.4,21.8-22.4c8.7,0,10.2,5.9,19.8,5.9c6,0,8.3-23.5,19.8-23.5s11.7,13.9,19.6,13.9
		s10.1-13.1,19.7-13.1s10.8,7.2,19.4,7.2c9.8,0,9.5-29.2,19.7-29.2s13.4,21.6,19.9,21.6c8.3,0,9.1-7.8,19.2-7.8
		c14.1,0,39.9,47.3,39.9,47.3H338.6z"/>
	<rect x="179.5" y="395.2" class="st2" width="126.2" height="81.9"/>
	<rect x="185.5" y="399.5" class="st6" width="6.5" height="73.2"/>
	<rect x="185.5" y="435.3" class="st7" width="6.5" height="37.4"/>
	<rect x="197.4" y="399.5" class="st6" width="6.5" height="73.2"/>
	<rect x="197.4" y="414.9" class="st7" width="6.5" height="57.8"/>
	<rect x="209.4" y="399.5" class="st6" width="6.5" height="73.2"/>
	<rect x="209.4" y="426.2" class="st7" width="6.5" height="46.6"/>
	<rect x="221.4" y="399.5" class="st6" width="6.5" height="73.2"/>
	<rect x="221.4" y="449.5" class="st7" width="6.5" height="23.3"/>
	<rect x="233.4" y="399.5" class="st6" width="6.5" height="73.2"/>
	<rect x="233.4" y="409.7" class="st7" width="6.5" height="63"/>
	<rect x="245.3" y="399.5" class="st6" width="6.5" height="73.2"/>
	<rect x="245.3" y="414.9" class="st7" width="6.5" height="57.8"/>
	<rect x="257.3" y="399.5" class="st6" width="6.5" height="73.2"/>
	<rect x="257.3" y="426.2" class="st7" width="6.5" height="46.6"/>
	<rect x="269.3" y="399.5" class="st6" width="6.5" height="73.2"/>
	<rect x="269.3" y="414.9" class="st7" width="6.5" height="57.8"/>
	<rect x="281.2" y="399.5" class="st6" width="6.5" height="73.2"/>
	<rect x="281.2" y="449.5" class="st7" width="6.5" height="23.3"/>
	<rect x="293.2" y="399.5" class="st6" width="6.5" height="73.2"/>
	<rect x="293.2" y="426.2" class="st7" width="6.5" height="46.6"/>
	<rect x="179.6" y="483.2" class="st7" width="7.3" height="7.3"/>
	<rect x="191.9" y="483.2" class="st2" width="80.1" height="2.2"/>
	<rect x="191.9" y="488.4" class="st2" width="51.8" height="2.2"/>
	<rect x="455.7" y="258.1" class="st6" width="110.3" height="11.1"/>
	<rect x="554.8" y="258.1" class="st7" width="11.1" height="11.1"/>
	<path class="st6" d="M563.9,266.7l-1,0.8L561,265l-0.7-0.9c0.1-0.1,0.3-0.1,0.4-0.2c0.2-0.2,0.4-0.4,0.5-0.7l0.7,1L563.9,266.7z"/>
	<path class="st6" d="M561.9,260.8c-0.9-1.2-2.7-1.5-3.9-0.5c-1.2,0.9-1.5,2.7-0.5,3.9c0.8,1.1,2.3,1.4,3.5,0.8
		c0.1-0.1,0.3-0.2,0.4-0.3c0.2-0.2,0.4-0.4,0.6-0.6C562.7,263.1,562.6,261.8,561.9,260.8z M560.7,263.8c-0.1,0.1-0.3,0.2-0.4,0.2
		c-0.9,0.3-1.8-0.1-2.2-0.9c-0.3-0.9,0.1-1.8,0.9-2.2c0.7-0.3,1.5-0.1,2,0.5c0.4,0.5,0.4,1.1,0.2,1.7
		C561.1,263.4,560.9,263.7,560.7,263.8L560.7,263.8z"/>
	<rect x="458" y="260.2" class="st4" width="0.6" height="6.7"/>
	<rect x="179.4" y="258.1" class="st8" width="12.1" height="2.2"/>
	<rect x="179.4" y="262.5" class="st8" width="12.1" height="2.2"/>
	<rect x="179.4" y="267" class="st8" width="12.1" height="2.2"/>
</g>
<g id="freepik--Plant--inject-12">
	<path class="st7" d="M116.7,443.5c-1.2,4.5-2,9.1-2.4,13.8c0.1,0.2,0.1,1.1,0,0.9c0,0.8-1.2,0.6-1.2-0.1c0-0.5,0-1,0-1.5
		c-2.7-3.3-6.6-5.5-9.8-8.4c-2.6-2.3-4.4-5.2-5.4-8.5c-2.6-9-0.2-18.6-3.3-27.6c-2.7-7.8-7.5-14.5-11.7-21.5
		c-4.3-7.4-7.6-15.3-7.9-24c-0.3-6.7,0.5-15.5,5.6-20.5c5.4-5.3,12-1.3,16.2,3.4c12,13.7,17.5,31,19.7,48.8
		c1.2,9.8,2.5,19.7,2.2,29.6C118.7,433,118,438.3,116.7,443.5z"/>
	<path class="st4" d="M114.3,460.8c0.7-9.3,0.5-18.5-0.3-27.8c0,0,0,0,0-0.1c0.2-7.5,0.8-15,0.4-22.5c-0.4-8.1-1.5-16.2-3.3-24.1
		c0-0.1-0.2-0.1-0.2,0c1.5,7.8,2.3,15.7,2.6,23.6c0.2,4.2,0.1,8.5-0.1,12.7c-0.1,1.4-0.2,2.8-0.3,4.2l0,0
		c-3.1-21.1-10.7-41.3-22.3-59.1c-0.2-0.2-0.6,0-0.4,0.3c8.3,13.6,14.4,28.4,18.2,43.8c-5.7-10.6-14.4-19.4-20.9-29.6
		c0-0.1-0.1,0-0.1,0.1c5.8,11.4,15.3,20.4,21.4,31.6c1.1,4.6,1.9,9.2,2.6,13.8c0.9,6.4,1.3,12.8,1.4,19.2c-3.5-6.5-7.1-12.8-10-19.7
		c0-0.1-0.1-0.1-0.2-0.1c-0.1,0-0.1,0.1-0.1,0.2c2.4,7.2,5.7,14.9,10.3,21.1c0,4.5-0.1,9.1-0.4,13.6c-0.7,12.1-2.7,24.1-3.7,36.2
		c0,0.2,0.1,0.3,0.3,0.3s0.3-0.1,0.3-0.3C112,485.9,113.6,473.4,114.3,460.8z"/>
	<path class="st4" d="M101.5,367.3c0-0.1-0.2,0-0.1,0.1c2.2,6.1,3.5,12.3,5.1,18.6c0,0.1,0.2,0.2,0.3,0.2c0.1,0,0.2-0.1,0.2-0.2
		C106.2,379.5,103.9,373.2,101.5,367.3z"/>
	<path class="st7" d="M157.7,393c-1.5,3.6-3.2,7.1-5.1,10.5c-4,7.2-8.2,13.9-8.9,22.3c-0.3,3.8-0.4,7.6-1.6,11.2
		c-1,3.1-2.5,6.1-4.5,8.8c-4.3,6.3-9.7,11.7-13.7,18.3c-4.2,6.8-7.3,14.2-9.1,22c-0.1,0.4-0.8,0.3-0.7-0.1c0,0,0-0.1,0-0.1
		c0,0,0-0.1,0-0.1c-0.6-18.1,0.8-36.3,6.3-53.6c2.4-7.6,5.4-15.1,8.8-22.3c2.9-6.3,6.6-12.3,11.8-17c3.4-3,10.7-8.8,15.5-5.7
		C158.8,388.4,158.6,390.7,157.7,393z"/>
	<path class="st4" d="M139.6,434c-3.2,5.2-6.7,10.3-10.6,15.1c-1.8,2.3-3.5,4.6-5.3,6.9c-0.8,1.1-1.8,2.2-2.5,3.3
		c0.5-1.9,1-3.8,1.4-5.7c2.3-9.1,4.6-18.4,8.1-27.1c3.4-8.6,7.9-16.6,12.6-24.6c0.1-0.2-0.2-0.4-0.3-0.1
		c-3.8,6.3-7.7,12.6-10.9,19.2c-1.8,3.7-3.3,7.5-4.6,11.4c1.5-8.2,3.5-16.4,6.2-24.3c0-0.1-0.1-0.1-0.1,0c-3.4,8-5.6,16.6-6.4,25.3
		l0,0c-0.8,2.4-1.5,4.7-2.2,7.1c-2.8,10.1-5.3,20.3-7.7,30.6c0-6.7,0.6-13.5,1.8-20.1c0-0.1-0.2-0.2-0.2,0
		c-1.8,6.9-2.4,14.1-1.8,21.2c-0.9,3.9-1.7,7.8-2.6,11.7c-1.8,8.3-4,16.8-5,25.3c0,0.1,0.1,0.2,0.2,0.2c0.1,0,0.1,0,0.2-0.1
		c1.2-4.6,2-9.3,3-13.9s2.1-9.3,3.1-13.9c1.6-6.7,3.2-13.4,4.9-20.1c1.1-2.5,3.3-4.6,4.9-6.7c1.8-2.3,3.6-4.5,5.3-6.8
		c3.3-4.3,6.2-8.8,8.7-13.5C139.8,434,139.6,433.9,139.6,434z"/>
	<path class="st4" d="M140.3,426.2c-4,5.1-7.4,10.6-10.3,16.3c0,0.1,0.1,0.1,0.1,0.1c3.5-5.4,6.9-10.9,10.3-16.3
		C140.5,426.3,140.4,426.1,140.3,426.2z"/>
	<path class="st7" d="M63.3,410.1c2.3,4,5,8.9,4,13.7c-0.6,3.1-2.9,5.6-3.3,8.7c-0.9,6.9,6,11.5,11,14.7
		c12.4,8.1,29.4,15.4,31.7,32.1c0.1,0.6,1.1,0.4,1-0.1c0,0,0-0.1,0-0.1c0,0,0.1,0,0.1-0.1c1.6-8.4,1.5-17-0.2-25.4
		c-1.8-8.6-5.6-16.3-10-23.8c-7.5-12.8-15.4-25.8-26.7-35.6c-3.1-2.7-9.5-7.6-12-1.5C56.4,398.6,60.5,405.2,63.3,410.1z"/>
	<path class="st4" d="M74.7,437.1c8.2,8.9,21.3,13.9,28.4,23.9c-4.2-15.3-11.1-29-21.8-41c-0.1-0.1-0.1-0.3,0-0.5
		c0.1-0.1,0.3-0.1,0.4,0c7.6,7.4,13.6,16.1,17.8,25.8c-2-6.8-4.5-13.3-7.7-19.6c-0.1-0.2,0.2-0.5,0.4-0.2c3.9,6.9,6.7,14.3,8.3,22.1
		c9.3,22.6,10.2,49.1,8.3,73c0,0.3-0.6,0.3-0.5,0c0.5-18.8,0.2-37.9-4.3-56.2c-0.1-0.4-0.2-0.8-0.3-1.1
		c-7.7-10.8-20.7-15.7-29.1-25.9C74.5,437.2,74.6,437.1,74.7,437.1z"/>
	<path class="st4" d="M72.8,429.5c4.3,4,8.6,8,12.9,12c0,0,0,0.1-0.1,0.1c-4.9-3.3-9.3-7.3-13.1-11.8c-0.1-0.1-0.1-0.2,0-0.3
		C72.6,429.4,72.7,429.4,72.8,429.5L72.8,429.5z"/>
	<path class="st4" d="M72.1,412.3c3.8,6.3,8.1,12.2,12.9,17.8c0.1,0.1,0,0.2-0.1,0.1c-5.4-5.1-9.8-11.1-13.1-17.8
		c0-0.1,0-0.2,0.1-0.2C72,412.2,72.1,412.2,72.1,412.3L72.1,412.3z"/>
	<polygon class="st11" points="91.6,537.4 129.4,537.4 124.3,486.5 97.4,486.5 	"/>
	<polygon class="st4" points="96.4,494.8 125.2,494.8 124.3,486.5 97.4,486.5 	"/>
	<rect x="92.8" y="480.8" class="st11" width="35.5" height="8.1"/>
</g>
<g id="freepik--magnifying-glass--inject-12">
	
		<rect x="123.7" y="358.9" transform="matrix(0.7387 -0.674 0.674 0.7387 -208.6833 193.566)" class="st11" width="43.3" height="14"/>
	<path class="st4" d="M247.4,272.8c-22-24.1-59.4-25.8-83.5-3.8c-24.1,22-25.8,59.4-3.8,83.5c22,24.1,59.4,25.8,83.5,3.8
		C267.7,334.3,269.4,296.9,247.4,272.8C247.4,272.8,247.4,272.8,247.4,272.8z M169.3,344.1c-17.4-19-16-48.5,3-65.9s48.5-16,65.9,3
		c17.4,19,16,48.5-3,65.9c0,0,0,0,0,0C216.1,364.4,186.6,363.1,169.3,344.1L169.3,344.1z"/>
	<path class="st4" d="M135.9,368.7l5.8,6.3c2.3,2.6,2.2,6.5-0.4,8.9l-32.8,29.9c-2.6,2.3-6.5,2.2-8.9-0.4l-5.8-6.3
		c-2.3-2.6-2.2-6.5,0.4-8.9l32.8-29.9C129.6,366,133.5,366.2,135.9,368.7z"/>
	<g class="st12">
		<path class="st6" d="M235.2,347.1c-19,17.4-48.5,16-65.9-3c-17.4-19-16-48.5,3-65.9c19-17.4,48.5-16,65.9,3c0,0,0,0,0,0
			C255.5,300.2,254.2,329.7,235.2,347.1z"/>
		<path class="st1" d="M224.3,354.5c-23,11.2-50.8,1.9-62.2-21L224.3,354.5z"/>
		<path class="st1" d="M250.3,315.3L165,286.6c2.1-3.1,4.5-5.9,7.2-8.4c3.1-2.9,6.6-5.3,10.4-7.2l62.9,21.2
			C249.2,299.4,250.8,307.3,250.3,315.3z"/>
		<path class="st1" d="M238.4,343.8l-81.2-27.4c-0.2-3-0.2-6.1,0.2-9.1l86.5,29.1C242.3,339,240.5,341.5,238.4,343.8z"/>
		<path class="st1" d="M249.5,321.6l-87.6-29.5c0.3-0.5,0.5-1,0.8-1.5l87.2,29.4C249.7,320.5,249.6,321.1,249.5,321.6z"/>
		<path class="st1" d="M236.6,279.5l-38.9-13.1c1.4-0.2,2.8-0.3,4.2-0.4l31.6,10.7C234.5,277.6,235.6,278.5,236.6,279.5z"/>
	</g>
	<path class="st6" d="M180.5,287.7l0.1-0.1C181.3,287,179.9,288.1,180.5,287.7c0.4-0.3,1.1-0.8,1.7-1.2c2.1-1.4,4.3-2.7,6.7-3.7
		l1-0.4c0.1,0-0.8,0.3-0.1,0l0.6-0.3c0.8-0.3,1.6-0.6,2.4-0.9c1.8-0.6,3.6-1.1,5.4-1.4l1.3-0.2c0.6-0.1-0.7,0.1,0.1,0l0.8-0.1
		c1-0.1,2-0.2,3.1-0.2s2.2,0,3.3,0c0.5,0,1,0.1,1.5,0.1c0.9,0.1-0.4-0.1,0.3,0l0.9,0.1c2.7,0.4,5.4,1.1,8,2.1l0.1,0l0.3,0.1
		c0.4,0.2,0.8,0.3,1.1,0.5c0.7,0.3,1.4,0.6,2.1,1c1.5,0.7,2.9,1.6,4.3,2.5c1.7,0.9,3.9,0.2,4.7-1.6c0.8-1.6,0.2-3.7-1.3-4.6
		c-8.8-5.8-19.4-8.3-29.8-7c-7.1,1-13.8,3.6-19.8,7.5c-1.3,0.9-2.6,1.8-3.8,2.8c-1.4,1.4-1.3,3.6,0.1,5c0,0,0,0,0,0
		C176.9,289.2,179.1,289.1,180.5,287.7L180.5,287.7z"/>
	<path class="st6" d="M173.3,295.3c-1.3,1.4-3.5,1.4-4.9,0.1c-1.4-1.3-1.4-3.5-0.1-4.9c1.3-1.4,3.5-1.4,4.9-0.1
		C174.6,291.8,174.6,294,173.3,295.3z"/>
</g>
</svg>
