<?xml version="1.0" encoding="utf-8"?>
<!-- Generator: Adobe Illustrator 24.0.2, SVG Export Plug-In . SVG Version: 6.00 Build 0)  -->
<svg version="1.1" id="圖層_1" xmlns="http://www.w3.org/2000/svg" xmlns:xlink="http://www.w3.org/1999/xlink" x="0px" y="0px"
	 viewBox="0 0 500 500" style="enable-background:new 0 0 500 500;" xml:space="preserve">
<style type="text/css">
	.st0{fill:#E3D1E1;}
	.st1{fill:#69A4A7;}
	.st2{opacity:0.75;fill:#FFFFFF;enable-background:new    ;}
	.st3{fill:none;stroke:#263238;stroke-miterlimit:10;}
	.st4{fill:#263238;}
	.st5{fill:none;stroke:#69A4A7;stroke-miterlimit:10;}
	.st6{fill:#808080;}
	.st7{fill:none;stroke:#FFFFFF;stroke-miterlimit:10;}
	.st8{fill:none;stroke:#999999;stroke-miterlimit:10;}
	.st9{fill:none;stroke:#FFFFFF;stroke-linecap:round;stroke-linejoin:round;}
	.st10{opacity:0.5;fill:#FFFFFF;enable-background:new    ;}
	.st11{fill:#FFFFFF;stroke:#263238;stroke-linecap:round;stroke-linejoin:round;}
	.st12{fill:#263238;stroke:#263238;stroke-linecap:round;stroke-linejoin:round;}
	.st13{fill:none;stroke:#263238;stroke-linecap:round;stroke-linejoin:round;}
</style>
<rect class="st0" width="500" height="500"/>
<g id="freepik--background-simple--inject-2">
	<path class="st1" d="M215.6,9.1c0,0,83.2-10.6,149.4,49.7s85.5,155.3,103.1,232S451.5,434,386.6,453.5S292.7,417,212.1,397
		s-105-13.2-162.3-73.8S4,151.8,74.6,83.3S215.6,9.1,215.6,9.1z"/>
	<path class="st2" d="M215.6,9.1c0,0,83.2-10.6,149.4,49.7s85.5,155.3,103.1,232S451.5,434,386.6,453.5S292.7,417,212.1,397
		s-105-13.2-162.3-73.8S4,151.8,74.6,83.3S215.6,9.1,215.6,9.1z"/>
</g>
<g id="freepik--Wall--inject-2">
	<line class="st3" x1="456.6" y1="342.8" x2="47.2" y2="313.9"/>
	<line class="st3" x1="68.2" y1="315.1" x2="68.2" y2="269.1"/>
	<line class="st3" x1="106.9" y1="317.6" x2="106.9" y2="272.8"/>
	<line class="st3" x1="151.8" y1="321.3" x2="151.8" y2="275.2"/>
	<line class="st3" x1="201.5" y1="325" x2="201.5" y2="276.4"/>
	<line class="st3" x1="253.1" y1="328" x2="253.1" y2="276.4"/>
	<line class="st3" x1="304.7" y1="330.5" x2="304.7" y2="281.4"/>
	<line class="st3" x1="359.7" y1="337.5" x2="359.7" y2="284.4"/>
	<line class="st3" x1="422" y1="339.7" x2="422" y2="288.7"/>
	<line class="st3" x1="456.6" y1="349.9" x2="45.9" y2="319.5"/>
	<line class="st3" x1="443.7" y1="470.6" x2="456" y2="472"/>
	<line class="st3" x1="44" y1="424" x2="430" y2="469"/>
</g>
<g id="freepik--Graphics--inject-2">
	<polygon class="st4" points="459,278.7 58.6,261.5 58.6,43.3 459,26.1 	"/>
	<polygon class="st5" points="449.1,266.8 66,251.9 66,53 449.1,38 	"/>
	<path class="st6" d="M190.5,75.5l-106,3c-2.6-0.1-4.6-2.2-4.6-4.8c0-0.1,0-0.1,0-0.2l0,0c0-2.8,2-5.2,4.6-5.3l106-3.5
		c2.8,0,5,2.3,5,5c0,0.1,0,0.1,0,0.2l0,0C195.5,72.9,193.3,75.3,190.5,75.5z"/>
	<path class="st1" d="M126.8,72.2c0.2-2.6-1.9-4.9-4.5-5.1c-0.1,0-0.1,0-0.2,0l-37.6,1.2c-2.5,0.1-4.6,2.4-4.6,5.3
		c-0.2,2.6,1.8,4.8,4.4,5c0.1,0,0.1,0,0.2,0l37.6-1.1C124.9,77.3,126.9,74.9,126.8,72.2z"/>
	<path class="st6" d="M190.5,96.4l-106,2.2c-2.5,0.1-4.6-2.2-4.6-5l0,0c-0.1-2.7,1.9-5,4.6-5.2l106-2.6c2.8,0,5,2.3,5,5
		c0,0.1,0,0.1,0,0.2l0,0C195.5,93.8,193.3,96.2,190.5,96.4z"/>
	<path class="st1" d="M153.3,91.9L153.3,91.9c0.1-2.7-1.9-5-4.6-5.1c-0.1,0-0.1,0-0.2,0l-64,1.6c-2.7,0.2-4.7,2.5-4.6,5.2l0,0
		c0,2.8,2,5.1,4.6,5l64.1-1.3C151.3,97,153.4,94.7,153.3,91.9z"/>
	<path class="st6" d="M190.5,117.3l-106,1.4c-2.6-0.1-4.7-2.4-4.6-5c0,0,0,0,0-0.1l0,0c-0.1-2.7,1.9-5,4.6-5.2l106-1.8
		c2.8,0.1,5,2.4,5,5.2c0,0,0,0.1,0,0.1l0,0C195.5,114.7,193.3,117.1,190.5,117.3z"/>
	<path class="st1" d="M172,112.2c0.1-2.8-2-5.1-4.8-5.2c0,0-0.1,0-0.1,0l-82.7,1.4c-2.7,0.2-4.7,2.5-4.6,5.2
		c-0.2,2.6,1.9,4.9,4.5,5.1c0,0,0,0,0.1,0l82.7-1.1C169.9,117.4,172.1,115,172,112.2z"/>
	<path class="st1" d="M190.5,138.1l-106,0.6c-2.7-0.1-4.7-2.4-4.6-5.1c0,0,0,0,0,0l0,0c-0.1-2.7,1.9-5,4.6-5.2l106-1
		c2.8,0.1,5,2.4,5,5.2c0,0,0,0,0,0.1l0,0C195.5,135.6,193.3,138,190.5,138.1z"/>
	<path class="st1" d="M217.1,74.8l-14.5,0.4c-2.8,0-5-2.2-5-5c0-0.1,0-0.1,0-0.2l0,0c-0.1-2.9,2.1-5.3,5-5.5l14.5-0.5
		c2.8,0,5,2.2,5.1,4.9c0,0.1,0,0.2,0,0.3l0,0C222.2,72.1,220,74.6,217.1,74.8z"/>
	<path class="st1" d="M217.1,95.8l-14.5,0.3c-2.8,0-5-2.2-5-5c0-0.1,0-0.2,0-0.3l0,0c-0.1-2.9,2.1-5.3,5-5.5l14.5-0.4
		c2.8,0,5.1,2.3,5.1,5.1c0,0.1,0,0.1,0,0.2l0,0C222.2,93.2,220,95.7,217.1,95.8z"/>
	<path class="st1" d="M217.1,116.9l-14.5,0.2c-2.8,0-5.1-2.4-5-5.2c0,0,0-0.1,0-0.1l0,0c-0.1-2.9,2.1-5.3,5-5.4l14.5-0.3
		c2.8,0,5.1,2.4,5.1,5.2c0,0,0,0.1,0,0.1l0,0C222.2,114.3,220,116.8,217.1,116.9z"/>
	<path class="st1" d="M217.1,138l-14.5,0.1c-2.8-0.1-5.1-2.4-5-5.3c0,0,0,0,0-0.1l0,0c-0.1-2.9,2.1-5.3,5-5.4l14.5-0.1
		c2.9,0.1,5.1,2.4,5.1,5.3c0,0,0,0,0,0.1l0,0C222.2,135.5,220,137.9,217.1,138z"/>
	<line class="st7" x1="85.3" y1="62.9" x2="102.4" y2="62.3"/>
	<line class="st7" x1="85.3" y1="84" x2="102.4" y2="83.5"/>
	<line class="st7" x1="85.3" y1="103.9" x2="102.4" y2="103.6"/>
	<line class="st7" x1="85.3" y1="124.9" x2="102.4" y2="124.8"/>
	<line class="st7" x1="400.9" y1="63.5" x2="415.2" y2="63.1"/>
	<line class="st7" x1="392.6" y1="75.8" x2="415.2" y2="75.2"/>
	<line class="st7" x1="400.9" y1="87.7" x2="415.2" y2="87.4"/>
	<line class="st7" x1="406.8" y1="99.7" x2="415.2" y2="99.5"/>
	<line class="st7" x1="400.9" y1="111.9" x2="415.2" y2="111.7"/>
	<line class="st7" x1="397.1" y1="124" x2="415.2" y2="123.8"/>
	<line class="st7" x1="400.9" y1="136.1" x2="415.2" y2="136"/>
	<line class="st7" x1="394" y1="148.2" x2="415.2" y2="148.2"/>
	<line class="st7" x1="400.9" y1="160.3" x2="415.2" y2="160.3"/>
	<path class="st7" d="M419,63l4.3-0.1"/>
	<path class="st7" d="M419,75.1l4.3-0.1"/>
	<path class="st7" d="M419,87.3l4.3-0.1"/>
	<path class="st7" d="M419.1,99.5l4.2-0.1"/>
	<path class="st7" d="M419,111.6l4.3-0.1"/>
	<path class="st7" d="M419,123.8h4.3"/>
	<path class="st7" d="M419,136h4.3"/>
	<path class="st7" d="M418.9,148.2h4.4"/>
	<path class="st7" d="M419,160.3h4.3"/>
	<path class="st7" d="M427.5,62.7l7.4-0.2"/>
	<path class="st7" d="M427.5,74.9l7.4-0.2"/>
	<path class="st7" d="M427.5,87.1l7.4-0.2"/>
	<path class="st7" d="M427.7,99.3l7.2-0.1"/>
	<path class="st7" d="M427.5,111.5l7.4-0.1"/>
	<path class="st7" d="M427.7,123.7l7.3-0.1"/>
	<path class="st7" d="M427.5,135.9h7.4"/>
	<path class="st7" d="M427.5,148.1h7.5"/>
	<path class="st7" d="M427.5,160.4h7.4"/>
	<line class="st8" x1="237.1" y1="150.6" x2="382.5" y2="150.5"/>
	<line class="st8" x1="237.1" y1="141.3" x2="382.5" y2="140.7"/>
	<line class="st8" x1="237.1" y1="132.1" x2="382.5" y2="131"/>
	<path class="st1" d="M383,169.7v-44c0,0-3.4-4.3-17.5-3.5c-13.9,0.8-17.3,13.1-32,20.3s-21.5-4.4-33.5-4.3s-17.9,13.3-26.5,18.4
		s-16.2-0.6-26.4,0.6c-5.9,0.7-10.8,4.8-12.4,10.5l-0.1,1.2L383,169.7z"/>
	<path class="st6" d="M383,169.7v-24.2c-4.8-0.3-14.8,0.5-25.4,9.4s-29.5,4.2-35.1,2.1c-8.9-3.2-19-3.4-29.1,3s-18.3,5.8-27.6,5.7
		c-6.6,0-14.3,2-18.1,3.1L383,169.7z"/>
	<path class="st6" d="M271.8,238.3l-25.9-0.8c-2.5-0.2-4.4-2.3-4.4-4.8l0,0c-0.1-2.4,1.8-4.4,4.2-4.5c0.1,0,0.1,0,0.2,0l25.9,0.7
		c2.5,0.1,4.5,2.3,4.5,4.8l0,0c0.1,2.5-1.9,4.5-4.3,4.6C271.9,238.3,271.8,238.3,271.8,238.3z"/>
	<path class="st6" d="M324,239.9l-26.9-0.8c-2.6-0.1-4.6-2.3-4.5-4.9l0,0c-0.1-2.5,1.9-4.5,4.4-4.6c0.1,0,0.1,0,0.2,0l26.9,0.7
		c2.6,0.1,4.7,2.3,4.6,4.9l0,0c0.1,2.5-1.9,4.6-4.5,4.6C324.1,239.9,324.1,239.9,324,239.9z"/>
	<path class="st6" d="M377.1,241.5l-27.9-0.9c-2.7-0.1-4.7-2.3-4.7-5l0,0c0-2.5,2-4.6,4.5-4.7c0.1,0,0.1,0,0.2,0l27.9,0.8
		c2.7,0.1,4.8,2.3,4.8,5l0,0c0.1,2.6-2,4.7-4.6,4.8C377.3,241.5,377.2,241.5,377.1,241.5z"/>
	<line class="st8" x1="79.8" y1="213.2" x2="223.2" y2="216.6"/>
	<line class="st8" x1="79.8" y1="205.6" x2="223.2" y2="208.5"/>
	<line class="st8" x1="79.8" y1="197.9" x2="223.2" y2="200.5"/>
	<line class="st8" x1="79.8" y1="190.3" x2="223.2" y2="192.4"/>
	<line class="st8" x1="79.8" y1="182.7" x2="223.2" y2="184.4"/>
	<line class="st8" x1="79.8" y1="175.1" x2="223.2" y2="176.4"/>
	<line class="st8" x1="79.8" y1="167.5" x2="223.2" y2="168.3"/>
	<line class="st8" x1="79.8" y1="159.9" x2="223.2" y2="160.3"/>
	<polygon class="st6" points="97.1,221.8 83.3,221.4 83.3,191.3 97.1,191.5 	"/>
	<polygon class="st1" points="116.5,222.3 102.6,221.9 102.6,183 116.5,183.2 	"/>
	<polygon class="st6" points="136.3,222.9 122.2,222.5 122.2,176.6 136.3,176.7 	"/>
	<polygon class="st1" points="156.4,223.4 142,223 142,157.5 156.4,157.6 	"/>
	<polygon class="st6" points="176.8,223.9 162.2,223.6 162.2,176.9 176.8,177.1 	"/>
	<polygon class="st1" points="197.5,224.5 182.7,224.1 182.7,191.8 197.5,192 	"/>
	<polygon class="st6" points="218.6,225.1 203.5,224.7 203.5,204.9 218.6,205.2 	"/>
	<line class="st9" x1="84" y1="229.1" x2="95.1" y2="229.4"/>
	<line class="st9" x1="103.4" y1="229.6" x2="114.7" y2="230"/>
	<line class="st9" x1="123.1" y1="230.2" x2="134.6" y2="230.6"/>
	<line class="st9" x1="143.1" y1="230.8" x2="154.8" y2="231.2"/>
	<line class="st9" x1="163.4" y1="231.4" x2="175.3" y2="231.8"/>
	<line class="st9" x1="184.1" y1="232" x2="196.1" y2="232.4"/>
	<line class="st9" x1="205.1" y1="232.7" x2="217.3" y2="233"/>
	<polygon class="st1" points="394.4,181.1 394.4,173.9 413.9,174 413.9,181.2 	"/>
	<polygon class="st6" points="394.4,191.1 394.4,183.9 419.4,184.2 419.4,191.4 	"/>
	<polygon class="st1" points="394.4,201.1 394.4,194 423.7,194.4 423.7,201.6 	"/>
	<polygon class="st6" points="394.4,211.2 394.4,204 436.1,204.8 436.1,212 	"/>
	<polygon class="st1" points="394.4,221.2 394.4,214.1 423.7,214.7 423.7,221.9 	"/>
	<polygon class="st6" points="394.4,231.3 394.4,224.1 414.5,224.6 414.5,231.8 	"/>
	<polygon class="st1" points="394.4,241.3 394.4,234.1 406.5,234.5 406.5,241.7 	"/>
	<path class="st6" d="M279.2,199.1c0,12.2-9.4,21.9-21,21.6s-20.6-10.3-20.6-22.3s9.2-21.7,20.6-21.6
		C269.7,177,279.2,187,279.2,199.1z"/>
	<path class="st1" d="M259.3,176.9c-0.3,0-0.6-0.1-1-0.1c-11.4-0.1-20.6,9.6-20.6,21.6s9.2,22,20.6,22.3c0.3,0,0.7,0,1,0V176.9z"/>
	<path class="st4" d="M272.7,199c0,8.4-6.5,15.1-14.4,14.9s-14.3-7-14.3-15.3s6.4-15,14.3-14.9S272.7,190.6,272.7,199z"/>
	<path class="st1" d="M331,200c0,12.4-9.8,22.3-21.7,21.9s-21.4-10.4-21.4-22.7s9.5-22.1,21.4-22S331,187.6,331,200z"/>
	<path class="st4" d="M324.2,199.9c0.2,8.2-6.3,15-14.5,15.2c-0.2,0-0.3,0-0.5,0c-8.2-0.2-14.8-7.2-14.8-15.7
		c-0.2-8.2,6.3-15,14.5-15.2c0.1,0,0.2,0,0.3,0C317.5,184.3,324.2,191.4,324.2,199.9z"/>
	<path class="st6" d="M384.6,200.9c0.1,12.2-9.6,22.2-21.8,22.4c-0.2,0-0.5,0-0.7,0c-12.4-0.5-22.3-10.7-22.2-23.1
		c-0.1-12.2,9.7-22.2,21.9-22.4c0.1,0,0.2,0,0.3,0C374.6,178,384.7,188.3,384.6,200.9z"/>
	<path class="st1" d="M363.1,177.9c-0.4,0-0.7-0.1-1.1-0.1c-12.2-0.1-22.2,9.8-22.2,22c0,0.1,0,0.2,0,0.3c0,12.4,9.8,22.7,22.2,23.1
		c0.4,0,0.7,0,1.1,0V177.9z"/>
	<path class="st4" d="M377.6,200.8c0.1,8.4-6.7,15.4-15.1,15.5c-0.2,0-0.3,0-0.5,0c-8.6-0.3-15.4-7.4-15.4-16
		c-0.1-8.4,6.7-15.4,15.1-15.4c0.1,0,0.2,0,0.3,0C370.7,185,377.7,192.1,377.6,200.8z"/>
	<line class="st7" x1="253.9" y1="199.8" x2="263.4" y2="200"/>
	<line class="st7" x1="304.8" y1="200.7" x2="314.7" y2="200.9"/>
	<line class="st7" x1="356.7" y1="201.6" x2="367" y2="201.8"/>
	<polygon class="st6" points="305.3,83.4 305.3,82.6 305.1,82.8 305.3,83.4 	"/>
	<polygon class="st6" points="275.8,94.6 276.3,94.7 277.4,94.3 275.8,93.8 276,94.3 275.3,94.5 275.8,94.6 	"/>
	<path class="st6" d="M289,103.9l-2.6-1l-0.5,0.3l0.1-0.4l-0.8-0.6l-1,0.4l0.3-0.5l-0.7-0.2l-0.2,0.3l0.4-0.8l-0.5-1.2l-0.6-0.5
		l-1.4-0.2l0,0l-1-1H280l0.1-0.3l-0.5-0.2v-0.2l-0.3-0.1l-0.7,0.3l-1.1-0.3l-0.6-0.5l-0.1,0.3l-0.5,0.3l0.1,0.6l-0.4-0.1l0.1-0.5
		l0-0.3l0.1-0.1l0.1-0.3l-1,0.6h-0.2l-0.8,1.2h-0.1l-0.2-0.3l-0.5-0.3l-0.5,0.2h-0.6l-0.6-0.8l0.2-1.7l-0.4-0.3h-1.4l0,0l-0.1-0.1
		l0.2-0.9h0.1l0,0l0.4-1.3h-0.9l-0.8,1.2l-1.1,0.2l-0.4-0.2l-0.6-0.9v-2.2l-0.1-0.1l0.1,0.1l-0.1-0.5l0.1-0.4l1.2-0.9l1.2,0.3
		l0.2-0.1l0.3,0.2l-0.1-0.4l0.5-0.3l0.1,0.1l0.5-0.1l0.3,0.3h0.2l0.3-0.1l0.9,2h0.3l0.1-0.5l-0.5-2l1.6-1.8V87l0.1-0.2h0.2l0.1-0.2
		l-0.2-0.4V86l-0.2-0.3l0.1-0.1V85h0.1l0.1,0.9l0.2-0.1l0.1-0.7h0.3l0.2-0.5l0.7-0.3h-0.5l0.6-0.2l0.2-0.2h0.3l-0.1-0.3l0.3-0.7
		l0.5-0.4h0.4l1-0.8v0.2l0.3,0.1l-0.7,0.4v0.4l0.5-0.1l0.3-0.3l0.8-0.3l0.2,0l0.5-0.2l-0.1-0.2v-0.3l-0.6,0.6l-0.6-0.1l-0.4-0.3
		v-0.4l-0.2-0.1v-0.2l0.4-0.5l-1.5,0.3l-0.8,0.8l0.9-1.2l0.4-0.1l0.3-0.4l2.2-0.2l1.6-1v-0.2l-0.1-0.1L282,78l-0.2-0.3l-0.4,0.1
		v-0.3l-0.9,0.3l-0.1-0.2l0.9-0.4l-1.7-1.1V76l0.3-0.2l-1.1-2l-0.3,0.4l-0.1,0.5l-0.1,0.2h-0.2l-0.4,0.3l-0.6-0.5l-0.2-0.7l0.1-0.3
		l-0.8-0.3l-0.7-0.7l-0.4,0.1l-1.1-0.1l-0.1,0.3l0.2,0.3l-0.2,0.4l0.2,0.6l-0.4,0.9l0.5,0.5l0.1,0.9L274,77l-0.5,0.2l0.3,1.3
		l-0.1,0.3l0,0.2h-0.2l-0.2,0.3l-0.3-0.1l-0.6-0.9v-0.9l-0.2-0.3l-2.9-1.1l-0.5,0.2v-0.2l-0.4-0.8l-0.4-0.1l0.2-1.4l1.2-1.3
		l-1.1-0.5l1.2,0.2l0.1-0.3l0.5,0.1l0.5-0.6l-0.9-0.4v-0.2l0.7,0.4l0.5-0.4l-0.2-0.2l0.3-0.1l0.2,0.2h0.4l-0.2-0.3l0.1-0.1L272,70
		h0.3l0.5-0.4l-0.3-0.7v-0.2l0.4-0.2l-0.2-0.4l-1.2-0.4v0.4l0.1,0.2l-0.1,0.2l-0.2,0.2l-0.2,0.4l-0.1-0.3l0,0.3l0.1,0.2l-0.2,0.2
		l-0.4-0.6l0.1-0.2v-0.2l-0.2-0.3l-0.3-0.1l-0.3,0.6l-0.1-0.5l0.1-0.3l-0.4-0.2l-0.3,0.1v-0.3l0.2-0.1l-0.5-0.5v-0.3l-0.5-0.3
		l-0.1-0.2l0.3-0.2l0.1-0.4h0.5l0.5-0.8l-0.9-0.3l-0.7,0.2l0.1,0.2h-0.2l0.2,1.4l-0.2,0.2l0.1,0.2h-0.3v1.1l0.7,0.3l-0.1,0.5
		l0.2-0.2l0.2,0.2l-0.6,0.4v0.4l-0.2,0.2l-0.2-0.3V69l-0.4-0.1l0.3-0.1l0.2-0.2l0.4-0.1l-0.2-0.3h-0.3l0.3-0.1l-0.6-0.2l-0.8,0.4
		l0.6,0.4l-0.3,0.2v0.3l-1.9-0.1l-0.3-0.2l-0.2-0.3h-0.6l-0.5,0.3l0.2,0.2l0.8-0.3l-0.6,0.4v0.9l-0.2-0.1v-0.3l-2.4-0.2l0.4-0.3
		l-0.1-0.3l-2.3-0.6l-1.2,0.2v-0.3l-0.1-0.3l-0.5,0.6l-0.5-0.8l-0.2,0.1l-0.4,0.5l-1.4,0.7l0.1-0.2l1.2-0.8h-0.3l-1.2,0.6l-0.3-0.1
		l-0.5,0.4l0.1,0.2l-5.8-1.1l-0.1-0.2h-0.6l-0.2-0.2l-0.4,0.1l0.1-0.2l-0.3-0.1l-1.2,0.5l0.1,0.2l-0.8,0.1l-0.4,0.4l-0.1,0.4
		l-0.9,0.2l-0.1,0.3l0.9,0.9h0.6l0.1,0.3l0.4,0.1l-1.1,0.2V71h-0.4l-0.2,0.2h-0.3l-0.5,0.3l0.5,0.2l-0.1,0.2l0.3,0.3h1l0.6-0.3
		l-0.1,0.3v0.5l-0.4,0.1l-0.2,0.3l-0.4-0.1l-0.1,0.4l-0.3,0.3l-0.2,0.4l0.3,0.2v0.4l0.4,0.5l0.4-0.1l0.2-0.2l0.1,0.8h1.1l0.1-0.2
		h0.4l-0.1,0.8l-1,1l-0.5,0.1l-0.3,0.4l3.3-2.4l-0.3-0.2l1.2-1.3l0.2,0.1v0.2l-0.4,0.1l-0.1,0.4v0.3l-0.1,0.2l0.1,0.1l0.7-0.4h0.5
		v-0.2l-0.1-0.2l0.1-0.2l0.7,0.1l-0.1,0.1v0.1l0.5-0.1l0.1,0.1l1.1,0.1l0.3,0.2l0.4-0.2l-0.1,0.3l1,0.7l0.2-0.2l0.3,0.2v-0.3h0.1V76
		l-0.3-0.1l-0.2,0.1l0.6,0.9v-0.7l0.1,0.3l0.2-0.1V76l0.2,0.3l-0.1,0.3l-0.2,0.1v0.4l0.1-0.2l0.2-0.1l0.3,0.3l-0.1-0.2v-0.2l0.3,0.4
		l-0.2,0.2l-0.3-0.2l0.1,0.7l0.1-0.1l0.2,0.1l0.1-0.2l0.2,0.1l0.2-0.1v0.3h0.1l0,0l0.1,0.2l-0.1,0.2l0.1,0.3h0.3l0.1,0.2l0.4,0.3
		l0.1,0.6l0.9,0.4l0.1,0.2l0.5,0.2l0.3,0.4l0.1,0.4l-0.1,0.4l-0.2-0.6V81l-1-0.9l-0.8-0.2l1.1,1l0.5,1.2l0,3.8l1.2,1.9l0.7,0.3
		l1.5,2.7H261l0.8,0.6l0.1,0.5l0.8,0.9l0.2-0.1l-0.1-0.3l-0.3-0.1l-1-1.9v-0.2l-0.3-0.1l-0.3-0.9h0.1l0.5,0.2l0.1,1l2.6,3.2v0.3
		l-0.1,0.1l0.3,0.5l2.5,1.3h1.3l0.4,0.3l0,0l0.4,0.4l1.2,0.3l0.1-0.1h0.1l0.1,0.3l0.5,0.6v0.2l0.1,0.3l0.2-0.1l1.4,1L273,99
		l-0.1-0.2l0.2-0.2l0.4-0.2l0.4,0.8l0.1,1.5l-0.5,0.7v0.1l-0.2,0.2L273,103l0.2,0.2h0.2l-0.2,0.3l0,0l-0.3,0.3l0.1,0.6l-0.1,0.1
		l1.9,3.6l2,1.5l-1.5,11l0.2,0.3l0.2-0.7l0.1-0.2l0.1,0.2l-0.1,1.7l-0.2,0.1v0.3l-0.2-0.1l0.1-0.3l-0.2-0.3l0.1,0.3l-0.4,0.3v0.2
		l-0.2,0.3h0.5v0.2l-0.1,0.3h0.3v0.2h-0.4l-0.2,0.2l0.1,0.2l0.2-0.1h0.1l-0.4,0.4l0.2,0.3l0.3-0.3l-0.1,0.6l-0.2,0.3v0.4l0.4-0.1
		l0.1,0.1l-0.2,0.2h0.2h0.1l0.2,0.1l-0.3,0.2l-0.1,0.2l0.3-0.1h0.5l-0.6,0.3v0.1l0.7-0.2l-0.5,0.4h-0.4v0.3l0.5,0.2l-0.1-0.1
		l0.7-0.8l-0.1,0.4h0.3l-0.2,0.2v0.3l-0.1-0.3l-0.1,0.3l-0.2-0.1l-0.3,0.3l0.3,0.1l0.2,0.4l0.1-0.3l0.3,0.4l0.1-0.1l0.4,0.3v-0.3
		l1.1-0.2l-1.1-0.8v-0.2l-0.1-0.2l0,0l-0.3-0.2v-0.1h0.3l-0.2-0.7l0.1-0.4l1.1-1.3l0.1-0.4l-0.4-0.1l-0.3-0.6l0.6-0.4l0.4-1.2
		l0.2,0.1l0.1-0.3l-0.3,0.1l-0.2-0.1l-0.1-0.7l0.6,0.2l0.4-0.2v-0.7l0.1-0.2l0.9-0.1l0.7-0.4l0.3-0.5l-0.6-1.1h0.1l0.6,0.2l0.8-0.1
		l1.1-2v0.5l0.8-1.2l0.2-1.5l1.4-1l0.9-0.1l1-2.2l0.1-2l0.1-0.1l0.2,0.1l1.1-1.7l-0.1-1.2l-0.3-0.2L289,103.9z M277.3,127L277.3,127
		z"/>
	<polygon class="st6" points="275.4,93.7 273,92.5 271.8,93.1 272.4,92.7 274,93.5 274.2,93.8 275.4,93.7 	"/>
	<polygon class="st6" points="273.9,94.5 274.6,94.7 273.9,94.5 	"/>
	<polygon class="st6" points="277.9,94.5 278.5,94.5 277.9,94.5 	"/>
	<polygon class="st6" points="269.4,102.1 269.6,102.5 269.4,102.1 	"/>
	<polygon class="st6" points="294,66.8 292.6,66.8 292.7,66.2 294,66.6 294.1,66.1 293.2,65.2 293.8,65.2 294.1,64.8 293.2,64.8 
		293.1,64.5 293.2,64.2 294,64.4 294.6,64.3 294.1,63.8 294.9,63.7 295,63.4 294.4,62.9 295,62.8 294.8,62 294.2,61.9 293.9,61.6 
		295.4,61.5 295.2,61 294.6,60.9 295.1,60.8 294.1,60.7 294.3,59.9 295.5,58.9 295.3,58.6 294.7,58.8 295.1,58.5 296,58.3 
		295.4,58.1 297.6,57.1 296.4,56.8 295.7,57.2 294.9,57.2 294.6,57.1 293.3,58.1 293.9,57.3 293.7,56.7 292.1,57.5 292.8,56.9 
		290.2,57.2 294.2,56.2 288.6,55.5 288,55.8 285.3,56 285.6,56.3 285,56.6 285.9,57.2 283.7,56.6 284.1,57.1 283.7,57.2 283,56.8 
		283,57.3 282.7,57.6 282.5,56.8 280,57.5 280.1,58.1 279.4,58 277.8,59.1 278.7,59.2 278.4,59.9 276,60.8 276.2,61.1 278.2,61.6 
		276.4,61.9 277.1,62.1 277.1,62.4 277.5,62.6 279.3,62.4 281,63.1 282.3,65.1 282.1,65.7 282.2,66.2 282.8,65.9 282.9,66.3 
		283.6,66.7 283.4,66.8 282.5,66.8 283.4,67.3 283.8,67.7 283.7,68.2 283.2,68.3 282.7,69.2 283,69.5 282.7,69.9 283.2,70.4 
		283.3,71.1 284.1,72.6 286.3,73.9 286.5,73.6 286.7,72.3 287.3,71.5 287.3,71.2 287.4,71 287.4,70.7 287.4,70.5 288.2,69.8 
		288.4,69.8 288.5,70 289.1,69.8 290.4,68.5 293.9,67 294,66.8 	"/>
	<polygon class="st6" points="283.3,67.6 283,67.3 282.4,67.2 282.3,67.5 282.7,67.8 283.3,67.6 	"/>
	<polygon class="st6" points="269.1,63.8 270.1,64.1 270.3,64 273.2,64 273.5,63.4 270,63.2 270.1,62.8 268.4,62.3 267.5,62.5 
		269.1,63.2 269.1,63.8 	"/>
	<polygon class="st6" points="273.4,73.2 273.5,72.8 273.4,73.2 	"/>
	<polygon class="st6" points="265.5,67.9 266,67.9 264.9,67.1 264.6,65 264,65.2 264.4,65.6 263.9,65.4 263.5,65.4 263.8,66.4 
		263.5,66.6 263.3,66 262.6,65.7 262.9,66 262.5,66.1 261.8,65.7 261.6,66.1 261.4,65.9 261.4,65.5 259.9,66.2 259.8,66.5 260.1,67 
		260.9,66.8 260,67.3 262.2,67.7 260.3,68.1 262.3,69 263.9,68.4 265.7,68.6 265.5,68.2 265.2,68.2 265.5,67.9 	"/>
	<polygon class="st6" points="272.1,72.9 272.7,72.4 272.1,72.9 	"/>
	<polygon class="st6" points="282,79 281.8,78.8 280.8,80.9 282.1,80.8 282,81.1 282.4,81 283,81.1 282.8,80.6 282.7,80.5 
		282.7,80.1 282.1,79.9 282,79.7 281.7,79.7 281.7,79.4 282,79 	"/>
	<polygon class="st6" points="278.9,79.8 279.9,80.2 278.9,79.8 	"/>
	<polygon class="st6" points="273.2,71.8 271.6,70.6 271.2,70.9 270.8,72 271.3,71.9 271.4,72.3 272,71.9 273.2,71.8 	"/>
	<polygon class="st6" points="265.1,63.9 264.8,63.7 265.1,63.9 	"/>
	<polygon class="st6" points="275,69.4 275,68.8 274.6,68.7 274.3,69.3 275,69.4 	"/>
	<polygon class="st6" points="266.6,66.7 267.2,66.5 267.7,65.5 267.5,65.5 267.4,65.7 267,65.5 267.4,65 267.2,64.7 265.9,65.2 
		266.3,65.6 265.6,65.5 266.6,66.7 	"/>
	<polygon class="st6" points="258.3,67.3 261,65.3 260.5,64.9 258.9,64.6 257.8,64.8 258,65.2 257.4,66.4 258.3,67.3 	"/>
	<polygon class="st6" points="269.9,61.7 269.5,62 269.9,61.7 	"/>
	<polygon class="st6" points="259.7,63.7 260.2,63.3 259.7,63.7 	"/>
	<polygon class="st6" points="254.9,78.3 255.4,79.1 255.2,78.5 254.9,78.3 	"/>
	<polygon class="st6" points="268.7,61.6 267.7,61.8 268.7,61.6 	"/>
	<polygon class="st6" points="276.4,66.4 275.9,66.5 274.3,65.5 273.9,65.9 273.7,65.8 273.1,66 273.1,65.3 272.9,64.9 272.2,64.9 
		271.4,65.3 271.5,65.8 271.4,66.2 271.7,66.5 271.1,66.3 271.1,65.8 271.3,65.2 271.6,64.8 270.2,65.2 269.9,66.6 270.6,66.8 
		270.6,67 270,67 272.6,67.7 272.9,67.5 273.7,67.6 273.7,67.4 273.7,67.2 274.9,68.1 274.5,68.4 275.1,68.2 275.9,69 275.9,69.7 
		276.5,69.6 277,69.9 276.5,70.2 275.6,69.8 275.6,70.5 274.3,70.9 274.1,71.4 275.7,71.3 276.1,71.7 276.3,72.2 278.3,72.9 
		277.3,71.8 278.8,72 277.7,70.4 277.8,69.9 278.3,70.1 278.8,70.7 279.5,70.3 280,69.8 277.6,68.2 278,68.1 277.6,67.8 277.9,67.6 
		277.7,67.3 277.4,67.5 277.5,67.1 276.7,66.8 276.2,66.9 276.1,66.8 276.4,66.4 	"/>
	<polygon class="st6" points="273.1,64.8 273.3,65.3 273.8,65.4 274.6,65.3 273.8,64.8 273.1,64.8 	"/>
	<polygon class="st6" points="262.9,61.7 262.7,61.5 261.8,61.9 262.3,62.2 262.9,61.7 	"/>
	<polygon class="st6" points="264.7,60.7 265.2,61 264.6,61.1 266.6,61.4 266.5,61 265.7,60.5 264.5,60.3 264.7,60.7 	"/>
	<polygon class="st6" points="261.6,61.8 261.1,61.7 261.6,61.8 	"/>
	<polygon class="st6" points="264.8,62.2 264.3,61.7 264.8,62.2 	"/>
	<polygon class="st6" points="260.8,63.1 260.9,63.4 260.6,63.7 260.9,63.7 260.3,64 261.2,64 261.5,63.9 262.2,63.9 261.7,64.3 
		261.6,64.6 264.1,64 264.3,63.2 263.9,63.4 263.3,62.6 262.9,63 262.9,63.3 263.2,63.6 261.2,62.8 260.8,63.1 	"/>
	<polygon class="st6" points="258.5,63.5 259.1,63.2 259.3,63.5 260,62.7 260.1,63 260.7,62.8 260.7,62.5 261,62.2 260.7,62.1 
		260.5,62.2 260,62.2 258.4,63.3 258.5,63.5 	"/>
	<polygon class="st6" points="262.1,61.3 263.1,61.2 262.4,61 261.7,61.3 262.1,61.3 	"/>
	<polygon class="st6" points="267.7,59.8 268,60.2 269,60.2 268.4,60.5 269.7,61.2 270.2,61.2 270.9,60.3 271.5,60.1 270.8,59.7 
		270.7,59.3 268.4,58.3 268.4,58.5 267.9,58.9 268,59.3 267.7,59.8 	"/>
	<polygon class="st6" points="267.5,61.5 268.1,61.4 268.1,61.1 267,60.7 267.5,61.5 	"/>
	<polygon class="st6" points="266.8,59.8 266.4,59.6 266.8,59.8 	"/>
	<polygon class="st6" points="268.4,63.5 267.5,63.9 268.6,64.2 268.4,63.5 	"/>
	<polygon class="st6" points="266.2,62.5 266.3,62.9 265.9,62.8 265.8,63.1 265.5,63.1 265,62.5 264.9,63 265.5,63.5 266.3,63.4 
		266.2,63.9 267,63.9 267.3,63.6 267.2,63.2 266.8,62.6 266.2,62.5 	"/>
	<polygon class="st6" points="269.5,57.9 269.7,58 269.9,58.1 269.8,58.4 270.1,58.6 271,58.7 271.1,58.8 273.6,58.4 273.6,58.7 
		272.4,59 272.9,59.6 271.2,59.1 271.2,59.8 272.5,60.7 271.6,60.5 270.7,61 271.5,61 271.4,61.3 271.8,61.8 271.4,61.7 270.8,61.4 
		270.7,62 270,62.5 273.9,62.4 274.1,62.1 273,62 273,61.7 273.9,61.7 273.9,61.3 274.6,61.2 275.3,60.3 274.4,60.1 275.1,59.9 
		275.6,59.5 276.3,59.5 278.9,57.8 277.8,57.8 279.7,57.2 279.8,56.8 278.9,56.4 278,56.6 278.2,56.3 271.4,57.1 270.8,57.6 
		270.3,57.5 270,57.8 269.3,57.8 269.5,57.9 	"/>
	<polygon class="st6" points="243.8,78.3 244.3,78.1 243.8,78.3 	"/>
	<polygon class="st6" points="247.9,76 247.5,76.4 247.3,76.5 247.4,76.8 247.6,76.8 248.1,76.4 247.9,76.2 248.2,76.1 248.1,75.9 
		247.9,76 	"/>
	<polygon class="st6" points="243.3,75 243,75.1 243.4,75.3 243.5,75 243.3,75 	"/>
	<polygon class="st6" points="303.1,84.3 302.8,84.4 303.1,84.3 	"/>
	<polygon class="st6" points="311.2,86.1 310.4,86.1 310.2,86.2 310.7,86.3 311.2,86.1 	"/>
	<polygon class="st6" points="313.9,86.2 314.1,86 314.1,85.9 313.6,86.1 313.4,86.4 313.9,86.2 	"/>
	<polygon class="st6" points="296.5,70.8 297,70.3 296.6,69.5 296.4,69.5 296,69.3 296,69.6 295.4,69.7 295.2,69.6 295,69.8 
		294.9,69.7 294.7,69.8 294.6,70 294.4,70.2 294.3,69.8 293.8,69.4 293.8,69.7 293.7,69.7 293.5,69.8 293.3,70 294,70.1 294,70.3 
		293.4,70.6 293.9,70.6 294.1,70.8 293.8,71.2 294.3,71.2 294.9,71.4 296.5,70.8 	"/>
	<polygon class="st6" points="298.6,78.4 299.6,77.9 299.6,76.9 299.9,76.7 299.7,76.3 298.8,76.5 299,76.7 298.7,76.8 298.3,76.8 
		298.5,77.4 298.5,77.8 298.2,78.1 298.6,78.4 	"/>
	<polygon class="st6" points="299.6,74.4 299.4,74.8 299.6,74.4 	"/>
	<polygon class="st6" points="299.6,74.9 299.8,75.2 299.7,75.5 299.9,75.7 299.6,76 299.8,75.8 300,76.1 300.2,75.8 300.2,76.1 
		300.1,76.5 300.6,76.4 300.8,76.9 300.8,77.3 300.5,77.3 300.3,77.4 300.2,77.6 300.4,77.8 300.1,78.1 300.2,78.2 300.8,78.3 
		300.9,78.4 300.5,78.5 300,79.2 300.3,79 300.5,79 300.7,78.8 301.2,78.7 301.5,78.8 302.4,78.4 302.3,78.3 302.3,78.1 302.6,77.7 
		302,77.5 302,77.3 301.2,75.9 300.8,75.8 301.3,74.8 300.6,74.8 300.5,74.7 300.7,74.3 300.8,74.1 300.6,74.3 300.2,74.3 299.8,75 
		299.6,74.9 	"/>
	<polygon class="st6" points="306.1,76.4 306.4,76.1 306.5,75.7 306.4,75.8 306.2,75.7 306,75.8 306.1,76.1 306,76.3 306.1,76.4 	
		"/>
	<polygon class="st6" points="308.6,74.5 308.4,75 308.6,74.5 	"/>
	<polygon class="st6" points="310,73.8 309.8,73.8 310,73.8 	"/>
	<polygon class="st6" points="309.7,74.3 310.1,74 309.9,74 309.7,74.3 	"/>
	<polygon class="st6" points="308.4,58.3 309.8,58.3 309,58.6 310.3,58.9 311.6,58 310.4,57.8 310.2,58 310,57.7 309.9,58.1 
		309.6,57.9 309.3,57.9 309,57.7 309,57.9 308.7,57.8 308.7,58 308.5,57.8 308.3,58 308.5,58.1 308.4,58.3 	"/>
	<polygon class="st6" points="306,59.7 306.2,59.9 305.7,59.3 306,59.7 	"/>
	<polygon class="st6" points="306.3,59 306.1,59.3 306.4,59.8 306.9,59.8 307.3,59.3 307.4,59.5 307.7,59.5 307.8,59.6 306.8,60.1 
		307.1,60.2 307.9,60.2 306.9,60.5 307.2,60.8 307.6,60.9 307.4,61 307.7,61.2 307.9,61.1 308.8,59.5 309.2,59.4 309.3,59.5 
		309.3,59.8 309.5,59.9 309.4,60.3 309.7,60.4 309.9,60.6 310.7,60.1 310.1,59.9 310.1,59.8 309.8,59.7 309.6,59.5 309.5,59.2 
		308.6,58.9 308.5,58.6 308.2,58.7 308.3,58.5 307.9,58.3 307.7,58.1 307.6,58.5 307.8,59.1 307.2,58.4 307,58.8 306.9,58.8 
		306.6,58.6 307,58.5 306.8,58.4 306.2,58.4 305.9,58.6 305.9,59 306.3,59 	"/>
	<polygon class="st6" points="353.1,81.3 352.8,81.5 352.6,81.9 352.6,82.3 353,82.1 352.7,81.8 353.6,81.9 354.4,81.5 355,80.8 
		354.3,81 353.5,80.4 353.2,80.5 353.1,81.3 	"/>
	<polygon class="st6" points="348.9,86.3 348.7,86.6 348.9,86.4 349.1,87.3 349.5,86.6 349.5,86.4 349.2,86.2 348.9,86.3 	"/>
	<polygon class="st6" points="351.3,84.7 351,85.1 349.8,85.3 349.3,85.8 349.3,86 350.6,85.6 350.8,86 351.2,86 351.3,85.7 
		351.4,85.6 352.2,85.6 352.4,85.3 352.7,85.3 352.9,84 353.3,83.6 353.1,82.5 352.6,82.6 352.4,83.8 351.8,84.5 351.6,84.3 
		351.3,84.7 	"/>
	<polygon class="st6" points="350,86.4 350.3,86.3 350.6,85.9 350.2,85.9 349.9,86 349.8,86.6 350,86.4 	"/>
	<polygon class="st6" points="345.4,91.4 345.8,90.1 345.2,90.7 345.4,91.4 	"/>
	<polygon class="st6" points="341.5,93 341.7,92.5 341.3,92.5 340.9,93 341.5,93 	"/>
	<polygon class="st6" points="347.1,96.9 346.7,97.3 346.4,97.2 346,97.5 345.8,97.9 346.4,97.6 346.7,98.3 347.1,98.5 347.1,98 
		347.5,97.8 347.4,96.9 347.1,96.9 	"/>
	<polygon class="st6" points="345,94 345.2,94.9 346.4,95.4 346.8,96.5 347.1,96.2 347,95.7 346.3,95 345.8,94.9 345.6,94.5 
		345.9,93.9 345.8,93.1 345.3,93.1 345.2,94 345,94 	"/>
	<polygon class="st6" points="345.2,95.2 345.6,95.7 345.2,95.2 	"/>
	<polygon class="st6" points="344.5,96.7 344.1,97.3 344.8,96.6 344.9,96.2 344.5,96.7 	"/>
	<polygon class="st6" points="346.8,96.7 346.5,96.9 346.8,96.7 	"/>
	<polygon class="st6" points="346.4,96.3 345.8,95.8 345.8,96.4 346,96.3 346.1,97.1 346.5,96.4 346.4,96.3 	"/>
	<polygon class="st6" points="356.9,102.7 356.4,103 355.6,103 356.2,103.3 357,102.9 357.1,102.5 356.9,102.7 	"/>
	<polygon class="st6" points="357.4,102.6 357.3,102.2 357.1,102.2 357.4,102.6 	"/>
	<polygon class="st6" points="355.3,103.2 351.6,101.4 350.7,102.1 350.3,101.1 349.4,101 349.1,101.3 349.3,101.4 349.5,101.7 
		350.1,101.7 350.1,101.8 349.5,101.9 349.8,102.3 351.8,103 352,103.5 352,103.8 351.6,104.2 352.5,104.1 353.3,104.6 353.9,104 
		354.7,104.2 355.5,105 356.3,105.1 356.3,104.9 355.6,104.4 355.3,103.5 355.3,103.2 	"/>
	<polygon class="st6" points="330.8,97.1 330.7,98 330.9,98.6 331.4,98 330.8,97.1 	"/>
	<polygon class="st6" points="319.4,106.2 319.3,106.3 319.2,106.6 318.8,107 318.8,107.2 317.6,107.9 317.3,111 317.5,111.8 
		318.1,111.9 318.5,111.8 319.6,107.7 319.8,107.7 319.4,106.2 	"/>
	<polygon class="st6" points="321,96.1 321.4,96 321,96.1 	"/>
	<polygon class="st6" points="354.9,118.9 354.2,118.8 354.4,119.6 354.9,120.2 355.1,120.1 355.2,119.8 355.4,119.9 355.5,118.8 
		354.9,118.9 	"/>
	<polygon class="st6" points="348.8,105.7 349.3,105.6 348.8,105.7 	"/>
	<polygon class="st6" points="351.1,116.4 351.6,116.4 351.1,116.4 	"/>
	<polygon class="st6" points="357.5,112.7 357.4,111.7 356.6,110.8 356.5,110.3 356.3,110.2 356.1,110.2 355.8,109.3 354.9,108.8 
		354.2,106.8 353.9,106.8 353.5,105.2 353.2,105.5 352.9,107.7 352.6,108.2 350.9,107 350.9,106.5 351.1,106.3 351.3,106 
		351.2,105.8 351,105.9 350.9,105.7 350.6,105.9 349.6,105.4 349.7,105.7 349.1,105.9 348.6,106.7 348.6,107 348.2,107.1 
		347.6,106.6 347.4,106.7 347.3,106.9 347,106.9 346.9,107.1 346.7,107.2 346.6,107.7 346.4,107.6 346.4,107.9 346.3,108.2 
		346.2,107.8 345.9,108 345.9,108.5 345.3,109.1 343.1,110 342.9,110.3 342.9,110.1 342.7,110.4 342.6,111.5 342.8,112.1 
		342.6,111.8 342.7,112.1 342.5,111.9 343.5,114.6 343.4,115.1 343.2,115.5 343.3,115.7 343.5,116 344.3,116.1 349.2,114.4 
		350.3,114.8 350.3,115 350.6,115.4 350.7,115.8 351.7,115 351.3,115.9 351.6,115.9 351.9,115.8 351.8,116.2 352.1,116.2 
		352.6,117.3 353.7,117.8 354.2,117.5 354.3,117.5 354.4,117.7 354.5,117.6 354.9,117.9 355.4,117.4 356.2,117.2 357.5,112.7 	"/>
	<polygon class="st6" points="362.8,121.9 363,121.8 362.8,121.9 	"/>
	<polygon class="st6" points="319.3,67 320,66.8 319.6,66.5 319.3,67 	"/>
	<polygon class="st6" points="320.7,64.9 320.8,65.2 320.9,65.1 321.7,65.6 322.6,65.6 322.1,65.1 322,64.2 323,62.6 326.8,60.5 
		322.3,61.9 321.9,62.8 321.6,63 321.5,63.5 320.9,63.9 321,64.2 320.4,64.7 320.7,64.9 	"/>
	<polygon class="st6" points="335,56.3 334.5,56.4 335,56.3 	"/>
	<polygon class="st6" points="353.9,62.7 353.4,62.2 352.8,62.5 353.9,62.7 	"/>
	<polygon class="st6" points="353,61.9 352.7,62.1 353,61.9 	"/>
	<polygon class="st6" points="335.9,57.5 335.6,57.8 337.3,58.4 337.7,57.6 336.9,57.2 335.9,57.5 	"/>
	<polygon class="st6" points="337.6,59.1 339.8,58.5 339.3,58.1 338.8,58.3 338.8,58 338.6,57.8 338.2,58 338.1,58.3 337.8,58.5 
		337.6,59.1 	"/>
	<polygon class="st6" points="351.9,61.5 353.5,61.3 353.4,60.8 354.1,61.3 354.4,60.9 354.3,60.5 353.5,60.4 353,60.6 352.3,60.2 
		351.6,61.2 351.9,61.5 	"/>
	<polygon class="st6" points="353.8,76 353.5,75.5 353.3,79.9 353.5,79.7 353.9,80 353.5,79.1 353.7,78.4 354.1,78.4 354.2,78.3 
		353.8,76 	"/>
	<polygon class="st6" points="342.3,62 342,62.2 342.7,62.1 342.3,62 	"/>
	<polygon class="st6" points="355.9,61.4 356.7,61.2 355.2,60.8 354.9,61.1 355.9,61.4 	"/>
	<polygon class="st6" points="335.3,57.2 335.2,57.3 335,57.5 335.3,57.7 336.7,57 336.8,56.7 336.4,56.1 335.5,56.6 335.3,56.9 
		335.3,57.2 	"/>
	<path class="st6" d="M370.6,67.9l0.4,0.1l-0.1-0.1h0.1h0.2l0.2-0.3l-1.2-0.6h-0.5L370,67l0,0.3l-0.2-0.1v-0.4l-0.1-0.2l-5.4-1.8
		l-0.1,0.3l0.2,0.3l-0.1,0.4l-0.9-0.4l0.5-0.2l-0.5-0.2l-0.4,0.4h-2.1l-0.1,0.4l-0.1-0.4l-0.5-0.2l0.1-0.3l-0.6-0.6l-2.3,0.1
		l-0.1-0.2l-1.1-0.4v-0.1l0.3-0.2l-1.2-0.2l-0.2,0.4h-0.4l0.3-0.2l-0.4-0.1l0.2-0.1h0.3l-2-0.3l-0.1,0.2l-0.7,0.4h0.3l-0.1,0.2
		l0.1,0.3h-0.6l-0.1,0.1v0.2L351,64l-0.4,0.2l-0.8-0.2l-0.4,0.8l-0.2-0.1l-0.9-1h0.4l-0.2-0.9l-0.3-0.2h-0.6l-0.8-0.4l-0.4,0.4V63
		l-1.9,0l0.1-0.2h-1.9V63l-0.1-0.4l-0.2,0l-0.4,0.1l-0.4-0.2l-0.4,0.3l0.2,0.1l-1.6,0.6l0.1-0.3l2-1.2l0.2-0.2l0.4-0.2l0.2-0.3
		l-0.2-0.1l0.2-0.1l-0.1-0.4h-0.2l-0.1-0.3l-1.5-0.1l-0.2,0.2l-0.5,0.1l0.3-0.4l-1-0.1l0.5-0.2v-0.2l-0.7-0.2l-0.5,0.1l-0.6,0.7
		l0.1,0.2l-0.8,0.2l0.2,0.2l-1.1,0.1l0.1-0.2l-0.4,0.1H336l-0.6,0.2l0.2,0.2l-2.2,0.7l0,0.1l-0.1,0.1l0.1,0.1h-0.3l0.4,0.3h-0.3
		l0.3,0.3v0.2l-2.1,0.3l-0.1,0.7l0.5,0.3l0.2,0.4l-1.7-0.6l-0.2,0.2l0.4,0.2l-0.7,0.2l0.8,0.6l-0.1,0.1l-0.4-0.2h-0.6l0.1-0.7
		l-0.2-0.5l-0.2,0.6l-0.4,0.3l-0.1,0.3l0.4,0.6l-0.2,1.1h0.3l0.4-0.1l0.7,0.2l0.1,0.3l-0.2,0.3l0.4,0.3h-0.4l-0.2-0.3l0.1-0.3
		l-0.4-0.4l-0.6,0.2l0.1,0.6l-0.9,1.1h-1l-0.2-0.2l0.6,0.1l0.8-0.8l0.2-0.6l-0.3-0.3l0.1-1.2l-0.3-0.4l0.3-1l-1.1-0.2l-1.1,1.6
		l0.2,0.1l-0.2,0.8l0.4,0.2l0.1,0.3L327,67l-0.2,0.4l-3.6-1.4l0.1,0.3l0.5,0.3l0.2,0.3l-0.1,0.2l-0.4,0.2V67l-0.2-0.2l-0.5,0.3H322
		l-0.3,0.3h-0.5l0.3-0.5l-0.5,0.2l-0.1,0.2l-0.2-0.1l-1.6,0.7l-0.1,0.4l-0.6,0.1l-0.3-0.3v-0.3l0.6-0.2l-0.2-0.4l-0.9-0.2l0.2,0.4
		l-0.1,0.5l0.3,0.5l-0.1,0.3h-0.2l-0.1-0.1l-0.4-0.1l-0.9,0.6l0.2,0.7l-0.8-0.1l-0.4-0.3l-0.2,0.2l0.1,0.2l0.4,0.1v0.3l-0.3,0.1
		l-0.6-0.3l-0.3-0.5v-0.5l-1-0.8l2.3,0.7l1-0.6V68l-3.2-1.3l0.3-0.1l-0.2-0.1l-0.5,0.1l0,0h-0.4l-0.2-0.2h0.2l0.5-0.2l-0.2-0.2
		l-0.5-0.2L312,66v-0.2l-0.1-0.2l-0.4,0.6v-0.4l-0.6,0.6l0.1-0.3l0.2-0.3v-0.2l-0.2,0.2h-0.3l-0.1,0.2l-0.3,0.2l-0.1,0.4l-0.1-0.3
		l0.3-0.4l-0.4,0.1v0.3l-0.1,0.1h-0.3l0.2,0.2h-0.2l-0.2-0.1l-0.1,0.1l0.1,0.3l-0.1-0.1H309v-0.2h-0.3l-0.1,0.1v0.2l-0.1,0.1
		l-0.4,0.1l-0.2,0.3h0.2l0,0.2v0.1h-0.2l-0.1-0.1l-0.2,0.1l0.1-0.3l-1,0.9h0.1l1-0.4v0.2l-0.1,0.1l-0.1-0.1l-0.8,1.1l-0.1,0.3
		l-0.3,0.1l0,0.7l-0.5,0.1l0.2,0.2l-0.4,0.2l-0.4,0.6l-0.2-0.2v0.2l-0.5,0.3l0.2,0.2h-0.3L304,72h-0.1l-0.2,0.2l0.1,0.2l-0.1,0.7
		l0.2,0.1l0.3-0.1l0.1,0.1l-0.2,0.2h-0.1l-0.1,0.1v0.2h0.4L304,74l0.4,0.3l0.4,0.1l0.7-0.6l0.3-0.1l0.1-0.3l0.9,2.5h0.3l0.2-0.4h0.3
		l0.2-0.2l0.1,0.1L308,75h-0.1l0-0.9l0.7-0.9l-0.3-0.4l-0.3-0.1l0-0.5l0.6-1.2l0.9-0.7v-0.4l0.1-0.3l0.2-0.2l0.6-0.1l0.3,0.1
		l0.1,0.3l-1.4,1.6v1.4l1,0.4l1.4-0.4l0.2-0.3l-0.2,0.3l0.1-0.1l0.2,0.3l0.3,0.1l-2.1,0.5l-0.2,0.2l0.1,0.3l0.2,0.1l0.1,0.2l0,0v0.4
		l-0.3,0.2l-0.3-0.4l-0.3,0.2l-0.2,0.7l0,0v0.6l0.1,0.1l-0.1,0.2H309v0.1l-0.2,0.1l-0.2-0.3l-1.4,0.6l0,0l-0.2-0.1v-0.2l-0.7,0.4
		l-0.6-0.4l-0.2-0.3h0.4l-0.1-0.3h-0.2l0.1-0.3l0.2-0.1l-0.2-0.2v-0.6l-0.5,0.3v0.2L305,75l-0.2,0.3l0.4,1.5L305,77h-0.5v0.1
		l-0.5,0.1l-0.1,0.3h-0.2l-0.2,0.1l-0.5,0.7l-0.4,0.2l-0.8,1l-0.5-0.2l-0.2,0.2l0,0.4H301l-0.2-0.1h-0.4l-0.2,0.2v0.3l0.8,0.3
		l0.5,0.8l-0.2,1.2l-2.3-0.2l-0.3,0.2v3h0.8l0.4,0.5l0.1,0l1-0.2l0.9-1v-0.6l1-0.8l0.1-0.3v-0.1l0.3-0.4l0.6,0.2l1.1-0.7l2.5,2.3V85
		l0.4-0.6l-0.2-0.3l0.3-0.2h0.3l-2-2v-0.4l0.2-0.2h0.2l0.1,0.3l0.3,0.1l0.3,0.6l1.2,0.8l0.1-0.2l-0.1,0.2l0.1,0.8l0.2,0.3l0,0
		l0.2,0.3l0.6,0.2h-0.4l0.3,0.6l0.3,0.2l0-0.4h0.3l-0.2-0.2l0.1-0.1h0.3l-0.1-0.3h-0.3l0.1-0.2l-0.3-0.4l0.2-0.1h0.3l0.1-0.3
		l0.2,0.1l0.3-0.2l0.5,0.2l0.3-0.2l0.5-0.1l-0.3-0.3l-0.2-0.6l0.4-0.4v-0.2l0.4-0.6l0,0l0.5-0.7l0.4-0.1v0.3l0.6,0.1l-0.5,0.3
		l0.4,0.2v0.3l1.1-0.3l-0.4-0.1l-0.3-0.3l1.6-0.6l-0.4,0.3l0.1,0.2l-0.5,0.5l1.6,1.2l0.1,0.4l-0.1,0.1l-1.3,0.3l-1.3-0.4l-1.9,0.5
		l-0.2,0.3l-0.8,0.1l-0.1,0.3l0.1,0.1V85l0.4,0.4l0.2,0.1l0.2,0.3l0.8-0.3l0.5,0.3l0.4-0.1l0.3-0.3l0.3,0.1l0.3-0.1l-0.3,1.6
		l0.2,0.1l0,0v0.2v-0.2l-0.2-0.1l-0.3,1l-3.2-0.2l0,0l-1-0.4l-0.8,0.5l0,0.5l-1.2-0.2l-0.6-0.5l-1.1-0.2l-0.6-0.4l0.3-0.3l0.1-0.9
		l0-0.2l-3.4,0.2l-1.3,0.8l-1.4-0.3l-0.4,0.8l-0.5,0.3l-0.5,0.7v0.6l-2.6,4l0.3,1.1l-0.3,1.5L296,96v0.2v0.2l3.1,3.3l1.8-0.2
		l0.3,0.1l1.9-0.8l0,0l0.5,0.1l0.5,0.8l0.9-0.2l0.1,0.2l0.3,0.1l0.1,0.4l-0.1,0.4l0,0l-0.1,0.5l-0.1,0.1l0.1,0.2l-0.3,0.4l1.6,3
		l-0.1,0.4l0.2,0.8l-0.8,2.5l2.3,7.4l0.3,0.3l2.4-0.6l2.1-2.4l0.2-0.9l-0.1-0.2l1-0.8l-0.1-1.9l2.1-2.1l-0.7-3.6l4.5-7.4l-0.2-0.1
		l-2.5,0.5l-0.2-0.2l0,0.1l0-0.1l-0.2-0.1l0.2-0.2l-3.9-7.8l0.6,1l0.2-0.6l3.1,7l2.9-1.1l0.4-0.4l1-0.3l0.1-0.3l0.4-0.1l0.2-0.4
		l0.2-0.1l0.1-0.6l0.6-0.7v-0.2l-0.3-0.4l-0.6-0.2l-0.3-0.9l-0.4,0.6l-1.1,0.5h-0.1l-0.1-0.3v-0.6l-0.2,0.4l0,0l-0.9-2v-0.1l0.7-0.2
		l0.6,1l1.3,0.6l0.6-0.2l0.3,0.5l3.5,0.2l0.2,0.5l0.7,0.5h0.4l-0.5,0.2l0.8,0.7l0.5-0.7l1.7,6l0.7-0.7l0.6-2.6l2.1-1.9l0.1-0.4
		l1.5-0.7l1,2l0,0.7l0.1,0.2h0.4l0.3-0.4l0.2,0.2l1.5,5.7l1.1,0.8L339,99l-1.5-2l0.3-1.5l0.3-0.1l0.7,0.5l0.1,0.4h0.2v0.2h0.3
		l0.2,0.2l-0.1,0.4l0.2,0.2l0.5-0.7l0.7-0.3l0.3-0.6l-0.1-1l-1.2-2.1l0.7-0.9l0.6-0.1l0.2,0.5l0.1-0.2l1.2-0.8l1-0.1l1.2-1.2v-0.4
		l0.3-0.1l0.7-1.3l-0.5-0.2l0.4-0.2l-0.5-0.5h0.5l-0.7-1l-0.3-0.3l0.4-0.6l0.8-0.4l-0.2-0.3l-0.4-0.2l-0.5,0.4l-0.2-0.3l-0.4-0.1
		v-0.5l1.5-0.8l-0.3,0.9h0.3l0.7-0.4h0.2l0.4,0.2l-0.2,0.4l0.1,0.3l0.2,0.1l0.3-0.1h0.1l0.1,0.2l-0.1,1.3l1.1-0.4l0.1-0.2l-0.5-1.3
		l-0.3-0.3l0.1-0.4l0.6-0.5l0.1-0.5l0.5-0.5l0,0l0.3-0.2l0.4,0.3l2.4-2.8l0.7-2.8l-0.6-0.6h-0.3l-0.2,0.3h-0.2v-0.4l-0.2,0.3l0-0.4
		H351V75l3-2.7l2.5-0.2l0.5,0.2l-0.2,0.3l1.4-0.3l-0.1-0.1v-0.3l1-1.1l0.6-0.1l0.2,0.1l0.3-0.1l-0.2,0.4l0.2,0.2l-0.1,0.2l1.1-0.6
		l0.1-0.4l0.6-0.3v0.1l-2.6,2.9l-0.4,0.1l-0.5,1.5l0.4,2.5l0.6-0.6l0.1-0.4l0.3-0.2l0.3-0.1v-0.3l0.4-0.4l0.5-0.1l-0.1-0.4l0.3-0.5
		h0.3l-0.2-0.3l0.1-0.7h-0.2l0-0.4l0.6-0.9h0.3l0.1,0.1l0.4-0.4l0.1,0.4l0.4-0.2l0.9-0.1l0.3,0.3l0.1-0.3l2.5-1.5h0.7v-0.3l-0.8-1.1
		l-0.3-0.1l0.4-0.1l0.2,0.2h0.4l0.5-0.3l0.1-0.2l-0.1-0.2v-0.2l0.1-0.1h0.2v0.2l0.1,0.3l1,0.2l0.3,0.3l0.6,0.2h0.4l-0.2-0.2h0.2
		L370.6,67.9L370.6,67.9L370.6,67.9z"/>
	<polygon class="st6" points="327.9,63.5 327.5,63.3 327.3,63.6 327.9,63.5 	"/>
	<polygon class="st6" points="330.8,63.6 330.5,63.7 330.8,63.6 	"/>
	<polygon class="st6" points="274.1,91.7 274,91.8 274.2,92.2 274.1,91.7 	"/>
	<polygon class="st6" points="279.8,97.9 280.1,97.8 280.1,97.6 279.8,97.7 279.8,97.9 	"/>
	<polygon class="st6" points="340.7,102.1 340.5,102.2 340.7,102.1 	"/>
	<polygon class="st6" points="346.3,104.4 346.4,104.3 345,104.5 345.5,104.6 346.3,104.4 	"/>
	<polygon class="st6" points="344.1,104.3 343.8,104.3 343.6,104.6 344.1,104.6 344.6,104.4 344.1,104.3 	"/>
	<polygon class="st6" points="346.9,104.8 347,104.7 347.8,104.3 347.2,104.3 346.6,104.7 346.4,105.1 346.9,104.8 	"/>
	<polygon class="st6" points="348,102.1 349,102.4 348.8,102 348,102.1 	"/>
	<polygon class="st6" points="345.3,105.1 344.6,104.9 345,105 345.3,105.1 	"/>
	<polygon class="st6" points="347.3,102.2 347.7,102.3 347.3,102.2 	"/>
	<polygon class="st6" points="344.6,101.9 345,103.2 345.2,102.8 345.1,102.1 345.4,102.2 345.5,102.7 345.9,102.7 345.7,101.6 
		346.3,101.1 345.5,101.4 345.1,101 346.9,100.2 346.5,100.4 345.6,100.3 345.1,100.5 344.6,101.9 	"/>
	<polygon class="st6" points="348.1,100.2 347.8,100.1 348,101 348.3,100.3 348.1,100.2 	"/>
	<polygon class="st6" points="336.6,100.4 336.9,100.7 336.6,100.4 	"/>
	<polygon class="st6" points="337.1,101.4 337.3,101.7 337.1,101.4 	"/>
	<polygon class="st6" points="342.9,104.4 343.4,104.4 343,104.2 342.4,104.1 342.7,103.8 339.9,103.5 339.7,103.7 340,103.8 
		340.2,104 342.9,104.4 	"/>
	<polygon class="st6" points="340.9,100.6 341.8,102.2 342.1,102.3 342.5,102.2 343,102.5 343.5,102.4 344,100.8 344.6,100.4 
		344.1,99.1 344.8,98.7 344.5,98.4 344.2,98.3 343.9,98 343.3,98.8 343.1,98.9 342.8,98.9 342.5,99.5 342,99.7 341.7,100.2 
		341.1,100.1 340.9,100.6 	"/>
	<polygon class="st6" points="339.9,102.7 339.9,102.3 340.1,102.2 340.1,101.9 339.8,101.6 339.7,101.8 339.9,102 339.6,101.9 
		336,98.7 339.3,103.3 339.7,103.3 339.9,102.7 	"/>
	<polygon class="st6" points="307.2,84.9 306.7,84.9 306.4,85.1 307.2,85.6 307.5,85 307.2,84.9 	"/>
	<polygon class="st6" points="304.9,83.7 305.1,84.6 305.4,84.4 305.5,83.8 305.1,83.6 304.9,83.7 	"/>
	<path class="st1" d="M265.3,78.9c0,2.3-1.7,4.2-4,4.4c-2.2,0-4-1.8-4-4c0-0.1,0-0.1,0-0.2c0-2.3,1.7-4.2,4-4.4c2.2,0,4,1.7,4.1,3.9
		C265.3,78.8,265.3,78.8,265.3,78.9z"/>
	<path class="st1" d="M271.6,96.4c0,1.1-0.8,1.9-1.9,2c-1,0-1.9-0.8-1.9-1.9c0,0,0,0,0-0.1c0-1.1,0.8-1.9,1.9-2
		C270.8,94.4,271.6,95.3,271.6,96.4C271.6,96.3,271.6,96.4,271.6,96.4z"/>
	<path class="st1" d="M317.3,95.1c0,3.9-3,7.1-6.9,7.3c-3.8,0-6.9-3-6.9-6.8c0-0.1,0-0.1,0-0.2c0-3.9,3-7.1,6.9-7.3
		c3.8,0,6.9,3,6.9,6.8C317.3,94.9,317.3,95,317.3,95.1z"/>
	<path class="st1" d="M330.9,68.4c0,1.7-1.3,3.1-3,3.1c-1.6,0.1-2.9-1.2-3-2.8c0-0.1,0-0.1,0-0.2c0-1.7,1.3-3.1,3-3.1
		c1.6-0.1,2.9,1.2,3,2.8C330.9,68.3,330.9,68.4,330.9,68.4z"/>
	<path class="st1" d="M338.1,86.1c0,1.9-1.5,3.5-3.4,3.6c-1.9,0-3.4-1.5-3.4-3.3c0,0,0-0.1,0-0.1c0-1.9,1.5-3.5,3.4-3.6
		c1.8,0,3.4,1.4,3.4,3.3C338.1,86,338.1,86.1,338.1,86.1z"/>
	<path class="st1" d="M352.3,65.8c0,1.6-1.3,3-2.9,3.1c-1.6,0-2.9-1.2-2.9-2.8c0,0,0-0.1,0-0.1c0-1.6,1.3-3,2.9-3
		c1.6,0,2.9,1.2,2.9,2.7C352.3,65.8,352.3,65.8,352.3,65.8z"/>
</g>
<g id="freepik--Plant--inject-2">
	<ellipse class="st1" cx="340.1" cy="470.7" rx="26.5" ry="8.2"/>
	<ellipse class="st10" cx="340.1" cy="470.7" rx="26.5" ry="8.2"/>
	<path class="st11" d="M318.7,427.1c-3.2,5.4-4.9,11.6-4.8,17.9c0,15.3,9,27.7,20.1,27.7s20.1-12.4,20.1-27.7
		c0.1-6.3-1.6-12.5-4.8-18L318.7,427.1z"/>
	<path class="st11" d="M349.5,427.8c0.1,2.5-6.7,4.5-15.2,4.5s-15.6-2-15.7-4.4s6.7-4.5,15.2-4.5S349.4,425.3,349.5,427.8z"/>
	<path class="st12" d="M348.3,429.6c-2.6-1.5-7.9-2.5-14.1-2.5s-11.7,1.1-14,2.7c2.6,1.5,8,2.5,14.1,2.5S346,431.2,348.3,429.6z"/>
	<path class="st1" d="M296.7,296c0,0,1.9,3.5,0.2,6.8s-3.7,6.6-2.5,8.3s5,3.7,4.6,7.3s-5.4,10.6-2.3,14.5s8.3,3.7,8.5,8.1
		s-5,7.9-3.5,11.8s10,4.8,10,7.5s-3.3,5.6-0.6,8.5s15.7,10.5,17.6,7.4s5.6-11.7,3.1-23.9c-0.4-2-3.3-2.5-3.8-5.4s0.8-8.1-1.3-11
		s-8.7-3.9-9.1-6.2s2.5-7.9-0.4-11.4s-9.7-5.2-9.7-7.5s2.1-5.2-0.8-8.3S296.7,296,296.7,296z"/>
	<path class="st13" d="M306.7,320.4c4.3,13,11.9,30.7,14.9,39.2c3.7,10.4,7,17.9,8.6,28.2c0.8,4.8,1.4,22.4,1.8,39.8"/>
	<path class="st13" d="M297.8,297.3c0,0,3.5,2.9,6.6,15.5c0.2,0.8,0.4,1.7,0.7,2.6"/>
	<path class="st1" d="M361.5,319.6c-0.9,1.7-0.9,3.7-0.2,5.5c1.3,2.7,3,5.3,2,6.6s-4,3-3.6,5.8s4.3,8.5,1.8,11.6s-6.6,3-6.8,6.5
		s4,6.3,2.8,9.5s-8,3.8-8,6s2.6,4.5,0.5,6.8s-12.6,8.4-14.1,5.9s-4.5-9.4-2.5-19.1c0.3-1.6,2.7-2,3-4.3s-0.7-6.5,1-8.8s7-3.1,7.3-5
		s-2-6.3,0.3-9.1s7.8-4.1,7.8-6s-1.7-4.1,0.7-6.6S361.5,319.6,361.5,319.6z"/>
	<path class="st13" d="M353.6,339.2c-3.5,10.4-9.5,24.5-12,31.4c-3,8.3-5.6,14.3-6.9,22.6c-0.7,4.1-1.2,20.1-1.5,35"/>
	<path class="st13" d="M360.7,320.6c0,0-2.8,2.3-5.3,12.4c-0.2,0.7-0.4,1.3-0.6,2.1"/>
	<path class="st1" d="M304.5,366.6c0.7,1.4,0.8,3.1,0.1,4.6c-1.1,2.2-2.5,4.4-1.7,5.5s3.3,2.5,3,4.9s-3.6,7.1-1.5,9.7
		s5.5,2.5,5.7,5.4s-3.3,5.3-2.4,7.9s6.6,3.2,6.6,5s-2.2,3.7-0.4,5.7s10.5,7,11.8,4.9s3.8-7.8,2.1-16c-0.3-1.4-2.2-1.7-2.5-3.6
		s0.5-5.4-0.8-7.3s-5.8-2.6-6.1-4.2s1.7-5.3-0.3-7.6s-6.5-3.5-6.5-5s1.4-3.5-0.5-5.5S304.5,366.6,304.5,366.6z"/>
	<path class="st13" d="M311.1,382.9c2.9,8.7,7.9,20.5,10,26.2c2.5,6.9,4.7,11.9,5.8,18.9"/>
	<path class="st13" d="M305.2,367.4c0,0,2.4,1.9,4.4,10.4c0.1,0.5,0.3,1.1,0.5,1.7"/>
	<path class="st1" d="M375.9,363.1c-1,1.2-1.5,2.8-1.2,4.4c0.6,2.4,1.4,4.9,0.4,5.8s-3.8,1.7-4.1,4s1.9,7.7-0.7,9.8s-6,1.2-6.8,4
		s2,5.9,0.5,8.2s-7.2,1.6-7.6,3.3s1.3,4.1-0.9,5.6s-11.8,4.4-12.6,2.1s-1.9-8.5,1.6-16c0.6-1.3,2.5-1.1,3.3-3s0.7-5.4,2.5-7
		s6.3-1.2,6.9-2.6s-0.4-5.5,2-7.4s7.1-1.9,7.5-3.4s-0.6-3.7,1.8-5.3S375.9,363.1,375.9,363.1z"/>
	<path class="st13" d="M365.7,377.5c-4.8,7.8-12.4,18.1-15.7,23.2c-4,6.2-8.8,10.1-9.9,17c-0.3,2.1-0.6,6-0.9,10.4"/>
	<path class="st13" d="M375,363.8c0,0-2.7,1.4-6.7,9.1c-0.3,0.5-0.5,1-0.8,1.6"/>
</g>
</svg>
