<?xml version="1.0" encoding="utf-8"?>
<!-- Generator: Adobe Illustrator 24.0.2, SVG Export Plug-In . SVG Version: 6.00 Build 0)  -->
<svg version="1.1" id="圖層_1" xmlns="http://www.w3.org/2000/svg" xmlns:xlink="http://www.w3.org/1999/xlink" x="0px" y="0px"
	 viewBox="0 0 500 500" style="enable-background:new 0 0 500 500;" xml:space="preserve">
<style type="text/css">
	.st0{fill:#E3D1DC;}
	.st1{fill:#EBEBEB;}
	.st2{fill:#E0E0E0;}
	.st3{fill:#FAFAFA;}
	.st4{fill:#F5F5F5;}
	.st5{fill:#F0F0F0;}
	.st6{fill:#69A4A7;}
	.st7{opacity:0.7;fill:#FFFFFF;enable-background:new    ;}
	.st8{opacity:0.2;}
	.st9{fill:#FFFFFF;}
	.st10{opacity:0.1;enable-background:new    ;}
	.st11{opacity:0.3;fill:#FFFFFF;enable-background:new    ;}
	.st12{opacity:0.2;enable-background:new    ;}
	.st13{opacity:0.25;fill:#FFFFFF;enable-background:new    ;}
	.st14{opacity:0.8;fill:#FFFFFF;enable-background:new    ;}
	.st15{opacity:0.6;fill:#FFFFFF;enable-background:new    ;}
	.st16{opacity:0.4;fill:#FFFFFF;enable-background:new    ;}
	.st17{opacity:0.3;}
	.st18{opacity:0.35;fill:#FFFFFF;enable-background:new    ;}
</style>
<rect class="st0" width="500" height="500"/>
<g id="freepik--background-complete--inject-2">
	<rect y="382.4" class="st1" width="500" height="0.3"/>
	<rect x="416.8" y="398.5" class="st1" width="33.1" height="0.3"/>
	<rect x="322.5" y="401.2" class="st1" width="8.7" height="0.3"/>
	<rect x="396.6" y="389.2" class="st1" width="19.2" height="0.3"/>
	<rect x="52.5" y="390.9" class="st1" width="43.2" height="0.3"/>
	<rect x="104.6" y="390.9" class="st1" width="6.3" height="0.3"/>
	<rect x="131.5" y="395.1" class="st1" width="93.7" height="0.3"/>
	<path class="st1" d="M237,337.8H43.9c-3.1,0-5.7-2.6-5.7-5.7V60.7c0-3.1,2.6-5.7,5.7-5.7H237c3.2,0,5.7,2.6,5.7,5.7c0,0,0,0,0,0
		v271.4C242.7,335.2,240.2,337.8,237,337.8z M43.9,55.2c-3,0-5.5,2.4-5.5,5.5v271.4c0,3,2.4,5.5,5.5,5.5H237c3,0,5.5-2.4,5.5-5.5
		V60.7c0-3-2.4-5.5-5.5-5.5H43.9z"/>
	<path class="st1" d="M453.3,337.8H260.2c-3.2,0-5.7-2.6-5.7-5.7V60.7c0-3.1,2.6-5.7,5.7-5.7h193.1c3.1,0,5.7,2.5,5.7,5.7v271.4
		C459,335.2,456.5,337.8,453.3,337.8z M260.2,55.2c-3,0-5.5,2.4-5.5,5.5v271.4c0,3,2.4,5.5,5.5,5.5h193.1c3,0,5.5-2.4,5.5-5.5V60.7
		c0-3-2.4-5.5-5.5-5.5H260.2z"/>
	<rect x="142.4" y="264.2" class="st1" width="145.1" height="92.3"/>
	<rect x="142.4" y="264.2" class="st2" width="145.1" height="6.3"/>
	<circle class="st3" cx="283.4" cy="267.3" r="1.9"/>
	<circle class="st3" cx="277.2" cy="267.3" r="1.9"/>
	<circle class="st3" cx="270.9" cy="267.3" r="1.9"/>
	<rect x="223.4" y="290" class="st4" width="145.1" height="92.3"/>
	<rect x="223.4" y="290" class="st2" width="145.1" height="6.3"/>
	<path class="st3" d="M366.4,293.1c0,1-0.8,1.9-1.9,1.9s-1.9-0.8-1.9-1.9s0.8-1.9,1.9-1.9S366.4,292,366.4,293.1L366.4,293.1z"/>
	<path class="st3" d="M360.1,293.1c0,1-0.8,1.9-1.9,1.9s-1.9-0.8-1.9-1.9s0.8-1.9,1.9-1.9S360.1,292,360.1,293.1L360.1,293.1z"/>
	<path class="st3" d="M353.8,293.1c0,1-0.8,1.9-1.9,1.9c-1,0-1.9-0.8-1.9-1.9c0-1,0.8-1.9,1.9-1.9c0,0,0,0,0,0
		C353,291.2,353.8,292.1,353.8,293.1z"/>
	<path class="st1" d="M265.2,86.9h-0.4c0.2-0.9,0.2-1.7,0.3-2.6c0-7.9-6.5-14.4-14.4-14.4h-0.1c-3.1-5.3-9.8-7-15-4
		c-1.8,1-3.3,2.6-4.2,4.4c-1-0.3-2-0.4-3.1-0.4c-6.5,0-11.8,5.1-12.1,11.7c-4.8,3.7-5.8,10.6-2.2,15.4c2.1,2.7,5.3,4.3,8.7,4.4
		c0.9,0,1.8-0.1,2.6-0.3h37.7c0.7,0.2,1.4,0.3,2.2,0.3c4,0,7.2-3.2,7.2-7.2S269.2,86.9,265.2,86.9L265.2,86.9z"/>
	<path class="st1" d="M380.7,115.3h-0.3c0.1-0.7,0.2-1.3,0.2-2c0-6.1-4.9-11-11-11h-0.1c-2.3-4-7.5-5.4-11.5-3.1
		c-1.4,0.8-2.5,2-3.3,3.4c-4.9-1.3-10,1.6-11.3,6.5c-0.2,0.7-0.3,1.4-0.3,2.1c-3.7,2.8-4.5,8-1.8,11.7c1.6,2.1,4.1,3.4,6.8,3.4
		c0.8,0,1.6-0.1,2.3-0.3h28.3c2.9,1,6-0.4,7.1-3.3c1-2.9-0.4-6-3.3-7.1C382,115.4,381.3,115.3,380.7,115.3L380.7,115.3z"/>
	<path class="st1" d="M152.7,123.3h-0.3c0.1-0.7,0.2-1.3,0.2-2c0-6.1-4.9-11-11-11h-0.1c-2.3-4-7.5-5.4-11.5-3.1
		c-1.4,0.8-2.5,2-3.3,3.4c-4.9-1.3-10,1.6-11.3,6.5c-0.2,0.7-0.3,1.4-0.3,2.1c-3.7,2.8-4.5,8-1.8,11.7c1.6,2.1,4.1,3.4,6.8,3.4
		c0.8,0,1.6-0.1,2.3-0.3h28.3c2.9,1,6-0.4,7.1-3.3c1-2.9-0.4-6-3.3-7.1C154,123.4,153.3,123.3,152.7,123.3L152.7,123.3z"/>
	<path class="st2" d="M78.8,346.8l-1.3-1.8c-0.5-0.6-1.2-1-2-1h-8.8c-0.7,0-1.4,0.4-1.8,1l-1,1.8c-0.4,0.6-1.1,1-1.8,1h-5.3
		c-1.2,0-2.1,0.9-2.2,2.1c0,0.1,0,0.1,0,0.2l1.7,29.6c0.1,1.3,1.1,2.3,2.4,2.3h41.9c1.2,0,2.1-0.9,2.2-2.1c0-0.1,0-0.1,0-0.2
		l-1.7-29.5c-0.1-1.3-1.1-2.3-2.4-2.3H80.7C80,347.8,79.2,347.4,78.8,346.8z"/>
	<path class="st5" d="M102.8,350.6H64.4c-1.6,0-3,1.3-3.2,2.9l-2.3,25.6c-0.1,1.4,0.9,2.7,2.3,2.9c0.1,0,0.2,0,0.3,0H100
		c1.6,0,3-1.3,3.2-2.9l2.3-25.6c0.2-1.4-0.9-2.7-2.3-2.9C103,350.6,102.9,350.6,102.8,350.6z"/>
	<path class="st2" d="M417.7,347.2l-1.3-1.8c-0.5-0.6-1.2-1-2-1h-8.9c-0.7,0-1.4,0.4-1.8,1l-1.1,1.8c-0.4,0.6-1.1,1-1.8,1h-5.3
		c-1.2,0-2.1,0.9-2.2,2.1c0,0.1,0,0.1,0,0.2l1.7,29.6c0.1,1.3,1.1,2.3,2.4,2.3h41.9c1.2,0,2.1-0.9,2.2-2.1c0-0.1,0-0.1,0-0.2
		l-1.7-29.6c-0.1-1.3-1.1-2.3-2.4-2.3h-17.8C418.9,348.2,418.2,347.8,417.7,347.2z"/>
	<path class="st5" d="M441.7,351h-38.4c-1.6,0-3,1.3-3.2,2.9l-2.3,25.6c-0.1,1.4,0.9,2.7,2.3,2.9c0.1,0,0.2,0,0.3,0h38.4
		c1.6,0,3-1.3,3.2-2.9l2.3-25.6c0.2-1.4-0.9-2.7-2.3-2.9C441.9,351.1,441.8,351,441.7,351z"/>
	<path class="st2" d="M297,323.3l-1.3-1.8c-0.5-0.6-1.2-1-2-1h-8.9c-0.7,0-1.4,0.4-1.8,1l-1,1.8c-0.4,0.6-1.1,1-1.8,1h-5.3
		c-1.2,0-2.1,0.9-2.2,2.1c0,0.1,0,0.1,0,0.2l1.7,29.6c0.1,1.3,1.1,2.3,2.4,2.3h41.9c1.2,0,2.1-0.9,2.2-2.1c0-0.1,0-0.1,0-0.2
		l-1.7-29.6c-0.1-1.3-1.1-2.3-2.4-2.3h-17.9C298.2,324.3,297.5,323.9,297,323.3z"/>
	<path class="st5" d="M321,327.1h-38.4c-1.6,0-3,1.3-3.1,2.9l-2.3,25.6c-0.2,1.4,0.9,2.7,2.3,2.9c0.1,0,0.2,0,0.3,0h38.4
		c1.6,0,3-1.3,3.2-2.9l2.3-25.6c0.2-1.4-0.9-2.7-2.3-2.8C321.2,327.1,321.1,327.1,321,327.1z"/>
</g>
<g id="freepik--Shadow--inject-2">
	<ellipse id="freepik--path--inject-2" class="st4" cx="250" cy="416.2" rx="193.9" ry="11.3"/>
</g>
<g id="freepik--Script--inject-2">
	<path class="st6" d="M62,127h99.7c1.3,0,2.4,1.1,2.4,2.4v174.2c0,1.3-1.1,2.4-2.4,2.4H62c-1.3,0-2.4-1.1-2.4-2.4V129.4
		C59.6,128.1,60.6,127,62,127z"/>
	<path class="st7" d="M62,127h99.7c1.3,0,2.4,1.1,2.4,2.4v174.2c0,1.3-1.1,2.4-2.4,2.4H62c-1.3,0-2.4-1.1-2.4-2.4V129.4
		C59.6,128.1,60.6,127,62,127z"/>
	<rect x="66.7" y="149.7" class="st6" width="19.7" height="2.7"/>
	<rect x="66.7" y="155.7" class="st6" width="19.7" height="2.7"/>
	<rect x="136.7" y="149.7" class="st6" width="19.7" height="2.7"/>
	<rect x="100" y="137.3" class="st6" width="19.7" height="2.7"/>
	<rect x="66.7" y="132.7" class="st6" width="89.7" height="2.7"/>
	<rect x="76.7" y="164" class="st6" width="79.7" height="2.7"/>
	<rect x="66.7" y="169.3" class="st6" width="89.7" height="2.7"/>
	<rect x="66.7" y="174.7" class="st6" width="89.7" height="2.7"/>
	<rect x="66.7" y="180" class="st6" width="89.7" height="2.7"/>
	<rect x="66.7" y="185.3" class="st6" width="79.7" height="2.7"/>
	<rect x="76.7" y="195" class="st6" width="79.7" height="2.7"/>
	<rect x="66.7" y="200.4" class="st6" width="89.7" height="2.7"/>
	<rect x="66.7" y="205.7" class="st6" width="89.7" height="2.7"/>
	<rect x="66.7" y="211" class="st6" width="89.7" height="2.7"/>
	<rect x="66.7" y="216.4" class="st6" width="79.7" height="2.7"/>
	<rect x="76.7" y="226" class="st6" width="79.7" height="2.7"/>
	<rect x="66.7" y="231.4" class="st6" width="89.7" height="2.7"/>
	<rect x="66.7" y="236.7" class="st6" width="89.7" height="2.7"/>
	<rect x="66.7" y="242" class="st6" width="89.7" height="2.7"/>
	<rect x="66.7" y="247.4" class="st6" width="79.7" height="2.7"/>
	<rect x="76.7" y="258.1" class="st6" width="79.7" height="2.7"/>
	<rect x="66.7" y="263.4" class="st6" width="89.7" height="2.7"/>
	<rect x="66.7" y="268.7" class="st6" width="89.7" height="2.7"/>
	<rect x="66.7" y="274.1" class="st6" width="89.7" height="2.7"/>
	<rect x="66.7" y="279.4" class="st6" width="79.7" height="2.7"/>
	<rect x="136.7" y="294.8" class="st6" width="19.7" height="2.7"/>
	<g class="st8">
		<rect x="66.7" y="149.7" class="st9" width="19.7" height="2.7"/>
		<rect x="66.7" y="155.7" class="st9" width="19.7" height="2.7"/>
		<rect x="136.7" y="149.7" class="st9" width="19.7" height="2.7"/>
		<rect x="100" y="137.3" class="st9" width="19.7" height="2.7"/>
		<rect x="66.7" y="132.7" class="st9" width="89.7" height="2.7"/>
		<rect x="76.7" y="164" class="st9" width="79.7" height="2.7"/>
		<rect x="66.7" y="169.3" class="st9" width="89.7" height="2.7"/>
		<rect x="66.7" y="174.7" class="st9" width="89.7" height="2.7"/>
		<rect x="66.7" y="180" class="st9" width="89.7" height="2.7"/>
		<rect x="66.7" y="185.3" class="st9" width="79.7" height="2.7"/>
		<rect x="76.7" y="195" class="st9" width="79.7" height="2.7"/>
		<rect x="66.7" y="200.4" class="st9" width="89.7" height="2.7"/>
		<rect x="66.7" y="205.7" class="st9" width="89.7" height="2.7"/>
		<rect x="66.7" y="211" class="st9" width="89.7" height="2.7"/>
		<rect x="66.7" y="216.4" class="st9" width="79.7" height="2.7"/>
		<rect x="76.7" y="226" class="st9" width="79.7" height="2.7"/>
		<rect x="66.7" y="231.4" class="st9" width="89.7" height="2.7"/>
		<rect x="66.7" y="236.7" class="st9" width="89.7" height="2.7"/>
		<rect x="66.7" y="242" class="st9" width="89.7" height="2.7"/>
		<rect x="66.7" y="247.4" class="st9" width="79.7" height="2.7"/>
		<rect x="76.7" y="258.1" class="st9" width="79.7" height="2.7"/>
		<rect x="66.7" y="263.4" class="st9" width="89.7" height="2.7"/>
		<rect x="66.7" y="268.7" class="st9" width="89.7" height="2.7"/>
		<rect x="66.7" y="274.1" class="st9" width="89.7" height="2.7"/>
		<rect x="66.7" y="279.4" class="st9" width="79.7" height="2.7"/>
		<rect x="136.7" y="294.8" class="st9" width="19.7" height="2.7"/>
	</g>
</g>
<g id="freepik--data-2--inject-2">
	<path class="st10" d="M111,265.3h55.6c1.3,0,2.4,1.1,2.4,2.4v45.4c0,1.3-1.1,2.4-2.4,2.4H111c-1.3,0-2.4-1.1-2.4-2.4v-45.4
		C108.7,266.4,109.7,265.3,111,265.3z"/>
	<path class="st6" d="M118.5,274.8h55.6c1.3,0,2.4,1.1,2.4,2.4v45.4c0,1.3-1.1,2.4-2.4,2.4h-55.6c-1.3,0-2.4-1.1-2.4-2.4v-45.4
		C116.1,275.9,117.2,274.8,118.5,274.8z"/>
	<path class="st11" d="M118.5,274.8h55.6c1.3,0,2.4,1.1,2.4,2.4v45.4c0,1.3-1.1,2.4-2.4,2.4h-55.6c-1.3,0-2.4-1.1-2.4-2.4v-45.4
		C116.1,275.9,117.2,274.8,118.5,274.8z"/>
	<rect x="122" y="304" class="st6" width="12" height="6"/>
	<rect x="135" y="304" class="st6" width="34" height="6"/>
	<rect x="122" y="296" class="st6" width="12" height="7"/>
	<rect x="122" y="289" class="st6" width="12" height="6"/>
	<rect x="135" y="296" class="st6" width="34" height="7"/>
	<rect x="135" y="311" class="st6" width="34" height="7"/>
	<rect x="135" y="289" class="st6" width="34" height="6"/>
	<rect x="122" y="311" class="st6" width="12" height="7"/>
	<rect x="122" y="281" class="st6" width="12" height="7"/>
	<rect x="135" y="281" class="st6" width="34" height="7"/>
	<path class="st10" d="M128.3,178.6h55.6c1.3,0,2.4,1.1,2.4,2.4v45.4c0,1.3-1.1,2.4-2.4,2.4h-55.6c-1.3,0-2.4-1.1-2.4-2.4V181
		C125.9,179.7,127,178.6,128.3,178.6z"/>
	<path class="st6" d="M139.5,176.3h55.6c1.3,0,2.4,1.1,2.4,2.4V224c0,1.3-1.1,2.4-2.4,2.4h-55.6c-1.3,0-2.4-1.1-2.4-2.4v-45.4
		C137.1,177.3,138.2,176.3,139.5,176.3z"/>
	<path class="st11" d="M139.5,176.3h55.6c1.3,0,2.4,1.1,2.4,2.4V224c0,1.3-1.1,2.4-2.4,2.4h-55.6c-1.3,0-2.4-1.1-2.4-2.4v-45.4
		C137.1,177.3,138.2,176.3,139.5,176.3z"/>
	<rect x="176" y="183" class="st6" width="15" height="7"/>
	<rect x="160" y="183" class="st6" width="15" height="7"/>
	<rect x="160" y="190" class="st6" width="15" height="30"/>
	<rect x="176" y="190" class="st6" width="15" height="30"/>
	<rect x="144" y="183" class="st6" width="15" height="7"/>
	<rect x="144" y="190" class="st6" width="15" height="30"/>
	<path class="st10" d="M147.2,231.2h55.6c1.3,0,2.4,1.1,2.4,2.4V279c0,1.3-1.1,2.4-2.4,2.4h-55.6c-1.3,0-2.4-1.1-2.4-2.4v-45.4
		C144.8,232.3,145.9,231.2,147.2,231.2z"/>
	<path class="st6" d="M167.5,228h55.6c1.3,0,2.4,1.1,2.4,2.4v45.4c0,1.3-1.1,2.4-2.4,2.4h-55.6c-1.3,0-2.4-1.1-2.4-2.4v-45.4
		C165.1,229.1,166.2,228,167.5,228z"/>
	<path class="st11" d="M167.5,228h55.6c1.3,0,2.4,1.1,2.4,2.4v45.4c0,1.3-1.1,2.4-2.4,2.4h-55.6c-1.3,0-2.4-1.1-2.4-2.4v-45.4
		C165.1,229.1,166.2,228,167.5,228z"/>
	<rect x="196" y="235" class="st6" width="23" height="17"/>
	<rect x="172" y="235" class="st6" width="23" height="17"/>
	<rect x="172" y="253" class="st6" width="23" height="19"/>
	<rect x="196" y="253" class="st6" width="23" height="19"/>
	<path class="st12" d="M225,230.4V264h-20.7c-2.3,0.1-4.2-1.7-4.3-4c0-0.1,0-0.3,0-0.4V228h23.1C224.4,228,225,229.1,225,230.4z"/>
	<path class="st10" d="M148.5,131.5h55.6c1.3,0,2.4,1.1,2.4,2.4v45.4c0,1.3-1.1,2.4-2.4,2.4h-55.6c-1.3,0-2.4-1.1-2.4-2.4v-45.4
		C146.1,132.6,147.2,131.5,148.5,131.5z"/>
	<path class="st6" d="M158.5,122.5h55.6c1.3,0,2.4,1.1,2.4,2.4v45.4c0,1.3-1.1,2.4-2.4,2.4h-55.6c-1.3,0-2.4-1.1-2.4-2.4v-45.4
		C156.1,123.5,157.2,122.5,158.5,122.5z"/>
	<path class="st11" d="M158.5,122.5h55.6c1.3,0,2.4,1.1,2.4,2.4v45.4c0,1.3-1.1,2.4-2.4,2.4h-55.6c-1.3,0-2.4-1.1-2.4-2.4v-45.4
		C156.1,123.5,157.2,122.5,158.5,122.5z"/>
	<rect x="180" y="129" class="st6" width="19" height="5"/>
	<rect x="180" y="135" class="st6" width="9" height="31"/>
	<rect x="200" y="129" class="st6" width="10" height="5"/>
	<rect x="200" y="135" class="st6" width="10" height="31"/>
	<rect x="190" y="135" class="st6" width="9" height="31"/>
	<rect x="163" y="135" class="st6" width="16" height="31"/>
	<rect x="163" y="129" class="st6" width="16" height="5"/>
</g>
<g id="freepik--data-1--inject-2">
	<path class="st6" d="M312,239.7h68.1c2.6,0,4.7,2.1,4.7,4.7v68.1c0,2.6-2.1,4.7-4.7,4.7H312c-2.6,0-4.7-2.1-4.7-4.7v-68.1
		C307.3,241.8,309.4,239.7,312,239.7z"/>
	<rect x="317.4" y="249.8" class="st13" width="57.6" height="57.3"/>
	<polygon class="st13" points="317.4,307 332.1,295 336.9,298.8 352,286 359.5,293.3 375,280.3 375,307 	"/>
	<polygon class="st13" points="317.4,307 329.8,283.7 344.3,286 355.2,271.8 366.3,273.8 375,265.2 375,307 	"/>
	<polygon class="st13" points="317.4,307 346,303.5 355.3,298.8 365.3,299.8 375,295 375,307 	"/>
	<path class="st12" d="M377,240v8c-0.1,2.7-2.3,4.9-5,5h-56v23.5c-0.1,2.6-2.4,4.7-5,4.5h-4v-36.6c0-2.6,2.4-4.4,5-4.4H377z"/>
	<path class="st6" d="M217.6,173.9h68.1c2.6,0,4.7,2.1,4.7,4.7v68.1c0,2.6-2.1,4.7-4.7,4.7h-68.1c-2.6,0-4.7-2.1-4.7-4.7v-68.1
		C212.9,176,215,173.9,217.6,173.9z"/>
	<path class="st14" d="M241.5,182h20c0.5,0,0.9,0.4,0.9,0.9v11.3c0,0.5-0.4,0.9-0.9,0.9h-20c-0.5,0-0.9-0.4-0.9-0.9v-11.3
		C240.6,182.4,241,182,241.5,182z"/>
	<path class="st15" d="M230.4,210h15.9c0.5,0,0.9,0.4,0.9,0.9v8.2c0,0.5-0.4,0.9-0.9,0.9h-15.9c-0.5,0-0.9-0.4-0.9-0.9v-8.2
		C229.5,210.4,229.9,210,230.4,210z"/>
	<path class="st15" d="M257.1,210h15.9c0.5,0,0.9,0.4,0.9,0.9v8.2c0,0.5-0.4,0.9-0.9,0.9h-15.9c-0.5,0-0.9-0.4-0.9-0.9v-8.2
		C256.2,210.4,256.6,210,257.1,210z"/>
	<path class="st16" d="M249,231.1h7.5c0.5,0,0.9,0.4,0.9,0.9v6.8c0,0.5-0.4,0.9-0.9,0.9H249c-0.5,0-0.9-0.4-0.9-0.9v-6.8
		C248.2,231.4,248.5,231.1,249,231.1z"/>
	<path class="st16" d="M260.8,231.1h7.5c0.5,0,0.9,0.4,0.9,0.9v6.8c0,0.5-0.4,0.9-0.9,0.9h-7.5c-0.5,0-0.9-0.4-0.9-0.9v-6.8
		C259.9,231.4,260.3,231.1,260.8,231.1z"/>
	<path class="st16" d="M272.5,231.1h7.5c0.5,0,0.9,0.4,0.9,0.9v6.8c0,0.5-0.4,0.9-0.9,0.9h-7.5c-0.5,0-0.9-0.4-0.9-0.9v-6.8
		C271.6,231.4,272,231.1,272.5,231.1z"/>
	<path class="st16" d="M221.9,231.1h7.5c0.5,0,0.9,0.4,0.9,0.9v6.8c0,0.5-0.4,0.9-0.9,0.9h-7.5c-0.5,0-0.9-0.4-0.9-0.9v-6.8
		C221,231.4,221.4,231.1,221.9,231.1z"/>
	<path class="st16" d="M234.6,231.1h7.5c0.5,0,0.9,0.4,0.9,0.9v6.8c0,0.5-0.4,0.9-0.9,0.9h-7.5c-0.5,0-0.9-0.4-0.9-0.9v-6.8
		C233.8,231.4,234.1,231.1,234.6,231.1z"/>
	<g class="st17">
		<polygon class="st9" points="264,210 265,210 265,203 252,203 252,195 251,195 251,203 238,203 238,210 239,210 239,204 264,204 
					"/>
		<polygon class="st9" points="238,226 225,226 225,231 226,231 226,227 238,227 238,231 239,231 239,220 238,220 		"/>
		<polygon class="st9" points="265,227 265,220 264,220 264,227 252,227 252,231 253,231 253,228 264,228 264,231 265,231 265,228 
			276,228 276,231 277,231 277,227 		"/>
	</g>
	<path class="st12" d="M290,178.6V201h-54.9c-2.7-0.1-4.9-2.3-5.1-5v-22h55.7c2.4,0,4.3,1.9,4.3,4.2C290,178.4,290,178.5,290,178.6z
		"/>
	<path class="st6" d="M323.9,140.2H392c2.6,0,4.7,2.1,4.7,4.7V213c0,2.6-2.1,4.7-4.7,4.7h-68.1c-2.6,0-4.7-2.1-4.7-4.7v-68.1
		C319.2,142.3,321.3,140.2,323.9,140.2z"/>
	<rect x="329.1" y="150.3" class="st13" width="57.6" height="57.3"/>
	<rect x="335" y="185.5" class="st18" width="5.8" height="14.9"/>
	<rect x="335" y="185.5" class="st18" width="5.8" height="22.1"/>
	<rect x="345" y="175.1" class="st18" width="5.8" height="21.9"/>
	<rect x="345" y="175.1" class="st18" width="5.8" height="32.5"/>
	<rect x="355" y="181.5" class="st18" width="5.8" height="17.6"/>
	<rect x="355" y="181.5" class="st18" width="5.8" height="26.1"/>
	<rect x="365" y="172.5" class="st18" width="5.8" height="23.6"/>
	<rect x="365" y="172.5" class="st18" width="5.8" height="35.1"/>
	<rect x="375" y="158.7" class="st18" width="5.8" height="32.9"/>
	<rect x="375" y="158.7" class="st18" width="5.8" height="48.8"/>
	<path class="st12" d="M340,140v42.4c-0.1,2.6-2.2,4.7-4.8,4.6H319v-42.1c0.1-2.7,2.2-4.8,4.9-4.9H340z"/>
	<path class="st6" d="M260,87h68.1c2.6,0,4.7,2.1,4.7,4.7v68.1c0,2.6-2.1,4.7-4.7,4.7H260c-2.6,0-4.7-2.1-4.7-4.7V91.8
		C255.3,89.1,257.4,87,260,87z"/>
	
		<ellipse transform="matrix(0.1602 -0.9871 0.9871 0.1602 122.7543 395.8737)" class="st13" cx="294" cy="125.8" rx="25.4" ry="25.4"/>
	<path class="st13" d="M294,125.8l25,4.7c-2.6,13.8-15.9,22.8-29.7,20.2c-13.8-2.6-22.8-15.9-20.2-29.7c2.3-12,12.7-20.6,24.9-20.7
		V125.8z"/>
	<path class="st13" d="M294,125.8v25.4c-14-0.3-25.2-11.9-24.9-26c0.3-13.6,11.3-24.6,24.9-24.9L294,125.8z"/>
	<path class="st13" d="M294,125.8l-13.4-21.6c2-1.2,4.1-2.2,6.4-2.8c2.2-0.7,4.6-1,6.9-1L294,125.8z"/>
</g>
</svg>
